<?xml version="1.0" encoding="UTF-8" standalone="no"?>
<svg
   width="100%"
   height="100%"
   id="svgdata"
   style="overflow: visible"
   version="1.1"
   sodipodi:docname="jju-regions-map.svg"
   inkscape:version="1.2.2 (b0a8486, 2022-12-01)"
   xmlns:inkscape="http://www.inkscape.org/namespaces/inkscape"
   xmlns:sodipodi="http://sodipodi.sourceforge.net/DTD/sodipodi-0.dtd"
   xmlns="http://www.w3.org/2000/svg"
   xmlns:svg="http://www.w3.org/2000/svg">
  <sodipodi:namedview
     id="namedview143"
     pagecolor="#505050"
     bordercolor="#eeeeee"
     borderopacity="1"
     inkscape:showpageshadow="0"
     inkscape:pageopacity="0"
     inkscape:pagecheckerboard="0"
     inkscape:deskcolor="#505050"
     showgrid="false"
     inkscape:zoom="6.2134537"
     inkscape:cx="617.85284"
     inkscape:cy="438.08165"
     inkscape:window-width="1703"
     inkscape:window-height="980"
     inkscape:window-x="0"
     inkscape:window-y="25"
     inkscape:window-maximized="0"
     inkscape:current-layer="svgdata" />
  <defs
     id="svgdefinitions" />
  <g
     id="outlines"
     style="stroke: rgb(24, 25, 34); stroke-width: 1.125px;">
    <path
       id="E"
       d="m 655.85938,125.18945 -4.7793,5.03125 3.51953,6.28907 6.04101,0.25976 -1.75976,6.03125 -0.51172,1.75977 -6.28906,-7.04102 -3.00977,-6.78906 -14.59961,0.5 -7.80078,-4.78125 -7.28906,7.80078 -2.77148,6.53906 h -8.79883 l -9.06055,7.55078 -12.58008,8.80078 -10.06054,7.29883 -7.54883,4.02149 -1.00977,6.72851 -3.58008,2.14063 -4.03125,2.14062 -3.65039,-0.88086 -2.25976,1.82032 1.07031,5.59961 2.64062,0.88085 -0.25,3.5293 1.18946,3.89063 -9.61914,15.41015 -4.40039,6.16992 -2.00977,4.89844 1.25,5.04102 2.38867,24.90039 3.90039,8.42969 -1.8789,8.05078 -6.80078,3.76953 -4.26954,7.04883 -10.57031,7.55078 -5.60742,5.69726 -7.07227,-0.73828 -1.50976,3.78125 2.50976,1.50977 -2.00976,6.78906 -6.29102,2.26172 -12.32031,-2.26172 -12.70898,10.19141 -0.25,0.6289 -2.39063,-1.00976 -4.40039,1.89062 -1.13867,-1.50976 -4.90039,-2.52149 -12.19922,4.03125 -1.64063,-3.15039 -10.18945,-0.11914 -2.26172,-2.27148 -9.93945,0.89062 -1.63867,1.25 -3.14063,-0.5 -2.76953,7.55078 -5.28125,-2.52148 1.50977,-4.64844 -5.16016,-0.25 0.88086,-2.39062 4.2793,-1.50977 -2.88868,-0.75977 2.50977,-6.41015 -3.76953,-0.75977 -7.05078,9.3086 -5.91016,7.30078 -7.55078,4.40039 -11.12891,-0.57031 -6.09961,2.33007 -0.31054,-1.89062 h -1.39063 l -1.1289,-3.51953 -2.96094,-0.68946 0.13086,4.45899 -2.64063,1.32031 -1.07031,3.01953 -2.44922,0.13086 -0.82031,3.08008 -0.38086,3.83984 -2.19922,5.16016 -1.94922,1.12891 -0.9414,3.39062 0.0605,4.84961 -0.0605,8.11133 2.64062,7.13867 -0.2207,0.82031 2.26172,1.43946 0.0996,1.20117 -2.33008,0.66015 -0.38086,0.68946 0.82031,1.66992 -0.88086,1.18945 -1.72851,0.91016 -1.23047,-1.59961 -2.85938,-0.0898 -1.1914,1 -1.75977,-1.04102 -1.73047,0.16016 -0.53906,-0.66016 -3.26953,0.16016 0.93945,7.04101 0.69922,3.70899 -0.56836,4.91015 1.81836,2.64063 -0.30859,1.50976 0.43945,1.32032 -1.13086,2.00976 -0.62891,3.83985 -1.00976,3.33007 2.63867,4.33985 0.32031,2.90039 3.65039,3.90039 0.88086,1.57031 -0.13086,2.76953 1.69922,4.08985 -1.94922,3.19922 -2.33007,2.08007 -0.25,2.89063 1.95117,1.94922 2.13867,2.39062 2.07031,1.39063 0.94922,0.36914 0.69141,3.01953 1.25976,3.08008 2.32031,4 0.91993,2.45117 1.68945,1.75976 -0.31055,1.64063 1.25977,2.25976 0.56055,2.38868 0.0703,3.02148 -0.57031,2.76953 -1.50977,4.83985 -1.07031,4.65039 -0.62891,5.66992 -2.14062,5.91015 -2.44922,4.01954 -3.52149,5.09961 -0.88867,3.49023 31.26953,3.75977 11.07031,8.05078 11.57032,-2.02149 9.55859,3.02149 14.58985,-1.25977 15.60156,12.83984 7.79883,0.25 4.77929,4.01954 2.26172,-6.04102 6.28906,1.01172 0.25977,-3.52148 6.03125,-1.75977 11.83008,-6.79883 11.31836,1.25977 v 2.26953 l 1.25976,4.5293 5.31055,-0.22852 -0.10938,0.39844 h 0.0195 l 2.39062,1 7.41992,-1.43946 0.31055,-3.40039 3.96875,-1.57031 3.90039,-2.13867 13.64062,-6.79102 9.5586,-6.41992 14.33984,-5.08984 5.44141,2.29101 13.55859,-1.98047 10.28125,-2.29101 3.83985,1.10156 11.3789,-4.4414 6.10156,1.75976 18.20899,-3.26953 2.99023,-2.07031 3.10938,-3.70899 2.9414,-0.41992 v 0.01 h 0.68946 l -0.041,-0.0293 h -0.50976 c -0.0965,0.0165 -0.01,-0.0703 -0.01,-0.0703 l 4.41992,-0.17969 2.58008,-2.76172 v -3.14844 l 2.76953,-4.48047 1.1211,-2.23046 2.76953,-6.36915 3.53125,-7.11132 -1.01172,-2.38868 6.66992,-6.54101 6.2207,-4.58984 4.2793,-3.08008 2.39063,-4.0293 -1.37891,-1.95117 -2.21094,1.45117 v -1.25977 l 1.25977,-4.7207 1.45117,-1.13086 3.26953,0.32032 7.54883,-7.43946 5.78125,-6.38086 1.69922,-2.21875 2.39062,-2.08008 0.87891,-3.21093 3.21094,-4.89844 5.4707,-4.8418 7.73828,-1.82812 3.46094,-1.82032 -0.0703,-1.70117 4.27929,-1.19922 1.89063,-2.20117 -0.50977,-2.31836 -2.23047,-1.25976 -2,-1.07032 -1.46875,-1.08984 0.93946,-1.79101 2.74023,-0.97071 1.42969,-1.80859 -0.68946,-1.70117 2.39844,-2.36914 -1.03906,-0.64063 -1.53906,0.14063 -0.33008,0.60937 -2.75,-0.0801 -0.25,1.21094 0.9082,1.5 0.0312,0.75 -5.35937,-1.84961 -3.05078,0.36914 -1.35938,-0.91015 0.69922,0.0195 0.74023,-0.56836 0.25,-0.93164 0.60938,-0.93946 -0.5,-0.8789 2.42969,-1.05078 2,-0.33008 1.81054,-3.17969 0.2793,-1.12109 3.24024,-0.0586 2.39062,-1.73047 0.66016,-2.60937 -0.5,-3.18164 -3.42969,-1.16016 -1.45117,-1.3789 -3.08008,0.6289 -0.68945,1.32032 0.88085,3.14062 -1.95117,3.15039 -1.3789,-2.71094 -1.00977,-1.69922 -6.2207,-0.68945 -2.76953,2.58008 0.18945,2.76953 2.50977,0.11914 0.88085,-0.80859 2.33008,-0.26172 -0.31054,1.20117 -2.58008,0.43945 -1.75977,2.69922 0.17969,2.33008 -1.42969,0.0801 -0.28125,1.21094 0.0215,1.90039 0.30859,0.41015 1.01172,0.0293 0.80859,0.42969 1.14063,-0.18946 0.5293,-1.13085 0.0801,-1.93946 -1.16015,-0.14062 -0.26953,-0.46875 1.98046,-0.13086 0.54883,-0.71875 0.60156,-0.77149 0.82032,-0.54883 0.85937,0.16016 -0.79101,1.13867 0.18164,1.07032 0.18945,0.2207 -1.08984,0.12891 -0.86133,0.53124 -0.21875,1.43946 0.80859,0.83008 0.90039,0.77929 -0.13867,0.45117 -1.02148,0.33008 -2.04883,-0.0215 -1.90039,-0.35938 -0.82031,-0.82031 -0.89063,-0.76953 -3.37891,-1.28906 -7.76953,-1.23047 -2.5,-1.55078 -3.90039,-1.56055 0.0801,-0.21875 1.50977,-0.18945 2.16992,0.68945 1.25,-2.13086 1.23047,-0.94922 -0.19141,-1.29101 1.32031,1.50976 1.98047,-0.21875 1.75977,-1.04101 1.76953,0.85156 1.85156,-0.44141 2.92969,-0.52929 -0.48047,-2.80078 1.25977,-0.75977 V 349 l 1.73046,-0.0898 3.01954,-1.44922 0.16015,-1.98047 -2.99023,-3.76953 3.01953,-5.41016 1.01172,-10.1914 -0.76172,-3.51954 0.13086,-4.33984 -8.75,1.43945 -0.31055,2.52149 -3.65039,-1.07032 -2.00976,2.44922 -1.50977,2.71094 0.57031,1.75977 2.19922,1.94922 1.32031,2.70117 1.88086,2.13867 0.12891,2.14062 -3.76953,3.65039 -4.41016,0.62891 2.33008,-2.26953 0.57031,-3.33008 0.93946,0.25 1.95117,-1.07031 -0.19141,-1.88867 -1.69922,-2.89063 -2.69922,-1.13086 -2.14062,1.19141 -0.63086,2.20898 1.39062,0.75 -3.52929,1.57032 -3.27149,-0.88086 -3.76953,-1.37891 -1.50976,4.26953 -1.89063,4.5293 -1.43945,1.83008 0.56054,1.63086 1.64063,-0.18946 -1.51172,2.08008 0.69141,6.09961 4.71875,-0.0606 1.57031,-0.50976 1.25977,1.94922 0.75,1.39062 -0.75,0.68946 1.29101,1.53124 -0.0898,0.22852 -0.50977,-0.4082 -0.9414,-0.8711 -0.21876,-0.86914 -1.2207,-2.2207 -9.5293,0.43945 2.08008,-9.04883 -0.82031,-2.64062 2.38867,-2.51953 -0.75,-3.15039 4.46094,-6.91016 1.19922,-2.08008 2.01172,2.58008 3.01953,0.88086 3.33008,-2.14062 1.69922,-3.51954 1.63085,-3.52148 V 318.4707 L 689,315.89062 674.34961,321.05078 679,314.63086 l 9.43945,-6.29102 2.25977,-11.68945 3.40039,-7.42969 -5.2793,-5.40039 7.03907,-3.28125 -2.38868,-4.14844 0.25,-27.66992 1.50977,-9.56054 6.03906,-17.23047 4.15039,-4.0293 -0.88086,-6.79101 -2.25976,-0.87891 0.5,2.38867 -1.25977,-0.50976 -1.62891,-8.04883 7.91993,-4.52149 6.78906,-8.80859 1.14062,-15.4707 -8.06054,-10.07032 -18.10938,-16.34961 -3.76953,2.51954 -0.25,4.02148 -9.31055,-4.02148 L 678,142.80078 673.9707,134.5 Z m -148.03907,385.91016 -0.0996,0.30078 -0.40039,-0.26953 z"
       sodipodi:nodetypes="cccccccccccccccccccccccccccccccccccccccccccccccccccccccccccccccccccccccccccccccccccccccccccccccccccccccccccccccccccccccccccccccccccccccccccccccccccccccccccccccccccccccccccccccccccccccccccccccccccccccccccccccccccccccccccccccccccccccccccccccccccccccccccccccccccccccccccccccccccccccccccccccccccccccccccccccccccccccccccccccccccccccccccccccccccccccccccccccccccccccccccccccccccccccccccccccccccccccccccccccccccccccc" />
    <path
       id="S"
       d="M 723.59961 364.08984 L 721.14062 366.5293 L 721.83008 368.23047 L 720.40039 370.03906 L 717.66016 371.00977 L 716.7207 372.80078 L 718.18945 373.89062 L 720.18945 374.96094 L 722.41992 376.2207 L 722.92969 378.53906 L 721.03906 380.74023 L 716.75977 381.93945 L 716.83008 383.64062 L 713.36914 385.46094 L 705.63086 387.28906 L 700.16016 392.13086 L 696.94922 397.0293 L 696.07031 400.24023 L 693.67969 402.32031 L 690.59961 406.33984 L 687.19922 409.92969 L 678.65039 418.35938 L 675.38086 418.03906 L 673.92969 419.16992 L 672.66992 423.89062 L 672.66992 425.15039 L 674.88086 423.69922 L 676.25977 425.65039 L 673.86914 429.67969 L 669.58984 432.75977 L 663.36914 437.34961 L 656.69922 443.89062 L 657.71094 446.2793 L 654.17969 453.39062 L 650.78906 461.18945 L 647.51953 466.4707 L 647.51953 469.61914 L 644.93945 472.38086 L 640.51953 472.56055 L 640.5293 472.63086 L 637.44922 473.07031 L 634.33984 476.7793 L 631.34961 478.84961 L 613.14062 482.11914 L 607.03906 480.35938 L 595.66016 484.80078 L 591.82031 483.69922 L 581.53906 485.99023 L 567.98047 487.9707 L 562.53906 485.67969 L 548.19922 490.76953 L 538.64062 497.18945 L 525 503.98047 L 521.09961 506.11914 L 517.13086 507.68945 L 516.82031 511.08984 L 509.40039 512.5293 L 507.00977 511.5293 L 506.99023 511.5293 L 506.38086 513.89062 L 495.31055 520.67969 L 494.55078 525.83984 L 489.01953 530.74023 L 485.86914 538.41992 L 480.9707 543.19922 L 473.16992 544.83008 L 471.44922 539.66992 L 471.2793 539.16992 L 465.5 543.07031 L 455.81055 551.11914 L 451.0293 554.00977 L 444.99023 559.30078 L 437.18945 567.4707 L 429.90039 572.88086 L 417.82031 582.38086 L 413.98047 588.09961 L 406.11914 593.64062 L 402.28906 598.85938 L 400.26953 611.56055 L 395.24023 619.86914 L 390.51953 619.16992 L 389.71094 633.25977 L 382.53906 638.55078 L 376.61914 647.09961 L 370.96094 649.99023 L 373.23047 664.21094 L 368.89062 672.32031 L 371.9707 675.21094 L 371.33984 678.41992 L 362.4707 683.19922 L 361.15039 687.34961 L 357.06055 689.42969 L 356.56055 699.86914 L 355.24023 702.32031 L 355.86914 706.34961 L 359.08008 708.74023 L 362.84961 707.28906 L 364.16992 714.46094 L 365.81055 714.90039 L 365.17969 716.73047 L 363.78906 720.5 L 363.98047 724.65039 L 364.80078 727.41992 L 370.21094 729.11914 L 372.16016 731.18945 L 373.34961 734.08008 L 376.11914 734.71094 L 378.41992 736.18945 L 378.50977 736.0293 L 378.91992 735.36914 L 381.81055 734.36914 L 384.58008 735.5 L 387.34961 734.86914 L 391.31055 734.05078 L 394.26953 734.36914 L 395.21094 736.07031 L 395.46094 733.99023 L 397.78906 736.50977 L 402.75977 736.50977 L 405.46094 731.91016 L 407.2207 729.15039 L 409.74023 726.57031 L 411.93945 724.86914 L 413.75977 722.60938 L 417.2207 721.41016 L 418.41992 723.80078 L 416.91016 727.13086 L 417.53906 729.26953 L 419.60938 729.9707 L 423.64062 728.90039 L 424.83008 731.4707 L 424.33008 734.36914 L 427.28906 735.75 L 429.30078 732.80078 L 429.92969 729.58984 L 433.50977 726.94922 L 435.83984 724.56055 L 438.91992 723.55078 L 442.57031 723.35938 L 446.7207 723.85938 L 451.93945 724.42969 L 456.84961 726.43945 L 460.31055 728.58008 L 465.5293 730.7793 L 475.2793 737.64062 L 475.7793 741.28906 L 487.73047 742.16992 L 498.91992 741.41016 L 510.36914 734.11914 L 516.41016 726.82031 L 516.41016 720.2793 L 520.06055 715.11914 L 522.57031 710.7207 L 528.74023 708.58008 L 535.91016 710.08984 L 541.32031 710.2207 L 544.83984 707.94922 L 547.98047 710.4707 L 550.25 710.4707 L 555.0293 712.73047 L 555.91016 717.25977 L 560.18945 717.75977 L 558.80078 720.7793 L 558.80078 722.91992 L 557.28906 722.91992 L 557.66992 728.08008 L 570.36914 726.82031 L 583.08008 719.90039 L 595.41016 714.36914 L 599.56055 711.59961 L 603.58008 708.58008 L 614.7793 704.30078 L 622.07031 697.64062 L 624.83984 693.99023 L 632.51953 694.49023 L 633.65039 699.26953 L 629.5 704.81055 L 632.39062 708.96094 L 640.43945 709.96094 L 646.48047 713.49023 L 649.36914 716.88086 L 652.25977 718.14062 L 655.78906 716.13086 L 664.7207 709.83984 L 669.75 708.33008 L 674.2793 700.7793 L 678.67969 692.85938 L 679.56055 688.44922 L 683.46094 682.16016 L 687.99023 678.00977 L 691.13086 676 L 698.42969 666.82031 L 702.71094 660.40039 L 702.64062 658.91992 L 701.09961 657.91992 L 699.84961 657.98047 L 691.41992 668.30078 L 691.41992 666.75 L 692.00977 665.58984 L 691.94922 665.15039 L 691.23047 665.33984 L 690.66016 667.03906 L 689.58984 669.08008 L 687.89062 672.69922 L 681.91992 679.10938 L 679.08984 681.82031 L 675.43945 687.34961 L 670.59961 691.75977 L 669.33984 688.80078 L 666.44922 689.24023 L 662.03906 690.68945 L 660.84961 693.26953 L 658.96094 691 L 655.06055 690.88086 L 651.41992 691.88086 L 650.78906 692.94922 L 649.2793 691.82031 L 651.48047 690.61914 L 653.67969 688.35938 L 653.74023 685.9707 L 652.30078 682.82031 L 653.24023 682.07031 L 653.81055 682.57031 L 660.91016 682.94922 L 661.73047 678.35938 L 660.59961 676.4707 L 659.65039 675.40039 L 659.65039 669.05078 L 657.08008 663.96094 L 653.61914 660.91016 L 653.58984 658.55078 L 651.59961 656.88086 L 653.30078 655.9707 L 653.81055 652.78906 L 653.71094 651.38086 L 651.66992 650.7793 L 651.53906 649.67969 L 648.61914 649.71094 L 648.40039 651.4707 L 646.73047 651.13086 L 646.09961 649.76953 L 646.23047 648.99023 L 647.44922 648.25977 L 647.55078 647.07031 L 648.83984 646.84961 L 650.13086 645.86914 L 650.75977 644.86914 L 659.36914 651.5293 L 659.5 652.59961 L 660 653.03906 L 660.88086 652.48047 L 661.19922 651.9707 L 660.98047 650.56055 L 660.25 650.36914 L 659.36914 651.5 L 650.82031 644.83984 L 650.84961 642.73047 L 652.91992 641.82031 L 653.92969 640.7793 L 656.91992 640.42969 L 658.43164 637.99414 L 658.99023 638.91992 L 659.58008 639.48047 L 659.68945 641.32031 L 660.08984 642.01953 L 661.25977 642.44922 L 665.24023 642.56055 L 666.51953 641.78906 L 667.07031 642.33984 L 667.40039 643.83008 L 669.51953 643.9707 L 669.84961 645.08984 L 669.80078 646.75 L 671.55078 648.03906 L 671.59961 649.09961 L 665.34961 656.94922 L 664.76953 656.93945 L 664.21094 656.66992 L 663.83984 655.91016 L 663.17969 655.83984 L 662.55078 656.82031 L 662.16992 657.66992 L 661.69922 659.40039 L 660.2207 659.76953 L 660.34961 660.40039 L 662.30078 660.7207 L 663.33008 660.06055 L 665.32031 658.44922 L 665.34961 656.9707 L 671.59961 649.10938 L 671.78906 650.2793 L 671.34961 651.75 L 671.03906 653.89062 L 670.7207 655.65039 L 671.53906 658.51953 L 673.90039 658.96094 L 676.32031 660.15039 L 677.92969 660.93945 L 679.56055 662.07031 L 682.08008 662.16016 L 682.60938 661.9707 L 683.74023 661.2207 L 685.09961 659.96094 L 687.39062 660.17969 L 688.43945 660.32031 L 689.48047 660.08984 L 690.49023 659.48047 L 691.26953 658.71094 L 692.03906 657.81055 L 695.01953 657.75 L 698.03906 654.23047 L 699.80078 651.71094 L 701.31055 648.43945 L 702.07031 645.66992 L 702.82031 643.41016 L 703.33008 640.64062 L 703.33008 637.36914 L 703.58008 633.59961 L 707.34961 631.33008 L 708.10938 632.08984 L 710.11914 635.09961 L 713.64062 634.09961 L 716.66016 635.85938 L 722.94922 633.08984 L 721.93945 632.08984 L 725.21094 629.32031 L 726.7207 626.80078 L 727.98047 623.5293 L 728.74023 619.50977 L 727.23047 618.25 L 726.2207 614.48047 L 727.73047 611.46094 L 729.49023 607.67969 L 732.50977 605.16992 L 734.51953 603.15039 L 738.55078 601.64062 L 741.57031 598.88086 L 742.07031 595.34961 L 741.57031 589.07031 L 743.83008 582.01953 L 746.08984 580.75977 L 748.85938 581.00977 L 752.89062 579 L 753.00977 577.05078 L 756.75977 575.34961 L 760.41992 563.33008 L 761.35938 563.03906 L 761.53906 562.49023 L 766.21094 558.2793 L 766.18945 556.76953 L 766.01953 556.33984 L 764.89062 556.26953 L 764.32031 556.11914 L 764.33984 555.4707 L 764.64062 555.33984 L 764.69922 550.9707 L 766.17969 550.75977 L 766.25977 550.07031 L 764.65039 549.58984 L 765.58984 547.60938 L 767.99023 546.66992 L 769.38086 548.31055 L 769.5293 548.88086 L 769.35938 549.39062 L 766.92969 551.31055 L 765.88086 552.58984 L 765.43945 553.74023 L 765.34961 555.05078 L 766.89062 555.10938 L 767.7207 553.91016 L 768.9707 553.5 L 770.28906 553.57031 L 771.68945 552.28906 L 772.69922 552.28906 L 774.81055 553.85938 L 776.58008 554.5 L 778.44922 554.65039 L 778.91016 554 L 780.35938 554.2793 L 782.09961 554.41016 L 784.16016 553.80078 L 784.92969 553.13086 L 784.80078 550.60938 L 782.16016 549.41992 L 777.63086 549.16016 L 775.42969 548.2793 L 776.56055 546.08008 L 776 541.42969 L 773.28906 536.96094 L 771.4707 533.18945 L 769.76953 527.08984 L 770.46094 523.82031 L 767.25 520.10938 L 767.18945 514.44922 L 765.36914 512.06055 L 767.88086 505.07031 L 766.61914 498.66016 L 766.56055 497.33984 L 768.39062 499.34961 L 770.65039 499.73047 L 772.78906 500.80078 L 774.35938 500.66992 L 773.78906 498.84961 L 772.25 496.76953 L 770.36914 490.41992 L 767.73047 486.10938 L 767.2793 483.7207 L 767.94922 483.5293 L 767.66016 481.76953 L 766.56055 480.53906 L 765.74023 479.73047 L 764.26953 475.94922 L 763.39062 470.94922 L 761.25 467.56055 L 757.75977 466.49023 L 757.5 464.25 L 755.36914 463.18945 L 753.03906 464.32031 L 752.41016 463.43945 L 753.34961 461.99023 L 753.41992 458.2793 L 754.60938 457.08008 L 756.88086 453 L 756.81055 447.83984 L 755.42969 444.68945 L 753.16016 439.73047 L 748.94922 437.21094 L 746.06055 436.76953 L 744.16992 434.32031 L 741.2793 433.56055 L 738.19922 434.88086 L 736.86914 429.98047 L 734.35938 428.08984 L 732.78906 428.0293 L 732.4707 429.0293 L 730.51953 430.98047 L 731.0293 428.91016 L 730.01953 428.91016 L 731.33984 424.63086 L 733.85938 421.74023 L 733.34961 417.26953 L 734.30078 417.40039 L 734.03906 416.76953 L 738.19922 412.99023 L 738.13086 410.16016 L 736.81055 408.58984 L 738.38086 406.33008 L 736.93945 406.89062 L 735.74023 405.89062 L 733.41992 405.94922 L 733.09961 407.65039 L 731.58984 406.64062 L 733.34961 404.82031 L 732.41016 402.55078 L 733.91992 402.49023 L 734.23047 401.16992 L 734.41992 398.21094 L 731.42969 395.69922 L 729.66992 393.42969 L 727.5293 393.68945 L 726.2793 394.38086 L 725.33008 394.18945 L 725.33008 389.16016 L 727.08984 385.75977 L 726.40039 380.66992 L 724.89062 376.33008 L 722.9707 374.67969 L 721.41992 372.83984 L 722.64062 371.63086 L 722.90039 368.7793 L 724.88086 366.35938 L 723.59961 364.08984 z M 687.39062 660.17969 L 687.39062 662.44922 L 685.06055 663.30078 L 684.5293 664.26953 L 683.7793 665.65039 L 684.2207 666.59961 L 685.10938 666.4707 L 685.25 666.2207 L 685.7207 665.57031 L 686.30078 665.03906 L 686.23047 664.46094 L 687.03906 664.05078 L 688.44922 663.93945 L 688.46094 662.9707 L 688.2207 662.49023 L 687.42969 662.43945 L 687.39062 660.17969 z M 786.18945 552.81055 L 785.49023 553.38086 L 785.16016 553.57031 L 785.16016 554.5293 L 784.55078 555.71094 L 784.68945 558.00977 L 785.01953 560.18945 L 786.61914 560.42969 L 786.55078 561.01953 L 787.0293 562.43945 L 788.24023 562.74023 L 788.39062 562.06055 L 787.67969 561.31055 L 787.32031 560.16016 L 788.24023 558.23047 L 789.14062 558.7793 L 788.64062 559.7207 L 787.67969 560.86914 L 788.2793 561.31055 L 789.41992 560.0293 L 790.7793 558.90039 L 790.51953 557.4707 L 790.40039 555.39062 L 788.50977 553.06055 L 786.18945 552.81055 z M 795.64062 556.82031 L 791.67969 556.94922 L 791.51953 557.91016 L 791.48047 559.66992 L 791.81055 560.69922 L 793.56055 561.41016 L 795.25977 561.33008 L 795.67969 559.42969 L 795.88086 557.17969 L 795.64062 556.82031 z M 798.2793 558.75977 L 796.85938 558.7793 L 796.38086 559.66016 L 795.91992 559.9707 L 795.98047 561.78906 L 798.91016 561.73047 L 799 559.86914 L 798.2793 558.75977 z " />
    <path
       id="W"
       d="M 210.63086 239.40039 L 208.58984 239.41016 L 207.98047 239.69922 L 206.78906 240.21094 L 205.41016 240.53906 L 204.90039 240.83008 L 204.23047 241.41016 L 202.60938 241.58984 L 201.58008 242.10938 L 201.24023 243.56055 L 201.07031 245.38086 L 200.75 246.93945 L 199.34961 246.89062 L 199.44922 247.35938 L 199.59961 247.92969 L 200.41992 248.14062 L 200.40039 248.44922 L 198.88086 248.5 L 198.74023 248.17969 L 198.93945 247.67969 L 199.13086 247.30078 L 199.15039 246.58984 L 198.68945 246.4707 L 198.31055 246 L 198.26953 243.2793 L 198.44922 243.19922 L 198.55078 241.5293 L 198.2207 241.06055 L 196.82031 241.03906 L 196.35938 242.53906 L 196.0293 243.61914 L 195.83008 244.57031 L 195.58984 245.08008 L 195.25 245.9707 L 195 246.4707 L 194.71094 247.08008 L 194.32031 247.65039 L 193.96094 248.25 L 193.41992 248.53906 L 192.83984 247.78906 L 191.90039 247.88086 L 192.11914 249.16016 L 191.41016 250.65039 L 189.10938 251.5293 L 188.35938 252.94922 L 187.41992 254.19922 L 185.61914 255.42969 L 184.08008 255.61914 L 183.99023 256.06055 L 183.60938 256.11914 L 183.30078 257.66016 L 182.16016 259.10938 L 180.43945 262.32031 L 178.14062 263.58008 L 176.57031 266.9707 L 174.26953 268.50977 L 172.64062 269.51953 L 172.66992 272.98047 L 173.71094 275.46094 L 173.96094 277.50977 L 175.17969 280.24023 L 174.10938 281.9707 L 174.10938 283.73047 L 175.36914 284.67969 L 175.9707 287.26953 L 175.40039 289.2793 L 174.17969 290.89062 L 174.65039 291.44922 L 173.16992 295.23047 L 171.53906 295.98047 L 168.16992 295.23047 L 165.75 295.28906 L 162.85938 297.15039 L 161.7207 298.11914 L 160.7793 303.75 L 160.68945 307.17969 L 160.9707 308.68945 L 159.15039 309.82031 L 159.65039 312.56055 L 161.13086 313.88086 L 163.19922 315.85938 L 164.24023 317.58984 L 168.00977 318.25 L 169.10938 318.06055 L 169.40039 316.71094 L 170.7793 315.64062 L 171.75977 314.68945 L 171.84961 316.01953 L 171 317.46094 L 170.9707 319.75977 L 170.31055 319.73047 L 170.33984 322.08008 L 169.08008 323.9707 L 166.84961 325.44922 L 165.33984 326.60938 L 164.81055 329.25977 L 160.7793 329.25977 L 157.25977 332.01953 L 156.5 342.33984 L 158.76953 345.60938 L 155.75 348.63086 L 158.25977 353.91016 L 156.75977 359.18945 L 154.24023 361.21094 L 152.73047 367.5 L 148.96094 372.5293 L 146.43945 372.7793 L 141.41016 372.5293 L 140.40039 375.55078 L 141.41016 380.33008 L 142.42969 380.68945 L 142.82031 379.75977 L 142.38086 378.99023 L 142.61914 378.5293 L 143.7207 378.4707 L 144.17969 377.7793 L 144.35938 376.68945 L 144.53906 376.05078 L 145.65039 376.57031 L 146.4707 376.66016 L 147.57031 377.73047 L 147.21094 378.96094 L 146.13086 379.91992 L 144.99023 379.50977 L 143.84961 379.48047 L 143.55078 380.5293 L 142.91992 381.05078 L 141.99023 381.21094 L 141.5293 381.71094 L 140.11914 382.39062 L 139.55078 383.13086 L 139.33008 384.89062 L 138.99023 385.00977 L 139.05078 387.15039 L 140.4707 388.25 L 140.7207 389.94922 L 141.0293 391.46094 L 139.90039 393.18945 L 139.24023 393.06055 L 138.91992 391.74023 L 138.23047 391.74023 L 138.07031 392.9707 L 137.09961 393.66016 L 136.59961 394.25977 L 135.91016 394.25977 L 135.31055 395.35938 L 134.05078 395.51953 L 133.58008 394.82031 L 133.41992 393.18945 L 131.68945 392.81055 L 131.9707 392.2793 L 131.82031 390.91992 L 131.2793 390.64062 L 130.7207 390.83008 L 130.5 391.49023 L 130.36914 392.58984 L 129.90039 392.86914 L 129.90039 393.75 L 130.5 394.09961 L 128.85938 397.68945 L 127.73047 400.96094 L 126.84961 403.66016 L 126.11914 404.94922 L 122.78906 415.33008 L 119.51953 419.73047 L 118.25977 422.61914 L 117.57031 426.40039 L 117.00977 427.08984 L 116.43945 426.96094 L 115.86914 429.98047 L 115.36914 434.00977 L 115.5 436.46094 L 115.93945 440.05078 L 116.06055 443.25 L 114.49023 450.55078 L 115.75 453.68945 L 115.24023 458.09961 L 118.50977 463.25 L 120.2793 466.15039 L 124.42969 471.30078 L 127.44922 474.58008 L 132.48047 480.35938 L 137.25977 486.90039 L 139.76953 494.69922 L 141.78906 496.58984 L 143.16992 501.86914 L 147.44922 502.11914 L 148.08008 498.84961 L 154.36914 499.23047 L 155.5 497.4707 L 158.25977 496.58984 L 161.78906 500.86914 L 167.44922 502.63086 L 164.81055 504.89062 L 160.40039 508.41016 L 158.39062 510.67969 L 161.2793 511.93945 L 164.17969 513.07031 L 164.55078 516.9707 L 169.83984 517.84961 L 170.7207 515.46094 L 175.88086 516.83984 L 182.66992 521.61914 L 190.4707 523.13086 L 193.99023 524.64062 L 193.85938 527.78906 L 191.84961 529.03906 L 192.48047 532.31055 L 196.25 533.44922 L 197.89062 530.92969 L 200.5293 528.91992 L 203.67969 527.91016 L 203.67969 526.2793 L 205.68945 529.03906 L 205.48047 529.41992 L 204.59961 529.07031 L 202.36914 529.16992 L 201.40039 529.66992 L 201.46094 531.61914 L 201.58008 532.88086 L 203.06055 533.73047 L 204.32031 533.89062 L 201.42969 535.26953 L 201.71094 538.84961 L 202.5293 540.58008 L 204.48047 540.51953 L 205.69922 539.35938 L 206.61914 540.51953 L 208.75 541.5 L 210.39062 541.33984 L 211.21094 540.14062 L 212.06055 539.33008 L 212.46094 537.93945 L 211.90039 536.58984 L 211.26953 535.40039 L 212.61914 535.24023 L 213.16016 534.35938 L 214.00977 534.10938 L 213.66016 531.93945 L 212.9707 531.01953 L 212.08984 530.67969 L 210.44922 530.80078 L 209.50977 531.93945 L 209.69922 533.75977 L 210.25977 533.98047 L 210.33008 534.96094 L 208.5293 534.69922 L 207.58984 533.82031 L 204.98047 533.89062 L 204.89062 533.25977 L 205.58008 532.82031 L 206.05078 532.0293 L 206.33008 531.11914 L 206.42969 530.17969 L 205.74023 529.60938 L 206.92969 528.89062 L 211.10938 529.76953 L 211.86914 529.73047 L 212.17969 528.09961 L 213.34961 527.9707 L 212.5293 528.73047 L 212.56055 530.80078 L 215.14062 531.67969 L 216.46094 533.34961 L 215.74023 533.69922 L 215.23047 538.57031 L 217.24023 538.53906 L 214.63086 539.85938 L 214.59961 541.33984 L 216.55078 541.7207 L 218.75 542.7207 L 219.78906 542.66016 L 220.64062 540.90039 L 222.15039 540.17969 L 222.68945 538.78906 L 222.93945 537.13086 L 222.81055 534.80078 L 224.41992 533.73047 L 225.14062 532.91016 L 224.38086 530.67969 L 225.08008 529.99023 L 227.06055 531.01953 L 227.65039 532.4707 L 227.58984 533.13086 L 226.49023 534.19922 L 225.00977 534.25977 L 225.10938 535.61914 L 227.08984 535.58008 L 228.06055 534.23047 L 228.9707 533.09961 L 229.57031 532.0293 L 230.66992 531.5 L 232.0293 532.11914 L 233.75977 532.92969 L 233.78906 532.89062 L 233.75977 532.83008 L 235.46094 535.88086 L 237.31055 539.16016 L 240.76953 538.21094 L 243.4707 540.09961 L 246.71094 547.92969 L 248.57031 552.08008 L 256.65039 554.18945 L 251.86914 557.46094 L 248.32031 555.94922 L 246.71094 554.38086 L 244.80078 554.4707 L 243.32031 556.16992 L 239.66992 556.23047 L 238.07031 552.35938 L 236.65039 549.84961 L 232.56055 551.00977 L 229.19922 555.16016 L 226.17969 555.53906 L 223.66016 556.99023 L 219.69922 566.10938 L 219.25977 568.56055 L 218.57031 568.81055 L 218.68945 572.14062 L 215.49023 574.2793 L 215.23047 577.42969 L 214.41992 577.35938 L 215.30078 580.00977 L 217 579.93945 L 218.75977 582.08008 L 221.46094 581.51953 L 222.15039 578.75 L 223.2793 577.35938 L 224.73047 576.55078 L 226.61914 578.81055 L 226.61914 579.5 L 228.75977 578.93945 L 230.83008 577.67969 L 233.34961 578.11914 L 234.73047 577.92969 L 235.49023 580.38086 L 234.34961 583.5293 L 231.26953 585.85938 L 228.57031 586.80078 L 227.31055 590.41992 L 226.65039 592.71094 L 226.49023 594.57031 L 227.40039 596.64062 L 231.21094 599.18945 L 232.06055 600.94922 L 232.15039 607.65039 L 235.08008 608.2793 L 238.18945 607.67969 L 239.73047 606.51953 L 242.2793 607.96094 L 243.53906 608.88086 L 244.34961 609.13086 L 245.67969 611.51953 L 245.90039 613.17969 L 248 614.53906 L 248.43945 619.78906 L 246.83984 620.98047 L 246.92969 622.42969 L 249.07031 623.91016 L 249.09961 626.64062 L 248.41016 625.53906 L 246.58984 625.03906 L 246.33984 624.4707 L 245.55078 625.28906 L 244.13086 625.69922 L 243.2207 625.94922 L 243.2207 627.33984 L 242.5293 627.40039 L 242.7207 629.88086 L 244.94922 632.96094 L 246.58984 635.16992 L 247.9707 636.80078 L 248.98047 637.46094 L 248.86914 638.14062 L 250.19922 638.75 L 250.63086 640.15039 L 250.38086 640.58984 L 249.58984 638.9707 L 248.42969 638.17969 L 247.84961 637.05078 L 246.71094 635.94922 L 245.34961 635.09961 L 243.42969 632.17969 L 241.51953 630.65039 L 239.91992 629.01953 L 236.51953 623.33008 L 231.42969 615.89062 L 233.25 614.32031 L 232.5 611.60938 L 230.23047 611.92969 L 229.34961 612.92969 L 229.85938 610.41992 L 226.46094 606.89062 L 226.46094 602.81055 L 224.32031 599.2793 L 225.83008 595.69922 L 225.26953 592.30078 L 226.01953 589.5293 L 227.2793 587.51953 L 227.9707 585.50977 L 230.74023 584.75 L 232 581.35938 L 226.46094 580.73047 L 224.64062 579.7207 L 223.43945 579.9707 L 220.74023 582.80078 L 220.23047 587.90039 L 219.60938 592.30078 L 218.84961 594.82031 L 218.7207 598.65039 L 218.59961 603.42969 L 219.98047 607.40039 L 221.36914 609.98047 L 221.61914 610.85938 L 218.78906 609.78906 L 215.08008 609.66016 L 213.75977 607.33008 L 210.49023 607.08008 L 208.09961 604 L 206.01953 604.06055 L 204.25977 604.75977 L 204.69922 607.08008 L 207.33984 609.59961 L 214.69922 612.49023 L 219.09961 613.68945 L 222.43945 613.68945 L 229.34961 618.91016 L 231.17969 622.17969 L 235.26953 628.2793 L 247.7793 641.92969 L 247.58984 648.7207 L 254.44922 656.96094 L 264.75977 661.99023 L 272.82031 674.57031 L 276.58984 676.33008 L 279.85938 684.13086 L 281.36914 688.16016 L 286.65039 700.99023 L 285.65039 705.76953 L 281.36914 707.5293 L 273.82031 713.06055 L 266.7793 715.58008 L 263 717.58984 L 264.00977 726.40039 L 260.49023 732.42969 L 262.5 735.69922 L 263.25977 741.49023 L 260.74023 749.78906 L 271.05078 760.85938 L 266.7793 769.91992 L 264.00977 773.43945 L 266.7793 776.71094 L 264.50977 776.71094 L 265.76953 779.23047 L 267.7793 779.48047 L 267.5293 780.74023 L 264.98047 781.05078 L 264.64062 783.4707 L 264.58008 784.83008 L 265.58008 785.14062 L 266.83984 784.09961 L 267.5 782.33984 L 267.7793 783.98047 L 270.21094 784.53906 L 272.68945 783.84961 L 276.11914 784.53906 L 279.35938 786.05078 L 282.18945 788.38086 L 283.32031 790.19922 L 286.40039 790.05078 L 292.63086 790.44922 L 295.80078 789.98047 L 297.25 786.56055 L 300.21094 786.21094 L 306.9707 777.2207 L 311.08984 771.74023 L 312.9707 770.74023 L 312.08984 767.08984 L 309.83008 768.34961 L 310.21094 764.94922 L 311.7207 761.30078 L 313.09961 758.2793 L 314.74023 759.28906 L 318.63086 758.2793 L 319.25977 757.0293 L 327.18945 757.2793 L 332.4707 758.91016 L 339.25977 756.51953 L 339.25977 758.91016 L 334.48047 759.66992 L 331.83984 762.42969 L 330.08008 766.58984 L 330.58008 767.83984 L 339.76953 766.08008 L 347.06055 763.57031 L 351.83984 762.56055 L 356.25 756.26953 L 358.25977 752.75 L 364.05078 750.99023 L 371.7207 746.71094 L 378.64062 736.14062 L 378.50977 736.0293 L 378.41992 736.18945 L 376.11914 734.71094 L 373.34961 734.08008 L 372.16016 731.18945 L 370.21094 729.11914 L 364.80078 727.41992 L 363.98047 724.65039 L 363.78906 720.5 L 365.17969 716.73047 L 365.81055 714.90039 L 364.16992 714.46094 L 362.84961 707.28906 L 359.08008 708.74023 L 355.86914 706.34961 L 355.24023 702.32031 L 356.56055 699.86914 L 357.06055 689.42969 L 361.15039 687.34961 L 362.4707 683.19922 L 371.33984 678.41992 L 371.9707 675.21094 L 368.89062 672.32031 L 373.23047 664.21094 L 370.96094 649.99023 L 376.61914 647.09961 L 382.53906 638.55078 L 389.71094 633.25977 L 390.51953 619.16992 L 395.24023 619.86914 L 400.26953 611.56055 L 402.28906 598.85938 L 403.96094 596.58008 L 404.05078 596.00977 L 404.68945 595.58984 L 406.11914 593.64062 L 413.98047 588.09961 L 417.82031 582.38086 L 429.90039 572.88086 L 437.18945 567.4707 L 444.99023 559.30078 L 451.0293 554.00977 L 455.81055 551.11914 L 465.5 543.07031 L 471.2793 539.16992 L 471.44922 539.66992 L 471.4707 539.66016 L 471.48047 539.75977 L 473.16992 544.83008 L 480.9707 543.19922 L 485.86914 538.41992 L 489.01953 530.74023 L 494.55078 525.83984 L 495.31055 520.67969 L 506.38086 513.89062 L 507.09961 511.13086 L 501.78906 511.35938 L 500.5293 506.83008 L 500.5293 504.56055 L 489.21094 503.30078 L 477.38086 510.09961 L 471.34961 511.85938 L 471.08984 515.38086 L 464.80078 514.36914 L 462.53906 520.41016 L 457.75977 516.39062 L 449.96094 516.14062 L 434.35938 503.30078 L 419.76953 504.56055 L 410.21094 501.53906 L 398.64062 503.56055 L 387.57031 495.50977 L 356.63672 491.79297 L 356.89062 491.64062 L 357.90039 489.68945 L 358.51953 487.41992 L 359.66016 485.7207 L 360.4707 484.40039 L 362.49023 482.51953 L 363.42969 479.81055 L 364.17969 478.30078 L 365 476.78906 L 365.68945 473.71094 L 366.44922 470.31055 L 366.64062 467.41992 L 367.10938 464.86914 L 367.49023 463.26953 L 368.13086 461.98047 L 368.66992 460.14062 L 369.08984 458.16016 L 369.63086 456.46094 L 369.63086 452.81055 L 369.41016 452.31055 L 369.63086 451.21094 L 369.2793 450.05078 L 367.90039 447.93945 L 367.96094 446.83984 L 368.40039 446.40039 L 365.91016 443.2207 L 365.63086 441.96094 L 364.43945 440.14062 L 363.36914 438.2793 L 363.05078 437.0293 L 362.49023 435.41992 L 361.53906 433.91016 L 361.07031 431.25977 L 360.28906 430.74023 L 358.92969 430.39062 L 357.78906 429.07031 L 356.93945 428.39062 L 356.23047 426.92969 L 355.83984 426.51953 L 354.89062 426.13086 L 354.10938 424.61914 L 354.17969 423.42969 L 354.36914 422.39062 L 355.25 422.17969 L 356.19922 420.9707 L 357.08008 419.9707 L 358.00977 418.65039 L 358.38086 417.11914 L 358.05078 415.76953 L 356.78906 413.46094 L 356.86914 410.31055 L 356.39062 409.48047 L 355.14062 407.5293 L 353.17969 405.41016 L 352.2207 404.09961 L 352.11914 402.2207 L 351.51953 400.91992 L 350.31055 398.78906 L 349.81055 396.93945 L 350.41016 395.17969 L 351.41992 393.13086 L 351.41992 389.66992 L 352.23047 388.09961 L 351.64062 386.55078 L 352 385.88086 L 350.21094 383.32031 L 350.65039 379.64062 L 350.65039 376.2793 L 349.56055 371.83008 L 349.39062 369.60938 L 348.98047 367.78906 L 348.26953 365.13086 L 346.9707 362.64062 L 346.13086 360.61914 L 345.92969 357.49023 L 345.65039 356.35938 L 345.33008 354.51953 L 344.19922 352.34961 L 343.16016 349.66992 L 342.2207 346.75 L 341.58984 344.16992 L 341.15039 341.5293 L 339.91992 339.69922 L 339.19922 339.96094 L 338.48047 339.74023 L 336.56055 337.51953 L 335.80078 335.86914 L 334.43945 333.36914 L 334.36914 327.71094 L 334.08984 327.55078 L 334.06055 323.49023 L 333.30078 321.00977 L 333.49023 320.13086 L 333.30078 318.46094 L 332.39062 316.66992 L 331.32031 317.16992 L 330.82031 317.14062 L 330.7207 311.75977 L 327.35938 306.28906 L 326.53906 303.10938 L 324.88086 300.43945 L 322.39062 298.65039 L 319.15039 295.66016 L 317.69922 294.5293 L 316.66992 291.64062 L 315.08984 287.96094 L 313.96094 285.0293 L 311.53906 282.89062 L 309.11914 280.75 L 307.89062 280.68945 L 306.48047 281.13086 L 305.68945 280.88086 L 303.33008 279.32031 L 301.5293 278.18945 L 299.58008 276.36914 L 297.18945 274.48047 L 295.46094 273.88086 L 294.92969 272.9707 L 292.50977 272.06055 L 291.2207 271.86914 L 289.83008 272.31055 L 288.14062 272.15039 L 286 272.2207 L 279.60938 275.74023 L 278.48047 275.96094 L 276.75 275.92969 L 276.30078 276.48047 L 275.61914 276.7793 L 275.26953 277.55078 L 274.98047 278.57031 L 274.59961 279.14062 L 274 279.65039 L 273.66992 280.2207 L 273.44922 280.67969 L 273.4707 282.5 L 273.91016 282.75977 L 275.86914 282.69922 L 276.43945 282.4707 L 278.07031 282.55078 L 278.91016 282.96094 L 278.93945 283.92969 L 279.16992 284.25 L 279.15039 285.08008 L 279.38086 285.78906 L 279.57031 286.83008 L 279.7207 287.07031 L 279.5 287.39062 L 279.42969 287.92969 L 278.92969 288.33984 L 277.41992 288.51953 L 275.42969 288.92969 L 274.53906 289.56055 L 274.13086 290.49023 L 273.75977 291.36914 L 272.53906 292.0293 L 271.51953 292.25977 L 271.56055 296.73047 L 271.08008 297.33984 L 270.66016 298.89062 L 270.2207 299.76953 L 268.83008 300.53906 L 267.39062 301.84961 L 266.41016 302.94922 L 265.59961 304.74023 L 264.5293 306.7207 L 263.53906 308.63086 L 262.43945 309.61914 L 261.15039 310.66016 L 260.24023 311.01953 L 260.06055 312.21094 L 259.56055 312.7793 L 259.03906 313.35938 L 258.90039 313.75 L 258.91016 315.16992 L 259.58984 315.17969 L 260.59961 315.32031 L 261.82031 315.73047 L 262.88086 316.0293 L 262.91992 316.71094 L 262.66016 317.51953 L 261.94922 317.18945 L 261.94922 316.60938 L 261.50977 316.46094 L 261.43945 316.08008 L 261.21094 315.89062 L 260.91016 315.93945 L 260.7207 316.16992 L 260.68945 317.17969 L 260.16992 317.42969 L 259.39062 317.44922 L 258.14062 318.25 L 257.94922 318.06055 L 257.17969 318.03906 L 256.91992 318.4707 L 256.50977 318.58984 L 255.38086 319.98047 L 255.35938 320.2793 L 254.15039 320.7207 L 252.91016 320.98047 L 252.06055 321.2207 L 251.25977 320.93945 L 249.49023 320.91992 L 249.33984 321.14062 L 248.71094 321.38086 L 248.09961 321.75 L 247.25977 322.01953 L 246.88086 322.23047 L 246.21094 322.07031 L 245.25977 321.80078 L 244.56055 321.55078 L 241.48047 321.55078 L 240.9707 320.42969 L 241.05078 319.59961 L 240.7207 319 L 240.41016 318.75 L 240 318.2793 L 239.90039 317.41016 L 238.99023 316.5293 L 236.66016 316.55078 L 236.30078 316.96094 L 236.05078 318.33984 L 235.88086 318.80078 L 235.66016 318.4707 L 235.7207 317.09961 L 236.13086 316.99023 L 236.34961 316.55078 L 236.40039 316.08984 L 235.84961 316.05078 L 236.08008 315.5293 L 236.78906 314.28906 L 238.0293 313.30078 L 238.16016 312.36914 L 237.21094 312.05078 L 237.25 311.63086 L 237.5 311.43945 L 237.40039 309.01953 L 235.9707 307.15039 L 235.63086 306.2207 L 235.5 305.03906 L 234.50977 303.60938 L 234.42969 300.46094 L 234.13086 299.71094 L 232.89062 298.55078 L 231.41016 296.60938 L 230.31055 295.36914 L 230.14062 294.57031 L 229.59961 293.00977 L 228.0293 291.2207 L 226.96094 289.92969 L 226.35938 288.64062 L 226.05078 285.86914 L 226.65039 285.01953 L 226.76953 282.48047 L 225.99023 281.82031 L 223.41016 281.9707 L 223.63086 281.43945 L 224.09961 280.36914 L 226.4707 279.92969 L 227.5293 279.33008 L 227.69922 277.74023 L 228.58008 277.24023 L 228.63086 275.61914 L 227.91992 274.86914 L 228.08984 274.25 L 228.05078 271.14062 L 226.73047 268.73047 L 226.51953 267.83984 L 225.75 266.75 L 222.7793 263.99023 L 222.21094 262.83984 L 221.42969 261.4707 L 220.81055 261.44922 L 220.7793 260.40039 L 220.33008 260.11914 L 220.39062 259.42969 L 219.07031 258.09961 L 218.91016 257.36914 L 217.93945 256.35938 L 217.58008 255.33984 L 216.75977 254.35938 L 214.44922 253.83008 L 213.85938 252.55078 L 213.51953 251.66992 L 213.38086 250.73047 L 211.74023 248.16992 L 210.66992 246.88086 L 209.00977 246.5293 L 210.15039 246.06055 L 211.5293 245.51953 L 212.80078 244.90039 L 213.13086 244.46094 L 213.34961 243.46094 L 213.35938 242.07031 L 212.32031 240.92969 L 211.84961 240.23047 L 211.16016 239.69922 L 210.63086 239.40039 z M 356.11914 491.73047 L 356.63086 491.78906 L 356.62695 491.79102 L 356.11914 491.73047 z M 507.82031 511.09961 L 507.32031 511.13086 L 507.7207 511.40039 L 507.82031 511.09961 z " />
    <path
       id="N"
       d="m 111.62,298.3 -1.26,0.63 -5.16,-1.26 -3.02,-1.13 -3.52,-3.02 -1.51,-4.66 -1.38,0.26 -1.38,1.51 -1.26,-4.03 1,-2.77 0.76,-3.02 1.13,-2.89 1.89,-4.02 -0.13,-3.4 -0.12,-1.89 -3.65,-1.76 -1.13,-4.4 -2.14,1.76 -1.51,-1.64 -0.13,-1.25 1.39,-3.15 1.25,-4.28 1.51,-1.13 2.52,-0.75 0.25,-0.76 -1.63,-1.63 -0.89,-1.51 2.52,-2.01 1.76,0.25 1.64,3.39 -2.64,2.27 1.88,0.63 2.64,0.63 2.77,2.13 3.02,1.14 3.02,0.5 2.26,-0.25 -1.88,-1.51 -4.03,-0.5 -1.13,-3.28 -1.76,-2.13 -2.14,-2.02 -1.64,-1.38 -1,-2.64 -0.51,-2.01 2.02,-2.02 3.39,0.13 3.15,0.75 1.63,0.51 3.53,-0.26 1.13,-0.25 4.02,-0.75 3.02,0.5 3.78,2.89 v 2.52 l 1,6.42 0.88,3.9 1.89,5.15 3.52,2.64 1.89,1.64 2.14,-0.25 2.64,0.88 0.88,5.28 -0.63,1.51 0.13,3.65 -1.51,1.26 -2.14,2.01 -2.89,4.28 -3.9,2.39 -4.66,2.76 2.52,0.38 2.51,1.13 -1.63,2.65 -1.39,2.01 -4.02,1 -0.25,3.65 -1.39,1.01 -3.27,-1.38 z m -6.93,-59.7 -2.14,-0.44 -1.05,-1.26 -0.11,-1.43 0.83,-1.32 1.59,-1.37 1.15,-1.54 h 1.32 l 0.38,0.28 -0.16,2.8 -0.22,1.31 -1.54,2.86 z m 3.18,-11.98 1.03,-0.19 0.93,0.4 0.59,0.58 0.14,1.07 -0.18,0.67 -0.37,0.67 -0.12,0.91 -0.94,0.08 -0.83,-0.56 -1.97,-0.2 -0.5,-1.05 0.41,-1.06 z m -56.49,76.81 -0.05,-1.76 0.38,-1.59 0.71,-2.47 v -2.25 l 0.72,-1.64 2.14,-0.72 2.25,-1.15 -1.37,-0.99 -3.08,-1.26 -2.25,-1.21 -2.63,0.94 -2.53,0.71 -2.41,0.77 0.71,1.7 0.33,2.58 -1.04,1.32 -2.58,1.37 -2.96,0.82 -2.25,1.76 -1.32,0.66 -1.7,-1.21 -1.76,-0.22 -2.69,-0.17 -2.14,-2.03 -0.6,-1.92 -0.44,-2.03 -0.44,-2.47 -0.6,-1.75 1.97,-0.83 0.44,-1.75 2.14,-1.1 3.35,-0.88 1.43,-1.26 2.3,-1.76 3.18,-0.66 4.07,-0.11 1.15,0.5 0.44,1.15 -1.59,1.04 -1.82,1.76 0.61,0.33 1.81,0.11 2.69,-0.11 1.81,-0.44 1.7,0.22 2.14,0.05 1.98,0.06 -1.43,-0.71 -3.79,-0.11 -2.3,0.22 -0.66,-0.72 -0.6,-0.93 1.42,-0.93 0.83,-0.55 1.64,-0.55 0.72,0.22 1.48,0.88 1.53,0.05 1.32,0.28 0.5,-0.61 1.59,0.06 -1.21,-0.22 -1.04,-1.38 1.2,-1.31 2.09,-0.11 1.37,1.26 -0.44,1.59 -1.97,-0.11 0.22,0.99 0.88,0.38 2.25,-0.27 0.27,0.11 -0.66,1.1 -2.03,-0.33 -2.36,1.21 -0.82,0.54 1.86,-0.22 3.08,-0.27 2.25,-0.93 3.4,-2.47 2.36,-1.54 h 2.3 l 1.93,1.43 1.92,2.74 0.33,2.42 0.6,2.69 v 2.96 l -0.93,1.87 -1.16,1.59 0.99,0.77 0.77,1.09 -0.27,1.43 1.09,1.04 -0.16,0.72 -1.26,1.37 -2.69,0.6 0.38,1.54 -2.41,2.52 -2.91,2.36 -2.75,-0.93 -2.3,-1.92 -4.23,-0.99 z m -4.88,-13.12 1.2,0.28 1.6,1.81 2.19,-0.06 -0.99,-1.31 0.83,-1.26 0.77,0.43 1.53,0.94 -0.05,1.75 -1.59,-0.05 -0.06,0.44 -0.16,2.36 -0.94,0.44 -0.49,1.7 -0.82,1.42 -1.27,1.54 -1.92,3.07 -1.64,0.66 0.22,-1.26 -0.28,-1.54 -0.11,1.32 -0.44,2.69 -2.36,0.39 -2.08,-1.05 -0.5,-1.86 0.61,-1.1 1.75,-1.76 1.43,-0.99 1.32,-1.86 0.22,-0.93 0.82,-2.25 -0.22,-1.87 z m -28.21,-13.33 -0.39,-1.02 1.18,-1.07 1.65,-0.99 1.04,-0.9 1.38,-0.8 0.96,-0.74 0.24,-1.15 0.99,-0.88 1.62,-0.96 1.26,-1.98 0.22,-2.46 -0.33,-2.58 -1.04,-3.13 -2.2,-1.87 -1.64,-1.37 -0.28,-2.47 -1.26,-1.59 -3.07,-0.44 -3.73,-0.11 -2.53,-0.82 -2.69,-1.05 -2.14,-0.93 -1.26,-1.04 -0.66,-1.98 -1.21,-1.7 -0.99,-1.32 -2.25,-0.71 -0.16,-1.26 0.6,-2.2 1.27,-5.21 v -0.52 l 0.38,-1.24 0.55,-1.64 0.66,-1.98 0.08,-1.65 0.96,-1.48 0.74,-0.74 1.1,-0.71 0.71,-0.83 0.25,-0.93 0.66,-0.77 0.24,-1.37 v -1.4 l 0.72,-1.34 1.21,-1.51 0.65,-1.37 1.6,-0.5 1.78,-0.71 1.7,0.49 1.54,-0.11 1.92,0.5 2.17,0.27 0.52,1.13 -0.17,1.56 0.39,2.11 0.24,-0.24 2.97,-1.07 1.37,-0.69 -0.52,-1.13 -2.11,0.94 -1.62,-0.72 -0.58,-1.59 -0.25,-1.84 0.36,-0.55 0.82,-0.16 1.4,-0.03 0.28,-1.09 1.04,-0.36 1.56,0.63 3.11,1.23 0.65,1.16 1.16,0.93 0.38,2.74 -0.05,2.14 -0.22,2.36 1.04,1.32 1.43,1.59 0.65,1.43 v 1.43 l 0.83,0.82 h 1.1 l 1.26,-0.71 2.25,-0.44 2.91,0.11 1.42,-0.5 1.65,-0.11 1.15,0.66 0.39,1.81 -0.55,2.91 0.66,1.04 0.76,0.77 -0.6,1.87 -1.15,2.8 -1.32,1.97 -1.7,0.72 -1.87,0.49 -0.49,0.71 -0.88,1.05 0.72,0.55 0.98,-1.05 1.32,-1.09 0.88,0.27 0.88,1.76 0.16,2.36 1.15,1.04 1.05,0.99 0.55,1.81 v 1.32 l -0.72,2.14 -1.43,2.41 -1.53,2.14 -1.1,1.1 -0.22,1.26 1.21,1.65 0.05,2.41 -0.27,2.14 -0.99,1.48 -1.97,2.69 -1.43,2.09 -1.54,2.19 -1.86,0.55 -2.47,1.05 -1.87,-1.16 0.16,-2.14 2.69,-1.86 0.99,-1.37 -2.14,1.09 -2.08,-0.16 -3.02,2.03 -2.47,1.81 -2.69,1.87 -1.59,2.52 -1.32,0.6 z m 49.89,-59.25 0.3,0.28 0.74,0.55 0.36,1.15 0.27,-0.3 -0.55,-0.8 v -0.88 l 0.44,-0.66 1.92,-0.19 0.55,-0.63 0.55,-0.93 1.01,-0.3 1.27,0.32 0.35,1.18 0.3,0.8 -0.52,1.48 -0.98,1.18 -0.31,0.61 1.29,-0.91 0.88,-0.52 1.35,-0.44 0.27,-0.77 0.55,-0.25 0.14,1.16 0.24,0.6 1.65,0.58 0.93,1.07 -0.22,1.62 -0.63,1.15 -0.99,0.93 -1.37,1.59 -1.62,1.27 -1.45,2.49 -2.06,0.03 -0.99,-1.48 -1.53,-1.21 -2.17,0.69 -1.18,-1.18 -0.55,-1.32 0.3,-0.71 1.04,-0.44 0.61,-0.91 0.33,-1.29 0.13,-0.82 0.53,-1.24 0.16,-0.52 -0.66,0.19 -0.41,0.94 -0.11,1.34 -0.36,1.21 -1.07,1.34 -0.6,0.33 -0.96,-0.44 -0.96,-1.31 0.03,-1.07 0.55,-1.81 0.63,-1.32 0.96,-0.85 z m 11.56,-35.07 0.77,-1.65 0.98,0.11 2.53,-2.19 2.19,-0.33 -0.55,1.1 -0.65,2.74 0.44,0.88 1.2,-2.42 1.65,-1.2 3.4,0.33 1.21,2.63 -0.33,1.43 v 2.3 l 0.55,2.31 0.88,2.3 -0.33,2.53 -1.1,0.99 h -1.65 l -2.3,0.54 2.96,0.55 4.17,-0.33 -0.11,2.2 0.99,3.29 2.31,1.54 2.08,0.66 0.44,2.19 -1.76,2.2 -2.3,-0.99 -1.54,1.54 -2.08,-1.21 -2.42,-2.42 -2.3,-1.75 -2.31,-3.73 -0.66,-2.86 -0.22,-0.99 -3.73,0.99 -1.32,-1.64 -0.54,-2.86 -0.33,-1.97 1.31,-2.2 -1.09,-0.33 -1.76,-1.75 z m -67.18,12.46 -1.43,-3.24 0.06,-2.41 0.93,-2.14 1.43,-1.54 0.16,-1.76 -0.93,-0.66 -2.41,-0.98 0.05,-2.42 0.49,-3.18 1.6,-0.44 1.75,0.49 -0.71,3.13 0.82,-0.38 2.14,-0.99 1.65,0.44 2.14,1.04 1.87,-1.04 v -2.03 l -2.69,-1.32 h -2.69 l -2.09,0.55 -1.43,-0.88 0.44,-1.7 1.32,-1.37 2.03,-2.36 2.47,0.55 1.87,0.66 2.58,0.71 3.13,1.26 0.05,2.42 0.55,2.58 0.99,-0.83 3.29,0.28 1.1,2.52 0.55,3.18 -1.6,1.27 0.17,4.06 -0.71,2.14 -2.53,-1.21 -2.08,-0.11 0.32,1.87 1.21,1.59 -0.82,1.1 -2.25,1.59 -2.03,0.11 -1.65,-0.44 -2.47,-1.7 0.33,-1.37 1.1,-2.26 -1.37,0.66 -1.16,1.76 -0.43,1.98 -1.43,0.98 z m 39.63,-25.36 -4.06,-2.74 -0.66,-0.88 -0.88,-3.84 -0.55,-5.05 -0.22,-2.85 -1.1,-2.42 -1.21,-0.44 0.66,-5.27 0.66,-3.95 1.1,-2.41 0.88,-3.95 -0.11,-4.07 -2.53,-3.4 -3.18,-3.95 -1.65,-3.62 -2.19,-3.4 -2.2,-0.88 -4.94,-0.77 -5.7,-0.77 -3.08,-2.41 3.19,-2.75 7.24,1.43 1.54,-2.53 -2.64,-6.58 4.06,-3.19 3.52,-2.3 5.16,1.54 0.76,4.39 -0.44,3.73 3.19,0.11 -0.22,-5.05 1.1,-0.88 1.75,-0.11 2.53,1.21 2.08,1.76 0.77,1.31 1.1,2.42 0.22,1.64 -0.77,1.43 -3.4,0.22 -0.44,1.21 0.22,3.4 1.2,1.32 1.32,1.97 1.65,-0.66 1.75,1.65 1.65,2.64 -0.88,3.62 -0.77,3.18 -0.32,3.07 0.32,4.18 0.88,2.08 2.2,0.77 1.1,2.74 0.65,3.3 0.44,3.51 -0.11,1.97 0.55,2.97 0.44,3.95 -0.77,2.09 -2.96,3.4 -1.87,2.41 1.65,1.65 0.77,1.76 -2.31,0.54 z m 44.78,-36 -2.3,-0.77 0.98,-1.42 1.65,0.54 0.55,1.1 z m -6.04,-5.6 2.31,-0.66 0.33,2.64 -1.43,-0.33 -2.19,-0.55 z m -1.42,-5.27 2.52,-0.33 -0.11,1.1 -0.66,2.2 -1.53,-0.77 z m -0.5,-4.77 1.15,-0.39 0.94,0.22 0.66,1.6 -1.49,0.6 -1.2,-0.55 z m -0.11,-6.15 h 1.92 l 1.16,0.77 -0.66,1.98 -2.03,0.49 -0.72,-1.04 z m 1.76,-4.88 2.08,0.22 0.33,-0.11 -0.6,-0.77 -0.88,-1.59 -0.05,-1.54 1.92,-0.49 1.1,0.77 0.98,1.53 0.83,2.03 -0.72,1.05 -1.31,0.38 -1.1,-0.77 0.05,0.99 -1.48,1.97 -1.43,-0.65 -0.54,-1.16 z m 6.86,-3.73 -1.59,-2.31 -1.7,-0.93 -2.42,-1.1 -1.15,-1.98 1.26,-0.49 1.65,-0.22 0.77,-3.18 0.6,-1.37 -0.27,-1.93 -2.86,-0.54 -2.41,-0.94 -1.16,-1.92 -0.6,-2.63 -0.71,-1.59 -0.72,0.87 -1.75,0.22 -1.16,-0.33 -1.7,-2.25 -1.26,-1.75 0.22,-1.81 2.36,-1.43 2.09,-0.93 1.75,0.33 3.13,1.26 0.55,-0.44 0.71,-1.59 2.14,-1.59 1.32,-1.38 3.35,0.39 1.37,0.82 0.55,1.26 0.49,2.03 -0.98,1.87 -0.83,1.76 0.72,0.6 -1.98,1.7 0.22,1.26 1.97,0.39 1.1,1.53 1.37,2.64 v 3.35 l 1.21,1.92 -0.99,3.89 -0.38,1.54 0.55,1.76 -0.77,1.2 z m -75.19,-31.01 0.99,1.64 0.88,1.65 2.36,2.03 0.6,2.31 -1.21,-0.77 -0.33,0.6 -0.22,2.47 -1.59,-0.11 -2.47,-1.21 -0.55,-1.42 -1.09,-0.83 -0.5,-0.82 0.99,-1.37 -0.82,0.11 -1.21,2.03 -2.85,-1.65 -0.77,-2.41 0.38,-1.76 1.04,-2.19 2.36,0.27 z m 31.06,-4.06 -4.83,-3.41 -0.22,-2.19 1.43,-2.75 0.11,-2.19 -2.85,-0.66 -3.19,-1.43 1.43,-2.52 2.96,0.22 2.31,-1.1 1.32,-3.73 2.74,-3.29 6.26,-3.19 -1.43,-1.64 -3.84,-3.74 -1.32,-3.95 -4.5,-0.77 -4.17,0.77 -1.87,-2.3 -2.63,-3.08 0.44,-2.08 3.29,-0.44 2.86,-1.43 1.75,-3.07 -2.96,0.66 -2.97,2.08 -1.75,1.21 -2.75,-1.43 -0.87,-2.3 0.11,-3.4 1.75,-0.22 4.61,-1.87 2.86,-2.2 4.61,-2.74 0.11,-2.3 0.87,-2.2 1.32,-2.74 1.54,-1.87 2.63,1.54 3.95,1.75 1.1,3.52 -0.44,4.28 1.54,2.63 1.32,-1.54 1.53,1.1 0.77,1.76 1.43,2.85 1.43,3.29 -0.44,2.2 0.22,2.74 2.19,0.99 2.53,1.21 2.63,3.51 1.32,0.55 2.08,0.99 -0.66,5.71 -2.41,1.53 0.22,1.1 6.59,-0.88 0.32,1.54 -0.76,3.62 -1.65,3.18 -3.18,2.2 -3.96,2.52 -0.87,3.08 1.09,0.66 1.87,1.42 -1.21,1.43 -1.64,-1.43 -3.3,-1.64 -3.07,1.31 -2.2,2.09 -0.87,2.3 -0.33,3.74 -2.86,1.2 h -2.96 l -2.85,-1.31 -1.54,2.08 z m 273.15,234.82 -1.66,-2.67 -2.49,-1.79 -3.24,-2.99 -1.45,-1.13 -1.03,-2.89 -1.58,-3.68 -1.13,-2.93 -2.42,-2.14 -2.42,-2.14 -1.23,-0.06 -1.41,0.44 -0.79,-0.25 -2.36,-1.56 -1.8,-1.13 -1.95,-1.82 -2.39,-1.89 -1.73,-0.6 -0.53,-0.91 -2.42,-0.91 -1.29,-0.19 -1.39,0.44 -1.69,-0.16 -2.14,0.07 -6.39,3.52 -1.13,0.22 -1.73,-0.03 -0.13,0.16 -0.16,-0.07 -0.82,-1.44 0.41,-1.73 1.92,-0.88 1.06,-2.77 -1.25,-3.02 -4.66,-3.4 0.13,-3.58 -1.83,-3.96 1.95,-0.82 3.09,0.19 0.18,2.07 1.7,1.64 3.4,1.7 2.26,0.81 0.95,-1.76 3.9,-1.69 -0.88,-4.16 1.13,-2.95 4.84,-1.76 2.58,-2.27 0.38,-2.64 1.13,-2.64 -0.63,-3.27 0.94,-0.88 -1.19,-3.78 -1.64,-3.08 0.13,-4.4 -1.7,-0.94 -1.45,0.94 -2.89,2.14 -3.52,-3.9 0.25,-2.77 2.64,-4.28 -2.14,-1.88 2.02,-6.67 -0.88,-4.28 -0.76,-8.3 5.91,2.01 2.02,-4.9 4.27,-8.05 1.51,-8.05 8.93,-1.26 2.9,-1.38 1.38,1 2.77,0.51 2.64,2.13 2.52,3.78 4.9,4.27 -2.51,3.78 0.25,8.55 4.9,2.14 4.41,-2.52 2.01,-3.27 5.41,-6.54 6.79,-6.79 -0.63,4.15 7.93,-18.49 -2.27,-1.64 -0.12,-4.65 2.89,-4.53 7.42,-14.97 -3.9,0.13 -2.01,8.43 -3.9,-1.76 -6.04,1.25 -6.67,3.27 -1.76,0.13 3.78,-12.83 3.14,-0.63 2.64,-2.77 2.64,1.51 2.39,0.51 -0.62,-6.17 3.14,0.76 h 3.77 l 3.15,0.75 0.53,-3.3 -1.66,-1.54 -0.51,-2.96 0.66,-0.66 0.92,-2.29 1.35,-2.27 1.48,-2.42 0.88,-2.39 1.95,-0.09 1.51,0.22 2.23,1 1.41,-2.42 1.61,-0.57 3.87,-0.25 0.63,0.88 2.26,2.52 2.08,1.7 3.33,2.07 1.51,1.7 1.38,1.7 2.96,2.2 2.2,0.88 2.01,0.19 1.76,1.57 1.07,1.2 3.21,0.25 4.47,0.44 3.96,0.44 1.19,0.69 1.64,1.39 2.51,1.38 3.15,-0.57 2.64,-1.13 1.51,-1.01 v 1.01 l -0.75,1.51 1.63,-1.26 2.39,-1.95 0.38,-1.82 -1.51,-2.89 -2.71,-4.6 -2.83,-9.18 1.89,-0.94 1.01,-3.02 2.7,-0.82 2.83,-0.44 4.22,0.41 0.25,1.64 0.12,1.38 -0.25,1.51 -0.88,0.38 -1.51,0.75 -1.63,0.76 v 1.5 1.51 l -1.01,0.88 -0.38,0.89 1.64,-0.26 0.75,-0.63 2.27,-1.38 3.52,-0.75 2.39,-1.01 2.01,-1.01 1.26,-1.25 1.89,-2.02 2.26,0.63 1.76,0.76 0.13,1.25 0.63,2.14 2.13,0.51 2.9,0.25 h 2.39 l 2.39,-1.01 0.88,-2.51 1.89,-3.02 1.88,-1.64 2.39,-1.38 1.76,-1.89 1.14,-1.89 1,-2.26 3.4,-0.88 3.27,0.63 1.63,0.88 1.01,-0.25 3.02,0.12 3.52,0.38 1.01,3.27 4.15,0.13 6.41,5.15 0.26,1.14 -0.63,0.63 -0.38,0.5 h 2.14 l 2.51,-1.26 2.27,0.63 0.38,2.52 -2.27,0.5 -0.63,1.38 3.27,0.76 10.82,12.45 0.25,2.77 2.02,2.51 0.12,1.95 -2.14,3.78 1.51,2.2 0.13,1.76 -4.22,0.38 -0.44,0.75 -3.2,0.57 -0.19,1.32 4.09,-0.25 5.53,4.02 7.11,3.46 -0.16,-3.36 2.83,-0.04 1.04,0.76 1.6,1.89 0.29,2.48 -1.8,1.6 0.6,0.76 0.5,1.01 0.76,-0.44 h 1.48 l 0.47,2.17 0.78,0.22 1.42,1.79 2.58,1.32 3.17,2.01 3.87,1.45 3.21,1.04 2.3,2.51 3.77,1.2 6.92,-0.05 0.66,-0.85 1.05,0.46 2.41,0.01 0.14,-1.76 2.77,-2.09 -0.95,6.34 -3.58,2.14 -4.03,2.14 -3.65,-0.88 -2.26,1.82 1.07,5.6 2.64,0.88 -0.25,3.53 1.19,3.89 -9.62,15.41 -4.4,6.17 -2.01,4.9 1.25,5.04 2.39,24.9 3.9,8.43 -1.88,8.05 -6.8,3.77 -4.27,7.05 -10.57,7.55 -5.61,5.7 h 0.01 l -7.08,-0.74 -1.51,3.78 2.51,1.51 -2.01,6.79 -6.29,2.26 -12.32,-2.26 -12.71,10.19 -0.25,0.63 -2.39,-1.01 -4.4,1.89 -1.14,-1.51 -4.9,-2.52 -12.2,4.03 -1.64,-3.15 -10.19,-0.12 -2.26,-2.27 -9.94,0.89 -1.64,1.25 -3.14,-0.5 -2.77,7.55 -5.28,-2.52 1.51,-4.65 -5.16,-0.25 0.88,-2.39 4.28,-1.51 -2.89,-0.76 2.51,-6.41 -3.77,-0.76 -7.05,9.31 -5.91,7.3 -7.55,4.4 -11.13,-0.57 -6.1,2.33 -0.31,-1.89 h -1.39 l -1.13,-3.52 -2.96,-0.69 0.13,4.46 -2.64,1.32 -1.07,3.02 -2.45,0.13 -0.82,3.08 -0.38,3.84 -2.2,5.16 -1.95,1.13 -0.94,3.39 0.06,4.85 -0.06,8.11 2.64,7.14 -0.22,0.82 1.7,1.08 0.6,0.85 0.05,0.66 -0.16,0.09 -2.16,0.62 -0.38,0.69 0.82,1.67 -0.88,1.19 -1.73,0.91 -1.23,-1.6 -2.86,-0.09 -1.19,1 -1.76,-1.04 -1.45,0.14 -0.35,-0.06 -0.47,-0.58 -3.09,0.15 -0.64,-2.39 -1.3,-2.49 -0.84,-2.02 -0.2,-3.13 -0.28,-1.13 -0.32,-1.84 -1.13,-2.17 -1.04,-2.68 -0.94,-2.92 -0.63,-2.58 -0.44,-2.64 -1.23,-1.83 -0.72,0.26 -0.72,-0.22 -1.92,-2.22 -0.76,-1.65 -1.36,-2.5 -0.07,-5.66 -0.28,-0.16 -0.03,-4.06 -0.76,-2.48 0.19,-0.88 -0.19,-1.67 -0.91,-1.79 -1.07,0.5 -0.5,-0.03 -0.1,-5.38 -2.63,-4.29 -0.86,-1.68 z" />
  </g>
  <g id="text"
     style="font-size: 16px; stroke-width: 0px; font-weight: bold; fill: white; text-align: center; cursor: pointer; pointer-events: none; user-select: none; -webkit-user-select: none;">
    <text
       id="E-text"
       x="548.73859"
       y="384.96231"
       xml:space="preserve"
       text-anchor="middle"
       style="font-weight:bold;font-size:22.4186px;text-align:center;overflow:visible;fill:#ffffff;stroke-width:2.10174px;-webkit-user-select:none"><tspan
         id="tspan8988-2-59-0-1"
         x="548.73859"
         y="384.96231"
         style="stroke-width:2.10174px">East</tspan></text>
    <text
       id="N-text"
       x="424.90753"
       y="226.09351"
       xml:space="preserve"
       text-anchor="middle"
       style="font-weight:bold;font-size:22.4186px;text-align:center;overflow:visible;fill:#ffffff;stroke-width:2.10174px;-webkit-user-select:none"><tspan
         id="tspan8988-2-59-0-1-2"
         x="424.90753"
         y="226.09351"
         style="stroke-width:2.10174px">North</tspan></text>
    <text
       id="W-text"
       x="253.52597"
       y="466.37421"
       xml:space="preserve"
       text-anchor="middle"
       style="font-weight:bold;font-size:22.4186px;text-align:center;overflow:visible;fill:#ffffff;stroke-width:2.10174px;-webkit-user-select:none"><tspan
         id="tspan8988-2-59-0-1-2-9"
         x="253.52597"
         y="466.37421"
         style="stroke-width:2.10174px">West</tspan></text>
    <text
       id="S-text"
       x="582.84778"
       y="595.37665"
       xml:space="preserve"
       text-anchor="middle"
       style="font-weight:bold;font-size:22.4186px;text-align:center;overflow:visible;fill:#ffffff;stroke-width:2.10174px;-webkit-user-select:none"><tspan
         id="tspan8988-2-59-0-1-2-9-4"
         x="582.84778"
         y="595.37665"
         style="stroke-width:2.10174px">South</tspan></text>
  </g>
</svg>
