<?xml version="1.0" encoding="UTF-8" standalone="no"?>
<svg
   width="100%"
   height="100%"
   id="svgdata"
   style="overflow: visible"
   version="1.1"
   sodipodi:docname="jju-regions-list-stv-map.svg"
   inkscape:version="1.2.2 (b0a8486, 2022-12-01)"
   xmlns:inkscape="http://www.inkscape.org/namespaces/inkscape"
   xmlns:sodipodi="http://sodipodi.sourceforge.net/DTD/sodipodi-0.dtd"
   xmlns="http://www.w3.org/2000/svg"
   xmlns:svg="http://www.w3.org/2000/svg">
  <sodipodi:namedview
     id="namedview143"
     pagecolor="#505050"
     bordercolor="#eeeeee"
     borderopacity="1"
     inkscape:showpageshadow="0"
     inkscape:pageopacity="0"
     inkscape:pagecheckerboard="0"
     inkscape:deskcolor="#505050"
     showgrid="false"
     inkscape:zoom="1.0071966"
     inkscape:cx="389.19909"
     inkscape:cy="436.85612"
     inkscape:window-width="1703"
     inkscape:window-height="980"
     inkscape:window-x="0"
     inkscape:window-y="25"
     inkscape:window-maximized="0"
     inkscape:current-layer="outlines" />
  <defs
     id="svgdefinitions" />
  <g
     id="outlines"
     style="stroke: rgb(24, 25, 34); stroke-width: 1.125px;">
    <path
       id="E-1"
       d="M 655.85938 125.18945 L 651.08008 130.2207 L 654.59961 136.50977 L 660.64062 136.76953 L 658.88086 142.80078 L 658.36914 144.56055 L 652.08008 137.51953 L 649.07031 130.73047 L 634.4707 131.23047 L 626.66992 126.44922 L 619.38086 134.25 L 616.60938 140.78906 L 607.81055 140.78906 L 598.75 148.33984 L 586.16992 157.14062 L 576.10938 164.43945 L 568.56055 168.46094 L 567.55078 175.18945 L 563.9707 177.33008 L 559.93945 179.4707 L 556.28906 178.58984 L 554.0293 180.41016 L 555.09961 186.00977 L 557.74023 186.89062 L 557.49023 190.41992 L 558.67969 194.31055 L 549.06055 209.7207 L 544.66016 215.89062 L 542.65039 220.78906 L 543.90039 225.83008 L 546.28906 250.73047 L 550.18945 259.16016 L 548.31055 267.21094 L 541.50977 270.98047 L 537.24023 278.0293 L 526.66992 285.58008 L 521.0625 291.27734 L 513.99023 290.53906 L 512.48047 294.32031 L 514.99023 295.83008 L 512.98047 302.61914 L 506.68945 304.88086 L 494.36914 302.61914 L 481.66016 312.81055 L 481.41016 313.43945 L 479.01953 312.42969 L 474.61914 314.32031 L 473.48047 312.81055 L 468.58008 310.28906 L 456.38086 314.32031 L 454.74023 311.16992 L 444.55078 311.05078 L 442.28906 308.7793 L 432.34961 309.66992 L 430.71094 310.91992 L 427.57031 310.41992 L 424.80078 317.9707 L 419.51953 315.44922 L 421.0293 310.80078 L 415.86914 310.55078 L 416.75 308.16016 L 421.0293 306.65039 L 418.14062 305.89062 L 420.65039 299.48047 L 416.88086 298.7207 L 409.83008 308.0293 L 403.91992 315.33008 L 396.36914 319.73047 L 385.24023 319.16016 L 379.14062 321.49023 L 378.83008 319.59961 L 377.43945 319.59961 L 376.31055 316.08008 L 373.34961 315.39062 L 373.48047 319.84961 L 370.83984 321.16992 L 369.76953 324.18945 L 367.32031 324.32031 L 366.5 327.40039 L 366.11914 331.24023 L 363.91992 336.40039 L 361.9707 337.5293 L 361.0293 340.91992 L 361.08984 345.76953 L 361.0293 353.88086 L 363.66992 361.01953 L 363.44922 361.83984 L 365.71094 363.2793 L 365.81055 364.48047 L 363.48047 365.14062 L 363.09961 365.83008 L 363.91992 367.5 L 363.03906 368.68945 L 361.31055 369.59961 L 360.08008 368 L 357.2207 367.91016 L 356.0293 368.91016 L 354.26953 367.86914 L 352.53906 368.0293 L 352 367.36914 L 348.73047 367.5293 L 349.66992 374.57031 L 350.36914 378.2793 L 349.80078 383.18945 L 351.61914 385.83008 L 351.31055 387.33984 L 351.75 388.66016 L 350.61914 390.66992 L 349.99023 394.50977 L 348.98047 397.83984 L 351.61914 402.17969 L 351.93945 405.08008 L 355.58984 408.98047 L 356.4707 410.55078 L 356.33984 413.32031 L 358.03906 417.41016 L 356.08984 420.60938 L 353.75977 422.68945 L 353.50977 425.58008 L 355.46094 427.5293 L 357.59961 429.91992 L 359.66992 431.31055 L 360.61914 431.67969 L 361.31055 434.69922 L 362.57031 437.7793 L 364.89062 441.7793 L 365.81055 444.23047 L 367.5 445.99023 L 367.18945 447.63086 L 368.44922 449.89062 L 369.00977 452.2793 L 369.08008 455.30078 L 368.50977 458.07031 L 367 462.91016 L 365.92969 467.56055 L 365.30078 473.23047 L 363.16016 479.14062 L 360.71094 483.16016 L 357.18945 488.25977 L 356.30078 491.75 L 387.57031 495.50977 L 398.64062 503.56055 L 410.21094 501.53906 L 419.76953 504.56055 L 434.35938 503.30078 L 449.96094 516.14062 L 457.75977 516.39062 L 462.53906 520.41016 L 464.80078 514.36914 L 471.08984 515.38086 L 471.34961 511.85938 L 477.38086 510.09961 L 489.21094 503.30078 L 500.5293 504.56055 L 500.5293 506.83008 L 501.78906 511.35938 L 507.09961 511.13086 L 506.99023 511.5293 L 507.00977 511.5293 L 509.40039 512.5293 L 516.82031 511.08984 L 517.13086 507.68945 L 521.09961 506.11914 L 525 503.98047 L 538.64062 497.18945 L 548.19922 490.76953 L 562.53906 485.67969 L 567.98047 487.9707 L 581.53906 485.99023 L 591.82031 483.69922 L 595.66016 484.80078 L 607.03906 480.35938 L 613.14062 482.11914 L 631.34961 478.84961 L 634.33984 476.7793 L 637.44922 473.07031 L 640.39062 472.65039 L 640.39062 472.66016 L 641.08008 472.66016 L 641.03906 472.63086 L 640.5293 472.63086 C 640.4328 472.64736 640.51953 472.56055 640.51953 472.56055 L 644.93945 472.38086 L 647.51953 469.61914 L 647.51953 466.4707 L 650.28906 461.99023 L 651.41016 459.75977 L 654.17969 453.39062 L 657.71094 446.2793 L 656.69922 443.89062 L 663.36914 437.34961 L 669.58984 432.75977 L 673.86914 429.67969 L 676.25977 425.65039 L 674.88086 423.69922 L 672.66992 425.15039 L 672.66992 423.89062 L 673.92969 419.16992 L 675.38086 418.03906 L 678.65039 418.35938 L 686.19922 410.91992 L 691.98047 404.53906 L 693.67969 402.32031 L 696.07031 400.24023 L 696.94922 397.0293 L 700.16016 392.13086 L 705.63086 387.28906 L 713.36914 385.46094 L 716.83008 383.64062 L 716.75977 381.93945 L 721.03906 380.74023 L 722.92969 378.53906 L 722.41992 376.2207 L 720.18945 374.96094 L 718.18945 373.89062 L 716.7207 372.80078 L 717.66016 371.00977 L 720.40039 370.03906 L 721.83008 368.23047 L 721.14062 366.5293 L 723.53906 364.16016 L 722.5 363.51953 L 720.96094 363.66016 L 720.63086 364.26953 L 717.88086 364.18945 L 717.63086 365.40039 L 718.53906 366.90039 L 718.57031 367.65039 L 713.21094 365.80078 L 710.16016 366.16992 L 708.80078 365.25977 L 709.5 365.2793 L 710.24023 364.71094 L 710.49023 363.7793 L 711.09961 362.83984 L 710.59961 361.96094 L 713.0293 360.91016 L 715.0293 360.58008 L 716.83984 357.40039 L 717.11914 356.2793 L 720.35938 356.2207 L 722.75 354.49023 L 723.41016 351.88086 L 722.91016 348.69922 L 719.48047 347.53906 L 718.0293 346.16016 L 714.94922 346.78906 L 714.25977 348.10938 L 715.14062 351.25 L 713.18945 354.40039 L 711.81055 351.68945 L 710.80078 349.99023 L 704.58008 349.30078 L 701.81055 351.88086 L 702 354.65039 L 704.50977 354.76953 L 705.39062 353.96094 L 707.7207 353.69922 L 707.41016 354.90039 L 704.83008 355.33984 L 703.07031 358.03906 L 703.25 360.36914 L 701.82031 360.44922 L 701.53906 361.66016 L 701.56055 363.56055 L 701.86914 363.9707 L 702.88086 364 L 703.68945 364.42969 L 704.83008 364.24023 L 705.35938 363.10938 L 705.43945 361.16992 L 704.2793 361.0293 L 704.00977 360.56055 L 705.99023 360.42969 L 706.53906 359.71094 L 707.14062 358.93945 L 707.96094 358.39062 L 708.82031 358.55078 L 708.0293 359.68945 L 708.21094 360.75977 L 708.40039 360.98047 L 707.31055 361.10938 L 706.44922 361.64062 L 706.23047 363.08008 L 707.03906 363.91016 L 707.93945 364.68945 L 707.80078 365.14062 L 706.7793 365.4707 L 704.73047 365.44922 L 702.83008 365.08984 L 702.00977 364.26953 L 701.11914 363.5 L 697.74023 362.21094 L 689.9707 360.98047 L 687.4707 359.42969 L 683.57031 357.86914 L 683.65039 357.65039 L 685.16016 357.46094 L 687.33008 358.15039 L 688.58008 356.01953 L 689.81055 355.07031 L 689.61914 353.7793 L 690.93945 355.28906 L 692.91992 355.07031 L 694.67969 354.0293 L 696.44922 354.88086 L 698.30078 354.43945 L 701.23047 353.91016 L 700.75 351.10938 L 702.00977 350.34961 L 702.00977 349 L 703.74023 348.91016 L 706.75977 347.46094 L 706.91992 345.48047 L 703.92969 341.71094 L 706.94922 336.30078 L 707.96094 326.10938 L 707.19922 322.58984 L 707.33008 318.25 L 698.58008 319.68945 L 698.26953 322.21094 L 694.61914 321.14062 L 692.60938 323.58984 L 691.09961 326.30078 L 691.66992 328.06055 L 693.86914 330.00977 L 695.18945 332.71094 L 697.07031 334.84961 L 697.19922 336.99023 L 693.42969 340.64062 L 689.01953 341.26953 L 691.34961 339 L 691.91992 335.66992 L 692.85938 335.91992 L 694.81055 334.84961 L 694.61914 332.96094 L 692.91992 330.07031 L 690.2207 328.93945 L 688.08008 330.13086 L 687.44922 332.33984 L 688.83984 333.08984 L 685.31055 334.66016 L 682.03906 333.7793 L 678.26953 332.40039 L 676.75977 336.66992 L 674.86914 341.19922 L 673.42969 343.0293 L 673.99023 344.66016 L 675.63086 344.4707 L 674.11914 346.55078 L 674.81055 352.65039 L 679.5293 352.58984 L 681.09961 352.08008 L 682.35938 354.0293 L 683.10938 355.41992 L 682.35938 356.10938 L 683.65039 357.64062 L 683.56055 357.86914 L 683.05078 357.46094 L 682.10938 356.58984 L 681.89062 355.7207 L 680.66992 353.5 L 671.14062 353.93945 L 673.2207 344.89062 L 672.40039 342.25 L 674.78906 339.73047 L 674.03906 336.58008 L 678.5 329.66992 L 679.69922 327.58984 L 681.71094 330.16992 L 684.73047 331.05078 L 688.06055 328.91016 L 689.75977 325.39062 L 691.39062 321.86914 L 691.39062 318.4707 L 689 315.89062 L 674.34961 321.05078 L 679 314.63086 L 688.43945 308.33984 L 690.69922 296.65039 L 694.09961 289.2207 L 688.82031 283.82031 L 695.85938 280.53906 L 693.4707 276.39062 L 693.7207 248.7207 L 695.23047 239.16016 L 701.26953 221.92969 L 705.41992 217.90039 L 704.53906 211.10938 L 702.2793 210.23047 L 702.7793 212.61914 L 701.51953 212.10938 L 699.89062 204.06055 L 707.81055 199.53906 L 714.59961 190.73047 L 715.74023 175.25977 L 707.67969 165.18945 L 689.57031 148.83984 L 685.80078 151.35938 L 685.55078 155.38086 L 676.24023 151.35938 L 678 142.80078 L 673.9707 134.5 L 655.85938 125.18945 z M 634.72461 213.05273 A 30 30 0 0 1 664.72461 243.05273 A 30 30 0 0 1 634.72461 273.05273 A 30 30 0 0 1 604.72461 243.05273 A 30 30 0 0 1 634.72461 213.05273 z M 507.82031 511.09961 L 507.7207 511.40039 L 507.32031 511.13086 L 507.82031 511.09961 z " />
    <path
       id="S-1"
       d="M 723.59961 364.08984 L 721.14062 366.5293 L 721.83008 368.23047 L 720.40039 370.03906 L 717.66016 371.00977 L 716.7207 372.80078 L 718.18945 373.89062 L 720.18945 374.96094 L 722.41992 376.2207 L 722.92969 378.53906 L 721.03906 380.74023 L 716.75977 381.93945 L 716.83008 383.64062 L 713.36914 385.46094 L 705.63086 387.28906 L 700.16016 392.13086 L 696.94922 397.0293 L 696.07031 400.24023 L 693.67969 402.32031 L 690.59961 406.33984 L 687.19922 409.92969 L 678.65039 418.35938 L 675.38086 418.03906 L 673.92969 419.16992 L 672.66992 423.89062 L 672.66992 425.15039 L 674.88086 423.69922 L 676.25977 425.65039 L 673.86914 429.67969 L 669.58984 432.75977 L 663.36914 437.34961 L 656.69922 443.89062 L 657.71094 446.2793 L 654.17969 453.39062 L 650.78906 461.18945 L 647.51953 466.4707 L 647.51953 469.61914 L 644.93945 472.38086 L 640.51953 472.56055 L 640.5293 472.63086 L 637.44922 473.07031 L 634.33984 476.7793 L 631.34961 478.84961 L 613.14062 482.11914 L 607.03906 480.35938 L 595.66016 484.80078 L 591.82031 483.69922 L 581.53906 485.99023 L 567.98047 487.9707 L 562.53906 485.67969 L 548.19922 490.76953 L 538.64062 497.18945 L 525 503.98047 L 521.09961 506.11914 L 517.13086 507.68945 L 516.82031 511.08984 L 509.40039 512.5293 L 507.00977 511.5293 L 506.99023 511.5293 L 506.38086 513.89062 L 495.31055 520.67969 L 494.55078 525.83984 L 489.01953 530.74023 L 485.86914 538.41992 L 480.9707 543.19922 L 473.16992 544.83008 L 471.44922 539.66992 L 471.2793 539.16992 L 465.5 543.07031 L 455.81055 551.11914 L 451.0293 554.00977 L 444.99023 559.30078 L 437.18945 567.4707 L 429.90039 572.88086 L 417.82031 582.38086 L 413.98047 588.09961 L 406.11914 593.64062 L 402.28906 598.85938 L 400.26953 611.56055 L 395.24023 619.86914 L 390.51953 619.16992 L 389.71094 633.25977 L 382.53906 638.55078 L 376.61914 647.09961 L 370.96094 649.99023 L 373.23047 664.21094 L 368.89062 672.32031 L 371.9707 675.21094 L 371.33984 678.41992 L 362.4707 683.19922 L 361.15039 687.34961 L 357.06055 689.42969 L 356.56055 699.86914 L 355.24023 702.32031 L 355.86914 706.34961 L 359.08008 708.74023 L 362.84961 707.28906 L 364.16992 714.46094 L 365.81055 714.90039 L 365.17969 716.73047 L 363.78906 720.5 L 363.98047 724.65039 L 364.80078 727.41992 L 370.21094 729.11914 L 372.16016 731.18945 L 373.34961 734.08008 L 376.11914 734.71094 L 378.41992 736.18945 L 378.50977 736.0293 L 378.91992 735.36914 L 381.81055 734.36914 L 384.58008 735.5 L 387.34961 734.86914 L 391.31055 734.05078 L 394.26953 734.36914 L 395.21094 736.07031 L 395.46094 733.99023 L 397.78906 736.50977 L 402.75977 736.50977 L 405.46094 731.91016 L 407.2207 729.15039 L 409.74023 726.57031 L 411.93945 724.86914 L 413.75977 722.60938 L 417.2207 721.41016 L 418.41992 723.80078 L 416.91016 727.13086 L 417.53906 729.26953 L 419.60938 729.9707 L 423.64062 728.90039 L 424.83008 731.4707 L 424.33008 734.36914 L 427.28906 735.75 L 429.30078 732.80078 L 429.92969 729.58984 L 433.50977 726.94922 L 435.83984 724.56055 L 438.91992 723.55078 L 442.57031 723.35938 L 446.7207 723.85938 L 451.93945 724.42969 L 456.84961 726.43945 L 460.31055 728.58008 L 465.5293 730.7793 L 475.2793 737.64062 L 475.7793 741.28906 L 487.73047 742.16992 L 498.91992 741.41016 L 510.36914 734.11914 L 516.41016 726.82031 L 516.41016 720.2793 L 520.06055 715.11914 L 522.57031 710.7207 L 528.74023 708.58008 L 535.91016 710.08984 L 541.32031 710.2207 L 544.83984 707.94922 L 547.98047 710.4707 L 550.25 710.4707 L 555.0293 712.73047 L 555.91016 717.25977 L 560.18945 717.75977 L 558.80078 720.7793 L 558.80078 722.91992 L 557.28906 722.91992 L 557.66992 728.08008 L 570.36914 726.82031 L 583.08008 719.90039 L 595.41016 714.36914 L 599.56055 711.59961 L 603.58008 708.58008 L 614.7793 704.30078 L 622.07031 697.64062 L 624.83984 693.99023 L 632.51953 694.49023 L 633.65039 699.26953 L 629.5 704.81055 L 632.39062 708.96094 L 640.43945 709.96094 L 646.48047 713.49023 L 649.36914 716.88086 L 652.25977 718.14062 L 655.78906 716.13086 L 664.7207 709.83984 L 669.75 708.33008 L 674.2793 700.7793 L 678.67969 692.85938 L 679.56055 688.44922 L 683.46094 682.16016 L 687.99023 678.00977 L 691.13086 676 L 698.42969 666.82031 L 702.71094 660.40039 L 702.64062 658.91992 L 701.09961 657.91992 L 699.84961 657.98047 L 691.41992 668.30078 L 691.41992 666.75 L 692.00977 665.58984 L 691.94922 665.15039 L 691.23047 665.33984 L 690.66016 667.03906 L 689.58984 669.08008 L 687.89062 672.69922 L 681.91992 679.10938 L 679.08984 681.82031 L 675.43945 687.34961 L 670.59961 691.75977 L 669.33984 688.80078 L 666.44922 689.24023 L 662.03906 690.68945 L 660.84961 693.26953 L 658.96094 691 L 655.06055 690.88086 L 651.41992 691.88086 L 650.78906 692.94922 L 649.2793 691.82031 L 651.48047 690.61914 L 653.67969 688.35938 L 653.74023 685.9707 L 652.30078 682.82031 L 653.24023 682.07031 L 653.81055 682.57031 L 660.91016 682.94922 L 661.73047 678.35938 L 660.59961 676.4707 L 659.65039 675.40039 L 659.65039 669.05078 L 657.08008 663.96094 L 653.61914 660.91016 L 653.58984 658.55078 L 651.59961 656.88086 L 653.30078 655.9707 L 653.81055 652.78906 L 653.71094 651.38086 L 651.66992 650.7793 L 651.53906 649.67969 L 648.61914 649.71094 L 648.40039 651.4707 L 646.73047 651.13086 L 646.09961 649.76953 L 646.23047 648.99023 L 647.44922 648.25977 L 647.55078 647.07031 L 648.83984 646.84961 L 650.13086 645.86914 L 650.75977 644.86914 L 659.36914 651.5293 L 659.5 652.59961 L 660 653.03906 L 660.88086 652.48047 L 661.19922 651.9707 L 660.98047 650.56055 L 660.25 650.36914 L 659.36914 651.5 L 650.82031 644.83984 L 650.84961 642.73047 L 652.91992 641.82031 L 653.92969 640.7793 L 656.91992 640.42969 L 658.43164 637.99414 L 658.99023 638.91992 L 659.58008 639.48047 L 659.68945 641.32031 L 660.08984 642.01953 L 661.25977 642.44922 L 665.24023 642.56055 L 666.51953 641.78906 L 667.07031 642.33984 L 667.40039 643.83008 L 669.51953 643.9707 L 669.84961 645.08984 L 669.80078 646.75 L 671.55078 648.03906 L 671.59961 649.09961 L 665.34961 656.94922 L 664.76953 656.93945 L 664.21094 656.66992 L 663.83984 655.91016 L 663.17969 655.83984 L 662.55078 656.82031 L 662.16992 657.66992 L 661.69922 659.40039 L 660.2207 659.76953 L 660.34961 660.40039 L 662.30078 660.7207 L 663.33008 660.06055 L 665.32031 658.44922 L 665.34961 656.9707 L 671.59961 649.10938 L 671.78906 650.2793 L 671.34961 651.75 L 671.03906 653.89062 L 670.7207 655.65039 L 671.53906 658.51953 L 673.90039 658.96094 L 676.32031 660.15039 L 677.92969 660.93945 L 679.56055 662.07031 L 682.08008 662.16016 L 682.60938 661.9707 L 683.74023 661.2207 L 685.09961 659.96094 L 687.39062 660.17969 L 688.43945 660.32031 L 689.48047 660.08984 L 690.49023 659.48047 L 691.26953 658.71094 L 692.03906 657.81055 L 695.01953 657.75 L 698.03906 654.23047 L 699.80078 651.71094 L 701.31055 648.43945 L 702.07031 645.66992 L 702.82031 643.41016 L 703.33008 640.64062 L 703.33008 637.36914 L 703.58008 633.59961 L 707.34961 631.33008 L 708.10938 632.08984 L 710.11914 635.09961 L 713.64062 634.09961 L 716.66016 635.85938 L 722.94922 633.08984 L 721.93945 632.08984 L 725.21094 629.32031 L 726.7207 626.80078 L 727.98047 623.5293 L 728.74023 619.50977 L 727.23047 618.25 L 726.2207 614.48047 L 727.73047 611.46094 L 729.49023 607.67969 L 732.50977 605.16992 L 734.51953 603.15039 L 738.55078 601.64062 L 741.57031 598.88086 L 742.07031 595.34961 L 741.57031 589.07031 L 743.83008 582.01953 L 746.08984 580.75977 L 748.85938 581.00977 L 752.89062 579 L 753.00977 577.05078 L 756.75977 575.34961 L 760.41992 563.33008 L 761.35938 563.03906 L 761.53906 562.49023 L 766.21094 558.2793 L 766.18945 556.76953 L 766.01953 556.33984 L 764.89062 556.26953 L 764.32031 556.11914 L 764.33984 555.4707 L 764.64062 555.33984 L 764.69922 550.9707 L 766.17969 550.75977 L 766.25977 550.07031 L 764.65039 549.58984 L 765.58984 547.60938 L 767.99023 546.66992 L 769.38086 548.31055 L 769.5293 548.88086 L 769.35938 549.39062 L 766.92969 551.31055 L 765.88086 552.58984 L 765.43945 553.74023 L 765.34961 555.05078 L 766.89062 555.10938 L 767.7207 553.91016 L 768.9707 553.5 L 770.28906 553.57031 L 771.68945 552.28906 L 772.69922 552.28906 L 774.81055 553.85938 L 776.58008 554.5 L 778.44922 554.65039 L 778.91016 554 L 780.35938 554.2793 L 782.09961 554.41016 L 784.16016 553.80078 L 784.92969 553.13086 L 784.80078 550.60938 L 782.16016 549.41992 L 777.63086 549.16016 L 775.42969 548.2793 L 776.56055 546.08008 L 776 541.42969 L 773.28906 536.96094 L 771.4707 533.18945 L 769.76953 527.08984 L 770.46094 523.82031 L 767.25 520.10938 L 767.18945 514.44922 L 765.36914 512.06055 L 767.88086 505.07031 L 766.61914 498.66016 L 766.56055 497.33984 L 768.39062 499.34961 L 770.65039 499.73047 L 772.78906 500.80078 L 774.35938 500.66992 L 773.78906 498.84961 L 772.25 496.76953 L 770.36914 490.41992 L 767.73047 486.10938 L 767.2793 483.7207 L 767.94922 483.5293 L 767.66016 481.76953 L 766.56055 480.53906 L 765.74023 479.73047 L 764.26953 475.94922 L 763.39062 470.94922 L 761.25 467.56055 L 757.75977 466.49023 L 757.5 464.25 L 755.36914 463.18945 L 753.03906 464.32031 L 752.41016 463.43945 L 753.34961 461.99023 L 753.41992 458.2793 L 754.60938 457.08008 L 756.88086 453 L 756.81055 447.83984 L 755.42969 444.68945 L 753.16016 439.73047 L 748.94922 437.21094 L 746.06055 436.76953 L 744.16992 434.32031 L 741.2793 433.56055 L 738.19922 434.88086 L 736.86914 429.98047 L 734.35938 428.08984 L 732.78906 428.0293 L 732.4707 429.0293 L 730.51953 430.98047 L 731.0293 428.91016 L 730.01953 428.91016 L 731.33984 424.63086 L 733.85938 421.74023 L 733.34961 417.26953 L 734.30078 417.40039 L 734.03906 416.76953 L 738.19922 412.99023 L 738.13086 410.16016 L 736.81055 408.58984 L 738.38086 406.33008 L 736.93945 406.89062 L 735.74023 405.89062 L 733.41992 405.94922 L 733.09961 407.65039 L 731.58984 406.64062 L 733.34961 404.82031 L 732.41016 402.55078 L 733.91992 402.49023 L 734.23047 401.16992 L 734.41992 398.21094 L 731.42969 395.69922 L 729.66992 393.42969 L 727.5293 393.68945 L 726.2793 394.38086 L 725.33008 394.18945 L 725.33008 389.16016 L 727.08984 385.75977 L 726.40039 380.66992 L 724.89062 376.33008 L 722.9707 374.67969 L 721.41992 372.83984 L 722.64062 371.63086 L 722.90039 368.7793 L 724.88086 366.35938 L 723.59961 364.08984 z M 687.39062 660.17969 L 687.39062 662.44922 L 685.06055 663.30078 L 684.5293 664.26953 L 683.7793 665.65039 L 684.2207 666.59961 L 685.10938 666.4707 L 685.25 666.2207 L 685.7207 665.57031 L 686.30078 665.03906 L 686.23047 664.46094 L 687.03906 664.05078 L 688.44922 663.93945 L 688.46094 662.9707 L 688.2207 662.49023 L 687.42969 662.43945 L 687.39062 660.17969 z M 700.51758 504.09766 A 30 30 0 0 1 730.51758 534.09766 A 30 30 0 0 1 700.51758 564.09766 A 30 30 0 0 1 670.51758 534.09766 A 30 30 0 0 1 700.51758 504.09766 z M 786.18945 552.81055 L 785.49023 553.38086 L 785.16016 553.57031 L 785.16016 554.5293 L 784.55078 555.71094 L 784.68945 558.00977 L 785.01953 560.18945 L 786.61914 560.42969 L 786.55078 561.01953 L 787.0293 562.43945 L 788.24023 562.74023 L 788.39062 562.06055 L 787.67969 561.31055 L 787.32031 560.16016 L 788.24023 558.23047 L 789.14062 558.7793 L 788.64062 559.7207 L 787.67969 560.86914 L 788.2793 561.31055 L 789.41992 560.0293 L 790.7793 558.90039 L 790.51953 557.4707 L 790.40039 555.39062 L 788.50977 553.06055 L 786.18945 552.81055 z M 795.64062 556.82031 L 791.67969 556.94922 L 791.51953 557.91016 L 791.48047 559.66992 L 791.81055 560.69922 L 793.56055 561.41016 L 795.25977 561.33008 L 795.67969 559.42969 L 795.88086 557.17969 L 795.64062 556.82031 z M 798.2793 558.75977 L 796.85938 558.7793 L 796.38086 559.66016 L 795.91992 559.9707 L 795.98047 561.78906 L 798.91016 561.73047 L 799 559.86914 L 798.2793 558.75977 z " />
    <path
       id="W-1"
       d="M 210.63086 239.40039 L 208.58984 239.41016 L 207.98047 239.69922 L 206.78906 240.21094 L 205.41016 240.53906 L 204.90039 240.83008 L 204.23047 241.41016 L 202.60938 241.58984 L 201.58008 242.10938 L 201.24023 243.56055 L 201.07031 245.38086 L 200.75 246.93945 L 199.34961 246.89062 L 199.44922 247.35938 L 199.59961 247.92969 L 200.41992 248.14062 L 200.40039 248.44922 L 198.88086 248.5 L 198.74023 248.17969 L 198.93945 247.67969 L 199.13086 247.30078 L 199.15039 246.58984 L 198.68945 246.4707 L 198.31055 246 L 198.26953 243.2793 L 198.44922 243.19922 L 198.55078 241.5293 L 198.2207 241.06055 L 196.82031 241.03906 L 196.35938 242.53906 L 196.0293 243.61914 L 195.83008 244.57031 L 195.58984 245.08008 L 195.25 245.9707 L 195 246.4707 L 194.71094 247.08008 L 194.32031 247.65039 L 193.96094 248.25 L 193.41992 248.53906 L 192.83984 247.78906 L 191.90039 247.88086 L 192.11914 249.16016 L 191.41016 250.65039 L 189.10938 251.5293 L 188.35938 252.94922 L 187.41992 254.19922 L 185.61914 255.42969 L 184.08008 255.61914 L 183.99023 256.06055 L 183.60938 256.11914 L 183.30078 257.66016 L 182.16016 259.10938 L 180.43945 262.32031 L 178.14062 263.58008 L 176.57031 266.9707 L 174.26953 268.50977 L 172.64062 269.51953 L 172.66992 272.98047 L 173.71094 275.46094 L 173.96094 277.50977 L 175.17969 280.24023 L 174.10938 281.9707 L 174.10938 283.73047 L 175.36914 284.67969 L 175.9707 287.26953 L 175.40039 289.2793 L 174.17969 290.89062 L 174.65039 291.44922 L 173.16992 295.23047 L 171.53906 295.98047 L 168.16992 295.23047 L 165.75 295.28906 L 162.85938 297.15039 L 161.7207 298.11914 L 160.7793 303.75 L 160.68945 307.17969 L 160.9707 308.68945 L 159.15039 309.82031 L 159.65039 312.56055 L 161.13086 313.88086 L 163.19922 315.85938 L 164.24023 317.58984 L 168.00977 318.25 L 169.10938 318.06055 L 169.40039 316.71094 L 170.7793 315.64062 L 171.75977 314.68945 L 171.84961 316.01953 L 171 317.46094 L 170.9707 319.75977 L 170.31055 319.73047 L 170.33984 322.08008 L 169.08008 323.9707 L 166.84961 325.44922 L 165.33984 326.60938 L 164.81055 329.25977 L 160.7793 329.25977 L 157.25977 332.01953 L 156.5 342.33984 L 158.76953 345.60938 L 155.75 348.63086 L 158.25977 353.91016 L 156.75977 359.18945 L 154.24023 361.21094 L 152.73047 367.5 L 148.96094 372.5293 L 146.43945 372.7793 L 141.41016 372.5293 L 140.40039 375.55078 L 141.41016 380.33008 L 142.42969 380.68945 L 142.82031 379.75977 L 142.38086 378.99023 L 142.61914 378.5293 L 143.7207 378.4707 L 144.17969 377.7793 L 144.35938 376.68945 L 144.53906 376.05078 L 145.65039 376.57031 L 146.4707 376.66016 L 147.57031 377.73047 L 147.21094 378.96094 L 146.13086 379.91992 L 144.99023 379.50977 L 143.84961 379.48047 L 143.55078 380.5293 L 142.91992 381.05078 L 141.99023 381.21094 L 141.5293 381.71094 L 140.11914 382.39062 L 139.55078 383.13086 L 139.33008 384.89062 L 138.99023 385.00977 L 139.05078 387.15039 L 140.4707 388.25 L 140.7207 389.94922 L 141.0293 391.46094 L 139.90039 393.18945 L 139.24023 393.06055 L 138.91992 391.74023 L 138.23047 391.74023 L 138.07031 392.9707 L 137.09961 393.66016 L 136.59961 394.25977 L 135.91016 394.25977 L 135.31055 395.35938 L 134.05078 395.51953 L 133.58008 394.82031 L 133.41992 393.18945 L 131.68945 392.81055 L 131.9707 392.2793 L 131.82031 390.91992 L 131.2793 390.64062 L 130.7207 390.83008 L 130.5 391.49023 L 130.36914 392.58984 L 129.90039 392.86914 L 129.90039 393.75 L 130.5 394.09961 L 128.85938 397.68945 L 127.73047 400.96094 L 126.84961 403.66016 L 126.11914 404.94922 L 122.78906 415.33008 L 119.51953 419.73047 L 118.25977 422.61914 L 117.57031 426.40039 L 117.00977 427.08984 L 116.43945 426.96094 L 115.86914 429.98047 L 115.36914 434.00977 L 115.5 436.46094 L 115.93945 440.05078 L 116.06055 443.25 L 114.49023 450.55078 L 115.75 453.68945 L 115.24023 458.09961 L 118.50977 463.25 L 120.2793 466.15039 L 124.42969 471.30078 L 127.44922 474.58008 L 132.48047 480.35938 L 137.25977 486.90039 L 139.76953 494.69922 L 141.78906 496.58984 L 143.16992 501.86914 L 147.44922 502.11914 L 148.08008 498.84961 L 154.36914 499.23047 L 155.5 497.4707 L 158.25977 496.58984 L 161.78906 500.86914 L 167.44922 502.63086 L 164.81055 504.89062 L 160.40039 508.41016 L 158.39062 510.67969 L 161.2793 511.93945 L 164.17969 513.07031 L 164.55078 516.9707 L 169.83984 517.84961 L 170.7207 515.46094 L 175.88086 516.83984 L 182.66992 521.61914 L 190.4707 523.13086 L 193.99023 524.64062 L 193.85938 527.78906 L 191.84961 529.03906 L 192.48047 532.31055 L 196.25 533.44922 L 197.89062 530.92969 L 200.5293 528.91992 L 203.67969 527.91016 L 203.67969 526.2793 L 205.68945 529.03906 L 205.48047 529.41992 L 204.59961 529.07031 L 202.36914 529.16992 L 201.40039 529.66992 L 201.46094 531.61914 L 201.58008 532.88086 L 203.06055 533.73047 L 204.32031 533.89062 L 201.42969 535.26953 L 201.71094 538.84961 L 202.5293 540.58008 L 204.48047 540.51953 L 205.69922 539.35938 L 206.61914 540.51953 L 208.75 541.5 L 210.39062 541.33984 L 211.21094 540.14062 L 212.06055 539.33008 L 212.46094 537.93945 L 211.90039 536.58984 L 211.26953 535.40039 L 212.61914 535.24023 L 213.16016 534.35938 L 214.00977 534.10938 L 213.66016 531.93945 L 212.9707 531.01953 L 212.08984 530.67969 L 210.44922 530.80078 L 209.50977 531.93945 L 209.69922 533.75977 L 210.25977 533.98047 L 210.33008 534.96094 L 208.5293 534.69922 L 207.58984 533.82031 L 204.98047 533.89062 L 204.89062 533.25977 L 205.58008 532.82031 L 206.05078 532.0293 L 206.33008 531.11914 L 206.42969 530.17969 L 205.74023 529.60938 L 206.92969 528.89062 L 211.10938 529.76953 L 211.86914 529.73047 L 212.17969 528.09961 L 213.34961 527.9707 L 212.5293 528.73047 L 212.56055 530.80078 L 215.14062 531.67969 L 216.46094 533.34961 L 215.74023 533.69922 L 215.23047 538.57031 L 217.24023 538.53906 L 214.63086 539.85938 L 214.59961 541.33984 L 216.55078 541.7207 L 218.75 542.7207 L 219.78906 542.66016 L 220.64062 540.90039 L 222.15039 540.17969 L 222.68945 538.78906 L 222.93945 537.13086 L 222.81055 534.80078 L 224.41992 533.73047 L 225.14062 532.91016 L 224.38086 530.67969 L 225.08008 529.99023 L 227.06055 531.01953 L 227.65039 532.4707 L 227.58984 533.13086 L 226.49023 534.19922 L 225.00977 534.25977 L 225.10938 535.61914 L 227.08984 535.58008 L 228.06055 534.23047 L 228.9707 533.09961 L 229.57031 532.0293 L 230.66992 531.5 L 232.0293 532.11914 L 233.75977 532.92969 L 233.78906 532.89062 L 233.75977 532.83008 L 235.46094 535.88086 L 237.31055 539.16016 L 240.76953 538.21094 L 243.4707 540.09961 L 246.71094 547.92969 L 248.57031 552.08008 L 256.65039 554.18945 L 251.86914 557.46094 L 248.32031 555.94922 L 246.71094 554.38086 L 244.80078 554.4707 L 243.32031 556.16992 L 239.66992 556.23047 L 238.07031 552.35938 L 236.65039 549.84961 L 232.56055 551.00977 L 229.19922 555.16016 L 226.17969 555.53906 L 223.66016 556.99023 L 219.69922 566.10938 L 219.25977 568.56055 L 218.57031 568.81055 L 218.68945 572.14062 L 215.49023 574.2793 L 215.23047 577.42969 L 214.41992 577.35938 L 215.30078 580.00977 L 217 579.93945 L 218.75977 582.08008 L 221.46094 581.51953 L 222.15039 578.75 L 223.2793 577.35938 L 224.73047 576.55078 L 226.61914 578.81055 L 226.61914 579.5 L 228.75977 578.93945 L 230.83008 577.67969 L 233.34961 578.11914 L 234.73047 577.92969 L 235.49023 580.38086 L 234.34961 583.5293 L 231.26953 585.85938 L 228.57031 586.80078 L 227.31055 590.41992 L 226.65039 592.71094 L 226.49023 594.57031 L 227.40039 596.64062 L 231.21094 599.18945 L 232.06055 600.94922 L 232.15039 607.65039 L 235.08008 608.2793 L 238.18945 607.67969 L 239.73047 606.51953 L 242.2793 607.96094 L 243.53906 608.88086 L 244.34961 609.13086 L 245.67969 611.51953 L 245.90039 613.17969 L 248 614.53906 L 248.43945 619.78906 L 246.83984 620.98047 L 246.92969 622.42969 L 249.07031 623.91016 L 249.09961 626.64062 L 248.41016 625.53906 L 246.58984 625.03906 L 246.33984 624.4707 L 245.55078 625.28906 L 244.13086 625.69922 L 243.2207 625.94922 L 243.2207 627.33984 L 242.5293 627.40039 L 242.7207 629.88086 L 244.94922 632.96094 L 246.58984 635.16992 L 247.9707 636.80078 L 248.98047 637.46094 L 248.86914 638.14062 L 250.19922 638.75 L 250.63086 640.15039 L 250.38086 640.58984 L 249.58984 638.9707 L 248.42969 638.17969 L 247.84961 637.05078 L 246.71094 635.94922 L 245.34961 635.09961 L 243.42969 632.17969 L 241.51953 630.65039 L 239.91992 629.01953 L 236.51953 623.33008 L 231.42969 615.89062 L 233.25 614.32031 L 232.5 611.60938 L 230.23047 611.92969 L 229.34961 612.92969 L 229.85938 610.41992 L 226.46094 606.89062 L 226.46094 602.81055 L 224.32031 599.2793 L 225.83008 595.69922 L 225.26953 592.30078 L 226.01953 589.5293 L 227.2793 587.51953 L 227.9707 585.50977 L 230.74023 584.75 L 232 581.35938 L 226.46094 580.73047 L 224.64062 579.7207 L 223.43945 579.9707 L 220.74023 582.80078 L 220.23047 587.90039 L 219.60938 592.30078 L 218.84961 594.82031 L 218.7207 598.65039 L 218.59961 603.42969 L 219.98047 607.40039 L 221.36914 609.98047 L 221.61914 610.85938 L 218.78906 609.78906 L 215.08008 609.66016 L 213.75977 607.33008 L 210.49023 607.08008 L 208.09961 604 L 206.01953 604.06055 L 204.25977 604.75977 L 204.69922 607.08008 L 207.33984 609.59961 L 214.69922 612.49023 L 219.09961 613.68945 L 222.43945 613.68945 L 229.34961 618.91016 L 231.17969 622.17969 L 235.26953 628.2793 L 247.7793 641.92969 L 247.58984 648.7207 L 254.44922 656.96094 L 264.75977 661.99023 L 272.82031 674.57031 L 276.58984 676.33008 L 279.85938 684.13086 L 281.36914 688.16016 L 286.65039 700.99023 L 285.65039 705.76953 L 281.36914 707.5293 L 273.82031 713.06055 L 266.7793 715.58008 L 263 717.58984 L 264.00977 726.40039 L 260.49023 732.42969 L 262.5 735.69922 L 263.25977 741.49023 L 260.74023 749.78906 L 271.05078 760.85938 L 266.7793 769.91992 L 264.00977 773.43945 L 266.7793 776.71094 L 264.50977 776.71094 L 265.76953 779.23047 L 267.7793 779.48047 L 267.5293 780.74023 L 264.98047 781.05078 L 264.64062 783.4707 L 264.58008 784.83008 L 265.58008 785.14062 L 266.83984 784.09961 L 267.5 782.33984 L 267.7793 783.98047 L 270.21094 784.53906 L 272.68945 783.84961 L 276.11914 784.53906 L 279.35938 786.05078 L 282.18945 788.38086 L 283.32031 790.19922 L 286.40039 790.05078 L 292.63086 790.44922 L 295.80078 789.98047 L 297.25 786.56055 L 300.21094 786.21094 L 306.9707 777.2207 L 311.08984 771.74023 L 312.9707 770.74023 L 312.08984 767.08984 L 309.83008 768.34961 L 310.21094 764.94922 L 311.7207 761.30078 L 313.09961 758.2793 L 314.74023 759.28906 L 318.63086 758.2793 L 319.25977 757.0293 L 327.18945 757.2793 L 332.4707 758.91016 L 339.25977 756.51953 L 339.25977 758.91016 L 334.48047 759.66992 L 331.83984 762.42969 L 330.08008 766.58984 L 330.58008 767.83984 L 339.76953 766.08008 L 347.06055 763.57031 L 351.83984 762.56055 L 356.25 756.26953 L 358.25977 752.75 L 364.05078 750.99023 L 371.7207 746.71094 L 378.64062 736.14062 L 378.50977 736.0293 L 378.41992 736.18945 L 376.11914 734.71094 L 373.34961 734.08008 L 372.16016 731.18945 L 370.21094 729.11914 L 364.80078 727.41992 L 363.98047 724.65039 L 363.78906 720.5 L 365.17969 716.73047 L 365.81055 714.90039 L 364.16992 714.46094 L 362.84961 707.28906 L 359.08008 708.74023 L 355.86914 706.34961 L 355.24023 702.32031 L 356.56055 699.86914 L 357.06055 689.42969 L 361.15039 687.34961 L 362.4707 683.19922 L 371.33984 678.41992 L 371.9707 675.21094 L 368.89062 672.32031 L 373.23047 664.21094 L 370.96094 649.99023 L 376.61914 647.09961 L 382.53906 638.55078 L 389.71094 633.25977 L 390.51953 619.16992 L 395.24023 619.86914 L 400.26953 611.56055 L 402.28906 598.85938 L 403.96094 596.58008 L 404.05078 596.00977 L 404.68945 595.58984 L 406.11914 593.64062 L 413.98047 588.09961 L 417.82031 582.38086 L 429.90039 572.88086 L 437.18945 567.4707 L 444.99023 559.30078 L 451.0293 554.00977 L 455.81055 551.11914 L 465.5 543.07031 L 471.2793 539.16992 L 471.44922 539.66992 L 471.4707 539.66016 L 471.48047 539.75977 L 473.16992 544.83008 L 480.9707 543.19922 L 485.86914 538.41992 L 489.01953 530.74023 L 494.55078 525.83984 L 495.31055 520.67969 L 506.38086 513.89062 L 507.09961 511.13086 L 501.78906 511.35938 L 500.5293 506.83008 L 500.5293 504.56055 L 489.21094 503.30078 L 477.38086 510.09961 L 471.34961 511.85938 L 471.08984 515.38086 L 464.80078 514.36914 L 462.53906 520.41016 L 457.75977 516.39062 L 449.96094 516.14062 L 434.35938 503.30078 L 419.76953 504.56055 L 410.21094 501.53906 L 398.64062 503.56055 L 387.57031 495.50977 L 356.63672 491.79297 L 356.89062 491.64062 L 357.90039 489.68945 L 358.51953 487.41992 L 359.66016 485.7207 L 360.4707 484.40039 L 362.49023 482.51953 L 363.42969 479.81055 L 364.17969 478.30078 L 365 476.78906 L 365.68945 473.71094 L 366.44922 470.31055 L 366.64062 467.41992 L 367.10938 464.86914 L 367.49023 463.26953 L 368.13086 461.98047 L 368.66992 460.14062 L 369.08984 458.16016 L 369.63086 456.46094 L 369.63086 452.81055 L 369.41016 452.31055 L 369.63086 451.21094 L 369.2793 450.05078 L 367.90039 447.93945 L 367.96094 446.83984 L 368.40039 446.40039 L 365.91016 443.2207 L 365.63086 441.96094 L 364.43945 440.14062 L 363.36914 438.2793 L 363.05078 437.0293 L 362.49023 435.41992 L 361.53906 433.91016 L 361.07031 431.25977 L 360.28906 430.74023 L 358.92969 430.39062 L 357.78906 429.07031 L 356.93945 428.39062 L 356.23047 426.92969 L 355.83984 426.51953 L 354.89062 426.13086 L 354.10938 424.61914 L 354.17969 423.42969 L 354.36914 422.39062 L 355.25 422.17969 L 356.19922 420.9707 L 357.08008 419.9707 L 358.00977 418.65039 L 358.38086 417.11914 L 358.05078 415.76953 L 356.78906 413.46094 L 356.86914 410.31055 L 356.39062 409.48047 L 355.14062 407.5293 L 353.17969 405.41016 L 352.2207 404.09961 L 352.11914 402.2207 L 351.51953 400.91992 L 350.31055 398.78906 L 349.81055 396.93945 L 350.41016 395.17969 L 351.41992 393.13086 L 351.41992 389.66992 L 352.23047 388.09961 L 351.64062 386.55078 L 352 385.88086 L 350.21094 383.32031 L 350.65039 379.64062 L 350.65039 376.2793 L 349.56055 371.83008 L 349.39062 369.60938 L 348.98047 367.78906 L 348.26953 365.13086 L 346.9707 362.64062 L 346.13086 360.61914 L 345.92969 357.49023 L 345.65039 356.35938 L 345.33008 354.51953 L 344.19922 352.34961 L 343.16016 349.66992 L 342.2207 346.75 L 341.58984 344.16992 L 341.15039 341.5293 L 339.91992 339.69922 L 339.19922 339.96094 L 338.48047 339.74023 L 336.56055 337.51953 L 335.80078 335.86914 L 334.43945 333.36914 L 334.36914 327.71094 L 334.08984 327.55078 L 334.06055 323.49023 L 333.30078 321.00977 L 333.49023 320.13086 L 333.30078 318.46094 L 332.39062 316.66992 L 331.32031 317.16992 L 330.82031 317.14062 L 330.7207 311.75977 L 327.35938 306.28906 L 326.53906 303.10938 L 324.88086 300.43945 L 322.39062 298.65039 L 319.15039 295.66016 L 317.69922 294.5293 L 316.66992 291.64062 L 315.08984 287.96094 L 313.96094 285.0293 L 311.53906 282.89062 L 309.11914 280.75 L 307.89062 280.68945 L 306.48047 281.13086 L 305.68945 280.88086 L 303.33008 279.32031 L 301.5293 278.18945 L 299.58008 276.36914 L 297.18945 274.48047 L 295.46094 273.88086 L 294.92969 272.9707 L 292.50977 272.06055 L 291.2207 271.86914 L 289.83008 272.31055 L 288.14062 272.15039 L 286 272.2207 L 279.60938 275.74023 L 278.48047 275.96094 L 276.75 275.92969 L 276.30078 276.48047 L 275.61914 276.7793 L 275.26953 277.55078 L 274.98047 278.57031 L 274.59961 279.14062 L 274 279.65039 L 273.66992 280.2207 L 273.44922 280.67969 L 273.4707 282.5 L 273.91016 282.75977 L 275.86914 282.69922 L 276.43945 282.4707 L 278.07031 282.55078 L 278.91016 282.96094 L 278.93945 283.92969 L 279.16992 284.25 L 279.15039 285.08008 L 279.38086 285.78906 L 279.57031 286.83008 L 279.7207 287.07031 L 279.5 287.39062 L 279.42969 287.92969 L 278.92969 288.33984 L 277.41992 288.51953 L 275.42969 288.92969 L 274.53906 289.56055 L 274.13086 290.49023 L 273.75977 291.36914 L 272.53906 292.0293 L 271.51953 292.25977 L 271.56055 296.73047 L 271.08008 297.33984 L 270.66016 298.89062 L 270.2207 299.76953 L 268.83008 300.53906 L 267.39062 301.84961 L 266.41016 302.94922 L 265.59961 304.74023 L 264.5293 306.7207 L 263.53906 308.63086 L 262.43945 309.61914 L 261.15039 310.66016 L 260.24023 311.01953 L 260.06055 312.21094 L 259.56055 312.7793 L 259.03906 313.35938 L 258.90039 313.75 L 258.91016 315.16992 L 259.58984 315.17969 L 260.59961 315.32031 L 261.82031 315.73047 L 262.88086 316.0293 L 262.91992 316.71094 L 262.66016 317.51953 L 261.94922 317.18945 L 261.94922 316.60938 L 261.50977 316.46094 L 261.43945 316.08008 L 261.21094 315.89062 L 260.91016 315.93945 L 260.7207 316.16992 L 260.68945 317.17969 L 260.16992 317.42969 L 259.39062 317.44922 L 258.14062 318.25 L 257.94922 318.06055 L 257.17969 318.03906 L 256.91992 318.4707 L 256.50977 318.58984 L 255.38086 319.98047 L 255.35938 320.2793 L 254.15039 320.7207 L 252.91016 320.98047 L 252.06055 321.2207 L 251.25977 320.93945 L 249.49023 320.91992 L 249.33984 321.14062 L 248.71094 321.38086 L 248.09961 321.75 L 247.25977 322.01953 L 246.88086 322.23047 L 246.21094 322.07031 L 245.25977 321.80078 L 244.56055 321.55078 L 241.48047 321.55078 L 240.9707 320.42969 L 241.05078 319.59961 L 240.7207 319 L 240.41016 318.75 L 240 318.2793 L 239.90039 317.41016 L 238.99023 316.5293 L 236.66016 316.55078 L 236.30078 316.96094 L 236.05078 318.33984 L 235.88086 318.80078 L 235.66016 318.4707 L 235.7207 317.09961 L 236.13086 316.99023 L 236.34961 316.55078 L 236.40039 316.08984 L 235.84961 316.05078 L 236.08008 315.5293 L 236.78906 314.28906 L 238.0293 313.30078 L 238.16016 312.36914 L 237.21094 312.05078 L 237.25 311.63086 L 237.5 311.43945 L 237.40039 309.01953 L 235.9707 307.15039 L 235.63086 306.2207 L 235.5 305.03906 L 234.50977 303.60938 L 234.42969 300.46094 L 234.13086 299.71094 L 232.89062 298.55078 L 231.41016 296.60938 L 230.31055 295.36914 L 230.14062 294.57031 L 229.59961 293.00977 L 228.0293 291.2207 L 226.96094 289.92969 L 226.35938 288.64062 L 226.05078 285.86914 L 226.65039 285.01953 L 226.76953 282.48047 L 225.99023 281.82031 L 223.41016 281.9707 L 223.63086 281.43945 L 224.09961 280.36914 L 226.4707 279.92969 L 227.5293 279.33008 L 227.69922 277.74023 L 228.58008 277.24023 L 228.63086 275.61914 L 227.91992 274.86914 L 228.08984 274.25 L 228.05078 271.14062 L 226.73047 268.73047 L 226.51953 267.83984 L 225.75 266.75 L 222.7793 263.99023 L 222.21094 262.83984 L 221.42969 261.4707 L 220.81055 261.44922 L 220.7793 260.40039 L 220.33008 260.11914 L 220.39062 259.42969 L 219.07031 258.09961 L 218.91016 257.36914 L 217.93945 256.35938 L 217.58008 255.33984 L 216.75977 254.35938 L 214.44922 253.83008 L 213.85938 252.55078 L 213.51953 251.66992 L 213.38086 250.73047 L 211.74023 248.16992 L 210.66992 246.88086 L 209.00977 246.5293 L 210.15039 246.06055 L 211.5293 245.51953 L 212.80078 244.90039 L 213.13086 244.46094 L 213.34961 243.46094 L 213.35938 242.07031 L 212.32031 240.92969 L 211.84961 240.23047 L 211.16016 239.69922 L 210.63086 239.40039 z M 356.11914 491.73047 L 356.63086 491.78906 L 356.62695 491.79102 L 356.11914 491.73047 z M 507.82031 511.09961 L 507.32031 511.13086 L 507.7207 511.40039 L 507.82031 511.09961 z M 336.71289 542.79883 A 30 30 0 0 1 366.71289 572.79883 A 30 30 0 0 1 336.71289 602.79883 A 30 30 0 0 1 306.71289 572.79883 A 30 30 0 0 1 336.71289 542.79883 z " />
    <path
       id="N-1"
       d="M 55.919922 1 L 54.380859 2.8691406 L 53.060547 5.609375 L 52.189453 7.8105469 L 52.080078 10.109375 L 47.470703 12.849609 L 44.609375 15.050781 L 40 16.919922 L 38.25 17.140625 L 38.140625 20.539062 L 39.009766 22.839844 L 41.759766 24.269531 L 43.509766 23.060547 L 46.480469 20.980469 L 49.439453 20.320312 L 47.689453 23.390625 L 44.830078 24.820312 L 41.539062 25.259766 L 41.099609 27.339844 L 43.730469 30.419922 L 45.599609 32.720703 L 49.769531 31.949219 L 54.269531 32.720703 L 55.589844 36.669922 L 59.429688 40.410156 L 60.859375 42.050781 L 54.599609 45.240234 L 51.859375 48.529297 L 50.539062 52.259766 L 48.230469 53.359375 L 45.269531 53.140625 L 43.839844 55.660156 L 47.029297 57.089844 L 49.880859 57.75 L 49.769531 59.939453 L 48.339844 62.689453 L 48.560547 64.880859 L 53.390625 68.289062 L 55.480469 69.820312 L 57.019531 67.740234 L 59.869141 69.050781 L 62.830078 69.050781 L 65.689453 67.849609 L 66.019531 64.109375 L 66.890625 61.810547 L 69.089844 59.720703 L 72.160156 58.410156 L 75.460938 60.050781 L 77.099609 61.480469 L 78.310547 60.050781 L 76.439453 58.630859 L 75.349609 57.970703 L 76.220703 54.890625 L 80.179688 52.369141 L 83.359375 50.169922 L 85.009766 46.990234 L 85.769531 43.369141 L 85.449219 41.830078 L 78.859375 42.710938 L 78.640625 41.609375 L 81.050781 40.080078 L 81.710938 34.369141 L 79.630859 33.380859 L 78.310547 32.830078 L 75.679688 29.320312 L 73.150391 28.109375 L 70.960938 27.119141 L 70.740234 24.380859 L 71.179688 22.179688 L 69.75 18.890625 L 68.320312 16.039062 L 67.550781 14.279297 L 66.019531 13.179688 L 64.699219 14.720703 L 63.160156 12.089844 L 63.599609 7.8105469 L 62.5 4.2890625 L 58.550781 2.5390625 L 55.919922 1 z M 15.960938 70.650391 L 14.919922 72.839844 L 14.539062 74.599609 L 15.310547 77.009766 L 18.160156 78.660156 L 19.369141 76.630859 L 20.189453 76.519531 L 19.199219 77.890625 L 19.699219 78.710938 L 20.789062 79.539062 L 21.339844 80.960938 L 23.810547 82.169922 L 25.400391 82.279297 L 25.619141 79.810547 L 25.949219 79.210938 L 27.160156 79.980469 L 26.560547 77.669922 L 24.199219 75.640625 L 23.320312 73.990234 L 22.330078 72.349609 L 18.320312 70.919922 L 15.960938 70.650391 z M 94.609375 71.410156 L 93.289062 72.789062 L 91.150391 74.380859 L 90.439453 75.970703 L 89.890625 76.410156 L 86.759766 75.150391 L 85.009766 74.820312 L 82.919922 75.75 L 80.560547 77.179688 L 80.339844 78.990234 L 81.599609 80.740234 L 83.300781 82.990234 L 84.460938 83.320312 L 86.210938 83.099609 L 86.929688 82.230469 L 87.640625 83.820312 L 88.240234 86.449219 L 89.400391 88.369141 L 91.810547 89.310547 L 94.669922 89.849609 L 94.939453 91.779297 L 94.339844 93.150391 L 93.570312 96.330078 L 91.919922 96.550781 L 90.660156 97.039062 L 91.810547 99.019531 L 94.230469 100.11914 L 95.929688 101.05078 L 97.519531 103.35938 L 101.58008 101.32031 L 102.34961 100.11914 L 101.80078 98.359375 L 102.17969 96.820312 L 103.16992 92.929688 L 101.96094 91.009766 L 101.96094 87.660156 L 100.58984 85.019531 L 99.490234 83.490234 L 97.519531 83.099609 L 97.300781 81.839844 L 99.279297 80.140625 L 98.560547 79.539062 L 99.390625 77.779297 L 100.36914 75.910156 L 99.880859 73.880859 L 99.330078 72.619141 L 97.960938 71.800781 L 94.609375 71.410156 z M 38.140625 96.769531 L 34.619141 99.070312 L 30.560547 102.25977 L 33.199219 108.83984 L 31.660156 111.36914 L 24.419922 109.93945 L 21.230469 112.68945 L 24.310547 115.09961 L 30.009766 115.86914 L 34.949219 116.64062 L 37.150391 117.51953 L 39.339844 120.91992 L 40.990234 124.53906 L 44.169922 128.49023 L 46.699219 131.89062 L 46.810547 135.96094 L 45.929688 139.91016 L 44.830078 142.32031 L 44.169922 146.26953 L 43.509766 151.53906 L 44.720703 151.98047 L 45.820312 154.40039 L 46.039062 157.25 L 46.589844 162.30078 L 47.470703 166.14062 L 48.130859 167.01953 L 52.189453 169.75977 L 58.330078 169.21094 L 60.640625 168.66992 L 59.869141 166.91016 L 58.220703 165.25977 L 60.089844 162.84961 L 63.050781 159.44922 L 63.820312 157.35938 L 63.380859 153.41016 L 62.830078 150.43945 L 62.939453 148.4707 L 62.5 144.96094 L 61.849609 141.66016 L 60.75 138.91992 L 58.550781 138.15039 L 57.669922 136.07031 L 57.349609 131.89062 L 57.669922 128.82031 L 58.439453 125.64062 L 59.320312 122.01953 L 57.669922 119.38086 L 55.919922 117.73047 L 54.269531 118.39062 L 52.949219 116.41992 L 51.75 115.09961 L 51.529297 111.69922 L 51.970703 110.49023 L 55.369141 110.26953 L 56.140625 108.83984 L 55.919922 107.19922 L 54.820312 104.7793 L 54.050781 103.4707 L 51.970703 101.71094 L 49.439453 100.5 L 47.689453 100.60938 L 46.589844 101.49023 L 46.810547 106.53906 L 43.619141 106.42969 L 44.060547 102.69922 L 43.300781 98.310547 L 38.140625 96.769531 z M 473.50977 99.980469 L 470.10938 100.85938 L 469.10938 103.11914 L 467.9707 105.00977 L 466.21094 106.90039 L 463.82031 108.2793 L 461.93945 109.91992 L 460.05078 112.93945 L 459.16992 115.44922 L 456.7793 116.46094 L 454.39062 116.46094 L 451.49023 116.21094 L 449.35938 115.69922 L 448.73047 113.56055 L 448.59961 112.31055 L 446.83984 111.55078 L 444.58008 110.91992 L 442.68945 112.93945 L 441.42969 114.18945 L 439.41992 115.19922 L 437.0293 116.21094 L 433.50977 116.96094 L 431.24023 118.33984 L 430.49023 118.9707 L 428.84961 119.23047 L 429.23047 118.33984 L 430.24023 117.46094 L 430.24023 115.94922 L 430.24023 114.44922 L 431.86914 113.68945 L 433.38086 112.93945 L 434.25977 112.56055 L 434.50977 111.05078 L 434.39062 109.66992 L 434.14062 108.0293 L 429.91992 107.61914 L 427.08984 108.06055 L 424.39062 108.88086 L 423.38086 111.90039 L 421.49023 112.83984 L 424.32031 122.01953 L 427.0293 126.61914 L 428.53906 129.50977 L 428.16016 131.33008 L 425.76953 133.2793 L 424.14062 134.53906 L 424.89062 133.0293 L 424.89062 132.01953 L 423.38086 133.0293 L 420.74023 134.16016 L 417.58984 134.73047 L 415.08008 133.34961 L 413.43945 131.96094 L 412.25 131.26953 L 408.28906 130.83008 L 403.82031 130.39062 L 400.60938 130.14062 L 399.53906 128.93945 L 397.7793 127.36914 L 395.76953 127.17969 L 393.57031 126.30078 L 390.60938 124.09961 L 389.23047 122.40039 L 387.7207 120.69922 L 384.39062 118.63086 L 382.31055 116.92969 L 380.05078 114.41016 L 379.41992 113.5293 L 375.55078 113.7793 L 373.93945 114.34961 L 372.5293 116.76953 L 370.30078 115.76953 L 368.78906 115.55078 L 366.83984 115.64062 L 365.96094 118.0293 L 364.48047 120.44922 L 363.13086 122.7207 L 362.21094 125.00977 L 361.55078 125.66992 L 362.06055 128.63086 L 363.7207 130.16992 L 363.18945 133.4707 L 360.03906 132.7207 L 356.26953 132.7207 L 353.13086 131.96094 L 353.75 138.13086 L 351.35938 137.61914 L 348.7207 136.10938 L 346.08008 138.88086 L 342.93945 139.50977 L 339.16016 152.33984 L 340.91992 152.21094 L 347.58984 148.93945 L 353.63086 147.68945 L 357.5293 149.44922 L 359.53906 141.01953 L 363.43945 140.89062 L 356.01953 155.85938 L 353.13086 160.39062 L 353.25 165.03906 L 355.51953 166.67969 L 347.58984 185.16992 L 348.2207 181.01953 L 341.42969 187.81055 L 336.01953 194.34961 L 334.00977 197.61914 L 329.59961 200.14062 L 324.69922 198 L 324.44922 189.44922 L 326.96094 185.66992 L 322.06055 181.40039 L 319.53906 177.61914 L 316.90039 175.49023 L 314.13086 174.98047 L 312.75 173.98047 L 309.84961 175.35938 L 300.91992 176.61914 L 299.41016 184.66992 L 295.14062 192.7207 L 293.11914 197.61914 L 287.21094 195.60938 L 287.9707 203.91016 L 288.84961 208.18945 L 286.83008 214.85938 L 288.9707 216.74023 L 286.33008 221.01953 L 286.08008 223.78906 L 289.59961 227.68945 L 292.49023 225.55078 L 293.93945 224.60938 L 295.64062 225.55078 L 295.50977 229.94922 L 297.15039 233.0293 L 298.33984 236.81055 L 297.40039 237.68945 L 298.0293 240.96094 L 296.90039 243.59961 L 296.51953 246.24023 L 293.93945 248.50977 L 289.09961 250.26953 L 287.9707 253.2207 L 288.84961 257.38086 L 284.94922 259.07031 L 284 260.83008 L 281.74023 260.01953 L 278.33984 258.32031 L 276.64062 256.67969 L 276.46094 254.60938 L 273.36914 254.41992 L 271.41992 255.24023 L 273.25 259.19922 L 273.11914 262.7793 L 277.7793 266.17969 L 279.0293 269.19922 L 277.9707 271.9707 L 276.05078 272.84961 L 275.64062 274.58008 L 276.46094 276.01953 L 276.61914 276.08984 L 276.75 275.92969 L 278.48047 275.96094 L 279.60938 275.74023 L 286 272.2207 L 288.14062 272.15039 L 289.83008 272.31055 L 291.2207 271.86914 L 292.50977 272.06055 L 294.92969 272.9707 L 295.46094 273.88086 L 297.18945 274.48047 L 299.58008 276.36914 L 301.5293 278.18945 L 303.33008 279.32031 L 305.68945 280.88086 L 306.48047 281.13086 L 307.89062 280.68945 L 309.11914 280.75 L 311.53906 282.89062 L 313.96094 285.0293 L 315.08984 287.96094 L 316.66992 291.64062 L 317.69922 294.5293 L 319.15039 295.66016 L 322.39062 298.65039 L 324.88086 300.43945 L 326.53906 303.10938 L 327.23047 305.78906 L 328.08984 307.4707 L 330.7207 311.75977 L 330.82031 317.14062 L 331.32031 317.16992 L 332.39062 316.66992 L 333.30078 318.46094 L 333.49023 320.13086 L 333.30078 321.00977 L 334.06055 323.49023 L 334.08984 327.55078 L 334.36914 327.71094 L 334.43945 333.36914 L 335.80078 335.86914 L 336.56055 337.51953 L 338.48047 339.74023 L 339.19922 339.96094 L 339.91992 339.69922 L 341.15039 341.5293 L 341.58984 344.16992 L 342.2207 346.75 L 343.16016 349.66992 L 344.19922 352.34961 L 345.33008 354.51953 L 345.65039 356.35938 L 345.92969 357.49023 L 346.13086 360.61914 L 346.9707 362.64062 L 348.26953 365.13086 L 348.91016 367.51953 L 352 367.36914 L 352.4707 367.94922 L 352.82031 368.00977 L 354.26953 367.86914 L 356.0293 368.91016 L 357.2207 367.91016 L 360.08008 368 L 361.31055 369.59961 L 363.03906 368.68945 L 363.91992 367.5 L 363.09961 365.83008 L 363.48047 365.14062 L 365.64062 364.51953 L 365.80078 364.42969 L 365.75 363.76953 L 365.15039 362.91992 L 363.44922 361.83984 L 363.66992 361.01953 L 361.0293 353.88086 L 361.08984 345.76953 L 361.0293 340.91992 L 361.9707 337.5293 L 363.91992 336.40039 L 366.11914 331.24023 L 366.5 327.40039 L 367.32031 324.32031 L 369.76953 324.18945 L 370.83984 321.16992 L 373.48047 319.84961 L 373.34961 315.39062 L 376.31055 316.08008 L 377.43945 319.59961 L 378.83008 319.59961 L 379.14062 321.49023 L 385.24023 319.16016 L 396.36914 319.73047 L 403.91992 315.33008 L 409.83008 308.0293 L 416.88086 298.7207 L 420.65039 299.48047 L 418.14062 305.89062 L 421.0293 306.65039 L 416.75 308.16016 L 415.86914 310.55078 L 421.0293 310.80078 L 419.51953 315.44922 L 424.80078 317.9707 L 427.57031 310.41992 L 430.71094 310.91992 L 432.34961 309.66992 L 442.28906 308.7793 L 444.55078 311.05078 L 454.74023 311.16992 L 456.38086 314.32031 L 468.58008 310.28906 L 473.48047 312.81055 L 474.61914 314.32031 L 479.01953 312.42969 L 481.41016 313.43945 L 481.66016 312.81055 L 494.36914 302.61914 L 506.68945 304.88086 L 512.98047 302.61914 L 514.99023 295.83008 L 512.48047 294.32031 L 513.99023 290.53906 L 521.06055 291.2793 L 526.66992 285.58008 L 537.24023 278.0293 L 541.50977 270.98047 L 548.31055 267.21094 L 550.18945 259.16016 L 546.28906 250.73047 L 543.90039 225.83008 L 542.65039 220.78906 L 544.66016 215.89062 L 549.06055 209.7207 L 558.67969 194.31055 L 557.49023 190.41992 L 557.74023 186.89062 L 555.09961 186.00977 L 554.0293 180.41016 L 556.28906 178.58984 L 559.93945 179.4707 L 563.9707 177.33008 L 567.55078 175.18945 L 568.5 168.84961 L 565.73047 170.93945 L 565.58984 172.69922 L 563.17969 172.68945 L 562.13086 172.23047 L 561.4707 173.08008 L 554.55078 173.13086 L 550.7793 171.92969 L 548.48047 169.41992 L 545.26953 168.38086 L 541.40039 166.92969 L 538.23047 164.91992 L 535.65039 163.59961 L 534.23047 161.81055 L 533.44922 161.58984 L 532.98047 159.41992 L 531.5 159.41992 L 530.74023 159.85938 L 530.24023 158.84961 L 529.64062 158.08984 L 531.43945 156.49023 L 531.15039 154.00977 L 529.55078 152.11914 L 528.50977 151.35938 L 525.67969 151.40039 L 525.83984 154.75977 L 518.73047 151.30078 L 513.19922 147.2793 L 509.10938 147.5293 L 509.30078 146.21094 L 512.5 145.64062 L 512.93945 144.89062 L 517.16016 144.50977 L 517.0293 142.75 L 515.51953 140.55078 L 517.66016 136.76953 L 517.53906 134.82031 L 515.51953 132.31055 L 515.26953 129.53906 L 504.44922 117.08984 L 501.17969 116.33008 L 501.81055 114.94922 L 504.08008 114.44922 L 503.69922 111.92969 L 501.42969 111.30078 L 498.91992 112.56055 L 496.7793 112.56055 L 497.16016 112.06055 L 497.78906 111.42969 L 497.5293 110.28906 L 491.11914 105.14062 L 486.9707 105.00977 L 485.96094 101.74023 L 482.43945 101.35938 L 479.41992 101.24023 L 478.41016 101.49023 L 476.7793 100.60938 L 473.50977 99.980469 z M 93.460938 102.81055 L 91.539062 103.30078 L 91.589844 104.83984 L 92.470703 106.42969 L 93.070312 107.19922 L 92.740234 107.31055 L 90.660156 107.08984 L 89.839844 108.94922 L 90.380859 110.10938 L 91.810547 110.75977 L 93.289062 108.78906 L 93.240234 107.80078 L 94.339844 108.57031 L 95.650391 108.18945 L 96.369141 107.14062 L 95.539062 105.10938 L 94.560547 103.58008 L 93.460938 102.81055 z M 88.900391 111.9707 L 88.570312 114.16992 L 89.289062 115.21094 L 91.320312 114.7207 L 91.980469 112.74023 L 90.820312 111.9707 L 88.900391 111.9707 z M 90.160156 117.73047 L 89.009766 118.11914 L 89.070312 119.59961 L 90.269531 120.15039 L 91.759766 119.55078 L 91.099609 117.94922 L 90.160156 117.73047 z M 92.029297 122.56055 L 89.509766 122.89062 L 89.730469 125.08984 L 91.259766 125.85938 L 91.919922 123.66016 L 92.029297 122.56055 z M 93.240234 127.5 L 90.929688 128.16016 L 89.949219 129.25977 L 92.140625 129.81055 L 93.570312 130.14062 L 93.240234 127.5 z M 95.650391 131.57031 L 94.669922 132.99023 L 96.970703 133.75977 L 97.849609 133.21094 L 97.300781 132.10938 L 95.650391 131.57031 z M 17.060547 169.92969 L 15.029297 172.28906 L 13.710938 173.66016 L 13.269531 175.35938 L 14.699219 176.24023 L 16.789062 175.68945 L 19.480469 175.68945 L 22.169922 177.00977 L 22.169922 179.03906 L 20.300781 180.08008 L 18.160156 179.03906 L 16.509766 178.59961 L 14.369141 179.58984 L 13.550781 179.9707 L 14.259766 176.83984 L 12.509766 176.34961 L 10.910156 176.78906 L 10.419922 179.9707 L 10.369141 182.39062 L 12.779297 183.36914 L 13.710938 184.0293 L 13.550781 185.78906 L 12.119141 187.33008 L 11.189453 189.4707 L 11.130859 191.88086 L 12.560547 195.11914 L 16.240234 195.2793 L 17.669922 194.30078 L 18.099609 192.32031 L 19.259766 190.56055 L 20.630859 189.90039 L 19.529297 192.16016 L 19.199219 193.5293 L 21.669922 195.23047 L 23.320312 195.66992 L 25.349609 195.56055 L 27.599609 193.9707 L 28.419922 192.86914 L 27.210938 191.2793 L 26.890625 189.41016 L 28.970703 189.51953 L 31.5 190.73047 L 32.210938 188.58984 L 32.039062 184.5293 L 33.640625 183.25977 L 33.089844 180.08008 L 31.990234 177.56055 L 28.699219 177.2793 L 27.710938 178.10938 L 27.160156 175.5293 L 27.109375 173.10938 L 23.980469 171.84961 L 21.400391 171.14062 L 19.529297 170.48047 L 17.060547 169.92969 z M 86.210938 178.59961 L 84.019531 178.92969 L 81.490234 181.11914 L 80.509766 181.00977 L 79.740234 182.66016 L 78.419922 185.18945 L 80.179688 186.93945 L 81.269531 187.26953 L 79.960938 189.4707 L 80.289062 191.43945 L 80.830078 194.30078 L 82.150391 195.93945 L 85.880859 194.94922 L 86.099609 195.93945 L 86.759766 198.80078 L 89.070312 202.5293 L 91.369141 204.2793 L 93.789062 206.69922 L 95.869141 207.91016 L 97.410156 206.36914 L 99.710938 207.35938 L 101.4707 205.16016 L 101.0293 202.9707 L 98.949219 202.31055 L 96.640625 200.76953 L 95.650391 197.48047 L 95.759766 195.2793 L 91.589844 195.60938 L 88.630859 195.06055 L 90.929688 194.51953 L 92.580078 194.51953 L 93.679688 193.5293 L 94.009766 191 L 93.130859 188.69922 L 92.580078 186.39062 L 92.580078 184.08984 L 92.910156 182.66016 L 91.699219 180.0293 L 88.300781 179.69922 L 86.650391 180.90039 L 85.449219 183.32031 L 85.009766 182.43945 L 85.660156 179.69922 L 86.210938 178.59961 z M 26.630859 208.98047 L 25.589844 209.33984 L 25.310547 210.42969 L 23.910156 210.46094 L 23.089844 210.61914 L 22.730469 211.16992 L 22.980469 213.00977 L 23.560547 214.59961 L 25.179688 215.32031 L 27.289062 214.38086 L 27.810547 215.50977 L 26.439453 216.19922 L 23.470703 217.26953 L 23.230469 217.50977 L 22.839844 215.40039 L 23.009766 213.83984 L 22.490234 212.71094 L 20.320312 212.43945 L 18.400391 211.93945 L 16.859375 212.05078 L 15.160156 211.56055 L 13.380859 212.26953 L 11.779297 212.76953 L 11.130859 214.14062 L 9.9199219 215.65039 L 9.1992188 216.99023 L 9.1992188 218.39062 L 8.9609375 219.75977 L 8.3007812 220.5293 L 8.0507812 221.46094 L 7.3398438 222.28906 L 6.2402344 223 L 5.5 223.74023 L 4.5390625 225.2207 L 4.4609375 226.86914 L 3.8007812 228.84961 L 3.25 230.49023 L 2.8691406 231.73047 L 2.8691406 232.25 L 1.5996094 237.46094 L 1 239.66016 L 1.1601562 240.91992 L 3.4101562 241.63086 L 4.4003906 242.94922 L 5.609375 244.65039 L 6.2695312 246.63086 L 7.5292969 247.66992 L 9.6699219 248.59961 L 12.359375 249.65039 L 14.890625 250.4707 L 18.619141 250.58008 L 21.689453 251.01953 L 22.949219 252.60938 L 23.230469 255.08008 L 24.869141 256.44922 L 27.070312 258.32031 L 28.109375 261.44922 L 28.439453 264.0293 L 28.220703 266.49023 L 26.960938 268.4707 L 25.339844 269.42969 L 24.349609 270.31055 L 24.109375 271.46094 L 23.150391 272.19922 L 21.769531 273 L 20.730469 273.90039 L 19.080078 274.89062 L 17.900391 275.96094 L 18.289062 276.98047 L 22.240234 278.40039 L 23.560547 277.80078 L 25.150391 275.2793 L 27.839844 273.41016 L 30.310547 271.59961 L 33.330078 269.57031 L 35.410156 269.73047 L 37.550781 268.64062 L 36.560547 270.00977 L 33.869141 271.86914 L 33.710938 274.00977 L 35.580078 275.16992 L 38.050781 274.11914 L 39.910156 273.57031 L 41.449219 271.38086 L 42.880859 269.28906 L 44.849609 266.59961 L 45.839844 265.11914 L 46.109375 262.98047 L 46.060547 260.57031 L 44.849609 258.91992 L 45.070312 257.66016 L 46.169922 256.56055 L 47.699219 254.41992 L 49.130859 252.00977 L 49.849609 249.86914 L 49.849609 248.55078 L 49.300781 246.74023 L 48.25 245.75 L 47.099609 244.71094 L 46.939453 242.34961 L 46.060547 240.58984 L 45.179688 240.32031 L 43.859375 241.41016 L 42.880859 242.46094 L 42.160156 241.91016 L 43.039062 240.85938 L 43.529297 240.15039 L 45.400391 239.66016 L 47.099609 238.93945 L 48.419922 236.9707 L 49.570312 234.16992 L 50.169922 232.30078 L 49.410156 231.5293 L 48.75 230.49023 L 49.300781 227.58008 L 48.910156 225.76953 L 47.759766 225.10938 L 46.109375 225.2207 L 44.689453 225.7207 L 41.779297 225.60938 L 39.529297 226.05078 L 38.269531 226.75977 L 37.169922 226.75977 L 36.339844 225.93945 L 36.339844 224.50977 L 35.689453 223.08008 L 34.259766 221.49023 L 33.220703 220.16992 L 33.439453 217.81055 L 33.490234 215.66992 L 33.109375 212.92969 L 31.949219 212 L 31.300781 210.83984 L 28.189453 209.60938 L 26.630859 208.98047 z M 73.769531 215.01953 L 72.759766 215.32031 L 72.210938 216.25 L 71.660156 216.88086 L 69.740234 217.07031 L 69.300781 217.73047 L 69.300781 218.60938 L 69.849609 219.41016 L 69.580078 219.71094 L 69.220703 218.56055 L 68.480469 218.00977 L 68.179688 217.73047 L 66.560547 218.31055 L 65.599609 219.16016 L 64.970703 220.48047 L 64.419922 222.28906 L 64.390625 223.35938 L 65.349609 224.66992 L 66.310547 225.10938 L 66.910156 224.7793 L 67.980469 223.43945 L 68.339844 222.23047 L 68.449219 220.89062 L 68.859375 219.94922 L 69.519531 219.75977 L 69.359375 220.2793 L 68.830078 221.51953 L 68.699219 222.33984 L 68.369141 223.63086 L 67.759766 224.53906 L 66.720703 224.98047 L 66.419922 225.68945 L 66.970703 227.00977 L 68.150391 228.18945 L 70.320312 227.5 L 71.849609 228.71094 L 72.839844 230.18945 L 74.900391 230.16016 L 76.349609 227.66992 L 77.970703 226.40039 L 79.339844 224.81055 L 80.330078 223.88086 L 80.960938 222.73047 L 81.179688 221.10938 L 80.25 220.03906 L 78.599609 219.46094 L 78.359375 218.85938 L 78.220703 217.69922 L 77.669922 217.94922 L 77.400391 218.7207 L 76.050781 219.16016 L 75.169922 219.67969 L 73.880859 220.58984 L 74.189453 219.98047 L 75.169922 218.80078 L 75.689453 217.32031 L 75.390625 216.51953 L 75.039062 215.33984 L 73.769531 215.01953 z M 108.90039 226.42969 L 107.86914 226.61914 L 106.06055 227.93945 L 105.65039 229 L 106.15039 230.05078 L 108.11914 230.25 L 108.94922 230.81055 L 109.89062 230.73047 L 110.00977 229.82031 L 110.38086 229.15039 L 110.56055 228.48047 L 110.41992 227.41016 L 109.83008 226.83008 L 108.90039 226.42969 z M 359.09766 226.98633 A 30 30 0 0 1 389.09766 256.98633 A 30 30 0 0 1 359.09766 286.98633 A 30 30 0 0 1 329.09766 256.98633 A 30 30 0 0 1 359.09766 226.98633 z M 104.96094 231.24023 L 103.81055 232.7793 L 102.2207 234.15039 L 101.39062 235.4707 L 101.5 236.90039 L 102.55078 238.16016 L 104.68945 238.59961 L 104.74023 238.49023 L 106.2793 235.63086 L 106.5 234.32031 L 106.66016 231.51953 L 106.2793 231.24023 L 104.96094 231.24023 z M 100.30078 239.30078 L 98.279297 241.32031 L 98.789062 243.33008 L 99.789062 245.9707 L 101.42969 247.34961 L 103.57031 249.36914 L 105.33008 251.5 L 106.46094 254.7793 L 110.49023 255.2793 L 112.36914 256.78906 L 110.10938 257.03906 L 107.08984 256.53906 L 104.07031 255.40039 L 101.30078 253.26953 L 98.660156 252.64062 L 96.779297 252.00977 L 99.419922 249.74023 L 97.779297 246.34961 L 96.019531 246.09961 L 93.5 248.10938 L 94.390625 249.61914 L 96.019531 251.25 L 95.769531 252.00977 L 93.25 252.75977 L 91.740234 253.89062 L 90.490234 258.16992 L 89.099609 261.32031 L 89.230469 262.57031 L 90.740234 264.21094 L 92.880859 262.44922 L 94.009766 266.84961 L 97.660156 268.60938 L 97.779297 270.5 L 97.910156 273.90039 L 96.019531 277.91992 L 94.890625 280.81055 L 94.130859 283.83008 L 93.130859 286.59961 L 94.390625 290.63086 L 95.769531 289.11914 L 97.150391 288.85938 L 98.660156 293.51953 L 102.17969 296.53906 L 105.19922 297.66992 L 110.35938 298.92969 L 111.61914 298.30078 L 116.26953 299.31055 L 119.53906 300.68945 L 120.92969 299.67969 L 121.17969 296.0293 L 125.19922 295.0293 L 126.58984 293.01953 L 128.2207 290.36914 L 125.71094 289.24023 L 123.18945 288.85938 L 127.84961 286.09961 L 131.75 283.71094 L 134.64062 279.42969 L 136.7793 277.41992 L 138.28906 276.16016 L 138.16016 272.50977 L 138.78906 271 L 137.91016 265.7207 L 135.26953 264.83984 L 133.13086 265.08984 L 131.24023 263.44922 L 127.7207 260.81055 L 125.83008 255.66016 L 124.94922 251.75977 L 123.94922 245.33984 L 123.94922 242.82031 L 120.16992 239.92969 L 117.15039 239.42969 L 113.13086 240.17969 L 112 240.42969 L 108.4707 240.68945 L 106.83984 240.17969 L 103.68945 239.42969 L 100.30078 239.30078 z M 56.869141 279.11914 L 54.779297 279.23047 L 53.580078 280.53906 L 54.619141 281.91992 L 55.830078 282.14062 L 54.240234 282.08008 L 53.740234 282.68945 L 52.419922 282.41016 L 50.890625 282.35938 L 49.410156 281.48047 L 48.689453 281.25977 L 47.050781 281.81055 L 46.220703 282.35938 L 44.800781 283.28906 L 45.400391 284.2207 L 46.060547 284.93945 L 48.359375 284.7207 L 52.150391 284.83008 L 53.580078 285.53906 L 51.599609 285.48047 L 49.460938 285.42969 L 47.759766 285.21094 L 45.949219 285.65039 L 43.259766 285.75977 L 41.449219 285.65039 L 40.839844 285.32031 L 42.660156 283.56055 L 44.25 282.51953 L 43.810547 281.36914 L 42.660156 280.86914 L 38.589844 280.98047 L 35.410156 281.64062 L 33.109375 283.40039 L 31.679688 284.66016 L 28.330078 285.53906 L 26.189453 286.64062 L 25.75 288.39062 L 23.779297 289.2207 L 24.380859 290.9707 L 24.820312 293.43945 L 25.259766 295.4707 L 25.859375 297.39062 L 28 299.41992 L 30.689453 299.58984 L 32.449219 299.81055 L 34.150391 301.01953 L 35.470703 300.35938 L 37.720703 298.59961 L 40.679688 297.7793 L 43.259766 296.41016 L 44.300781 295.08984 L 43.970703 292.50977 L 43.259766 290.81055 L 45.669922 290.03906 L 48.199219 289.33008 L 50.830078 288.39062 L 53.080078 289.59961 L 56.160156 290.85938 L 57.529297 291.84961 L 55.279297 293 L 53.140625 293.7207 L 52.419922 295.35938 L 52.419922 297.60938 L 51.710938 300.08008 L 51.330078 301.66992 L 51.380859 303.42969 L 55.769531 305.46094 L 60 306.44922 L 62.300781 308.36914 L 65.050781 309.30078 L 67.960938 306.93945 L 70.369141 304.41992 L 69.990234 302.88086 L 72.679688 302.2793 L 73.939453 300.91016 L 74.099609 300.18945 L 73.009766 299.15039 L 73.279297 297.7207 L 72.509766 296.63086 L 71.519531 295.85938 L 72.679688 294.26953 L 73.609375 292.40039 L 73.609375 289.43945 L 73.009766 286.75 L 72.679688 284.33008 L 70.759766 281.58984 L 68.830078 280.16016 L 66.529297 280.16016 L 64.169922 281.69922 L 60.769531 284.16992 L 58.519531 285.09961 L 55.439453 285.36914 L 53.580078 285.58984 L 54.400391 285.05078 L 56.759766 283.83984 L 58.789062 284.16992 L 59.449219 283.07031 L 59.179688 282.96094 L 56.929688 283.23047 L 56.050781 282.84961 L 55.830078 281.85938 L 57.800781 281.9707 L 58.240234 280.38086 L 56.869141 279.11914 z M 51.330078 289.76953 L 50.5 291.0293 L 51.490234 292.33984 L 49.300781 292.40039 L 47.699219 290.58984 L 46.5 290.31055 L 45.070312 292.40039 L 45.289062 294.26953 L 44.470703 296.51953 L 44.25 297.44922 L 42.929688 299.31055 L 41.5 300.30078 L 39.75 302.06055 L 39.140625 303.16016 L 39.640625 305.01953 L 41.720703 306.07031 L 44.080078 305.67969 L 44.519531 302.99023 L 44.630859 301.66992 L 44.910156 303.21094 L 44.689453 304.4707 L 46.330078 303.81055 L 48.25 300.74023 L 49.519531 299.19922 L 50.339844 297.7793 L 50.830078 296.08008 L 51.769531 295.64062 L 51.929688 293.2793 L 51.990234 292.83984 L 53.580078 292.89062 L 53.630859 291.14062 L 52.099609 290.19922 L 51.330078 289.76953 z " />
    <rect
       id="L1"
       x="901.05084"
       y="131.05087"
       width="99.015305"
       height="37.364265"
       rx="5.60464"
       ry="5.60464"
       style="stroke-width:2.10174px" />
    <rect
       id="L2"
       x="901.05084"
       y="181.05087"
       width="99.015305"
       height="37.364265"
       rx="5.60464"
       ry="5.60464"
       style="overflow:visible;stroke:#181922;stroke-width:2.10174px" />
    <rect
       id="L3"
       x="901.05084"
       y="231.05087"
       width="99.015305"
       height="37.364265"
       rx="5.60464"
       ry="5.60464"
       style="overflow:visible;stroke:#181922;stroke-width:2.10174px" />
    <rect
       id="L4"
       x="901.05084"
       y="281.05087"
       width="99.015305"
       height="37.364265"
       rx="5.60464"
       ry="5.60464"
       style="overflow:visible;stroke:#181922;stroke-width:2.10174px" />
    <rect
       id="L5"
       x="901.05084"
       y="331.05087"
       width="99.015305"
       height="37.364265"
       rx="5.60464"
       ry="5.60464"
       style="overflow:visible;stroke:#181922;stroke-width:2.10174px" />
    <rect
       id="L6"
       x="901.05084"
       y="381.05087"
       width="99.015305"
       height="37.364265"
       rx="5.60464"
       ry="5.60464"
       style="overflow:visible;stroke:#181922;stroke-width:2.10174px" />
    <rect
       id="L7"
       x="901.05084"
       y="431.05087"
       width="99.015305"
       height="37.364265"
       rx="5.60464"
       ry="5.60464"
       style="overflow:visible;stroke:#181922;stroke-width:2.10174px" />
    <rect
       id="L8"
       x="901.05084"
       y="481.05087"
       width="99.015305"
       height="37.364265"
       rx="5.60464"
       ry="5.60464"
       style="overflow:visible;stroke:#181922;stroke-width:2.10174px" />
    <circle
       id="W-2"
       style="overflow:visible;stroke:#181922"
       cx="336.71329"
       cy="572.79962"
       r="30" />
    <circle
       id="S-2"
       style="overflow:visible;stroke:#181922"
       id="path1144-5"
       cx="700.51843"
       cy="534.09692"
       r="30" />
    <circle
       id="E-2"
       style="overflow:visible;stroke:#181922"
       id="path1144-9"
       cx="634.72388"
       cy="243.05281"
       r="30" />
    <circle
       id="N-2"
       style="overflow:visible;stroke:#181922"
       id="path1144-7"
       cx="359.09814"
       cy="256.98578"
       r="30" />
  </g>
  <g
     id="text"
     style="font-size: 16px; stroke-width: 0px; font-weight: bold; fill: white; text-align: center; cursor: pointer; pointer-events: none; user-select: none; -webkit-user-select: none;">
    <text
       id="L1-text"
       x="949.87994"
       y="157.20711"
       xml:space="preserve"
       text-anchor="middle"
       style="font-size:22.4186px;stroke-width:2.10174px"><tspan
         id="tspan8988-2-59-0"
         x="949.87994"
         y="157.20711"
         style="stroke-width:2.10174px">L1</tspan></text>
    <text
       id="L2-text"
       x="949.87994"
       y="207.20711"
       xml:space="preserve"
       text-anchor="middle"
       style="font-size:22.4186px;stroke-width:2.10174px"><tspan
         id="tspan8988-2-59-0-9"
         x="949.87994"
         y="207.20711"
         style="stroke-width:2.10174px">L2</tspan></text>
    <text
       id="L3-text"
       x="949.87994"
       y="257.20709"
       xml:space="preserve"
       text-anchor="middle"
       style="font-size:22.4186px;stroke-width:2.10174px"><tspan
         id="tspan8988-2-59-0-9-4"
         x="949.87994"
         y="257.20709"
         style="stroke-width:2.10174px">L3</tspan></text>
    <text
       id="L4-text"
       x="949.87994"
       y="307.20709"
       xml:space="preserve"
       text-anchor="middle"
       style="font-size:22.4186px;stroke-width:2.10174px"><tspan
         id="tspan8988-2-59-0-9-6"
         x="949.87994"
         y="307.20709"
         style="stroke-width:2.10174px">L4</tspan></text>
    <text
       id="L5-text"
       x="949.87994"
       y="357.20709"
       xml:space="preserve"
       text-anchor="middle"
       style="font-size:22.4186px;stroke-width:2.10174px"><tspan
         id="tspan8988-2-59-0-9-45"
         x="949.87994"
         y="357.20709"
         style="stroke-width:2.10174px">L5</tspan></text>
    <text
       id="L6-text"
       x="949.87994"
       y="407.20712"
       xml:space="preserve"
       text-anchor="middle"
       style="font-size:22.4186px;stroke-width:2.10174px"><tspan
         id="tspan8988-2-59-0-9-1"
         x="949.87994"
         y="407.20712"
         style="stroke-width:2.10174px">L6</tspan></text>
    <text
       id="L7-text"
       x="949.87994"
       y="457.20709"
       xml:space="preserve"
       text-anchor="middle"
       style="font-size:22.4186px;stroke-width:2.10174px"><tspan
         id="tspan8988-2-59-0-9-19"
         x="949.87994"
         y="457.20709"
         style="stroke-width:2.10174px">L7</tspan></text>
    <text
       id="L8-text"
       x="949.87994"
       y="507.20709"
       xml:space="preserve"
       text-anchor="middle"
       style="font-size:22.4186px;stroke-width:2.10174px"><tspan
         id="tspan8988-2-59-0-9-3"
         x="949.87994"
         y="507.20709"
         style="stroke-width:2.10174px">L8</tspan></text>
    <text
       id="E-text"
       x="548.73859"
       y="384.96231"
       xml:space="preserve"
       text-anchor="middle"
       style="font-weight:bold;font-size:22.4186px;text-align:center;overflow:visible;fill:#ffffff;stroke-width:2.10174px;-webkit-user-select:none"><tspan
         id="tspan8988-2-59-0-1"
         x="548.73859"
         y="384.96231"
         style="stroke-width:2.10174px">East</tspan></text>
    <text
       id="N-text"
       x="438.90753"
       y="212.09351"
       xml:space="preserve"
       text-anchor="middle"
       style="font-weight:bold;font-size:22.4186px;text-align:center;overflow:visible;fill:#ffffff;stroke-width:2.10174px;-webkit-user-select:none"><tspan
         id="tspan8988-2-59-0-1-2"
         x="438.90753"
         y="212.09351"
         style="stroke-width:2.10174px">North</tspan></text>
    <text
       id="W-text"
       x="253.52597"
       y="466.37421"
       xml:space="preserve"
       text-anchor="middle"
       style="font-weight:bold;font-size:22.4186px;text-align:center;overflow:visible;fill:#ffffff;stroke-width:2.10174px;-webkit-user-select:none"><tspan
         id="tspan8988-2-59-0-1-2-9"
         x="253.52597"
         y="466.37421"
         style="stroke-width:2.10174px">West</tspan></text>
    <text
       id="S-text"
       x="582.84778"
       y="595.37665"
       xml:space="preserve"
       text-anchor="middle"
       style="font-weight:bold;font-size:22.4186px;text-align:center;overflow:visible;fill:#ffffff;stroke-width:2.10174px;-webkit-user-select:none"><tspan
         id="tspan8988-2-59-0-1-2-9-4"
         x="582.84778"
         y="595.37665"
         style="stroke-width:2.10174px">South</tspan></text>
  </g>
</svg>
