<?xml version="1.0" encoding="UTF-8" standalone="no"?>
<svg
   width="100%"
   height="100%"
   id="svgdata"
   style="overflow: visible"
   version="1.1"
   sodipodi:docname="jju-districts-list-map.svg"
   inkscape:version="1.2.2 (b0a8486, 2022-12-01)"
   xmlns:inkscape="http://www.inkscape.org/namespaces/inkscape"
   xmlns:sodipodi="http://sodipodi.sourceforge.net/DTD/sodipodi-0.dtd"
   xmlns="http://www.w3.org/2000/svg"
   xmlns:svg="http://www.w3.org/2000/svg">
  <sodipodi:namedview
     id="namedview146"
     pagecolor="#505050"
     bordercolor="#eeeeee"
     borderopacity="1"
     inkscape:showpageshadow="0"
     inkscape:pageopacity="0"
     inkscape:pagecheckerboard="0"
     inkscape:deskcolor="#505050"
     showgrid="false"
     inkscape:zoom="0.71466605"
     inkscape:cx="507.22991"
     inkscape:cy="250.46663"
     inkscape:window-width="1724"
     inkscape:window-height="980"
     inkscape:window-x="0"
     inkscape:window-y="25"
     inkscape:window-maximized="0"
     inkscape:current-layer="svgdata" />
  <defs
     id="svgdefinitions" />
  <g
     id="outlines"
     style="stroke: rgb(24, 25, 34); stroke-width: 1.125px;">
    <path
       d="M 233.76 532.83 237.72 524.82 242 521.54 247.53 522.17 253.57 523.93 259.48 523.68 263.88 522.3 268.04 519.78 268.16 516.89 266.02 513.49 264.89 507.71 267.66 500.54 269.67 492.24 277.72 489.72 288.79 490.73 297.22 490.29 306.15 491.42 314.2 493.18 318.92 496.26 325.14 497.9 331.62 497.39 330.68 495.63 335.84 492.68 344.64 492.42 349.48 493.12 350.24 492.17 356.12 491.73 387.57 495.51 398.64 503.56 410.21 501.54 419.77 504.56 434.36 503.3 449.96 516.14 457.76 516.39 462.54 520.41 464.8 514.37 471.09 515.38 471.35 511.86 477.38 510.1 489.21 503.3 500.53 504.56 500.53 506.83 501.79 511.36 507.1 511.13 506.38 513.89 495.31 520.68 494.55 525.84 489.02 530.74 485.87 538.42 480.97 543.2 473.17 544.83 471.48 539.76 471.47 539.66 471.45 539.67 471.28 539.17 465.5 543.07 455.81 551.12 451.03 554.01 444.99 559.3 437.19 567.47 429.9 572.88 417.82 582.38 413.98 588.1 406.12 593.64 404.69 595.59 404.05 596.01 403.96 596.58 402.29 598.86 400.27 611.56 395.24 619.87 390.52 619.17 389.71 633.26 382.54 638.55 376.62 647.1 370.96 649.99 373.23 664.21 368.89 672.32 371.97 675.21 371.34 678.42 362.47 683.2 361.15 687.35 357.06 689.43 356.56 699.87 355.24 702.32 355.87 706.35 359.08 708.74 362.85 707.29 364.17 714.46 365.81 714.9 365.18 716.73 363.79 720.5 363.98 724.65 364.8 727.42 370.21 729.12 372.16 731.19 373.35 734.08 376.12 734.71 378.42 736.19 378.51 736.03 378.64 736.14 371.72 746.71 364.05 750.99 358.26 752.75 356.25 756.27 351.84 762.56 347.06 763.57 339.77 766.08 330.58 767.84 330.08 766.59 331.84 762.43 334.48 759.67 339.26 758.91 339.26 756.52 332.47 758.91 327.19 757.28 319.26 757.03 318.63 758.28 314.74 759.29 313.1 758.28 311.72 761.3 310.21 764.95 309.83 768.35 312.09 767.09 312.97 770.74 311.09 771.74 306.97 777.22 300.21 786.21 297.25 786.56 295.8 789.98 292.63 790.45 286.4 790.05 283.32 790.2 282.19 788.38 279.36 786.05 276.12 784.54 272.69 783.85 270.21 784.54 267.78 783.98 267.5 782.34 266.84 784.1 265.58 785.14 264.58 784.83 264.64 783.47 264.98 781.05 267.53 780.74 267.78 779.48 265.77 779.23 264.51 776.71 266.78 776.71 264.01 773.44 266.78 769.92 271.05 760.86 260.74 749.79 263.26 741.49 262.5 735.7 260.49 732.43 264.01 726.4 263 717.59 266.78 715.58 273.82 713.06 281.37 707.53 285.65 705.77 286.65 700.99 281.37 688.16 279.86 684.13 276.59 676.33 272.82 674.57 264.76 661.99 254.45 656.96 247.59 648.72 247.78 641.93 235.27 628.28 231.18 622.18 229.35 618.91 222.44 613.69 219.1 613.69 214.7 612.49 207.34 609.6 204.7 607.08 204.26 604.76 206.02 604.06 208.1 604 210.49 607.08 213.76 607.33 215.08 609.66 218.79 609.79 221.62 610.86 221.37 609.98 219.98 607.4 218.6 603.43 218.72 598.65 218.85 594.82 219.61 592.3 220.23 587.9 220.74 582.8 223.44 579.97 224.64 579.72 226.46 580.73 232 581.36 230.74 584.75 227.97 585.51 227.28 587.52 226.02 589.53 225.27 592.3 225.83 595.7 224.32 599.28 226.46 602.81 226.46 606.89 229.86 610.42 229.35 612.93 230.23 611.93 232.5 611.61 233.25 614.32 231.43 615.89 236.52 623.33 239.92 629.02 241.52 630.65 243.43 632.18 245.35 635.1 246.71 635.95 247.85 637.05 248.43 638.18 249.59 638.97 250.38 640.59 250.63 640.15 250.2 638.75 248.87 638.14 248.98 637.46 247.97 636.8 246.59 635.17 244.95 632.96 242.72 629.88 242.53 627.4 243.22 627.34 243.22 625.95 244.13 625.7 245.55 625.29 246.34 624.47 246.59 625.04 248.41 625.54 249.1 626.64 249.07 623.91 246.93 622.43 246.84 620.98 248.44 619.79 248 614.54 245.9 613.18 245.68 611.52 244.35 609.13 243.54 608.88 242.28 607.96 239.73 606.52 238.19 607.68 235.08 608.28 232.15 607.65 232.06 600.95 231.21 599.19 227.4 596.64 226.49 594.57 226.65 592.71 227.31 590.42 228.57 586.8 231.27 585.86 234.35 583.53 235.49 580.38 234.73 577.93 233.35 578.12 230.83 577.68 228.76 578.94 226.62 579.5 226.62 578.81 224.73 576.55 223.28 577.36 222.15 578.75 221.46 581.52 218.76 582.08 217 579.94 215.3 580.01 214.42 577.36 215.23 577.43 215.49 574.28 218.69 572.14 218.57 568.81 219.26 568.56 219.7 566.11 223.66 556.99 226.18 555.54 229.2 555.16 232.56 551.01 236.65 549.85 238.07 552.36 239.67 556.23 243.32 556.17 244.8 554.47 246.71 554.38 248.32 555.95 251.87 557.46 256.65 554.19 248.57 552.08 246.71 547.93 243.47 540.1 240.77 538.21 237.31 539.16 235.46 535.88 233.76 532.83 Z M 507.82 511.1 507.72 511.4 507.32 511.13 507.82 511.1 Z"
       id="DT" />
    <path
       d="M 658.46 637.95 658.52 636.85 656.82 636.53 651.16 638.29 645.75 640.24 645.06 636.16 647.26 631.82 647.7 628.86 645.19 622.07 645.82 613.89 643.43 608.36 651.48 599.8 658.4 600.93 664.18 592.88 665.57 586.97 664.43 576.78 661.79 572.13 655.88 569.36 653.99 559.93 652.36 555.27 647.08 549.61 645.06 533.26 644.69 520.93 646.82 518.42 651.73 522.44 655.38 517.91 653.87 505.84 645.94 500.55 644.31 490.87 644.94 481.06 644.18 477.28 643.93 475.4 641.04 472.63 640.53 472.63 640.52 472.56 644.94 472.38 647.52 469.62 647.52 466.47 650.79 461.19 654.18 453.39 657.71 446.28 656.7 443.89 663.37 437.35 669.59 432.76 673.87 429.68 676.26 425.65 674.88 423.7 672.67 425.15 672.67 423.89 673.93 419.17 675.38 418.04 678.65 418.36 687.2 409.93 690.6 406.34 693.68 402.32 696.07 400.24 696.95 397.03 700.16 392.13 705.63 387.29 713.37 385.46 716.83 383.64 716.76 381.94 721.04 380.74 722.93 378.54 722.42 376.22 720.19 374.96 718.19 373.89 716.72 372.8 717.66 371.01 720.4 370.04 721.83 368.23 721.14 366.53 723.6 364.09 724.88 366.36 722.9 368.78 722.64 371.63 721.42 372.84 722.97 374.68 724.89 376.33 726.4 380.67 727.09 385.76 725.33 389.16 725.33 394.19 726.28 394.38 727.53 393.69 729.67 393.43 731.43 395.7 734.42 398.21 734.23 401.17 733.92 402.49 732.41 402.55 733.35 404.82 731.59 406.64 733.1 407.65 733.42 405.95 735.74 405.89 736.94 406.89 738.38 406.33 736.81 408.59 738.13 410.16 738.2 412.99 734.04 416.77 734.3 417.4 733.35 417.27 733.86 421.74 731.34 424.63 730.02 428.91 731.03 428.91 730.52 430.98 732.47 429.03 732.79 428.03 734.36 428.09 736.87 429.98 738.2 434.88 741.28 433.56 744.17 434.32 746.06 436.77 748.95 437.21 753.16 439.73 755.43 444.69 756.81 447.84 756.88 453 754.61 457.08 753.42 458.28 753.35 461.99 752.41 463.44 753.04 464.32 755.37 463.19 757.5 464.25 757.76 466.49 761.25 467.56 763.39 470.95 764.27 475.95 765.74 479.73 766.56 480.54 767.66 481.77 767.95 483.53 767.28 483.72 767.73 486.11 770.37 490.42 772.25 496.77 773.79 498.85 774.36 500.67 772.79 500.8 770.65 499.73 768.39 499.35 766.56 497.34 766.62 498.66 767.88 505.07 765.37 512.06 767.19 514.45 767.25 520.11 770.46 523.82 769.77 527.09 771.47 533.19 773.29 536.96 776 541.43 776.56 546.08 775.43 548.28 777.63 549.16 782.16 549.42 784.8 550.61 784.93 553.13 785.49 553.38 786.19 552.81 788.51 553.06 790.4 555.39 790.52 557.47 791.52 557.91 791.68 556.95 795.64 556.82 795.88 557.18 795.68 559.43 796.38 559.66 796.86 558.78 798.28 558.76 799 559.87 798.91 561.73 795.98 561.79 795.92 559.97 796.38 559.66 795.68 559.43 795.26 561.33 793.56 561.41 791.81 560.7 791.48 559.67 791.52 557.91 790.52 557.47 790.78 558.9 789.42 560.03 788.28 561.31 787.68 560.87 788.64 559.72 789.14 558.78 788.24 558.23 787.32 560.16 787.68 561.31 788.39 562.06 788.24 562.74 787.03 562.44 786.55 561.02 786.62 560.43 785.02 560.19 784.69 558.01 784.55 555.71 785.16 554.53 785.16 553.57 785.49 553.38 784.93 553.13 784.16 553.8 782.1 554.41 780.36 554.28 778.91 554 778.45 554.65 776.58 554.5 774.81 553.86 772.7 552.29 771.69 552.29 770.29 553.57 768.97 553.5 767.72 553.91 766.89 555.11 765.35 555.05 765.44 553.74 765.88 552.59 766.93 551.31 769.36 549.39 769.53 548.88 769.38 548.31 767.99 546.67 765.59 547.61 764.65 549.59 766.26 550.07 766.18 550.76 764.7 550.97 764.64 555.34 764.34 555.47 764.32 556.12 764.89 556.27 766.02 556.34 766.19 556.77 766.21 558.28 761.54 562.49 761.36 563.04 760.42 563.33 756.76 575.35 753.01 577.05 752.89 579 748.86 581.01 746.09 580.76 743.83 582.02 741.57 589.07 742.07 595.35 741.57 598.88 738.55 601.64 734.52 603.15 732.51 605.17 729.49 607.68 727.73 611.46 726.22 614.48 727.23 618.25 728.74 619.51 727.98 623.53 726.72 626.8 725.21 629.32 721.94 632.09 722.95 633.09 716.66 635.86 713.64 634.1 710.12 635.1 708.11 632.09 707.35 631.33 703.58 633.6 703.33 637.37 703.33 640.64 702.82 643.41 702.07 645.67 701.31 648.44 699.8 651.71 698.04 654.23 695.02 657.75 692.04 657.81 691.27 658.71 690.49 659.48 689.48 660.09 688.44 660.32 687.39 660.18 687.43 662.44 688.22 662.49 688.46 662.97 688.45 663.94 687.04 664.05 686.23 664.46 686.3 665.04 685.72 665.57 685.25 666.22 685.11 666.47 684.22 666.6 683.78 665.65 684.53 664.27 685.06 663.3 687.39 662.45 687.39 660.18 685.1 659.96 683.74 661.22 682.61 661.97 682.08 662.16 679.56 662.07 677.93 660.94 676.32 660.15 673.9 658.96 671.54 658.52 670.72 655.65 671.04 653.89 671.35 651.75 671.79 650.28 671.6 649.11 665.35 656.97 665.32 658.45 663.33 660.06 662.3 660.72 660.35 660.4 660.22 659.77 661.7 659.4 662.17 657.67 662.55 656.82 663.18 655.84 663.84 655.91 664.21 656.67 664.77 656.94 665.35 656.95 671.6 649.1 671.55 648.04 669.8 646.75 669.85 645.09 669.52 643.97 667.4 643.83 667.07 642.34 666.52 641.79 665.24 642.56 661.26 642.45 660.09 642.02 659.69 641.32 659.58 639.48 658.99 638.92 658.43 637.99 658.46 637.95 Z"
       id="AV" />
    <path
       d="M 640.53 472.63 637.45 473.07 634.34 476.78 631.35 478.85 613.14 482.12 607.04 480.36 595.66 484.8 591.82 483.7 581.54 485.99 567.98 487.97 562.54 485.68 548.2 490.77 538.64 497.19 525 503.98 521.1 506.12 517.13 507.69 516.82 511.09 509.4 512.53 507.01 511.53 506.99 511.53 507.1 511.13 501.79 511.36 500.53 506.83 500.53 504.56 489.21 503.3 477.38 510.1 471.35 511.86 471.09 515.38 464.8 514.37 462.54 520.41 457.76 516.39 449.96 516.14 434.36 503.3 419.77 504.56 410.21 501.54 398.64 503.56 387.57 495.51 356.3 491.75 357.19 488.26 360.71 483.16 363.16 479.14 365.3 473.23 365.93 467.56 367 462.91 368.51 458.07 369.08 455.3 369.01 452.28 368.45 449.89 367.19 447.63 367.5 445.99 365.81 444.23 364.89 441.78 362.57 437.78 361.31 434.7 360.62 431.68 359.67 431.31 357.6 429.92 355.46 427.53 353.51 425.58 353.76 422.69 356.09 420.61 358.04 417.41 356.34 413.32 356.47 410.55 355.59 408.98 351.94 405.08 351.62 402.18 348.98 397.84 349.99 394.51 350.62 390.67 351.75 388.66 351.31 387.34 351.62 385.83 349.8 383.19 350.37 378.28 349.67 374.57 348.73 367.53 352 367.37 352.54 368.03 354.27 367.87 356.03 368.91 357.22 367.91 360.08 368 361.31 369.6 363.04 368.69 363.92 367.5 363.1 365.83 363.48 365.14 365.81 364.48 365.71 363.28 363.45 361.84 363.67 361.02 361.03 353.88 361.09 345.77 361.03 340.92 361.97 337.53 363.92 336.4 366.12 331.24 366.5 327.4 367.32 324.32 369.77 324.19 370.84 321.17 373.48 319.85 373.35 315.39 376.31 316.08 377.44 319.6 378.83 319.6 379.14 321.49 385.24 319.16 396.37 319.73 403.92 315.33 409.83 308.03 416.88 298.72 420.65 299.48 418.14 305.89 421.03 306.65 416.75 308.16 415.87 310.55 421.03 310.8 419.52 315.45 424.8 317.97 427.57 310.42 430.71 310.92 432.35 309.67 442.29 308.78 444.55 311.05 454.74 311.17 456.38 314.32 468.58 310.29 473.48 312.81 474.62 314.32 479.02 312.43 481.41 313.44 481.66 312.81 494.37 302.62 506.69 304.88 512.98 302.62 514.99 295.83 512.48 294.32 513.99 290.54 521.28 291.3 518.52 295.83 520.53 305.39 527.07 317.72 539.9 336.84 544.93 350.17 551.47 350.92 564.05 355.45 568.83 358.98 582.17 371.81 584.18 371.81 585.19 381.62 582.42 386.4 584.43 389.17 583.43 397.97 584.81 414.83 592.99 427.41 596.88 430.05 607.2 439.36 612.61 443.88 617.39 447.15 623.43 451.31 624.68 450.17 637.96 460.05 637.01 463.07 639.03 465.83 640.53 472.63 Z M 507.82 511.1 507.32 511.13 507.72 511.4 507.82 511.1 Z"
       fill-rule="evenodd"
       id="DM" />
    <path
       d="M 326.54 303.11 324.88 300.44 322.39 298.65 319.15 295.66 317.7 294.53 316.67 291.64 315.09 287.96 313.96 285.03 311.54 282.89 309.12 280.75 307.89 280.69 306.48 281.13 305.69 280.88 303.33 279.32 301.53 278.19 299.58 276.37 297.19 274.48 295.46 273.88 294.93 272.97 292.51 272.06 291.22 271.87 289.83 272.31 288.14 272.15 286 272.22 279.61 275.74 278.48 275.96 276.75 275.93 276.62 276.09 276.46 276.02 275.64 274.58 276.05 272.85 277.97 271.97 279.03 269.2 277.78 266.18 273.12 262.78 273.25 259.2 271.42 255.24 273.37 254.42 276.46 254.61 276.64 256.68 278.34 258.32 281.74 260.02 284 260.83 284.95 259.07 288.85 257.38 287.97 253.22 289.1 250.27 293.94 248.51 296.52 246.24 296.9 243.6 298.03 240.96 297.4 237.69 298.34 236.81 297.15 233.03 295.51 229.95 295.64 225.55 293.94 224.61 292.49 225.55 289.6 227.69 286.08 223.79 286.33 221.02 288.97 216.74 286.83 214.86 288.85 208.19 287.97 203.91 287.21 195.61 293.12 197.62 295.14 192.72 299.41 184.67 300.92 176.62 309.85 175.36 312.75 173.98 314.13 174.98 316.9 175.49 319.54 177.62 322.06 181.4 326.96 185.67 324.45 189.45 324.7 198 329.6 200.14 334.01 197.62 336.02 194.35 341.43 187.81 348.22 181.02 347.59 185.17 355.52 166.68 353.25 165.04 353.13 160.39 356.02 155.86 363.44 140.89 359.54 141.02 357.53 149.45 353.63 147.69 347.59 148.94 340.92 152.21 339.16 152.34 342.94 139.51 346.08 138.88 348.72 136.11 351.36 137.62 353.75 138.13 353.13 131.96 356.27 132.72 360.04 132.72 363.19 133.47 363.72 130.17 362.06 128.63 361.55 125.67 362.21 125.01 363.13 122.72 364.48 120.45 365.96 118.03 366.84 115.64 368.79 115.55 370.3 115.77 372.53 116.77 373.94 114.35 375.55 113.78 379.42 113.53 380.05 114.41 382.31 116.93 384.39 118.63 387.72 120.7 389.23 122.4 390.61 124.1 393.57 126.3 395.77 127.18 397.78 127.37 399.54 128.94 400.61 130.14 403.82 130.39 408.29 130.83 412.25 131.27 413.44 131.96 415.08 133.35 417.59 134.73 420.74 134.16 423.38 133.03 424.89 132.02 424.89 133.03 424.14 134.54 425.77 133.28 428.16 131.33 428.54 129.51 427.03 126.62 424.32 122.02 421.49 112.84 423.38 111.9 424.39 108.88 427.09 108.06 429.92 107.62 434.14 108.03 434.39 109.67 434.51 111.05 434.26 112.56 433.38 112.94 431.87 113.69 430.24 114.45 430.24 115.95 430.24 117.46 429.23 118.34 428.85 119.23 430.49 118.97 431.24 118.34 433.51 116.96 437.03 116.21 439.42 115.2 441.43 114.19 442.69 112.94 444.58 110.92 446.84 111.55 448.6 112.31 448.73 113.56 449.36 115.7 451.49 116.21 454.39 116.46 456.78 116.46 459.17 115.45 460.05 112.94 461.94 109.92 463.82 108.28 466.21 106.9 467.97 105.01 469.11 103.12 470.11 100.86 473.51 99.98 476.78 100.61 478.41 101.49 479.42 101.24 482.44 101.36 485.96 101.74 486.97 105.01 491.12 105.14 497.53 110.29 497.79 111.43 497.16 112.06 496.78 112.56 498.92 112.56 501.43 111.3 503.7 111.93 504.08 114.45 501.81 114.95 501.18 116.33 504.45 117.09 515.27 129.54 515.52 132.31 517.54 134.82 517.66 136.77 515.52 140.55 517.03 142.75 517.16 144.51 512.94 144.89 512.5 145.64 509.3 146.21 509.11 147.53 513.2 147.28 518.73 151.3 525.84 154.76 525.68 151.4 528.51 151.36 529.55 152.12 531.15 154.01 531.44 156.49 529.64 158.09 530.24 158.85 530.74 159.86 531.5 159.42 532.98 159.42 533.45 161.59 534.23 161.81 535.65 163.6 538.23 164.92 541.4 166.93 545.27 168.38 548.48 169.42 550.78 171.93 554.55 173.13 561.47 173.08 562.13 172.23 563.18 172.69 565.59 172.7 565.73 170.94 568.5 168.85 567.55 175.19 563.97 177.33 559.94 179.47 556.29 178.59 554.03 180.41 555.1 186.01 557.74 186.89 557.49 190.42 558.68 194.31 549.06 209.72 544.66 215.89 542.65 220.79 543.9 225.83 546.29 250.73 550.19 259.16 548.31 267.21 541.51 270.98 537.24 278.03 526.67 285.58 521.06 291.28 521.07 291.28 513.99 290.54 512.48 294.32 514.99 295.83 512.98 302.62 506.69 304.88 494.37 302.62 481.66 312.81 481.41 313.44 479.02 312.43 474.62 314.32 473.48 312.81 468.58 310.29 456.38 314.32 454.74 311.17 444.55 311.05 442.29 308.78 432.35 309.67 430.71 310.92 427.57 310.42 424.8 317.97 419.52 315.45 421.03 310.8 415.87 310.55 416.75 308.16 421.03 306.65 418.14 305.89 420.65 299.48 416.88 298.72 409.83 308.03 403.92 315.33 396.37 319.73 385.24 319.16 379.14 321.49 378.83 319.6 377.44 319.6 376.31 316.08 373.35 315.39 373.48 319.85 370.84 321.17 369.77 324.19 367.32 324.32 366.5 327.4 366.12 331.24 363.92 336.4 361.97 337.53 361.03 340.92 361.09 345.77 361.03 353.88 363.67 361.02 363.45 361.84 365.15 362.92 365.75 363.77 365.8 364.43 365.64 364.52 363.48 365.14 363.1 365.83 363.92 367.5 363.04 368.69 361.31 369.6 360.08 368 357.22 367.91 356.03 368.91 354.27 367.87 352.82 368.01 352.47 367.95 352 367.37 348.91 367.52 348.27 365.13 346.97 362.64 346.13 360.62 345.93 357.49 345.65 356.36 345.33 354.52 344.2 352.35 343.16 349.67 342.22 346.75 341.59 344.17 341.15 341.53 339.92 339.7 339.2 339.96 338.48 339.74 336.56 337.52 335.8 335.87 334.44 333.37 334.37 327.71 334.09 327.55 334.06 323.49 333.3 321.01 333.49 320.13 333.3 318.46 332.39 316.67 331.32 317.17 330.82 317.14 330.72 311.76 328.09 307.47 327.23 305.79 326.54 303.11 Z"
       id="EX" />
    <path
       d="M 640.53 472.63 641.04 472.63 641.08 472.66 640.39 472.66 640.39 472.65 640.53 472.63 Z M 617.39 447.15 612.61 443.88 607.2 439.36 596.88 430.05 592.99 427.41 584.81 414.83 583.43 397.97 584.43 389.17 582.42 386.4 585.19 381.62 584.18 371.81 582.17 371.81 568.83 358.98 564.05 355.45 551.47 350.92 544.93 350.17 539.9 336.84 527.07 317.72 520.53 305.39 518.52 295.83 521.28 291.3 521.06 291.28 526.67 285.58 537.24 278.03 541.51 270.98 548.31 267.21 550.19 259.16 546.29 250.73 543.9 225.83 542.65 220.79 544.66 215.89 549.06 209.72 558.68 194.31 557.49 190.42 557.74 186.89 555.1 186.01 554.03 180.41 556.29 178.59 559.94 179.47 563.97 177.33 567.55 175.19 568.56 168.46 576.11 164.44 586.17 157.14 598.75 148.34 607.81 140.79 616.61 140.79 619.38 134.25 626.67 126.45 634.47 131.23 649.07 130.73 652.08 137.52 658.37 144.56 658.88 142.8 660.64 136.77 654.6 136.51 651.08 130.22 655.86 125.19 673.97 134.5 678 142.8 676.24 151.36 685.55 155.38 685.8 151.36 689.57 148.84 707.68 165.19 715.74 175.26 714.6 190.73 707.81 199.54 699.89 204.06 701.52 212.11 702.78 212.62 702.28 210.23 704.54 211.11 705.42 217.9 701.27 221.93 695.23 239.16 693.72 248.72 693.47 276.39 695.86 280.54 688.82 283.82 694.1 289.22 690.7 296.65 688.44 308.34 679 314.63 674.35 321.05 689 315.89 691.39 318.47 691.39 321.87 689.76 325.39 688.06 328.91 684.73 331.05 681.71 330.17 679.7 327.59 678.5 329.67 674.04 336.58 674.79 339.73 672.4 342.25 673.22 344.89 671.14 353.94 680.67 353.5 681.89 355.72 682.11 356.59 683.05 357.46 683.56 357.87 683.65 357.64 682.36 356.11 683.11 355.42 682.36 354.03 681.1 352.08 679.53 352.59 674.81 352.65 674.12 346.55 675.63 344.47 673.99 344.66 673.43 343.03 674.87 341.2 676.76 336.67 678.27 332.4 682.04 333.78 685.31 334.66 688.84 333.09 687.45 332.34 688.08 330.13 690.22 328.94 692.92 330.07 694.62 332.96 694.81 334.85 692.86 335.92 691.92 335.67 691.35 339 689.02 341.27 693.43 340.64 697.2 336.99 697.07 334.85 695.19 332.71 693.87 330.01 691.67 328.06 691.1 326.3 692.61 323.59 694.62 321.14 698.27 322.21 698.58 319.69 707.33 318.25 707.2 322.59 707.96 326.11 706.95 336.3 703.93 341.71 706.92 345.48 706.76 347.46 703.74 348.91 702.01 349 702.01 350.35 700.75 351.11 701.23 353.91 698.3 354.44 696.45 354.88 694.68 354.03 692.92 355.07 690.94 355.29 689.62 353.78 689.81 355.07 688.58 356.02 687.33 358.15 685.16 357.46 683.65 357.65 683.57 357.87 687.47 359.43 689.97 360.98 697.74 362.21 701.12 363.5 702.01 364.27 702.83 365.09 704.73 365.45 706.78 365.47 707.8 365.14 707.94 364.69 707.04 363.91 706.23 363.08 706.45 361.64 707.31 361.11 708.4 360.98 708.21 360.76 708.03 359.69 708.82 358.55 707.96 358.39 707.14 358.94 706.54 359.71 705.99 360.43 704.01 360.56 704.28 361.03 705.44 361.17 705.36 363.11 704.83 364.24 703.69 364.43 702.88 364 701.87 363.97 701.56 363.56 701.54 361.66 701.82 360.45 703.25 360.37 703.07 358.04 704.83 355.34 707.41 354.9 707.72 353.7 705.39 353.96 704.51 354.77 702 354.65 701.81 351.88 704.58 349.3 710.8 349.99 711.81 351.69 713.19 354.4 715.14 351.25 714.26 348.11 714.95 346.79 718.03 346.16 719.48 347.54 722.91 348.7 723.41 351.88 722.75 354.49 720.36 356.22 717.12 356.28 716.84 357.4 715.03 360.58 713.03 360.91 710.6 361.96 711.1 362.84 710.49 363.78 710.24 364.71 709.5 365.28 708.8 365.26 710.16 366.17 713.21 365.8 718.57 367.65 718.54 366.9 717.63 365.4 717.88 364.19 720.63 364.27 720.96 363.66 722.5 363.52 723.54 364.16 721.14 366.53 721.83 368.23 720.4 370.04 717.66 371.01 716.72 372.8 718.19 373.89 720.19 374.96 722.42 376.22 722.93 378.54 721.04 380.74 716.76 381.94 716.83 383.64 713.37 385.46 705.63 387.29 700.16 392.13 696.95 397.03 696.07 400.24 693.68 402.32 691.98 404.54 686.2 410.92 678.65 418.36 675.38 418.04 673.93 419.17 672.67 423.89 672.67 425.15 674.88 423.7 676.26 425.65 673.87 429.68 669.59 432.76 663.37 437.35 656.7 443.89 657.71 446.28 654.18 453.39 651.41 459.76 650.29 461.99 647.52 466.47 647.52 469.62 644.94 472.38 640.52 472.56 639.03 465.83 637.01 463.07 637.96 460.05 624.68 450.17 623.61 451.14 623.36 451.26 617.39 447.15 Z"
       id="TR" />
    <path
       d="M 402.29 598.86 406.12 593.64 413.98 588.1 417.82 582.38 429.9 572.88 437.19 567.47 444.99 559.3 451.03 554.01 455.81 551.12 465.5 543.07 471.28 539.17 471.45 539.67 473.17 544.83 480.97 543.2 485.87 538.42 489.02 530.74 494.55 525.84 495.31 520.68 506.38 513.89 506.99 511.53 507.01 511.53 509.4 512.53 516.82 511.09 517.13 507.69 521.1 506.12 525 503.98 538.64 497.19 548.2 490.77 562.54 485.68 567.98 487.97 581.54 485.99 591.82 483.7 595.66 484.8 607.04 480.36 613.14 482.12 631.35 478.85 634.34 476.78 637.45 473.07 640.53 472.63 641.04 472.63 643.93 475.4 644.18 477.28 644.94 481.06 644.31 490.87 645.94 500.55 653.87 505.84 655.38 517.91 651.73 522.44 646.82 518.42 644.69 520.93 645.06 533.26 647.08 549.61 652.36 555.27 653.99 559.93 655.88 569.36 661.79 572.13 664.43 576.78 665.57 586.97 664.18 592.88 658.4 600.93 651.48 599.8 643.43 608.36 645.82 613.89 645.19 622.07 647.7 628.86 647.26 631.82 645.06 636.16 645.75 640.24 651.16 638.29 656.82 636.53 658.52 636.85 658.46 637.95 656.92 640.43 653.93 640.78 652.92 641.82 650.85 642.73 650.82 644.84 659.37 651.5 660.25 650.37 660.98 650.56 661.2 651.97 660.88 652.48 660 653.04 659.5 652.6 659.37 651.53 650.76 644.87 650.13 645.87 648.84 646.85 647.55 647.07 647.45 648.26 646.23 648.99 646.1 649.77 646.73 651.13 648.4 651.47 648.62 649.71 651.54 649.68 651.67 650.78 653.71 651.38 653.81 652.79 653.3 655.97 651.6 656.88 653.59 658.55 653.62 660.91 657.08 663.96 659.65 669.05 659.65 675.4 660.6 676.47 661.73 678.36 660.91 682.95 653.81 682.57 653.24 682.07 652.3 682.82 653.74 685.97 653.68 688.36 651.48 690.62 649.28 691.82 650.79 692.95 651.42 691.88 655.06 690.88 658.96 691 660.85 693.27 662.04 690.69 666.45 689.24 669.34 688.8 670.6 691.76 675.44 687.35 679.09 681.82 681.92 679.11 687.89 672.7 689.59 669.08 690.66 667.04 691.23 665.34 691.95 665.15 692.01 665.59 691.42 666.75 691.42 668.3 699.85 657.98 701.1 657.92 702.64 658.92 702.71 660.4 698.43 666.82 691.13 676 687.99 678.01 683.46 682.16 679.56 688.45 678.68 692.86 674.28 700.78 669.75 708.33 664.72 709.84 655.79 716.13 652.26 718.14 649.37 716.88 646.48 713.49 640.44 709.96 632.39 708.96 629.5 704.81 633.65 699.27 632.52 694.49 624.84 693.99 622.07 697.64 614.78 704.3 603.58 708.58 599.56 711.6 595.41 714.37 583.08 719.9 570.37 726.82 557.67 728.08 557.29 722.92 558.8 722.92 558.8 720.78 560.19 717.76 555.91 717.26 555.03 712.73 550.25 710.47 547.98 710.47 544.84 707.95 541.32 710.22 535.91 710.09 528.74 708.58 522.57 710.72 520.06 715.12 516.41 720.28 516.41 726.82 510.37 734.12 498.92 741.41 487.73 742.17 475.78 741.29 475.28 737.64 465.53 730.78 460.31 728.58 456.85 726.44 451.94 724.43 446.72 723.86 442.57 723.36 438.92 723.55 435.84 724.56 433.51 726.95 429.93 729.59 429.3 732.8 427.29 735.75 424.33 734.37 424.83 731.47 423.64 728.9 419.61 729.97 417.54 729.27 416.91 727.13 418.42 723.8 417.22 721.41 413.76 722.61 411.94 724.87 409.74 726.57 407.22 729.15 405.46 731.91 402.76 736.51 397.79 736.51 395.46 733.99 395.21 736.07 394.27 734.37 391.31 734.05 387.35 734.87 384.58 735.5 381.81 734.37 378.92 735.37 378.51 736.03 378.42 736.19 376.12 734.71 373.35 734.08 372.16 731.19 370.21 729.12 364.8 727.42 363.98 724.65 363.79 720.5 365.18 716.73 365.81 714.9 364.17 714.46 362.85 707.29 359.08 708.74 355.87 706.35 355.24 702.32 356.56 699.87 357.06 689.43 361.15 687.35 362.47 683.2 371.34 678.42 371.97 675.21 368.89 672.32 373.23 664.21 370.96 649.99 376.62 647.1 382.54 638.55 389.71 633.26 390.52 619.17 395.24 619.87 400.27 611.56 402.29 598.86 Z"
       id="QU" />
    <path
       d="M 276.75 275.93 278.48 275.96 279.61 275.74 286 272.22 288.14 272.15 289.83 272.31 291.22 271.87 292.51 272.06 294.93 272.97 295.46 273.88 297.19 274.48 299.58 276.37 301.53 278.19 303.33 279.32 305.69 280.88 306.48 281.13 307.89 280.69 309.12 280.75 311.54 282.89 313.96 285.03 315.09 287.96 316.67 291.64 317.7 294.53 319.15 295.66 322.39 298.65 324.88 300.44 326.54 303.11 327.36 306.29 330.72 311.76 330.82 317.14 331.32 317.17 332.39 316.67 333.3 318.46 333.49 320.13 333.3 321.01 334.06 323.49 334.09 327.55 334.37 327.71 334.44 333.37 335.8 335.87 336.56 337.52 338.48 339.74 339.2 339.96 339.92 339.7 341.15 341.53 341.59 344.17 342.22 346.75 343.16 349.67 344.2 352.35 345.33 354.52 345.65 356.36 345.93 357.49 346.13 360.62 346.97 362.64 348.27 365.13 348.98 367.79 349.39 369.61 349.56 371.83 350.65 376.28 350.65 379.64 350.21 383.32 352 385.88 351.64 386.55 352.23 388.1 351.42 389.67 351.42 393.13 350.41 395.18 349.81 396.94 350.31 398.79 351.52 400.92 352.12 402.22 352.22 404.1 353.18 405.41 355.14 407.53 356.39 409.48 356.87 410.31 356.79 413.46 358.05 415.77 358.38 417.12 358.01 418.65 357.08 419.97 356.2 420.97 355.25 422.18 354.37 422.39 354.18 423.43 354.11 424.62 354.89 426.13 355.84 426.52 356.23 426.93 356.94 428.39 357.79 429.07 358.93 430.39 360.29 430.74 361.07 431.26 361.54 433.91 362.49 435.42 363.05 437.03 363.37 438.28 364.44 440.14 365.63 441.96 365.91 443.22 368.4 446.4 367.96 446.84 367.9 447.94 369.28 450.05 369.63 451.21 369.41 452.31 369.63 452.81 369.63 456.46 369.09 458.16 368.67 460.14 368.13 461.98 367.49 463.27 367.11 464.87 366.64 467.42 366.45 470.31 365.69 473.71 365 476.79 364.18 478.3 363.43 479.81 362.49 482.52 360.47 484.4 359.66 485.72 358.52 487.42 357.9 489.69 356.89 491.64 356.01 492.17 356.63 491.79 356.12 491.73 350.24 492.17 349.48 493.12 344.64 492.42 335.84 492.68 330.68 495.63 331.62 497.39 325.14 497.9 318.92 496.26 314.2 493.18 306.15 491.42 297.22 490.29 288.79 490.73 277.72 489.72 269.67 492.24 267.66 500.54 264.89 507.71 266.02 513.49 268.16 516.89 268.04 519.78 263.88 522.3 259.48 523.68 253.57 523.93 247.53 522.17 242 521.54 237.72 524.82 233.76 532.83 233.79 532.89 233.76 532.93 232.03 532.12 230.67 531.5 229.57 532.03 228.97 533.1 228.06 534.23 227.09 535.58 225.11 535.62 225.01 534.26 226.49 534.2 227.59 533.13 227.65 532.47 227.06 531.02 225.08 529.99 224.38 530.68 225.14 532.91 224.42 533.73 222.81 534.8 222.94 537.13 222.69 538.79 222.15 540.18 220.64 540.9 219.79 542.66 218.75 542.72 216.55 541.72 214.6 541.34 214.63 539.86 217.24 538.54 215.23 538.57 215.74 533.7 216.46 533.35 215.14 531.68 212.56 530.8 212.53 528.73 213.35 527.97 212.18 528.1 211.87 529.73 211.11 529.77 206.93 528.89 205.74 529.61 206.43 530.18 206.33 531.12 206.05 532.03 205.58 532.82 204.89 533.26 204.98 533.89 207.59 533.82 208.53 534.7 210.33 534.96 210.26 533.98 209.7 533.76 209.51 531.94 210.45 530.8 212.09 530.68 212.97 531.02 213.66 531.94 214.01 534.11 213.16 534.36 212.62 535.24 211.27 535.4 211.9 536.59 212.46 537.94 212.06 539.33 211.21 540.14 210.39 541.34 208.75 541.5 206.62 540.52 205.7 539.36 204.48 540.52 202.53 540.58 201.71 538.85 201.43 535.27 204.32 533.89 203.06 533.73 201.58 532.88 201.46 531.62 201.4 529.67 202.37 529.17 204.6 529.07 205.48 529.42 205.69 529.04 203.68 526.28 203.68 527.91 200.53 528.92 197.89 530.93 196.25 533.45 192.48 532.31 191.85 529.04 193.86 527.79 193.99 524.64 190.47 523.13 182.67 521.62 175.88 516.84 170.72 515.46 169.84 517.85 164.55 516.97 164.18 513.07 161.28 511.94 158.39 510.68 160.4 508.41 164.81 504.89 167.45 502.63 161.79 500.87 158.26 496.59 155.5 497.47 154.37 499.23 148.08 498.85 147.45 502.12 143.17 501.87 141.79 496.59 139.77 494.7 137.26 486.9 132.48 480.36 127.45 474.58 124.43 471.3 120.28 466.15 118.51 463.25 115.24 458.1 115.75 453.69 114.49 450.55 116.06 443.25 115.94 440.05 115.5 436.46 115.37 434.01 115.87 429.98 116.44 426.96 117.01 427.09 117.57 426.4 118.26 422.62 119.52 419.73 122.79 415.33 126.12 404.95 126.85 403.66 127.73 400.96 128.86 397.69 130.5 394.1 129.9 393.75 129.9 392.87 130.37 392.59 130.5 391.49 130.72 390.83 131.28 390.64 131.82 390.92 131.97 392.28 131.69 392.81 133.42 393.19 133.58 394.82 134.05 395.52 135.31 395.36 135.91 394.26 136.6 394.26 137.1 393.66 138.07 392.97 138.23 391.74 138.92 391.74 139.24 393.06 139.9 393.19 141.03 391.46 140.72 389.95 140.47 388.25 139.05 387.15 138.99 385.01 139.33 384.89 139.55 383.13 140.12 382.39 141.53 381.71 141.99 381.21 142.92 381.05 143.55 380.53 143.85 379.48 144.99 379.51 146.13 379.92 147.21 378.96 147.57 377.73 146.47 376.66 145.65 376.57 144.54 376.05 144.36 376.69 144.18 377.78 143.72 378.47 142.62 378.53 142.38 378.99 142.82 379.76 142.43 380.69 141.41 380.33 140.4 375.55 141.41 372.53 146.44 372.78 148.96 372.53 152.73 367.5 154.24 361.21 156.76 359.19 158.26 353.91 155.75 348.63 158.77 345.61 156.5 342.34 157.26 332.02 160.78 329.26 164.81 329.26 165.34 326.61 166.85 325.45 169.08 323.97 170.34 322.08 170.31 319.73 170.97 319.76 171 317.46 171.85 316.02 171.76 314.69 170.78 315.64 169.4 316.71 169.11 318.06 168.01 318.25 164.24 317.59 163.2 315.86 161.13 313.88 159.65 312.56 159.15 309.82 160.97 308.69 160.69 307.18 160.78 303.75 161.72 298.12 162.86 297.15 165.75 295.29 168.17 295.23 171.54 295.98 173.17 295.23 174.65 291.45 174.18 290.89 175.4 289.28 175.97 287.27 175.37 284.68 174.11 283.73 174.11 281.97 175.18 280.24 173.96 277.51 173.71 275.46 172.67 272.98 172.64 269.52 174.27 268.51 176.57 266.97 178.14 263.58 180.44 262.32 182.16 259.11 183.3 257.66 183.61 256.12 183.99 256.06 184.08 255.62 185.62 255.43 187.42 254.2 188.36 252.95 189.11 251.53 191.41 250.65 192.12 249.16 191.9 247.88 192.84 247.79 193.42 248.54 193.96 248.25 194.32 247.65 194.71 247.08 195 246.47 195.25 245.97 195.59 245.08 195.83 244.57 196.03 243.62 196.36 242.54 196.82 241.04 198.22 241.06 198.55 241.53 198.45 243.2 198.27 243.28 198.31 246 198.69 246.47 199.15 246.59 199.13 247.3 198.94 247.68 198.74 248.18 198.88 248.5 200.4 248.45 200.42 248.14 199.6 247.93 199.45 247.36 199.35 246.89 200.75 246.94 201.07 245.38 201.24 243.56 201.58 242.11 202.61 241.59 204.23 241.41 204.9 240.83 205.41 240.54 206.79 240.21 207.98 239.7 208.59 239.41 210.63 239.4 211.16 239.7 211.85 240.23 212.32 240.93 213.36 242.07 213.35 243.46 213.13 244.46 212.8 244.9 211.53 245.52 210.15 246.06 209.01 246.53 210.67 246.88 211.74 248.17 213.38 250.73 213.52 251.67 213.86 252.55 214.45 253.83 216.76 254.36 217.58 255.34 217.94 256.36 218.91 257.37 219.07 258.1 220.39 259.43 220.33 260.12 220.78 260.4 220.81 261.45 221.43 261.47 222.21 262.84 222.78 263.99 225.75 266.75 226.52 267.84 226.73 268.73 228.05 271.14 228.09 274.25 227.92 274.87 228.63 275.62 228.58 277.24 227.7 277.74 227.53 279.33 226.47 279.93 224.1 280.37 223.63 281.44 223.41 281.97 225.99 281.82 226.77 282.48 226.65 285.02 226.05 285.87 226.36 288.64 226.96 289.93 228.03 291.22 229.6 293.01 230.14 294.57 230.31 295.37 231.41 296.61 232.89 298.55 234.13 299.71 234.43 300.46 234.51 303.61 235.5 305.04 235.63 306.22 235.97 307.15 237.4 309.02 237.5 311.44 237.25 311.63 237.21 312.05 238.16 312.37 238.03 313.3 236.79 314.29 236.08 315.53 235.85 316.05 236.4 316.09 236.35 316.55 236.13 316.99 235.72 317.1 235.66 318.47 235.88 318.8 236.05 318.34 236.3 316.96 236.66 316.55 238.99 316.53 239.9 317.41 240 318.28 240.41 318.75 240.72 319 241.05 319.6 240.97 320.43 241.48 321.55 244.56 321.55 245.26 321.8 246.21 322.07 246.88 322.23 247.26 322.02 248.1 321.75 248.71 321.38 249.34 321.14 249.49 320.92 251.26 320.94 252.06 321.22 252.91 320.98 254.15 320.72 255.36 320.28 255.38 319.98 256.51 318.59 256.92 318.47 257.18 318.04 257.95 318.06 258.14 318.25 259.39 317.45 260.17 317.43 260.69 317.18 260.72 316.17 260.91 315.94 261.21 315.89 261.44 316.08 261.51 316.46 261.95 316.61 261.95 317.19 262.66 317.52 262.92 316.71 262.88 316.03 261.82 315.73 260.6 315.32 259.59 315.18 258.91 315.17 258.9 313.75 259.04 313.36 259.56 312.78 260.06 312.21 260.24 311.02 261.15 310.66 262.44 309.62 263.54 308.63 264.53 306.72 265.6 304.74 266.41 302.95 267.39 301.85 268.83 300.54 270.22 299.77 270.66 298.89 271.08 297.34 271.56 296.73 271.52 292.26 272.54 292.03 273.76 291.37 274.13 290.49 274.54 289.56 275.43 288.93 277.42 288.52 278.93 288.34 279.43 287.93 279.5 287.39 279.72 287.07 279.57 286.83 279.38 285.79 279.15 285.08 279.17 284.25 278.94 283.93 278.91 282.96 278.07 282.55 276.44 282.47 275.87 282.7 273.91 282.76 273.47 282.5 273.45 280.68 273.67 280.22 274 279.65 274.6 279.14 274.98 278.57 275.27 277.55 275.62 276.78 276.3 276.48 276.75 275.93 Z"
       id="GV" />
    <path
       id="BI"
       style="overflow:visible;stroke-width:2.10174px"
       d="m 181.24981,37.025776 h 87.80603 c 3.10497,0 5.60464,2.499669 5.60464,5.60464 v 26.154985 c 0,3.104971 -2.49967,5.60464 -5.60464,5.60464 h -87.80603 c -3.10497,0 -5.60464,-2.499669 -5.60464,-5.60464 V 42.630416 c 0,-3.104971 2.49967,-5.60464 5.60464,-5.60464 z M 111.62,298.3 l -1.26,0.63 -5.16,-1.26 -3.02,-1.13 -3.52,-3.02 -1.51,-4.66 -1.38,0.26 -1.38,1.51 -1.26,-4.03 1,-2.77 0.76,-3.02 1.13,-2.89 1.89,-4.02 -0.13,-3.4 -0.12,-1.89 -3.65,-1.76 -1.13,-4.4 -2.14,1.76 -1.51,-1.64 -0.13,-1.25 1.39,-3.15 1.25,-4.28 1.51,-1.13 2.52,-0.75 0.25,-0.76 -1.63,-1.63 -0.89,-1.51 2.52,-2.01 1.76,0.25 1.64,3.39 -2.64,2.27 1.88,0.63 2.64,0.63 2.77,2.13 3.02,1.14 3.02,0.5 2.26,-0.25 -1.88,-1.51 -4.03,-0.5 -1.13,-3.28 -1.76,-2.13 -2.14,-2.02 -1.64,-1.38 -1,-2.64 -0.51,-2.01 2.02,-2.02 3.39,0.13 3.15,0.75 1.63,0.51 3.53,-0.26 1.13,-0.25 4.02,-0.75 3.02,0.5 3.78,2.89 v 2.52 l 1,6.42 0.88,3.9 1.89,5.15 3.52,2.64 1.89,1.64 2.14,-0.25 2.64,0.88 0.88,5.28 -0.63,1.51 0.13,3.65 -1.51,1.26 -2.14,2.01 -2.89,4.28 -3.9,2.39 -4.66,2.76 2.52,0.38 2.51,1.13 -1.63,2.65 -1.39,2.01 -4.02,1 -0.25,3.65 -1.39,1.01 -3.27,-1.38 z m -6.93,-59.7 -2.14,-0.44 -1.05,-1.26 -0.11,-1.43 0.83,-1.32 1.59,-1.37 1.15,-1.54 h 1.32 l 0.38,0.28 -0.16,2.8 -0.22,1.31 -1.54,2.86 z m 3.18,-11.98 1.03,-0.19 0.93,0.4 0.59,0.58 0.14,1.07 -0.18,0.67 -0.37,0.67 -0.12,0.91 -0.94,0.08 -0.83,-0.56 -1.97,-0.2 -0.5,-1.05 0.41,-1.06 z m -56.49,76.81 -0.05,-1.76 0.38,-1.59 0.71,-2.47 v -2.25 l 0.72,-1.64 2.14,-0.72 2.25,-1.15 -1.37,-0.99 -3.08,-1.26 -2.25,-1.21 -2.63,0.94 -2.53,0.71 -2.41,0.77 0.71,1.7 0.33,2.58 -1.04,1.32 -2.58,1.37 -2.96,0.82 -2.25,1.76 -1.32,0.66 -1.7,-1.21 -1.76,-0.22 -2.69,-0.17 -2.14,-2.03 -0.6,-1.92 -0.44,-2.03 -0.44,-2.47 -0.6,-1.75 1.97,-0.83 0.44,-1.75 2.14,-1.1 3.35,-0.88 1.43,-1.26 2.3,-1.76 3.18,-0.66 4.07,-0.11 1.15,0.5 0.44,1.15 -1.59,1.04 -1.82,1.76 0.61,0.33 1.81,0.11 2.69,-0.11 1.81,-0.44 1.7,0.22 2.14,0.05 1.98,0.06 -1.43,-0.71 -3.79,-0.11 -2.3,0.22 -0.66,-0.72 -0.6,-0.93 1.42,-0.93 0.83,-0.55 1.64,-0.55 0.72,0.22 1.48,0.88 1.53,0.05 1.32,0.28 0.5,-0.61 1.59,0.06 -1.21,-0.22 -1.04,-1.38 1.2,-1.31 2.09,-0.11 1.37,1.26 -0.44,1.59 -1.97,-0.11 0.22,0.99 0.88,0.38 2.25,-0.27 0.27,0.11 -0.66,1.1 -2.03,-0.33 -2.36,1.21 -0.82,0.54 1.86,-0.22 3.08,-0.27 2.25,-0.93 3.4,-2.47 2.36,-1.54 h 2.3 l 1.93,1.43 1.92,2.74 0.33,2.42 0.6,2.69 v 2.96 l -0.93,1.87 -1.16,1.59 0.99,0.77 0.77,1.09 -0.27,1.43 1.09,1.04 -0.16,0.72 -1.26,1.37 -2.69,0.6 0.38,1.54 -2.41,2.52 -2.91,2.36 -2.75,-0.93 -2.3,-1.92 -4.23,-0.99 z m -4.88,-13.12 1.2,0.28 1.6,1.81 2.19,-0.06 -0.99,-1.31 0.83,-1.26 0.77,0.43 1.53,0.94 -0.05,1.75 -1.59,-0.05 -0.06,0.44 -0.16,2.36 -0.94,0.44 -0.49,1.7 -0.82,1.42 -1.27,1.54 -1.92,3.07 -1.64,0.66 0.22,-1.26 -0.28,-1.54 -0.11,1.32 -0.44,2.69 -2.36,0.39 -2.08,-1.05 -0.5,-1.86 0.61,-1.1 1.75,-1.76 1.43,-0.99 1.32,-1.86 0.22,-0.93 0.82,-2.25 -0.22,-1.87 z m -28.21,-13.33 -0.39,-1.02 1.18,-1.07 1.65,-0.99 1.04,-0.9 1.38,-0.8 0.96,-0.74 0.24,-1.15 0.99,-0.88 1.62,-0.96 1.26,-1.98 0.22,-2.46 -0.33,-2.58 -1.04,-3.13 -2.2,-1.87 -1.64,-1.37 -0.28,-2.47 -1.26,-1.59 -3.07,-0.44 -3.73,-0.11 -2.53,-0.82 -2.69,-1.05 -2.14,-0.93 -1.26,-1.04 -0.66,-1.98 -1.21,-1.7 -0.99,-1.32 -2.25,-0.71 -0.16,-1.26 0.6,-2.2 1.27,-5.21 v -0.52 l 0.38,-1.24 0.55,-1.64 0.66,-1.98 0.08,-1.65 0.96,-1.48 0.74,-0.74 1.1,-0.71 0.71,-0.83 0.25,-0.93 0.66,-0.77 0.24,-1.37 v -1.4 l 0.72,-1.34 1.21,-1.51 0.65,-1.37 1.6,-0.5 1.78,-0.71 1.7,0.49 1.54,-0.11 1.92,0.5 2.17,0.27 0.52,1.13 -0.17,1.56 0.39,2.11 0.24,-0.24 2.97,-1.07 1.37,-0.69 -0.52,-1.13 -2.11,0.94 -1.62,-0.72 -0.58,-1.59 -0.25,-1.84 0.36,-0.55 0.82,-0.16 1.4,-0.03 0.28,-1.09 1.04,-0.36 1.56,0.63 3.11,1.23 0.65,1.16 1.16,0.93 0.38,2.74 -0.05,2.14 -0.22,2.36 1.04,1.32 1.43,1.59 0.65,1.43 v 1.43 l 0.83,0.82 h 1.1 l 1.26,-0.71 2.25,-0.44 2.91,0.11 1.42,-0.5 1.65,-0.11 1.15,0.66 0.39,1.81 -0.55,2.91 0.66,1.04 0.76,0.77 -0.6,1.87 -1.15,2.8 -1.32,1.97 -1.7,0.72 -1.87,0.49 -0.49,0.71 -0.88,1.05 0.72,0.55 0.98,-1.05 1.32,-1.09 0.88,0.27 0.88,1.76 0.16,2.36 1.15,1.04 1.05,0.99 0.55,1.81 v 1.32 l -0.72,2.14 -1.43,2.41 -1.53,2.14 -1.1,1.1 -0.22,1.26 1.21,1.65 0.05,2.41 -0.27,2.14 -0.99,1.48 -1.97,2.69 -1.43,2.09 -1.54,2.19 -1.86,0.55 -2.47,1.05 -1.87,-1.16 0.16,-2.14 2.69,-1.86 0.99,-1.37 -2.14,1.09 -2.08,-0.16 -3.02,2.03 -2.47,1.81 -2.69,1.87 -1.59,2.52 -1.32,0.6 z m 49.89,-59.25 0.3,0.28 0.74,0.55 0.36,1.15 0.27,-0.3 -0.55,-0.8 v -0.88 l 0.44,-0.66 1.92,-0.19 0.55,-0.63 0.55,-0.93 1.01,-0.3 1.27,0.32 0.35,1.18 0.3,0.8 -0.52,1.48 -0.98,1.18 -0.31,0.61 1.29,-0.91 0.88,-0.52 1.35,-0.44 0.27,-0.77 0.55,-0.25 0.14,1.16 0.24,0.6 1.65,0.58 0.93,1.07 -0.22,1.62 -0.63,1.15 -0.99,0.93 -1.37,1.59 -1.62,1.27 -1.45,2.49 -2.06,0.03 -0.99,-1.48 -1.53,-1.21 -2.17,0.69 -1.18,-1.18 -0.55,-1.32 0.3,-0.71 1.04,-0.44 0.61,-0.91 0.33,-1.29 0.13,-0.82 0.53,-1.24 0.16,-0.52 -0.66,0.19 -0.41,0.94 -0.11,1.34 -0.36,1.21 -1.07,1.34 -0.6,0.33 -0.96,-0.44 -0.96,-1.31 0.03,-1.07 0.55,-1.81 0.63,-1.32 0.96,-0.85 z m 11.56,-35.07 0.77,-1.65 0.98,0.11 2.53,-2.19 2.19,-0.33 -0.55,1.1 -0.65,2.74 0.44,0.88 1.2,-2.42 1.65,-1.2 3.4,0.33 1.21,2.63 -0.33,1.43 v 2.3 l 0.55,2.31 0.88,2.3 -0.33,2.53 -1.1,0.99 h -1.65 l -2.3,0.54 2.96,0.55 4.17,-0.33 -0.11,2.2 0.99,3.29 2.31,1.54 2.08,0.66 0.44,2.19 -1.76,2.2 -2.3,-0.99 -1.54,1.54 -2.08,-1.21 -2.42,-2.42 -2.3,-1.75 -2.31,-3.73 -0.66,-2.86 -0.22,-0.99 -3.73,0.99 -1.32,-1.64 -0.54,-2.86 -0.33,-1.97 1.31,-2.2 -1.09,-0.33 -1.76,-1.75 z m -67.18,12.46 -1.43,-3.24 0.06,-2.41 0.93,-2.14 1.43,-1.54 0.16,-1.76 -0.93,-0.66 -2.41,-0.98 0.05,-2.42 0.49,-3.18 1.6,-0.44 1.75,0.49 -0.71,3.13 0.82,-0.38 2.14,-0.99 1.65,0.44 2.14,1.04 1.87,-1.04 v -2.03 l -2.69,-1.32 h -2.69 l -2.09,0.55 -1.43,-0.88 0.44,-1.7 1.32,-1.37 2.03,-2.36 2.47,0.55 1.87,0.66 2.58,0.71 3.13,1.26 0.05,2.42 0.55,2.58 0.99,-0.83 3.29,0.28 1.1,2.52 0.55,3.18 -1.6,1.27 0.17,4.06 -0.71,2.14 -2.53,-1.21 -2.08,-0.11 0.32,1.87 1.21,1.59 -0.82,1.1 -2.25,1.59 -2.03,0.11 -1.65,-0.44 -2.47,-1.7 0.33,-1.37 1.1,-2.26 -1.37,0.66 -1.16,1.76 -0.43,1.98 -1.43,0.98 z m 39.63,-25.36 -4.06,-2.74 -0.66,-0.88 -0.88,-3.84 -0.55,-5.05 -0.22,-2.85 -1.1,-2.42 -1.21,-0.44 0.66,-5.27 0.66,-3.95 1.1,-2.41 0.88,-3.95 -0.11,-4.07 -2.53,-3.4 -3.18,-3.95 -1.65,-3.62 -2.19,-3.4 -2.2,-0.88 -4.94,-0.77 -5.7,-0.77 -3.08,-2.41 3.19,-2.75 7.24,1.43 1.54,-2.53 -2.64,-6.58 4.06,-3.19 3.52,-2.3 5.16,1.54 0.76,4.39 -0.44,3.73 3.19,0.11 -0.22,-5.05 1.1,-0.88 1.75,-0.11 2.53,1.21 2.08,1.76 0.77,1.31 1.1,2.42 0.22,1.64 -0.77,1.43 -3.4,0.22 -0.44,1.21 0.22,3.4 1.2,1.32 1.32,1.97 1.65,-0.66 1.75,1.65 1.65,2.64 -0.88,3.62 -0.77,3.18 -0.32,3.07 0.32,4.18 0.88,2.08 2.2,0.77 1.1,2.74 0.65,3.3 0.44,3.51 -0.11,1.97 0.55,2.97 0.44,3.95 -0.77,2.09 -2.96,3.4 -1.87,2.41 1.65,1.65 0.77,1.76 -2.31,0.54 z m 44.78,-36 -2.3,-0.77 0.98,-1.42 1.65,0.54 0.55,1.1 z m -6.04,-5.6 2.31,-0.66 0.33,2.64 -1.43,-0.33 -2.19,-0.55 z m -1.42,-5.27 2.52,-0.33 -0.11,1.1 -0.66,2.2 -1.53,-0.77 z m -0.5,-4.77 1.15,-0.39 0.94,0.22 0.66,1.6 -1.49,0.6 -1.2,-0.55 z m -0.11,-6.15 h 1.92 l 1.16,0.77 -0.66,1.98 -2.03,0.49 -0.72,-1.04 z m 1.76,-4.88 2.08,0.22 0.33,-0.11 -0.6,-0.77 -0.88,-1.59 -0.05,-1.54 1.92,-0.49 1.1,0.77 0.98,1.53 0.83,2.03 -0.72,1.05 -1.31,0.38 -1.1,-0.77 0.05,0.99 -1.48,1.97 -1.43,-0.65 -0.54,-1.16 z m 6.86,-3.73 -1.59,-2.31 -1.7,-0.93 -2.42,-1.1 -1.15,-1.98 1.26,-0.49 1.65,-0.22 0.77,-3.18 0.6,-1.37 -0.27,-1.93 -2.86,-0.54 -2.41,-0.94 -1.16,-1.92 -0.6,-2.63 -0.71,-1.59 -0.72,0.87 -1.75,0.22 -1.16,-0.33 -1.7,-2.25 -1.26,-1.75 0.22,-1.81 2.36,-1.43 2.09,-0.93 1.75,0.33 3.13,1.26 0.55,-0.44 0.71,-1.59 2.14,-1.59 1.32,-1.38 3.35,0.39 1.37,0.82 0.55,1.26 0.49,2.03 -0.98,1.87 -0.83,1.76 0.72,0.6 -1.98,1.7 0.22,1.26 1.97,0.39 1.1,1.53 1.37,2.64 v 3.35 l 1.21,1.92 -0.99,3.89 -0.38,1.54 0.55,1.76 -0.77,1.2 z m -75.19,-31.01 0.99,1.64 0.88,1.65 2.36,2.03 0.6,2.31 -1.21,-0.77 -0.33,0.6 -0.22,2.47 -1.59,-0.11 -2.47,-1.21 -0.55,-1.42 -1.09,-0.83 -0.5,-0.82 0.99,-1.37 -0.82,0.11 -1.21,2.03 -2.85,-1.65 -0.77,-2.41 0.38,-1.76 1.04,-2.19 2.36,0.27 z m 31.06,-4.06 -4.83,-3.41 -0.22,-2.19 1.43,-2.75 0.11,-2.19 -2.85,-0.66 -3.19,-1.43 1.43,-2.52 2.96,0.22 2.31,-1.1 1.32,-3.73 2.74,-3.29 6.26,-3.19 -1.43,-1.64 -3.84,-3.74 -1.32,-3.95 -4.5,-0.77 -4.17,0.77 -1.87,-2.3 -2.63,-3.08 0.44,-2.08 3.29,-0.44 2.86,-1.43 1.75,-3.07 -2.96,0.66 -2.97,2.08 -1.75,1.21 -2.75,-1.43 -0.87,-2.3 0.11,-3.4 1.75,-0.22 4.61,-1.87 2.86,-2.2 4.61,-2.74 0.11,-2.3 0.87,-2.2 1.32,-2.74 1.54,-1.87 2.63,1.54 3.95,1.75 1.1,3.52 -0.44,4.28 1.54,2.63 1.32,-1.54 1.53,1.1 0.77,1.76 1.43,2.85 1.43,3.29 -0.44,2.2 0.22,2.74 2.19,0.99 2.53,1.21 2.63,3.51 1.32,0.55 2.08,0.99 -0.66,5.71 -2.41,1.53 0.22,1.1 6.59,-0.88 0.32,1.54 -0.76,3.62 -1.65,3.18 -3.18,2.2 -3.96,2.52 -0.87,3.08 1.09,0.66 1.87,1.42 -1.21,1.43 -1.64,-1.43 -3.3,-1.64 -3.07,1.31 -2.2,2.09 -0.87,2.3 -0.33,3.74 -2.86,1.2 h -2.96 l -2.85,-1.31 -1.54,2.08 z" />
    <rect
       id="L1"
       x="901.05084"
       y="131.05087"
       width="99.015305"
       height="37.364265"
       rx="5.60464"
       ry="5.60464"
       style="stroke-width:2.10174px" />
    <rect
       id="L2"
       x="901.05084"
       y="181.05087"
       width="99.015305"
       height="37.364265"
       rx="5.60464"
       ry="5.60464"
       style="overflow:visible;stroke:#181922;stroke-width:2.10174px" />
    <rect
       id="L3"
       x="901.05084"
       y="231.05087"
       width="99.015305"
       height="37.364265"
       rx="5.60464"
       ry="5.60464"
       style="overflow:visible;stroke:#181922;stroke-width:2.10174px" />
    <rect
       id="L4"
       x="901.05084"
       y="281.05087"
       width="99.015305"
       height="37.364265"
       rx="5.60464"
       ry="5.60464"
       style="overflow:visible;stroke:#181922;stroke-width:2.10174px" />
    <rect
       id="L5"
       x="901.05084"
       y="331.05087"
       width="99.015305"
       height="37.364265"
       rx="5.60464"
       ry="5.60464"
       style="overflow:visible;stroke:#181922;stroke-width:2.10174px" />
    <rect
       id="L6"
       x="901.05084"
       y="381.05087"
       width="99.015305"
       height="37.364265"
       rx="5.60464"
       ry="5.60464"
       style="overflow:visible;stroke:#181922;stroke-width:2.10174px" />
    <rect
       id="L7"
       x="901.05084"
       y="431.05087"
       width="99.015305"
       height="37.364265"
       rx="5.60464"
       ry="5.60464"
       style="overflow:visible;stroke:#181922;stroke-width:2.10174px" />
    <rect
       id="L8"
       x="901.05084"
       y="481.05087"
       width="99.015305"
       height="37.364265"
       rx="5.60464"
       ry="5.60464"
       style="overflow:visible;stroke:#181922;stroke-width:2.10174px" />
  </g>
  <g
     id="text"
     style="font-size: 16px; stroke-width: 0px; font-weight: bold; fill: white; text-align: center; cursor: pointer; pointer-events: none; user-select: none; -webkit-user-select: none;">
    <text
       id="L1-text"
       x="949.87994"
       y="157.20711"
       xml:space="preserve"
       text-anchor="middle"
       style="font-size:22.4186px;stroke-width:2.10174px"><tspan
         id="tspan8988-2-59-0"
         x="949.87994"
         y="157.20711"
         style="stroke-width:2.10174px">L1</tspan></text>
    <text
       id="L2-text"
       x="949.87994"
       y="207.20711"
       xml:space="preserve"
       text-anchor="middle"
       style="font-size:22.4186px;stroke-width:2.10174px"><tspan
         id="tspan8988-2-59-0-9"
         x="949.87994"
         y="207.20711"
         style="stroke-width:2.10174px">L2</tspan></text>
    <text
       id="L3-text"
       x="949.87994"
       y="257.20709"
       xml:space="preserve"
       text-anchor="middle"
       style="font-size:22.4186px;stroke-width:2.10174px"><tspan
         id="tspan8988-2-59-0-9-4"
         x="949.87994"
         y="257.20709"
         style="stroke-width:2.10174px">L3</tspan></text>
    <text
       id="L4-text"
       x="949.87994"
       y="307.20709"
       xml:space="preserve"
       text-anchor="middle"
       style="font-size:22.4186px;stroke-width:2.10174px"><tspan
         id="tspan8988-2-59-0-9-6"
         x="949.87994"
         y="307.20709"
         style="stroke-width:2.10174px">L4</tspan></text>
    <text
       id="L5-text"
       x="949.87994"
       y="357.20709"
       xml:space="preserve"
       text-anchor="middle"
       style="font-size:22.4186px;stroke-width:2.10174px"><tspan
         id="tspan8988-2-59-0-9-45"
         x="949.87994"
         y="357.20709"
         style="stroke-width:2.10174px">L5</tspan></text>
    <text
       id="L6-text"
       x="949.87994"
       y="407.20712"
       xml:space="preserve"
       text-anchor="middle"
       style="font-size:22.4186px;stroke-width:2.10174px"><tspan
         id="tspan8988-2-59-0-9-1"
         x="949.87994"
         y="407.20712"
         style="stroke-width:2.10174px">L6</tspan></text>
    <text
       id="L7-text"
       x="949.87994"
       y="457.20709"
       xml:space="preserve"
       text-anchor="middle"
       style="font-size:22.4186px;stroke-width:2.10174px"><tspan
         id="tspan8988-2-59-0-9-19"
         x="949.87994"
         y="457.20709"
         style="stroke-width:2.10174px">L7</tspan></text>
    <text
       id="L8-text"
       x="949.87994"
       y="507.20709"
       xml:space="preserve"
       text-anchor="middle"
       style="font-size:22.4186px;stroke-width:2.10174px"><tspan
         id="tspan8988-2-59-0-9-3"
         x="949.87994"
         y="507.20709"
         style="stroke-width:2.10174px">L8</tspan></text>
    <text
       id="DM-text"
       x="474.71069"
       y="421.33865"
       xml:space="preserve"
       text-anchor="middle"
       style="font-weight:bold;font-size:22.4186px;text-align:center;overflow:visible;fill:#ffffff;stroke-width:2.10174px;-webkit-user-select:none"><tspan
         id="tspan8988-2-59-0-92"
         x="474.71069"
         y="421.33865"
         style="stroke-width:2.10174px">DM</tspan></text>
    <text
       id="AL-text"
       x="713.75763"
       y="526.92969"
       xml:space="preserve"
       text-anchor="middle"
       style="font-weight:bold;font-size:22.4186px;text-align:center;overflow:visible;fill:#ffffff;stroke-width:2.10174px;-webkit-user-select:none"><tspan
         id="tspan8988-2-59-0-92-1"
         x="713.75763"
         y="526.92969"
         style="stroke-width:2.10174px">AL</tspan></text>
    <text
       id="QU-text"
       x="535.02808"
       y="619.77618"
       xml:space="preserve"
       text-anchor="middle"
       style="font-weight:bold;font-size:22.4186px;text-align:center;overflow:visible;fill:#ffffff;stroke-width:2.10174px;-webkit-user-select:none"><tspan
         id="tspan8988-2-59-0-92-9"
         x="535.02808"
         y="619.77618"
         style="stroke-width:2.10174px">QU</tspan></text>
    <text
       id="TR-text"
       x="623.23224"
       y="283.20755"
       xml:space="preserve"
       text-anchor="middle"
       style="font-weight:bold;font-size:22.4186px;text-align:center;overflow:visible;fill:#ffffff;stroke-width:2.10174px;-webkit-user-select:none"><tspan
         id="tspan8988-2-59-0-92-8"
         x="623.23224"
         y="283.20755"
         style="stroke-width:2.10174px">TR</tspan></text>
    <text
       id="EX-text"
       x="427.09399"
       y="222.85732"
       xml:space="preserve"
       text-anchor="middle"
       style="font-weight:bold;font-size:22.4186px;text-align:center;overflow:visible;fill:#ffffff;stroke-width:2.10174px;-webkit-user-select:none"><tspan
         id="tspan8988-2-59-0-92-0"
         x="427.09399"
         y="222.85732"
         style="stroke-width:2.10174px">EX</tspan></text>
    <text
       id="GV-text"
       x="239.07979"
       y="421.31674"
       xml:space="preserve"
       text-anchor="middle"
       style="font-weight:bold;font-size:22.4186px;text-align:center;overflow:visible;fill:#ffffff;stroke-width:2.10174px;-webkit-user-select:none"><tspan
         id="tspan8988-2-59-0-92-86"
         x="239.07979"
         y="421.31674"
         style="stroke-width:2.10174px">GV</tspan></text>
    <text
       id="DT-text"
       x="327.28397"
       y="608.17035"
       xml:space="preserve"
       text-anchor="middle"
       style="font-weight:bold;font-size:22.4186px;text-align:center;overflow:visible;fill:#ffffff;stroke-width:2.10174px;-webkit-user-select:none"><tspan
         id="tspan8988-2-59-0-92-7"
         x="327.28397"
         y="608.17035"
         style="stroke-width:2.10174px">DT</tspan></text>
    <text
       id="BI-text"
       x="224.72043"
       y="62.6861"
       xml:space="preserve"
       text-anchor="middle"
       style="font-weight:bold;font-size:22.4186px;text-align:center;overflow:visible;fill:#ffffff;stroke-width:2.10174px;-webkit-user-select:none"><tspan
         id="tspan8988-2-59-0-92-86-3"
         x="224.72043"
         y="62.6861"
         style="stroke-width:2.10174px">BI</tspan></text>
  </g>
</svg>
