<svg width="930px" height="585px" id="svgdata" style="overflow: visible; margin-top: 10px; margin-bottom: 20px;" version="1.1" xmlns="http://www.w3.org/2000/svg" xmlns:cc="http://creativecommons.org/ns#" xmlns:dc="http://purl.org/dc/elements/1.1/" xmlns:rdf="http://www.w3.org/1999/02/22-rdf-syntax-ns#">
  <defs id="svgdefinitions">
  </defs>
  <g id="outlines" style="stroke: rgb(24, 25, 34); stroke-width: 1.125px;">
    <path
       id="AK"
       d="m 161.1,453.7 -0.3,85.4 1.6,1 3.1,0.2 1.5,-1.1 h 2.6 l 0.2,2.9 7,6.8 0.5,2.6 3.4,-1.9 0.6,-0.2 0.3,-3.1 1.5,-1.6 1.1,-0.2 1.9,-1.5 3.1,2.1 0.6,2.9 1.9,1.1 1.1,2.4 3.9,1.8 3.4,6 2.7,3.9 2.3,2.7 1.5,3.7 5,1.8 5.2,2.1 1,4.4 0.5,3.1 -1,3.4 -1.8,2.3 -1.6,-0.8 -1.5,-3.1 -2.7,-1.5 -1.8,-1.1 -0.8,0.8 1.5,2.7 0.2,3.7 -1.1,0.5 -1.9,-1.9 -2.1,-1.3 0.5,1.6 1.3,1.8 -0.8,0.8 c 0,0 -0.8,-0.3 -1.3,-1 -0.5,-0.6 -2.1,-3.4 -2.1,-3.4 l -1,-2.3 c 0,0 -0.3,1.3 -1,1 -0.6,-0.3 -1.3,-1.5 -1.3,-1.5 l 1.8,-1.9 -1.5,-1.5 v -5 h -0.8 l -0.8,3.4 -1.1,0.5 -1,-3.7 -0.6,-3.7 -0.8,-0.5 0.3,5.7 v 1.1 l -1.5,-1.3 -3.6,-6 -2.1,-0.5 -0.6,-3.7 -1.6,-2.9 -1.6,-1.1 v -2.3 l 2.1,-1.3 -0.5,-0.3 -2.6,0.6 -3.4,-2.4 -2.6,-2.9 -4.8,-2.6 -4,-2.6 1.3,-3.2 V 542 l -1.8,1.6 -2.9,1.1 -3.7,-1.1 -5.7,-2.4 h -5.5 l -0.6,0.5 -6.5,-3.9 -2.1,-0.3 -2.7,-5.8 -3.6,0.3 -3.6,1.5 0.5,4.5 1.1,-2.9 1,0.3 -1.5,4.4 3.2,-2.7 0.6,1.6 -3.9,4.4 -1.3,-0.3 -0.5,-1.9 -1.3,-0.8 -1.3,1.1 -2.7,-1.8 -3.1,2.1 -1.8,2.1 -3.4,2.1 -4.7,-0.2 -0.5,-2.1 3.7,-0.6 v -1.3 l -2.3,-0.6 1,-2.4 2.3,-3.9 v -1.8 l 0.2,-0.8 4.4,-2.3 1,1.3 h 2.7 l -1.3,-2.6 -3.7,-0.3 -5,2.7 -2.4,3.4 -1.8,2.6 -1.1,2.3 -4.2,1.5 -3.1,2.6 -0.3,1.6 2.3,1 0.8,2.1 -2.7,3.2 -6.5,4.2 -7.8,4.2 -2.1,1.1 -5.3,1.1 -5.3,2.3 1.8,1.3 -1.5,1.5 -0.5,1.1 -2.7,-1 -3.2,0.2 -0.8,2.3 h -1 l 0.3,-2.4 -3.6,1.3 -2.9,1 -3.4,-1.3 -2.9,1.9 h -3.2 l -2.1,1.3 -1.6,0.8 -2.1,-0.3 -2.6,-1.1 -2.3,0.6 -1,1 -1.6,-1.1 v -1.9 l 3.1,-1.3 6.3,0.6 4.4,-1.6 2.1,-2.1 2.9,-0.6 1.8,-0.8 2.7,0.2 1.6,1.3 1,-0.3 2.3,-2.7 3.1,-1 3.4,-0.6 1.3,-0.3 0.6,0.5 h 0.8 l 1.3,-3.7 4,-1.5 1.9,-3.7 2.3,-4.5 1.6,-1.5 0.3,-2.6 -1.6,1.3 -3.4,0.6 -0.6,-2.4 -1.3,-0.3 -1,1 -0.2,2.9 -1.5,-0.2 -1.5,-5.8 -1.3,1.3 -1.1,-0.5 -0.3,-1.9 -4,0.2 -2.1,1.1 -2.6,-0.3 1.5,-1.5 0.5,-2.6 -0.6,-1.9 1.5,-1 1.3,-0.2 -0.6,-1.8 v -4.4 l -1,-1 -0.8,1.5 h -6.1 l -1.5,-1.3 -0.6,-3.9 -2.1,-3.6 v -1 l 2.1,-0.8 0.2,-2.1 1.1,-1.1 -0.8,-0.5 -1.3,0.5 -1.1,-2.7 1,-5 4.5,-3.2 2.6,-1.6 1.9,-3.7 2.7,-1.3 2.6,1.1 0.3,2.4 2.4,-0.3 3.2,-2.4 1.6,0.6 1,0.6 h 1.6 l 2.3,-1.3 0.8,-4.4 c 0,0 0.3,-2.9 1,-3.4 0.6,-0.5 1,-1 1,-1 l -1.1,-1.9 -2.6,0.8 -3.2,0.8 -1.9,-0.5 -3.6,-1.8 -5,-0.2 -3.6,-3.7 0.5,-3.9 0.6,-2.4 -2.1,-1.8 -1.9,-3.7 0.5,-0.8 6.8,-0.5 h 2.1 l 1,1 h 0.6 l -0.2,-1.6 3.9,-0.6 2.6,0.3 1.5,1.1 -1.5,2.1 -0.5,1.5 2.7,1.6 5,1.8 1.8,-1 -2.3,-4.4 -1,-3.2 1,-0.8 -3.4,-1.9 -0.5,-1.1 0.5,-1.6 -0.8,-3.9 -2.9,-4.7 -2.4,-4.2 2.9,-1.9 h 3.2 l 1.8,0.6 4.2,-0.2 3.7,-3.6 1.1,-3.1 3.7,-2.4 1.6,1 2.7,-0.6 3.7,-2.1 1.1,-0.2 1,0.8 4.5,-0.2 2.7,-3.1 h 1.1 l 3.6,2.4 1.9,2.1 -0.5,1.1 0.6,1.1 1.6,-1.6 3.9,0.3 0.3,3.7 1.9,1.5 7.1,0.6 6.3,4.2 1.5,-1 5.2,2.6 2.1,-0.6 1.9,-0.8 4.8,1.9 z M 46,482.6 l 2.1,5.3 -0.2,1 -2.9,-0.3 -1.8,-4 -1.8,-1.5 H 39 l -0.2,-2.6 1.8,-2.4 1.1,2.4 1.5,1.5 z m -2.6,33.5 3.7,0.8 3.7,1 0.8,1 -1.6,3.7 -3.1,-0.2 -3.4,-3.6 z M 22.7,502 l 1.1,2.6 1.1,1.6 -1.1,0.8 -2.1,-3.1 V 502 Z M 9,575.1 l 3.4,-2.3 3.4,-1 2.6,0.3 0.5,1.6 1.9,0.5 1.9,-1.9 -0.3,-1.6 2.7,-0.6 2.9,2.6 -1.1,1.8 -4.4,1.1 -2.7,-0.5 -3.7,-1.1 -4.4,1.5 -1.6,0.3 z m 48.9,-4.5 1.6,1.9 2.1,-1.6 -1.5,-1.3 z m 2.9,3 1.1,-2.3 2.1,0.3 -0.8,1.9 h -2.4 z m 23.6,-1.9 1.5,1.8 1,-1.1 -0.8,-1.9 z m 8.8,-12.5 1.1,5.8 2.9,0.8 5,-2.9 4.4,-2.6 -1.6,-2.4 0.5,-2.4 -2.1,1.3 -2.9,-0.8 1.6,-1.1 1.9,0.8 3.9,-1.8 0.5,-1.5 -2.4,-0.8 0.8,-1.9 -2.7,1.9 -4.7,3.6 -4.8,2.9 z m 42.3,-19.8 2.4,-1.5 -1,-1.8 -1.8,1 z" />
    <path
       id="HI"
       d="m 233.1,519.3 1.9,-3.6 2.3,-0.3 0.3,0.8 -2.1,3.1 z m 10.2,-3.7 6.1,2.6 2.1,-0.3 1.6,-3.9 -0.6,-3.4 -4.2,-0.5 -4,1.8 z m 30.7,10 3.7,5.5 2.4,-0.3 1.1,-0.5 1.5,1.3 3.7,-0.2 1,-1.5 -2.9,-1.8 -1.9,-3.7 -2.1,-3.6 -5.8,2.9 z m 20.2,8.9 1.3,-1.9 4.7,1 0.6,-0.5 6.1,0.6 -0.3,1.3 -2.6,1.5 -4.4,-0.3 z m 5.3,5.2 1.9,3.9 3.1,-1.1 0.3,-1.6 -1.6,-2.1 -3.7,-0.3 z m 7,-1.2 2.3,-2.9 4.7,2.4 4.4,1.1 4.4,2.7 v 1.9 l -3.6,1.8 -4.8,1 -2.4,-1.5 z m 16.6,15.6 1.6,-1.3 3.4,1.6 7.6,3.6 3.4,2.1 1.6,2.4 1.9,4.4 4,2.6 -0.3,1.3 -3.9,3.2 -4.2,1.5 -1.5,-0.6 -3.1,1.8 -2.4,3.2 -2.3,2.9 -1.8,-0.2 -3.6,-2.6 -0.3,-4.5 0.6,-2.4 -1.6,-5.7 -2.1,-1.8 -0.2,-2.6 2.3,-1 2.1,-3.1 0.5,-1 -1.6,-1.8 z" />
    <path
       id="AL"
       d="m 628.5,466.4 0.6,0.2 1.3,-2.7 1.5,-4.4 2.3,0.6 3.1,6 v 1 l -2.7,1.9 2.7,0.3 5.2,-2.5 -0.3,-7.6 -2.5,-1.8 -2,-2 0.4,-4 10.5,-1.5 25.7,-2.9 6.7,-0.6 5.6,0.1 -0.5,-2.2 -1.5,-0.8 -0.9,-1.1 1,-2.6 -0.4,-5.2 -1.6,-4.5 0.8,-5.1 1.7,-4.8 -0.2,-1.7 -1.8,-0.7 -0.5,-3.6 -2.7,-3.4 -2,-6.5 -1.4,-6.7 -1.8,-5 -3.8,-16 -3.5,-7.9 -0.8,-5.6 0.1,-2.2 -9,0.8 -23.4,2.2 -12.2,0.8 -0.2,6.4 0.2,16.7 -0.7,31 -0.3,14.1 2.8,18.8 1.6,14.7 z" />
    <path
       id="AR"
       d="m 587.3,346.1 -6.4,-0.7 0.9,-3.1 3.1,-2.6 0.6,-2.3 -1.8,-2.9 -31.9,1.2 -23.3,0.7 -23.6,0.3 1.5,6.9 0.1,8.5 1.4,10.9 0.3,38.2 2.1,1.6 3,-1.2 2.9,1.2 0.4,10.1 25.2,-0.2 26.8,-0.8 0.9,-1.9 -0.3,-3.8 -1.7,-3.1 1.5,-1.4 -1.4,-2.2 0.7,-2.4 1.1,-5.9 2.7,-2.3 -0.8,-2.2 4,-5.6 2.5,-1.1 -0.1,-1.7 -0.5,-1.7 2.9,-5.8 2.5,-1.1 0.2,-3.3 2.1,-1.4 0.9,-4.1 -1.4,-4 4.2,-2.4 0.3,-2.1 1.2,-4.2 0.9,-3.1 z" />
    <path
       id="AZ"
       d="m 135.1,389.7 -0.3,1.5 0.5,1 18.9,10.7 12.1,7.6 14.7,8.6 16.8,10 12.3,2.4 25.4,2.7 6,-39.6 7,-53.1 4.4,-31 -24.6,-3.6 -60.7,-11 -0.2,1.1 -2.6,16.5 -2.1,3.8 -2.8,-0.2 -1.2,-2.6 -2.6,-0.4 -1.2,-1.1 -1.1,0.1 -2.1,1.7 -0.3,6.8 -0.3,1.5 -0.5,12.5 -1.5,2.4 -0.4,3.3 2.8,5 1.1,5.5 0.7,1.1 1.1,0.9 -0.4,2.4 -1.7,1.2 -3.4,1.6 -1.6,1.8 -1.6,3.6 -0.5,4.9 -3,2.9 -1.9,0.9 -0.1,5.8 -0.6,1.6 0.5,0.8 3.9,0.4 -0.9,3 -1.7,2.4 -3.7,0.4 z" />
    <path
       id="CA"
       d="m 122.7,385.9 -19.7,-2.7 -10,-1.5 -0.5,-1.8 v -9.4 l -0.3,-3.2 -2.6,-4.2 -0.8,-2.3 -3.9,-4.2 -2.9,-4.7 -2.7,-0.2 -3.2,-0.8 -0.3,-1 1.5,-0.6 -0.6,-3.2 -1.5,-2.1 -4.8,-0.8 -3.9,-2.1 -1.1,-2.3 -2.6,-4.8 -2.9,-3.1 H 57 l -3.9,-2.1 -4.5,-1.8 -4.2,-0.5 -2.4,-2.7 0.5,-1.9 1.8,-7.1 0.8,-1.9 v -2.4 l -1.6,-1 -0.5,-2.9 -1.5,-2.6 -3.4,-5.8 -1.3,-3.1 -1.5,-4.7 -1.6,-5.3 -3.2,-4.4 -0.5,-2.9 0.8,-3.9 h 1.1 l 2.1,-1.6 1.1,-3.6 -1,-2.7 -2.7,-0.5 -1.9,-2.6 -2.1,-3.7 -0.2,-8.2 0.6,-1.9 0.6,-2.3 0.5,-2.4 -5.7,-6.3 V 236 l 0.3,-0.5 0.3,-3.2 -1.3,-4 -2.3,-4.8 -2.7,-4.5 -1.8,-3.9 1,-3.7 0.6,-5.8 1.8,-3.1 0.3,-6.5 -1.1,-3.6 -1.6,-4.2 -2.7,-4.2 0.8,-3.2 1.5,-4.2 1.8,-0.8 0.3,-1.1 3.1,-2.6 5.2,-11.8 0.2,-7.4 1.69,-4.9 38.69,11.8 25.6,6.6 -8,31.3 -8.67,33.1 12.63,19.2 42.16,62.3 17.1,26.1 -0.4,3.1 2.8,5.2 1.1,5.4 1,1.5 0.7,0.6 -0.2,1.4 -1.4,1 -3.4,1.6 -1.9,2.1 -1.7,3.9 -0.5,4.7 -2.6,2.5 -2.3,1.1 -0.1,6.2 -0.6,1.9 1,1.7 3,0.3 -0.4,1.6 -1.4,2 -3.9,0.6 z M 48.8,337 l 1.3,1.5 -0.2,1.3 -3.2,-0.1 -0.6,-1.2 -0.6,-1.5 z m 1.9,0 1.2,-0.6 3.6,2.1 3.1,1.2 -0.9,0.6 -4.5,-0.2 -1.6,-1.6 z m 20.7,19.8 1.8,2.3 0.8,1 1.5,0.6 0.6,-1.5 -1,-1.8 -2.7,-2 -1.1,0.2 v 1.2 z m -1.4,8.7 1.8,3.2 1.2,1.9 -1.5,0.2 -1.3,-1.2 c 0,0 -0.7,-1.5 -0.7,-1.9 v -2.2 z" />
    <path
       id="CO"
       d="m 380.2,235.5 -36,-3.5 -79.1,-8.6 -2.2,22.1 -7,50.4 -1.9,13.7 34,3.9 37.5,4.4 34.7,3 14.3,0.6 z" />
    <path
       id="CT"
       d="m 852,190.9 3.6,-3.2 1.9,-2.1 0.8,0.6 2.7,-1.5 5.2,-1.1 7,-3.5 -0.6,-4.2 -0.8,-4.4 -1.6,-6 -4.3,1.1 -21.8,4.7 0.6,3.1 1.5,7.3 v 8.3 l -0.9,2.1 1.7,2.2 z" />
    <path
       id="DE"
       d="m 834.4,247.2 -1,0.5 -3.6,-2.4 -1.8,-4.7 -1.9,-3.6 -2.3,-1 -2.1,-3.6 0.5,-2 0.5,-2.3 0.1,-1.1 -0.6,0.1 -1.7,1 -2,1.7 -0.2,0.3 1.4,4.1 2.3,5.6 3.7,16.1 5,-0.3 6,-1.1 z" />
    <path
       id="FL"
       d="m 750.2,445.2 -5.2,-0.7 -0.7,0.8 1.5,4.4 -0.4,5.2 -4.1,-1 -0.2,-2.8 H 737 l -5.3,0.7 -32.4,1.9 -8.2,-0.3 -1.7,-1.7 -2.5,-4.2 H 681 l -6.6,0.5 -35.4,4.2 -0.3,2.8 1.6,1.6 2.9,2 0.3,8.4 3.3,-0.6 6,-2.1 6,-0.5 4.4,-0.6 7.6,1.8 8.1,3.9 1.6,1.5 2.9,1.1 1.6,1.9 0.3,2.7 3.2,-1.3 h 3.9 l 3.6,-1.9 3.7,-3.6 3.1,0.2 0.5,-1.1 -0.8,-1 0.2,-1.9 4,-0.8 h 2.6 l 2.9,1.5 4.2,1.5 2.4,3.7 2.7,1 1.1,3.4 3.4,1.6 1.6,2.6 1.9,0.6 5.2,1.3 1.3,3.1 3,3.7 v 9.5 l -1.5,4.7 0.3,2.7 1.3,4.8 1.8,4 0.8,-0.5 1.5,-4.5 -2.6,-1 -0.3,-0.6 1.6,-0.6 4.5,1 0.2,1.6 -3.2,5.5 -2.1,2.4 3.6,3.7 2.6,3.1 2.9,5.3 2.9,3.9 2.1,5 1.8,0.3 1.6,-2.1 1.8,1.1 2.6,4 0.6,3.6 3.1,4.4 0.8,-1.3 3.9,0.3 3.6,2.3 3.4,5.2 0.8,3.4 0.3,2.9 1.1,1 1.3,0.5 2.4,-1 1.5,-1.6 3.9,-0.2 3.1,-1.5 2.7,-3.2 -0.5,-1.9 -0.3,-2.4 0.6,-1.9 -0.3,-1.9 2.4,-1.3 0.3,-3.4 -0.6,-1.8 -0.5,-12 -1.3,-7.6 -4.5,-8.2 -3.6,-5.8 -2.6,-5.3 -2.9,-2.9 -2.9,-7.4 0.7,-1.4 1.1,-1.3 -1.6,-2.9 -4,-3.7 -4.8,-5.5 -3.7,-6.3 -5.3,-9.4 -3.7,-9.7 -2.3,-7.3 z m 17.7,132.7 2.4,-0.6 1.3,-0.2 1.5,-2.3 2.3,-1.6 1.3,0.5 1.7,0.3 0.4,1.1 -3.5,1.2 -4.2,1.5 -2.3,1.2 z m 13.5,-5 1.2,1.1 2.7,-2.1 5.3,-4.2 3.7,-3.9 2.5,-6.6 1,-1.7 0.2,-3.4 -0.7,0.5 -1,2.8 -1.5,4.6 -3.2,5.3 -4.4,4.2 -3.4,1.9 z" />
    <path
       id="GA"
       d="m 750.2,444.2 -5.6,-0.7 -1.4,1.6 1.6,4.7 -0.3,3.9 -2.2,-0.6 -0.2,-3 h -5.2 l -5.3,0.7 -32.3,1.9 -7.7,-0.3 -1.4,-1.2 -2.5,-4.3 -0.8,-3.3 -1.6,-0.9 -0.5,-0.5 0.9,-2.2 -0.4,-5.5 -1.6,-4.5 0.8,-4.9 1.7,-4.8 -0.2,-2.5 -1.9,-0.7 -0.4,-3.2 -2.8,-3.5 -1.9,-6.2 -1.5,-7 -1.7,-4.8 -3.8,-16 -3.5,-8 -0.8,-5.3 0.1,-2.3 3.3,-0.3 13.6,-1.6 18.6,-2 6.3,-1.1 0.5,1.4 -2.2,0.9 -0.9,2.2 0.4,2 1.4,1.6 4.3,2.7 3.2,-0.1 3.2,4.7 0.6,1.6 2.3,2.8 0.5,1.7 4.7,1.8 3,2.2 2.3,3 2.3,1.3 2,1.8 1.4,2.7 2.1,1.9 4.1,1.8 2.7,6 1.7,5.1 2.8,0.7 2.1,1.9 2,5.7 2.9,1.6 1.7,-0.8 0.4,1.2 -3.3,6.2 0.5,2.6 -1.5,4.2 -2.3,10 0.8,6.3 z" />
    <path
       id="IA"
       d="m 556.8,183.6 2.1,2.1 0.3,0.7 -2,3 0.3,4 2.6,4.1 3.1,1.6 2.4,0.3 0.9,1.8 0.2,2.4 2.5,1 0.9,1.1 0.5,1.6 3.8,3.3 0.6,1.9 -0.7,3 -1.7,3.7 -0.6,2.4 -2.1,1.6 -1.6,0.5 -5.7,1.5 -1.6,4.8 0.8,1.8 1.7,1.5 -0.2,3.5 -1.9,1.4 -0.7,1.8 v 2.4 l -1.4,0.4 -1.7,1.4 -0.5,1.7 0.4,1.7 -1.3,1 -2.3,-2.7 -1.4,-2.8 -8.3,0.8 -10,0.6 -49.2,1.2 -1.6,-4.3 -0.4767,-6.85339 -1.43835,-6.15578 L 480.9,225.3 l -2.2,-3.7 -1,-4.6 -2.7,-7.8 -0.86991,-6.25192 L 471.2,198.8 l 1.7,-3.8 1.2,-6.1 -2.7,-2.2 -0.3,-2.4 0.7,-2.4 1.8,-0.3 61.1,-0.6 21.2,-0.7 z" />
    <path
       id="ID"
       d="m 175.3,27.63 -4.8,17.41 -4.5,20.86 -3.4,16.22 -0.4,9.67 1.2,4.44 3.5,2.66 -0.2,3.91 -3.9,4.4 -4.5,6.6 -0.9,2.9 -1.2,1.1 -1.8,0.8 -4.3,5.3 -0.4,3.1 -0.4,1.1 0.6,1 2.6,-0.1 1.1,2.3 -2.4,5.8 -1.2,4.2 -8.8,35.3 20.7,4.5 39.5,7.9 34.8,6.1 4.9,-29.2 3.8,-24.1 -2.7,-2.4 -0.4,-2.6 -0.8,-1.1 -2.1,1 -0.7,2.6 -3.2,0.5 -3.9,-1.6 -3.8,0.1 -2.5,0.7 -3.4,-1.5 -2.4,0.2 -2.4,2 -2,-1.1 -0.7,-4 0.7,-2.9 -2.5,-2.9 -3.3,-2.6 -2.7,-13.1 -0.1,-4.7 -0.3,-0.1 -0.2,0.4 -5.1,3.5 -1.7,-0.2 -2.9,-3.4 -0.2,-3.1 7,-17.13 -0.4,-1.94 -3.4,-1.15 -0.6,-1.18 -2.6,-3.46 -4.6,-10.23 -3.2,-1.53 -2,-4.95 1.3,-4.63 -3.2,-7.58 4.4,-21.52 z" />
    <path
       id="IL"
       d="m 618.7,214.3 -0.8,-2.6 -1.3,-3.7 -1.6,-1.8 -1.5,-2.6 -0.4,-5.5 -15.9,1.8 -17.4,1 h -12.3 l 0.2,2.1 2.2,0.9 1.1,1.4 0.4,1.4 3.9,3.4 0.7,2.4 -0.7,3.3 -1.7,3.7 -0.8,2.7 -2.4,1.9 -1.9,0.6 -5.2,1.3 -1.3,4.1 0.6,1.1 1.9,1.8 -0.2,4.3 -2.1,1.6 -0.5,1.3 v 2.8 l -1.8,0.6 -1.4,1.2 -0.4,1.2 0.4,2 -1.6,1.3 -0.9,2.8 0.3,3.9 2.3,7 7,7.6 5.7,3.7 v 4.4 l 0.7,1.2 6.6,0.6 2.7,1.4 -0.7,3.5 -2.2,6.2 -0.8,3 2,3.7 6.4,5.3 4.8,0.8 2.2,5.1 2,3.4 -0.9,2.8 1.5,3.8 1.7,2.1 1.6,-0.3 1,-2.2 2.4,-1.7 2.8,-1 6.1,2.5 0.5,-0.2 v -1.1 l -1.2,-2.7 0.4,-2.8 2.4,-1.6 3.4,-1.2 -0.5,-1.3 -0.8,-2 1.2,-1.3 1,-2.7 v -4 l 0.4,-4.9 2.5,-3 1.8,-3.8 2.5,-4 -0.5,-5.3 -1.8,-3.2 -0.3,-3.3 0.8,-5.3 -0.7,-7.2 -1.1,-15.8 -1.4,-15.3 -0.9,-11.7 z" />
    <path
       id="IN"
       d="m 622.9,216.1 1.5,1 1.1,-0.3 2.1,-1.9 2.5,-1.8 14.3,-1.1 18.4,-1.8 1.6,15.5 4.9,42.6 -0.6,2.9 1.3,1.6 0.2,1.3 -2.3,1.6 -3.6,1.7 -3.2,0.4 -0.5,4.8 -4.7,3.6 -2.9,4 0.2,2.4 -0.5,1.4 h -3.5 l -1.4,-1.7 -5.2,3 0.2,3.1 -0.9,0.2 -0.5,-0.9 -2.4,-1.7 -3.6,1.5 -1.4,2.9 -1.2,-0.6 -1.6,-1.8 -4.4,0.5 -5.7,1 -2.5,1.3 v -2.6 l 0.4,-4.7 2.3,-2.9 1.8,-3.9 2.7,-4.2 -0.5,-5.8 -1.8,-3.1 -0.3,-3.2 0.8,-5.3 -0.7,-7.1 -0.9,-12.6 -2.5,-30.1 z" />
    <path
       id="KS"
       d="m 485.9,259.5 -43.8,-0.6 -40.6,-1.2 -21.7,-0.9 -4.3,64.8 24.3,1 44.7,2.1 46.3,0.6 12.6,-0.3 0.7,-35 -1.2,-11.1 -2.5,-2 -2.4,-3 -2.3,-3.6 0.6,-3 1.7,-1.4 v -2.1 l -0.8,-0.7 -2.6,-0.2 -3.5,-3.4 z" />
    <path
       id="KY"
       d="m 607.2,331.8 12.6,-0.7 0.1,-4.1 h 4.3 l 30.4,-3.2 45.1,-4.3 5.6,-3.6 3.9,-2.1 0.1,-1.9 6,-7.8 4.1,-3.6 2.1,-2.4 -3.3,-2 -2.5,-2.7 -3,-3.8 -0.5,-2.2 -2.6,-1.4 -0.9,-1.9 -0.2,-6.1 -2.6,-2 -1.9,-1.1 -0.5,-2.3 -1.3,0.2 -2,1.2 -2.5,2.7 -1.9,-1.7 -2.5,-0.5 -2.4,1.4 h -2.3 l -1.8,-2 -5.6,-0.1 -1.8,-4.5 -2.9,-1.5 -2.1,0.8 -4.2,0.2 -0.5,2.1 1.2,1.5 0.3,2.1 -2.8,2 -3.8,1.8 -2.6,0.4 -0.5,4.5 -4.9,3.6 -2.6,3.7 0.2,2.2 -0.9,2.3 -4.5,-0.1 -1.3,-1.3 -3.9,2.2 0.2,3.3 -2.4,0.6 -0.8,-1.4 -1.7,-1.2 -2.7,1.1 -1.8,3.5 -2.2,-1 -1.4,-1.6 -3.7,0.4 -5.6,1 -2.8,1.3 -1.2,3.4 -1,1 1.5,3.7 -4.2,1.4 -1.9,1.4 -0.4,2.2 1.2,2.4 v 2.2 l -1.6,0.4 -6.1,-2.5 -2.3,0.9 -2,1.4 -0.8,1.8 1.7,2.4 -0.9,1.8 -0.1,3.3 -2.4,1.3 -2.1,1.7 z" />
    <path
       id="LA"
       d="m 526.9,485.9 8.1,-0.3 10.3,3.6 6.5,1.1 3.7,-1.5 3.2,1.1 3.2,1 0.8,-2.1 -3.2,-1.1 -2.6,0.5 -2.7,-1.6 0.8,-1.5 3.1,-1 1.8,1.5 1.8,-1 3.2,0.6 1.5,2.4 0.3,2.3 4.5,0.3 1.8,1.8 -0.8,1.6 -1.3,0.8 1.6,1.6 8.4,3.6 3.6,-1.3 1,-2.4 2.6,-0.6 1.8,-1.5 1.3,1 0.8,2.9 -2.3,0.8 0.6,0.6 3.4,-1.3 2.3,-3.4 0.8,-0.5 -2.1,-0.3 0.8,-1.6 -0.2,-1.5 2.1,-0.5 1.1,-1.3 0.6,0.8 0.6,3.1 4.2,0.6 4,1.9 1,1.5 h 2.9 l 1.1,1 2.3,-3.1 V 493 h -1.3 l -3.4,-2.7 -5.8,-0.8 -3.2,-2.3 1.1,-2.7 2.3,0.3 0.2,-0.6 -1.8,-1 v -0.5 h 3.2 l 1.8,-3.1 -1.3,-1.9 -0.3,-2.7 -1.5,0.2 -1.9,2.1 -0.6,2.6 -3.1,-0.6 -1,-1.8 1.8,-1.9 1.9,-1.7 -2.2,-6.5 -3.4,-3.4 1,-7.3 -0.2,-0.5 -1.3,0.2 -33.1,1.4 -0.8,-2.4 0.8,-8.5 8.6,-14.8 -0.9,-2.6 1.4,-0.4 0.4,-2 -2.2,-2 0.1,-1.9 -2,-4.5 -0.4,-5.1 0.1,-0.7 -26.4,0.8 -25.2,0.1 0.4,9.7 0.7,9.5 0.5,3.7 2.6,4.5 0.9,4.4 4.3,6 0.3,3.1 0.6,0.8 -0.7,8.3 -2.8,4.6 1.2,2.4 -0.5,2.6 -0.8,7.3 -1.3,3 0.2,3.7 z" />
    <path
       id="MA"
       d="m 887.5,172.5 -0.5,-2.3 0.8,-1.5 2.9,-1.5 0.8,3.1 -0.5,1.8 -2.4,1.5 v 1 l 1.9,-1.5 3.9,-4.5 3.9,-1.9 4.2,-1.5 -0.3,-2.4 -1,-2.9 -1.9,-2.4 -1.8,-0.8 -2.1,0.2 -0.5,0.5 1,1.3 1.5,-0.8 2.1,1.6 0.8,2.7 -1.8,1.8 -2.3,1 -3.6,-0.5 -3.9,-6 -2.3,-2.6 h -1.8 l -1.1,0.8 -1.9,-2.6 0.3,-1.5 2.4,-5.2 -2.9,-4.4 -3.7,1.8 -1.8,2.9 -18.3,4.7 -13.8,2.5 -0.6,10.6 0.7,4.9 22,-4.8 11.2,-2.8 2,1.6 3.4,4.3 2.9,4.7 z m 12.5,1.4 2.2,-0.7 0.5,-1.7 1,0.1 1,2.3 -1.3,0.5 -3.9,0.1 z m -9.4,0.8 2.3,-2.6 h 1.6 l 1.8,1.5 -2.4,1 -2.2,1 z" />
    <path
       id="MD"
       d="m 834.8,264.1 1.7,-3.8 0.5,-4.8 -6.3,1.1 -5.8,0.3 -3.8,-16.8 -2.3,-5.5 -1.5,-4.6 -22.2,4.3 -37.6,7.6 2,10.4 4.8,-4.9 2.5,-0.7 1.4,-1.5 1.8,-2.7 1.6,0.7 2.6,-0.2 2.6,-2.1 2,-1.5 2.1,-0.6 1.5,1.1 2.7,1.4 1.9,1.8 1.3,1.4 4.8,1.6 -0.6,2.9 5.8,2.1 2.34863,1.12715 1.50476,1.76606 L 801.3,257.6 l -1.8,2.6 v 2.1 l 0.3,0.8 2,1.3 3.4,1.1 4.3,-0.1 3.1,1 2.1,0.3 1,-2.1 -1.5,-2.1 v -1.8 l -2.4,-2.1 -2.1,-5.5 1.3,-5.3 -0.2,-2.1 -1.3,-1.3 c 0,0 1.5,-1.6 1.5,-2.3 0,-0.6 0.5,-2.1 0.5,-2.1 l 1.9,-1.3 1.9,-1.6 0.5,1 -1.5,1.6 -1.3,3.7 0.3,1.1 1.8,0.3 0.5,5.5 -2.1,1 0.3,3.6 0.5,-0.2 1.1,-1.9 1.6,1.8 -1.6,1.3 -0.3,3.4 2.6,3.4 3.9,0.5 1.6,-0.8 3.2,4.2 1,0.4 z m -14.5,0.2 1.1,2.5 0.2,1.8 1.1,1.9 c 0,0 0.9,-0.9 0.9,-1.2 0,-0.3 -0.7,-3.1 -0.7,-3.1 l -0.7,-2.3 z" />
    <path
       d="m 891.5,36.900391 -1.80078,1.798828 -4,2.90039 v 1 l -0.79883,0.800782 -2.70117,-0.59961 L 880.90039,40.5 v -1.099609 l -1.30078,-0.201172 h -1.29883 l -2.10156,4.201172 -2.89844,8.90039 -1.80078,4.798828 0.19922,4.800782 0.20117,1.5 -0.80078,2.699218 -0.79883,1 v 6 l 1.89844,2.400391 -1.5,4 -2.59961,4.699219 -0.79883,5.5 v 2.601562 l -1.5,-0.40039 -1.30078,0.169921 11.69727,37.433598 0.20117,2.5 4,1.09961 0.5,3.0996 2.19922,0.9004 1.09961,-6.29883 0.20117,-4.40039 1.5,-1.30078 -1,-3.19922 3.09961,-3.59961 1.59961,1.5 1.30078,-0.5 5.29883,-3.10157 0.30078,-2.89843 2.90039,-0.5 1.59961,-2.60157 -0.19922,-1.5996 -0.0449,-0.008 0.0137,-0.0137 L 900.5,105.5 901.30078,104.19922 901,103.09961 l -1.30078,-1.5 2.10156,-1.29883 1.79883,3.19922 1.5,-0.30078 0.30078,1.30078 v 1.59961 l 1.90039,0.20117 0.5,-2.70117 0.5,-0.59961 -1.60156,-1.5 1,-1.5 2.40039,-1.5 1,-1.5 1.80078,-0.199219 1,2.09961 h 1.29883 l 4.80078,-5.5 3.40039,-3.09961 1.90039,-0.601562 L 927.40039,85 v -1.900391 l -2.30078,-3.699218 -1.90039,-2.09961 -2.79883,0.5 0.5,1.09961 -0.20117,0.5 h -0.79883 L 917,77.099609 916.80078,72.300781 916,70.400391 h -6 L 900.90039,40.5 899,39.5 893,37.099609 Z m 20.90039,61.798828 -2,0.701172 L 909,101.59961 910.80078,103.5 c 0,0 1.29883,0.10078 1.29883,-0.19922 0,-0.3 0.20117,-2 0.20117,-2 L 913.19922,100.5 Z M 903.80078,106 l -1.5,1.5 1.79883,2.90039 1.70117,-0.90039 -0.60156,-2.40039 z"
       id="ME" />
    <path
       id="MI"
       d="m 644.5,211 19.1,-1.9 0.2,1.1 9.9,-1.5 12,-1.7 0.1,-0.6 0.2,-1.5 2.1,-3.7 2,-1.7 -0.2,-5.1 1.6,-1.6 1.1,-0.3 0.2,-3.6 1.5,-3 1.1,0.6 0.2,0.6 0.8,0.2 1.9,-1 -0.4,-9.1 -3.2,-8.2 -2.3,-9.1 -2.4,-3.2 -2.6,-1.8 -1.6,1.1 -3.9,1.8 -1.9,5 -2.7,3.7 -1.1,0.6 -1.5,-0.6 c 0,0 -2.6,-1.5 -2.4,-2.1 0.2,-0.6 0.5,-5 0.5,-5 l 3.4,-1.3 0.8,-3.4 0.6,-2.6 2.4,-1.6 -0.3,-10 -1.6,-2.3 -1.3,-0.8 -0.8,-2.1 0.8,-0.8 1.6,0.3 0.2,-1.6 -2.6,-2.2 -1.3,-2.6 h -2.6 l -4.5,-1.5 -5.5,-3.4 h -2.7 l -0.6,0.6 -1,-0.5 -3.1,-2.3 -2.9,1.8 -2.9,2.3 0.3,3.6 1,0.3 2.1,0.5 0.5,0.8 -2.6,0.8 -2.6,0.3 -1.5,1.8 -0.3,2.1 0.3,1.6 0.3,5.5 -3.6,2.1 -0.6,-0.2 v -4.2 l 1.3,-2.4 0.6,-2.4 -0.8,-0.8 -1.9,0.8 -1,4.2 -2.7,1.1 -1.8,1.9 -0.2,1 0.6,0.8 -0.6,2.6 -2.3,0.5 v 1.1 l 0.8,2.4 -1.1,6.1 -1.6,4 0.6,4.7 0.5,1.1 -0.8,2.4 -0.3,0.8 -0.3,2.7 3.6,6 2.9,6.5 1.5,4.8 -0.8,4.7 -1,6 -2.4,5.2 -0.3,2.7 -3.2,3.1 z m -33.3,-72.4 -1.3,-1.1 -1.8,-10.4 -3.7,-1.3 -1.7,-2.3 -12.6,-2.8 -2.8,-1.1 -8.1,-2.2 -7.8,-1 -3.9,-5.3 0.7,-0.5 2.7,-0.8 3.6,-2.3 v -1 l 0.6,-0.6 6,-1 2.4,-1.9 4.4,-2.1 0.2,-1.3 1.9,-2.9 1.8,-0.8 1.3,-1.8 2.3,-2.3 4.4,-2.4 4.7,-0.5 1.1,1.1 -0.3,1 -3.7,1 -1.5,3.1 -2.3,0.8 -0.5,2.4 -2.4,3.2 -0.3,2.6 0.8,0.5 1,-1.1 3.6,-2.9 1.3,1.3 h 2.3 l 3.2,1 1.5,1.1 1.5,3.1 2.7,2.7 3.9,-0.2 1.5,-1 1.6,1.3 1.6,0.5 1.3,-0.8 h 1.1 l 1.6,-1 4,-3.6 3.4,-1.1 6.6,-0.3 4.5,-1.9 2.6,-1.3 1.5,0.2 v 5.7 l 0.5,0.3 2.9,0.8 1.9,-0.5 6.1,-1.6 1.1,-1.1 1.5,0.5 v 7 l 3.2,3.1 1.3,0.6 1.3,1 -1.3,0.3 -0.8,-0.3 -3.7,-0.5 -2.1,0.6 -2.3,-0.2 -3.2,1.5 h -1.8 l -5.8,-1.3 -5.2,0.2 -1.9,2.6 -7,0.6 -2.4,0.8 -1.1,3.1 -1.3,1.1 -0.5,-0.2 -1.5,-1.6 -4.5,2.4 h -0.6 l -1.1,-1.6 -0.8,0.2 -1.9,4.4 -1,4 -3.2,6.9 z m -29.6,-56.5 1.8,-2.1 2.2,-0.8 5.4,-3.9 2.3,-0.6 0.5,0.5 -5.1,5.1 -3.3,1.9 -2.1,0.9 z m 86.2,32.1 0.6,2.5 3.2,0.2 1.3,-1.2 c 0,0 -0.1,-1.5 -0.4,-1.6 -0.3,-0.2 -1.6,-1.9 -1.6,-1.9 l -2.2,0.2 -1.6,0.2 -0.3,1.1 z" />
    <path
       id="MN"
       d="M 464.6,66.79 464,70.7 v 10.27 l 1.6,5.03 1.9,3.32 0.5,9.93 1.8,13.45 1.8,7.3 0.4,6.4 v 5.3 l -1.6,1.8 -1.8,1.3 v 1.5 l 0.9,1.7 4.1,3.5 0.7,3.2 v 35.9 l 60.3,-0.6 21.2,-0.7 -0.5,-6 -1.8,-2.1 -7.2,-4.6 -3.6,-5.3 -3.4,-0.9 -2,-2.8 h -3.2 l -3.5,-3.8 -0.5,-7 0.1,-3.9 1.5,-3 -0.7,-2.7 -2.8,-3.1 2.2,-6.1 5.4,-4 1.2,-1.4 -0.2,-8 0.2,-3 2.6,-3 3.8,-2.9 1.3,-0.2 4.5,-5 1.8,-0.8 2.3,-3.9 2.4,-3.6 3.1,-2.6 4.8,-2 9.2,-4.1 3.9,-1.8 0.6,-2.3 -4.4,0.4 -0.7,1.1 h -0.6 l -1.8,-3.1 -8.9,0.3 -1,0.8 h -1 l -0.5,-1.3 -0.8,-1.8 -2.6,0.5 -3.2,3.2 -1.6,0.8 h -3.1 l -2.6,-1 v -2.1 l -1.3,-0.2 -0.5,0.5 -2.6,-1.3 -0.5,-2.9 -1.5,0.5 -0.5,1 -2.4,-0.5 -5.3,-2.4 -3.9,-2.6 h -2.9 l -1.3,-1 -2.3,0.6 -1.1,1.1 -0.3,1.3 h -4.8 v -2.1 l -6.3,-0.3 -0.3,-1.5 h -4.8 l -1.6,-1.6 -1.5,-6.1 -0.8,-5.5 -1.9,-0.8 -2.3,-0.5 -0.6,0.2 -0.3,8.2 -30.1,-0.03 z" />
    <path
       id="MO"
       d="m 593.1,338.7 0.5,-5.9 4.2,-3.4 1.9,-1 v -2.9 l 0.7,-1.6 -1.1,-1.6 -2.4,0.3 -2.1,-2.5 -1.7,-4.5 0.9,-2.6 -2,-3.2 -1.8,-4.6 -4.6,-0.7 -6.8,-5.6 -2.2,-4.2 0.8,-3.3 2.2,-6 0.6,-3 -1.9,-1 -6.9,-0.6 -1.1,-1.9 v -4.1 l -5.3,-3.5 -7.2,-7.8 -2.3,-7.3 -0.5,-4.2 0.7,-2.4 -2.6,-3.1 -1.2,-2.4 -7.7,0.8 -10,0.6 -48.8,1.2 1.3,2.6 -0.1,2.2 2.3,3.6 3,3.9 3.1,3 2.6,0.2 1.4,1.1 v 2.9 l -1.8,1.6 -0.5,2.3 2.1,3.2 2.4,3 2.6,2.1 1.3,11.6 -0.8,40 0.5,5.7 23.7,-0.2 23.3,-0.7 32.5,-1.3 2.2,3.7 -0.8,3.1 -3.1,2.5 -0.5,1.8 5.2,0.5 4.1,-1.1 z" />
    <path
       id="MS"
       d="m 604.3,472.5 2.6,-4.2 1.8,0.8 6.8,-1.9 2.1,0.3 1.5,0.8 h 5.2 l 0.4,-1.6 -1.7,-14.8 -2.8,-19 1,-45.1 -0.2,-16.7 0.2,-6.3 -4.8,0.3 -19.6,1.6 -13,0.4 -0.2,3.2 -2.8,1.3 -2.6,5.1 0.5,1.6 0.1,2.4 -2.9,1.1 -3.5,5.1 0.8,2.3 -3,2.5 -1,5.7 -0.6,1.9 1.6,2.5 -1.5,1.4 1.5,2.8 0.3,4.2 -1.2,2.5 -0.2,0.9 0.4,5 2,4.5 -0.1,1.7 2.3,2 -0.7,3.1 -0.9,0.3 0.6,1.9 -8.6,15 -0.8,8.2 0.5,1.5 24.2,-0.7 8.2,-0.7 1.9,-0.3 0.6,1.4 -1,7.1 3.3,3.3 2.2,6.4 z" />
    <path
       id="MT"
       d="m 361.1,70.77 -5.3,57.13 -1.3,15.2 -59.1,-6.6 -49,-7.1 -1.4,11.2 -1.9,-1.7 -0.4,-2.5 -1.3,-1.9 -3.3,1.5 -0.7,2.5 -2.3,0.3 -3.8,-1.6 -4.1,0.1 -2.4,0.7 -3.2,-1.5 -3,0.2 -2.1,1.9 -0.9,-0.6 -0.7,-3.4 0.7,-3.2 -2.7,-3.2 -3.3,-2.5 -2.5,-12.6 -0.1,-5.3 -1.6,-0.8 -0.6,1 -4.5,3.2 -1.2,-0.1 -2.3,-2.8 -0.2,-2.8 7,-17.15 -0.6,-2.67 -3.5,-1.12 -0.4,-0.91 -2.7,-3.5 -4.6,-10.41 -3.2,-1.58 -1.8,-4.26 1.3,-4.63 -3.2,-7.57 4.4,-21.29 32.7,6.89 18.4,3.4 32.3,5.3 29.3,4 29.2,3.5 30.8,3.07 z" />
    <path
       id="NC"
       d="M 786.7,357.7 774,350 l -3.1,-0.8 -16.6,2.1 -1.6,-3 -2.8,-2.2 -16.7,0.5 -7.4,0.9 -9.2,4.5 -6.8,2.7 -6.5,1.2 -13.4,1.4 0.1,-4.1 1.7,-1.3 2.7,-0.7 0.7,-3.8 3.9,-2.5 3.9,-1.5 4.5,-3.7 4.4,-2.3 0.7,-3.2 4.1,-3.8 0.7,1 2.5,0.2 2.4,-3.6 1.7,-0.4 2.6,0.3 1.8,-4 2.5,-2.4 0.5,-1.8 0.1,-3.5 4.4,0.1 38.5,-5.6 57.5,-12.3 2,4.8 3.6,6.5 2.4,2.4 0.6,2.3 -2.4,0.2 0.8,0.6 -0.3,4.2 -2.6,1.3 -0.6,2.1 -1.3,2.9 -3.7,1.6 -2.4,-0.3 -1.5,-0.2 -1.6,-1.3 0.3,1.3 v 1 h 1.9 l 0.8,1.3 -1.9,6.3 h 4.2 l 0.6,1.6 2.3,-2.3 1.3,-0.5 -1.9,3.6 -3.1,4.8 H 828 l -1.1,-0.5 -2.7,0.6 -5.2,2.4 -6.5,5.3 -3.4,4.7 -1.9,6.5 -0.5,2.4 -4.7,0.5 -5.1,1.5 z m 49.3,-26.2 2.6,-2.5 3.2,-2.6 1.5,-0.6 0.2,-2 -0.6,-6.1 -1.5,-2.3 -0.6,-1.9 0.7,-0.2 2.7,5.5 0.4,4.4 -0.2,3.4 -3.4,1.5 -2.8,2.4 -1.1,1.2 z" />
    <path
       id="ND"
       d="m 471,126.4 -0.4,-6.2 -1.8,-7.3 -1.8,-13.61 -0.5,-9.7 -1.9,-3.18 -1.6,-5.32 V 70.68 l 0.6,-3.85 -1.8,-5.54 -28.6,-0.59 -18.6,-0.6 -26.5,-1.3 -25.2,-2.16 -0.9,14.42 -4.7,50.94 56.8,3.9 56.9,1.7 z" />
    <path
       id="NH"
       d="m 881.7,141.3 1.1,-3.2 -2.7,-1.2 -0.5,-3.1 -4.1,-1.1 -0.3,-3 -11.7,-37.48 -0.7,0.08 -0.6,1.6 -0.6,-0.5 -1,-1 -1.5,1.9 -0.2,2.29 0.5,8.41 1.9,2.8 v 4.3 l -3.9,4.8 -2.4,0.9 v 0.7 l 1.1,1.9 v 8.6 l -0.8,9.2 -0.2,4.7 1,1.4 -0.2,4.7 -0.5,1.5 1,1.1 5.1,-1.2 13.8,-3.5 1.7,-2.9 4,-1.9 z" />
    <path
       id="NJ"
       d="m 823.7,228.3 0.1,-1.5 2.7,-1.3 1.7,-2.8 1.7,-2.4 3.3,-3.2 v -1.2 l -6.1,-4.1 -1,-2.7 -2.7,-0.3 -0.1,-0.9 -0.7,-2.2 2.2,-1.1 0.2,-2.9 -1.3,-1.3 0.2,-1.2 1.9,-3.1 V 193 l 2.5,-3.1 5.6,2.5 6.4,1.9 2.5,1.2 0.1,1.8 -0.5,2.7 0.4,4.5 -2.1,1.9 -1.1,1 0.5,0.5 2.7,-0.3 1.1,-0.8 1.6,3.4 0.2,9.4 0.6,1.1 -1.1,5.5 -3.1,6.5 -2.7,4 -0.8,4.8 -2.1,2.4 h -0.8 l -0.3,-2.7 0.8,-1 -0.2,-1.5 -4,-0.6 -4.8,-2.3 -3.2,-2.9 -1,-2 z" />
    <path
       id="NM"
       d="m 270.2,429.4 -16.7,-2.6 -1.2,9.6 -15.8,-2 6,-39.7 7,-53.2 4.4,-30.9 34,3.9 37.4,4.4 32,2.8 -0.3,10.8 -1.4,-0.1 -7.4,97.7 -28.4,-1.8 -38.1,-3.7 0.7,6.3 z" />
    <path
       id="NV"
       d="m 123.1,173.6 38.7,8.5 26,5.2 -10.6,53.1 -5.4,29.8 -3.3,15.5 -2.1,11.1 -2.6,16.4 -1.7,3.1 -1.6,-0.1 -1.2,-2.6 -2.8,-0.5 -1.3,-1.1 -1.8,0.1 -0.9,0.8 -1.8,1.3 -0.3,7.3 -0.3,1.5 -0.5,12.4 -1.1,1.8 -16.7,-25.5 -42.1,-62.1 -12.43,-19 8.55,-32.6 8.01,-31.3 z" />
    <path
       id="NY"
       d="m 843.4,200 0.5,-2.7 -0.2,-2.4 -3,-1.5 -6.5,-2 -6,-2.6 -0.6,-0.4 -2.7,-0.3 -2,-1.5 -2.1,-5.9 -3.3,-0.5 -2.4,-2.4 -38.4,8.1 -31.6,6 -0.5,-6.5 1.6,-1.2 1.3,-1.1 1,-1.6 1.8,-1.1 1.9,-1.8 0.5,-1.6 2.1,-2.7 1.1,-1 -0.2,-1 -1.3,-3.1 -1.8,-0.2 -1.9,-6.1 2.9,-1.8 4.4,-1.5 4,-1.3 3.2,-0.5 6.3,-0.2 1.9,1.3 1.6,0.2 2.1,-1.3 2.6,-1.1 5.2,-0.5 2.1,-1.8 1.8,-3.2 1.6,-1.9 h 2.1 l 1.9,-1.1 0.2,-2.3 -1.5,-2.1 -0.3,-1.5 1.1,-2.1 v -1.5 h -1.8 l -1.8,-0.8 -0.8,-1.1 -0.2,-2.6 5.8,-5.5 0.6,-0.8 1.5,-2.9 2.9,-4.5 2.7,-3.7 2.1,-2.4 2.4,-1.8 3.1,-1.2 5.5,-1.3 3.2,0.2 4.5,-1.5 7.4,-2.2 0.7,4.9 2.4,6.5 0.8,5 -1,4.2 2.6,4.5 0.8,2 -0.9,3.2 3.7,1.7 2.7,10.2 v 5.8 l -0.6,10.9 0.8,5.4 0.7,3.6 1.5,7.3 v 8.1 l -1.1,2.3 2.1,2.7 0.5,0.9 -1.9,1.8 0.3,1.3 1.3,-0.3 1.5,-1.3 2.3,-2.6 1.1,-0.6 1.6,0.6 2.3,0.2 7.9,-3.9 2.9,-2.7 1.3,-1.5 4.2,1.6 -3.4,3.6 -3.9,2.9 -7.1,5.3 -2.6,1 -5.8,1.9 -4,1.1 -1,-0.4 z" />
    <path
       id="OH"
       d="m 663.8,211.2 1.7,15.5 4.8,41.1 3.9,-0.2 2.3,-0.8 3.6,1.8 1.7,4.2 5.4,0.1 1.8,2 h 1.7 l 2.4,-1.4 3.1,0.5 1.5,1.3 1.8,-2 2.3,-1.4 2.4,-0.4 0.6,2.7 1.6,1 2.6,2 0.8,0.2 2,-0.1 1.2,-0.6 v -2.1 l 1.7,-1.5 0.1,-4.8 1.1,-4.2 1.9,-1.3 1,0.7 1,1.1 0.7,0.2 0.4,-0.4 -0.9,-2.7 v -2.2 l 1.1,-1.4 2.5,-3.6 1.3,-1.5 2.2,0.5 2.1,-1.5 3,-3.3 2.2,-3.7 0.2,-5.4 0.5,-5 V 230 l -1.2,-3.2 1.2,-1.8 1.3,-1.2 -0.6,-2.8 -4.3,-25.6 -6.2,3.7 -3.9,2.3 -3.4,3.7 -4,3.9 -3.2,0.8 -2.9,0.5 -5.5,2.6 -2.1,0.2 -3.4,-3.1 -5.2,0.6 -2.6,-1.5 -2.2,-1.3 z" />
    <path
       id="OK"
       d="m 411.9,334.9 -1.8,24.3 -0.9,18 0.2,1.6 4,3.6 1.7,0.9 h 0.9 l 0.9,-2.1 1.5,1.9 1.6,0.1 0.3,-0.2 0.2,-1.1 2.8,1.4 -0.4,3.5 3.8,0.5 2.5,1 4.2,0.6 2.3,1.6 2.5,-1.7 3.5,0.7 2.2,3.1 1.2,0.1 v 2.3 l 2.1,0.7 2.5,-2.1 1.8,0.6 2.7,0.1 0.7,2.3 4.4,1.8 1.7,-0.3 1.9,-4.2 h 1.3 l 1.1,2.1 4.2,0.8 3.4,1.3 3,0.8 1.6,-0.7 0.7,-2.7 h 4.5 l 1.9,0.9 2.7,-1.9 h 1.4 l 0.6,1.4 h 3.6 l 2,-1.8 2.3,0.6 1.7,2.2 3,1.7 3.4,0.9 1.9,1.2 -0.3,-37.6 -1.4,-10.9 -0.1,-8.6 -1.5,-6.6 -0.6,-6.8 0.1,-4.3 -12.6,0.3 -46.3,-0.5 -44.7,-2.1 -41.5,-1.8 -0.4,10.7 z" />
    <path
       id="OR"
       d="m 67.44,158.9 28.24,7.2 27.52,6.5 17,3.7 8.8,-35.1 1.2,-4.4 2.4,-5.5 -0.7,-1.3 -2.5,0.1 -1.3,-1.8 0.6,-1.5 0.4,-3.3 4.7,-5.7 1.9,-0.9 0.9,-0.8 0.7,-2.7 0.8,-1.1 3.9,-5.7 3.7,-4 0.2,-3.26 -3.4,-2.49 -1.2,-4.55 -13.1,-3.83 -15.3,-3.47 -14.8,0.37 -1.1,-1.31 -5.1,1.84 -4.5,-0.48 -2.4,-1.58 -1.3,0.54 -4.68,-0.29 -1.96,-1.43 -4.84,-1.77 -1.1,-0.07 -4.45,-1.27 -1.76,1.52 -6.26,-0.24 -5.31,-3.85 0.21,-9.28 -2.05,-3.5 -4.1,-0.6 -0.7,-2.5 -2.4,-0.5 -5.8,2.1 -2.3,6.5 -3.2,10 -3.2,6.5 -5,14.1 -6.5,13.6 -8.1,12.6 -1.9,2.9 -0.8,8.6 -1.3,6 2.71,3.5 z" />
    <path
       id="PA"
       d="m 736.6,192.2 1.3,-0.5 5.7,-5.5 0.7,6.9 33.5,-6.5 36.9,-7.8 2.3,2.3 3.1,0.4 2,5.6 2.4,1.9 2.8,0.4 0.1,0.1 -2.6,3.2 v 3.1 l -1.9,3.1 -0.2,1.9 1.3,1.3 -0.2,1.9 -2.4,1.1 1,3.4 0.2,1.1 2.8,0.3 0.9,2.5 5.9,3.9 v 0.4 l -3.1,3 -1.5,2.2 -1.7,2.8 -2.7,1.2 -1.4,0.3 -2.1,1.3 -1.6,1.4 -22.4,4.3 -38.7,7.8 -11.3,1.4 -3.9,0.7 -5.1,-22.4 -4.3,-25.9 z" />
    <path
       id="RI"
       d="m 873.6,175.7 -0.8,-4.4 -1.6,-6 5.7,-1.5 1.5,1.3 3.4,4.3 2.8,4.4 -2.8,1.4 -1.3,-0.2 -1.1,1.8 -2.4,1.9 -2.8,1.1 z" />
    <path
       id="SC"
       d="m 759,413.6 -2.1,-1 -1.9,-5.6 -2.5,-2.3 -2.5,-0.5 -1.5,-4.6 -3,-6.5 -4.2,-1.8 -1.9,-1.8 -1.2,-2.6 -2.4,-2 -2.3,-1.3 -2.2,-2.9 -3.2,-2.4 -4.4,-1.7 -0.4,-1.4 -2.3,-2.8 -0.5,-1.5 -3.8,-5.4 -3.4,0.1 -3.9,-2.5 -1.2,-1.2 -0.2,-1.4 0.6,-1.6 2.7,-1.3 -0.8,-2 6.4,-2.7 9.2,-4.5 7.1,-0.9 16.4,-0.5 2.3,1.9 1.8,3.5 4.6,-0.8 12.6,-1.5 2.7,0.8 12.5,7.4 10.1,8.3 -5.3,5.4 -2.6,6.1 -0.5,6.3 -1.6,0.8 -1.1,2.7 -2.4,0.6 -2.1,3.6 -2.7,2.7 -2.3,3.4 -1.6,0.8 -3.6,3.4 -2.9,0.2 1,3.2 -5,5.3 -2.3,1.6 z" />
    <path
       id="SD"
       d="m 471,181.1 -0.9,3.2 0.4,3 2.6,2 -1.2,5.4 -1.76165,4.29174 -1.35871,0.13303 L 466.4,197.9 l -4.8,-1.5 -2.5,-1.3 -2.9,0.1 -3.9,0.4 -3.8,1.2 -5.3,-3.8 -2.7,-2.4 -10.9,0.8 -41.5,-2.4 -35.6,-2.2 1.5,-24.8 2.8,-34 0.4,-5 56.9,3.9 56.9,1.7 v 2.7 l -1.3,1.5 -2,1.5 -0.1,2.2 1.1,2.2 4.1,3.4 0.5,2.7 v 35.9 z" />
    <path
       id="TN"
       d="m 670.8,359.6 -13.1,1.2 -23.3,2.2 -37.6,2.7 -11.8,0.4 0.9,-0.6 0.9,-4.5 -1.2,-3.6 3.9,-2.3 0.4,-2.5 1.2,-4.3 3,-9.5 0.5,-5.6 0.3,-0.2 12.3,-0.2 13.6,-0.8 0.1,-3.9 3.5,-0.1 30.4,-3.3 54,-5.2 10.3,-1.5 7.6,-0.2 2.4,-1.9 1.3,0.3 -0.1,3.3 -0.4,1.6 -2.4,2.2 -1.6,3.6 -2,-0.4 -2.4,0.9 -2.2,3.3 -1.4,-0.2 -0.8,-1.2 -1.1,0.4 -4.3,4 -0.8,3.1 -4.2,2.2 -4.3,3.6 -3.8,1.5 -4.4,2.8 -0.6,3.6 -2.5,0.5 -2,1.7 -0.2,4.8 z" />
    <path
       id="TX"
       d="m 282.8,425.6 37,3.6 29.3,1.9 7.4,-97.7 54.4,2.4 -1.7,23.3 -1,18 0.2,2 4.4,4.1 2,1.1 h 1.8 l 0.5,-1.2 0.7,0.9 2.4,0.2 1.1,-0.6 v -0.2 l 1,0.5 -0.4,3.7 4.5,0.7 2.4,0.9 4.2,0.7 2.6,1.8 2.8,-1.9 2.7,0.6 2.2,3.1 0.8,0.1 v 2.1 l 3.3,1.1 2.5,-2.1 1.5,0.5 2.1,0.1 0.6,2.1 5.2,2 2.3,-0.5 1.9,-4 h 0.1 l 1.1,1.9 4.6,0.9 3.4,1.3 3.2,1 2.4,-1.2 0.7,-2.3 h 3.6 l 2.1,1 3,-2 h 0.4 l 0.5,1.4 h 4.7 l 1.9,-1.8 1.3,0.4 1.7,2.1 3.3,1.9 3.4,1 2.5,1.4 2.7,2 3.1,-1.2 2.1,0.8 0.7,20 0.7,9.5 0.6,4.1 2.6,4.4 0.9,4.5 4.2,5.9 0.3,3.1 0.6,0.8 -0.7,7.7 -2.9,4.8 1.3,2.6 -0.5,2.4 -0.8,7.2 -1.3,3 0.3,4.2 -5.6,1.6 -9.9,4.5 -1,1.9 -2.6,1.9 -2.1,1.5 -1.3,0.8 -5.7,5.3 -2.7,2.1 -5.3,3.2 -5.7,2.4 -6.3,3.4 -1.8,1.5 -5.8,3.6 -3.4,0.6 -3.9,5.5 -4,0.3 -1,1.9 2.3,1.9 -1.5,5.5 -1.3,4.5 -1.1,3.9 -0.8,4.5 0.8,2.4 1.8,7 1,6.1 1.8,2.7 -1,1.5 -3.1,1.9 -5.7,-3.9 -5.5,-1.1 -1.3,0.5 -3.2,-0.6 -4.2,-3.1 -5.2,-1.1 -7.6,-3.4 -2.1,-3.9 -1.3,-6.5 -3.2,-1.9 -0.6,-2.3 0.6,-0.6 0.3,-3.4 -1.3,-0.6 -0.6,-1 1.3,-4.4 -1.6,-2.3 -3.2,-1.3 -3.4,-4.4 -3.6,-6.6 -4.2,-2.6 0.2,-1.9 -5.3,-12.3 -0.8,-4.2 -1.8,-1.9 -0.2,-1.5 -6,-5.3 -2.6,-3.1 v -1.1 l -2.6,-2.1 -6.8,-1.1 -7.4,-0.6 -3.1,-2.3 -4.5,1.8 -3.6,1.5 -2.3,3.2 -1,3.7 -4.4,6.1 -2.4,2.4 -2.6,-1 -1.8,-1.1 -1.9,-0.6 -3.9,-2.3 v -0.6 l -1.8,-1.9 -5.2,-2.1 -7.4,-7.8 -2.3,-4.7 v -8.1 l -3.2,-6.5 -0.5,-2.7 -1.6,-1 -1.1,-2.1 -5,-2.1 -1.3,-1.6 -7.1,-7.9 -1.3,-3.2 -4.7,-2.3 -1.5,-4.4 -2.6,-2.9 -1.7,-0.5 z m 174.4,141.7 -0.6,-7.1 -2.7,-7.2 -0.6,-7 1.5,-8.2 3.3,-6.9 3.5,-5.4 3.2,-3.6 0.6,0.2 -4.8,6.6 -4.4,6.5 -2,6.6 -0.3,5.2 0.9,6.1 2.6,7.2 0.5,5.2 0.2,1.5 z" />
    <path
       id="UT"
       d="m 228.4,305.9 24.6,3.6 1.9,-13.7 7,-50.5 2.3,-22 -32.2,-3.5 2.2,-13.1 1.8,-10.6 -34.7,-6.1 -12.5,-2.5 -10.6,52.9 -5.4,30 -3.3,15.4 -1.7,9.2 z" />
    <path
       id="VA"
       d="m 834.7,265.2 -0.2,2.8 -2.9,3.8 -0.4,4.6 0.5,3.4 -1.8,5 -2.2,1.9 -1.5,-4.6 0.4,-5.4 1.6,-4.2 0.7,-3.3 -0.1,-1.7 z m -60.3,44.6 -38.6,5.6 -4.8,-0.1 -2.2,-0.3 -2.5,1.9 -7.3,0.1 -10.3,1.6 -6.7,0.6 4.1,-2.6 4.1,-2.3 v -2.1 l 5.7,-7.3 4.1,-3.7 2.2,-2.5 3.6,4.3 3.8,0.9 2.7,-1 2,-1.5 2.4,1.2 4.6,-1.3 1.7,-4.4 2.4,0.7 3.2,-2.3 1.6,0.4 2.8,-3.2 0.2,-2.7 -0.8,-1.2 4.8,-10.5 1.8,-5.2 0.5,-4.7 0.7,-0.2 1.1,1.7 1.5,1.2 3.9,-0.2 1.7,-8.1 3,-0.6 0.8,-2.6 2.8,-2.2 1.1,-2.1 1.8,-4.3 0.1,-4.6 3.6,1.4 6.6,3.1 0.3,-5.2 3.4,1.2 -0.6,2.9 8.6,3.1 1.4,1.8 -0.8,3.3 -1.3,1.3 -0.5,1.7 0.5,2.4 2,1.3 3.9,1.4 2.9,1 4.9,0.9 2.2,2.1 3.2,0.4 0.9,1.2 -0.4,4.7 1.4,1.1 -0.5,1.9 1.2,0.8 -0.2,1.4 -2.7,-0.1 0.1,1.6 2.3,1.5 0.1,1.4 1.8,1.8 0.5,2.5 -2.6,1.4 1.6,1.5 5.8,-1.7 3.7,6.2 z" />
    <path
       id="VT"
       d="m 832.7,111.3 2.4,6.5 0.8,5.3 -1,3.9 2.5,4.4 0.9,2.3 -0.7,2.6 3.3,1.5 2.9,10.8 v 5.3 l 11.5,-2.1 -1,-1.1 0.6,-1.9 0.2,-4.3 -1,-1.4 0.2,-4.7 0.8,-9.3 v -8.5 l -1.1,-1.8 v -1.6 l 2.8,-1.1 3.5,-4.4 v -3.6 l -1.9,-2.7 -0.3,-5.79 -26.1,6.79 z" />
    <path
       id="WA"
       d="m 74.5,67.7 -2.3,-4.3 -4.1,-0.7 -0.4,-2.4 -2.5,-0.6 -2.9,-0.5 -1.8,1 -2.3,-2.9 0.3,-2.9 2.7,-0.3 1.6,-4 L 60.2,49 60.4,45.3 64.8,44.7 62.1,42 60.6,34.9 61.2,32 v -7.9 l -1.8,-3.2 2.3,-9.4 2.1,0.5 2.4,2.9 2.7,2.6 3.2,1.9 4.5,2.1 3.1,0.6 2.9,1.5 3.4,1 2.3,-0.2 V 22 l 1.3,-1.1 2.1,-1.3 0.3,1.1 0.3,1.8 -2.3,0.5 -0.3,2.1 1.8,1.5 1.1,2.4 0.6,1.9 1.5,-0.2 0.2,-1.3 -1,-1.3 -0.5,-3.2 0.8,-1.8 -0.6,-1.5 V 19 L 95.4,15.4 94.3,12.8 91.9,8 92.2,7.2 93.6,6.4 98,7.9 l 9.7,2.7 8.6,1.9 20,5.7 23,5.7 15,3.49 -4.8,17.56 -4.5,20.83 -3.4,16.25 -0.4,9.18 -12.9,-3.72 -15.3,-3.47 -14.5,0.32 -1.1,-1.53 -5.7,2.09 -3.9,-0.42 -2.6,-1.79 -1.7,0.65 -4.15,-0.25 -1.72,-1.32 -5.16,-1.82 -1.18,-0.16 -4.8,-1.39 -1.92,1.65 -5.65,-0.25 -4.61,-3.35 z m 9.6,-55.4 2,-0.2 0.5,1.4 1.5,-1.6 h 2.3 l 0.8,1.5 -1.5,1.7 0.6,0.8 -0.7,2 -1.4,0.4 c 0,0 -0.9,0.1 -0.9,-0.2 0,-0.3 1.5,-2.6 1.5,-2.6 l -1.7,-0.6 -0.3,1.5 -0.7,0.6 -1.5,-2.3 z" />
    <path
       id="WI"
       d="m 541.4,109.9 2.9,0.5 2.9,-0.6 7.4,-3.2 2.9,-1.9 2.1,-0.8 1.9,1.5 -1.1,1.1 -1.9,3.1 -0.6,1.9 1,0.6 1.8,-1 1.1,-0.2 2.7,0.8 0.6,1.1 1.1,0.2 0.6,-1.1 4,5.3 8.2,1.2 8.2,2.2 2.6,1.1 12.3,2.6 1.6,2.3 3.6,1.2 1.7,10.2 1.6,1.4 1.5,0.9 -1.1,2.3 -1.8,1.6 -2.1,4.7 -1.3,2.4 0.2,1.8 1.5,0.3 1.1,-1.9 1.5,-0.8 0.8,-2.3 1.9,-1.8 2.7,-4 4.2,-6.3 0.8,-0.5 0.3,1 -0.2,2.3 -2.9,6.8 -2.7,5.7 -0.5,3.2 -0.6,2.6 0.8,1.3 -0.2,2.7 -1.9,2.4 -0.5,1.8 0.6,3.6 0.6,3.4 -1.5,2.6 -0.8,2.9 -1,3.1 1.1,2.4 0.6,6.1 1.6,4.5 -0.2,3 -15.9,1.8 -17.5,1 H 567 l -0.7,-1.5 -2.9,-0.4 -2.6,-1.3 -2.3,-3.7 -0.3,-3.6 2,-2.9 -0.5,-1.4 -2.1,-2.2 -0.8,-3.3 -0.6,-6.8 -2.1,-2.5 -7,-4.5 -3.8,-5.4 -3.4,-1 -2.2,-2.8 h -3.2 l -2.9,-3.3 -0.5,-6.5 0.1,-3.8 1.5,-3.1 -0.8,-3.2 -2.5,-2.8 1.8,-5.4 5.2,-3.8 1.6,-1.9 -0.2,-8.1 0.2,-2.8 2.4,-2.8 z" />
    <path
       id="WV"
       d="m 758.9,254.3 5.8,-6 2.6,-0.8 1.6,-1.5 1.5,-2.2 1.1,0.3 3.1,-0.2 4.6,-3.6 1.5,-0.5 1.3,1 2.6,1.2 3,3 -0.4,4.3 -5.4,-2.6 -4.8,-1.8 -0.1,5.9 -2.6,5.7 -2.9,2.4 -0.8,2.3 -3,0.5 -1.7,8.1 -2.8,0.2 -1.1,-1 -1.2,-2 -2.2,0.5 -0.5,5.1 -1.8,5.1 -5,11 0.9,1.4 -0.1,2 -2.2,2.5 -1.6,-0.4 -3.1,2.3 -2.8,-0.8 -1.8,4.9 -3.8,1 -2.5,-1.3 -2.5,1.9 -2.3,0.7 -3.2,-0.8 -3.8,-4.5 -3.5,-2.2 -2.5,-2.5 -2.9,-3.7 -0.5,-2.3 -2.8,-1.7 -0.6,-1.3 -0.2,-5.6 0.3,0.1 2.4,-0.2 1.8,-1 V 275 l 1.7,-1.5 0.1,-5.2 0.9,-3.6 1.1,-0.7 0.4,0.3 1,1.1 1.7,0.5 1.1,-1.3 -1,-3.1 v -1.6 l 3.1,-4.6 1.2,-1.3 2,0.5 2.6,-1.8 3.1,-3.4 2.4,-4.1 0.2,-5.6 0.5,-4.8 v -4.9 l -1.1,-3 0.9,-1.3 0.8,-0.7 4.3,19.3 4.3,-0.8 11.2,-1.3 z" />
    <path
       id="WY"
       d="m 353,161.9 -1.5,25.4 -4.4,44 -2.7,-0.3 -83.3,-9.1 -27.9,-3 2,-12 6.9,-41 3.8,-24.2 1.3,-11.2 48.2,7 59.1,6.5 z" />
    <rect
       id="MD-button"
       width="50"
       height="19.999998"
       x="869"
       y="399.39999"
       ry="3"
       rx="3" />
    <rect
       id="DE-button"
       width="50"
       height="19.999998"
       x="869"
       y="374.39999"
       ry="3"
       rx="3" />
    <rect
       id="NJ-button"
       width="50"
       height="19.999998"
       x="869"
       y="349.39999"
       ry="3"
       rx="3" />
    <rect
       id="CT-button"
       width="50"
       height="19.999998"
       x="869"
       y="324.39999"
       ry="3"
       rx="3" />
    <rect
       id="RI-button"
       width="50"
       height="19.999998"
       x="869"
       y="299.39999"
       ry="3"
       rx="3" />
    <rect
       id="MA-button"
       width="50"
       height="19.999998"
       x="869"
       y="274.39999"
       ry="3"
       rx="3" />
    <rect
       id="VT-button"
       width="50"
       height="19.999998"
       x="869"
       y="249.39999"
       ry="3"
       rx="3" />
    <rect
       id="NH-button"
       width="50"
       height="19.999998"
       x="869"
       y="224.39999"
       ry="3"
       rx="3" />
    <rect
       id="HI-button"
       width="50"
       height="19.999998"
       x="250.00002"
       y="553"
       ry="3"
       rx="3" />
    <path
       style="opacity:1;fill:#ffffff;fill-opacity:1"
       d="m 352.40039,187.69922 -4.30078,43.70117 33.05078,3.29883 c 0.0248,-0.022 0.0664,0 0.0996,0 l -1.44922,21.10156 21.69922,1 10.15039,0.29883 7.29883,0.25 c 0,-0.006 -1e-5,-0.0117 0,-0.0176 l 0.10156,0.006 v 0.0117 l 0.44727,0.0117 0.20703,0.0117 0.002,-0.006 12.24219,0.33203 10.15039,0.30078 5.47461,0.0742 0.77539,0.0137 v -0.0508 h 0.0996 v 0.0508 l 10.07617,0.13672 5.47461,0.0762 5.47461,0.0742 5.47461,0.0742 5.47656,0.0762 5.47461,0.0742 h 4.5 l -2.20117,-3 -2.59961,-3.90039 0.0996,-2.29883 -0.44141,-0.85156 h -0.0176 l -1.16015,-2.45117 -1.67969,-4.59766 -0.55469,-6.54492 -0.0684,0.0293 0.002,-0.004 -0.375,-1.47656 -1.30469,-7.80664 -2.29883,-3.69922 -1,-4.69922 -2.80078,-7.90039 -0.625,-3.375 -0.33594,-2.84375 -2.24023,-2.94336 -1.65235,0.0488 -3.24609,-1.48438 -4.80078,-1.5 -2.19922,-1.20117 -2.59961,0.0996 -3.70117,0.40039 -4.10742,1.18945 -0.19141,-0.0215 -5.90039,-4.06836 -2.20117,-2 -10.69922,0.60156 -9.25977,-0.5332 -0.002,-0.01 -0.43359,-0.0156 -0.75391,-0.043 v 0.0176 l -0.10156,-0.004 c -9e-5,-0.005 9e-5,-0.009 0,-0.0137 L 408.75,191.09961 398.375,190.5 381.25,189.42188 c -9.26045,-0.23488 -19.30155,-1.11524 -28.84961,-1.72266 z"
       id="NE" />
  </g>
  <g id="text" style="font-size: 16px; stroke-width: 0px; font-weight: bold; fill: white; text-align: center; cursor: pointer; pointer-events: none; user-select: none; -webkit-user-select: none;">
    <text
       xml:space="preserve"
       text-anchor="middle"
       x="814.8877"
       y="162.8494"
       id="NY-text"><tspan
         id="tspan4864"
         x="814.8877"
         y="162.8494">NY</tspan></text>
    <text
       xml:space="preserve"
       text-anchor="middle"
       x="782.60913"
       y="216.23738"
       id="PA-text"><tspan
         x="782.60913"
         y="216.23738"
         id="tspan8878">PA</tspan></text>
    <text
       xml:space="preserve"
       text-anchor="middle"
       x="698.32819"
       y="248.12125"
       id="OH-text"><tspan
         x="698.32819"
         y="248.12125"
         id="tspan3064">OH</tspan></text>
    <text
       xml:space="preserve"
       text-anchor="middle"
       x="784.26447"
       y="291.04132"
       id="VA-text"><tspan
         x="784.26447"
         y="291.04132"
         id="tspan8922">VA</tspan></text>
    <text
       xml:space="preserve"
       text-anchor="middle"
       x="783.8338"
       y="341.13416"
       id="NC-text"><tspan
         x="783.8338"
         y="341.13416"
         id="tspan8922-1">NC</tspan></text>
    <text
       xml:space="preserve"
       text-anchor="middle"
       x="757.14172"
       y="382.52271"
       id="SC-text"><tspan
         x="757.14172"
         y="382.52271"
         id="tspan8966">SC</tspan></text>
    <text
       xml:space="preserve"
       text-anchor="middle"
       x="711.84692"
       y="414.28403"
       id="GA-text"><tspan
         x="711.84692"
         y="414.28403"
         id="tspan8988">GA</tspan></text>
    <text
       xml:space="preserve"
       text-anchor="middle"
       x="758.54132"
       y="500.95892"
       id="FL-text"><tspan
         x="758.54132"
         y="500.95892"
         id="tspan8988-2">FL</tspan></text>
    <text
       xml:space="preserve"
       text-anchor="middle"
       x="651.42035"
       y="418.85248"
       id="AL-text"><tspan
         x="651.42035"
         y="418.85248"
         id="tspan8988-2-7">AL</tspan></text>
    <text
       xml:space="preserve"
       text-anchor="middle"
       x="597.50781"
       y="425.81815"
       id="MS-text"><tspan
         x="597.50781"
         y="425.81815"
         id="tspan8988-2-9">MS</tspan></text>
    <text
       xml:space="preserve"
       text-anchor="middle"
       x="544.32275"
       y="441.50839"
       id="LA-text"><tspan
         x="544.32275"
         y="441.50839"
         id="tspan8988-2-2">LA</tspan></text>
    <text
       xml:space="preserve"
       text-anchor="middle"
       x="419.85382"
       y="459.53119"
       id="TX-text"><tspan
         x="419.85382"
         y="459.53119"
         id="tspan8988-2-97">TX</tspan></text>
    <text
       xml:space="preserve"
       text-anchor="middle"
       x="297.59476"
       y="382.03018"
       id="NM-text"><tspan
         id="tspan5110"
         x="297.59476"
         y="382.03018">NM</tspan></text>
    <text
       xml:space="preserve"
       text-anchor="middle"
       x="201.99304"
       y="368.85352"
       id="AZ-text"><tspan
         id="tspan5108"
         x="201.99304"
         y="368.85352">AZ</tspan></text>
    <text
       xml:space="preserve"
       text-anchor="middle"
       x="64.013397"
       y="275.97507"
       id="CA-text"><tspan
         id="tspan5102"
         x="64.013397"
         y="275.97507">CA</tspan></text>
    <text
       xml:space="preserve"
       text-anchor="middle"
       x="131.55075"
       y="248.91568"
       id="NV-text"><tspan
         id="tspan5104"
         x="131.55075"
         y="248.91568">NV</tspan></text>
    <text
       xml:space="preserve"
       text-anchor="middle"
       x="221.56534"
       y="265.32205"
       id="UT-text"><tspan
         id="tspan5106"
         x="221.56534"
         y="265.32205">UT</tspan></text>
    <text
       xml:space="preserve"
       text-anchor="middle"
       x="119.52001"
       y="505.03705"
       id="AK-text"><tspan
         x="119.52001"
         y="505.03705"
         id="tspan8988-2-5">AK</tspan></text>
    <text
       xml:space="preserve"
       text-anchor="middle"
       x="93.506927"
       y="133.88765"
       id="OR-text"><tspan
         id="tspan5100"
         x="93.506927"
         y="133.88765">OR</tspan></text>
    <text
       xml:space="preserve"
       text-anchor="middle"
       x="122.78831"
       y="58.577694"
       id="WA-text"><tspan
         id="tspan5088"
         x="122.78831"
         y="58.577694">WA</tspan></text>
    <text
       xml:space="preserve"
       text-anchor="middle"
       x="188.52431"
       y="160.2198"
       id="ID-text"><tspan
         id="tspan5098"
         x="188.52431"
         y="160.2198">ID</tspan></text>
    <text
       xml:space="preserve"
       text-anchor="middle"
       x="283.68491"
       y="101.85352"
       id="MT-text"><tspan
         id="tspan5090"
         x="283.68491"
         y="101.85352">MT</tspan></text>
    <text
       xml:space="preserve"
       text-anchor="middle"
       x="298.27277"
       y="191.68867"
       id="WY-text"><tspan
         id="tspan5096"
         x="298.27277"
         y="191.68867">WY</tspan></text>
    <text
       xml:space="preserve"
       text-anchor="middle"
       x="319.59891"
       y="279.39874"
       id="CO-text"><tspan
         id="tspan5112"
         x="319.59891"
         y="279.39874">CO</tspan></text>
    <text
       xml:space="preserve"
       text-anchor="middle"
       x="413.85223"
       y="100.67806"
       id="ND-text"><tspan
         id="tspan5092"
         x="413.85223"
         y="100.67806">ND</tspan></text>
    <text
       xml:space="preserve"
       text-anchor="middle"
       x="415.24847"
       y="164.29948"
       id="SD-text"><tspan
         id="tspan5094"
         x="415.24847"
         y="164.29948">SD</tspan></text>
    <text
       xml:space="preserve"
       text-anchor="middle"
       x="425.20612"
       y="234.94601"
       id="NE-text"><tspan
         id="tspan5114"
         x="425.20612"
         y="234.94601">NE</tspan></text>
    <text
       xml:space="preserve"
       text-anchor="middle"
       x="434.59491"
       y="301.9035"
       id="KS-text"><tspan
         x="434.59491"
         y="301.9035"
         id="tspan8988-2-43">KS</tspan></text>
    <text
       xml:space="preserve"
       text-anchor="middle"
       x="452.81979"
       y="368.48419"
       id="OK-text"><tspan
         x="452.81979"
         y="368.48419"
         id="tspan8988-2-78">OK</tspan></text>
    <text
       xml:space="preserve"
       text-anchor="middle"
       x="544.0199"
       y="382.51031"
       id="AR-text"><tspan
         x="544.0199"
         y="382.51031"
         id="tspan8988-2-88">AR</tspan></text>
    <text
       xml:space="preserve"
       text-anchor="middle"
       x="539.04913"
       y="303.41293"
       id="MO-text"><tspan
         x="539.04913"
         y="303.41293"
         id="tspan8988-2-31">MO</tspan></text>
    <text
       xml:space="preserve"
       text-anchor="middle"
       x="523.73529"
       y="220.77609"
       id="IA-text"><tspan
         id="tspan5116"
         x="523.73529"
         y="220.77609">IA</tspan></text>
    <text
       xml:space="preserve"
       text-anchor="middle"
       x="502.37958"
       y="130.13158"
       id="MN-text"><tspan
         id="tspan5120"
         x="502.37958"
         y="130.13158">MN</tspan></text>
    <text
       xml:space="preserve"
       text-anchor="middle"
       x="576.83044"
       y="162.74237"
       id="WI-text"><tspan
         id="tspan5122"
         x="576.83044"
         y="162.74237">WI</tspan></text>
    <text
       xml:space="preserve"
       text-anchor="middle"
       x="595.18109"
       y="258.14197"
       id="IL-text"><tspan
         id="tspan5124"
         x="595.18109"
         y="258.14197">IL</tspan></text>
    <text
       xml:space="preserve"
       text-anchor="middle"
       x="645.88141"
       y="257.28656"
       id="IN-text"><tspan
         x="645.88141"
         y="257.28656"
         id="tspan3060">IN</tspan></text>
    <text
       xml:space="preserve"
       text-anchor="middle"
       x="678.39069"
       y="308.4567"
       id="KY-text"><tspan
         x="678.39069"
         y="308.4567"
         id="tspan8988-2-87">KY</tspan></text>
    <text
       xml:space="preserve"
       text-anchor="middle"
       x="646.79797"
       y="351.2027"
       id="TN-text"><tspan
         x="646.79797"
         y="351.2027"
         id="tspan8988-2-72">TN</tspan></text>
    <text
       xml:space="preserve"
       text-anchor="middle"
       x="664.21588"
       y="192.98578"
       id="MI-text"><tspan
         x="664.21588"
         y="192.98578"
         id="tspan8988-2-22">MI</tspan></text>
    <text
       xml:space="preserve"
       text-anchor="middle"
       x="737.2168"
       y="283.3461"
       id="WV-text"><tspan
         x="737.2168"
         y="283.3461"
         id="tspan8988-2-106">WV</tspan></text>
    <text
       xml:space="preserve"
       text-anchor="middle"
       x="892.19257"
       y="89.17794"
       id="ME-text"><tspan
         x="892.19257"
         y="89.17794"
         id="tspan8988-2-59-0-7-1-7-7-5-9-9">ME</tspan></text>
    <text
       xml:space="preserve"
       text-anchor="middle"
       x="892.62915"
       y="415.52402"
       id="MD-text"><tspan
         x="892.62915"
         y="415.52402"
         id="tspan8988-2-59-0">MD</tspan></text>
    <text
       xml:space="preserve"
       text-anchor="middle"
       x="893.57385"
       y="390.56897"
       id="DE-text"><tspan
         x="893.57385"
         y="390.56897"
         id="tspan8988-2-59-0-7">DE</tspan></text>
    <text
       xml:space="preserve"
       text-anchor="middle"
       x="893.81592"
       y="365.29346"
       id="NJ-text"><tspan
         x="893.81592"
         y="365.29346"
         id="tspan8988-2-59-0-7-1">NJ</tspan></text>
    <text
       xml:space="preserve"
       text-anchor="middle"
       x="893.51929"
       y="340.67743"
       id="CT-text"><tspan
         x="893.51929"
         y="340.67743"
         id="tspan8988-2-59-0-7-1-7">CT</tspan></text>
    <text
       xml:space="preserve"
       text-anchor="middle"
       x="893.94397"
       y="315.67743"
       id="RI-text"><tspan
         x="893.94397"
         y="315.67743"
         id="tspan8988-2-59-0-7-1-7-7">RI</tspan></text>
    <text
       xml:space="preserve"
       text-anchor="middle"
       x="894.79114"
       y="291.02237"
       id="MA-text"><tspan
         x="894.79114"
         y="291.02237"
         id="tspan8988-2-59-0-7-1-7-7-5">MA</tspan></text>
    <text
       xml:space="preserve"
       text-anchor="middle"
       x="894.58765"
       y="266.23065"
       id="VT-text"><tspan
         x="894.58765"
         y="266.23065"
         id="tspan8988-2-59-0-7-1-7-7-5-9">VT</tspan></text>
    <text
       xml:space="preserve"
       text-anchor="middle"
       x="894.52069"
       y="240.3492"
       id="NH-text"><tspan
         x="894.52069"
         y="240.3492"
         id="tspan8988-2-59-0-7-1-7-7-5-9-1">NH</tspan></text>
    <text
       xml:space="preserve"
       text-anchor="middle"
       x="275.82144"
       y="569.56445"
       id="HI-text"><tspan
         x="275.82144"
         y="569.56445"
         id="tspan8988-2-59-0-0">HI</tspan></text>
  </g>
</svg>
