<svg width="930px" height="585px" id="svgdata" style="overflow: visible; margin-top: 10px; margin-bottom: 20px;" version="1.1" xmlns="http://www.w3.org/2000/svg" xmlns:cc="http://creativecommons.org/ns#" xmlns:dc="http://purl.org/dc/elements/1.1/" xmlns:rdf="http://www.w3.org/1999/02/22-rdf-syntax-ns#">
  <defs id="svgdefinitions">
  </defs>
  <g id="outlines" style="stroke: rgb(24, 25, 34); stroke-width: 1.125px;">
   <!-- <path (.+?)/> -->
   <path id="AK" d="m161.1 453.7-0.3 85.4 1.6 1 3.1 0.2 1.5-1.1h2.6l0.2 2.9 7 6.8 0.5 2.6 3.4-1.9 0.6-0.2 0.3-3.1 1.5-1.6 1.1-0.2 1.9-1.5 3.1 2.1 0.6 2.9 1.9 1.1 1.1 2.4 3.9 1.8 3.4 6 2.7 3.9 2.3 2.7 1.5 3.7 5 1.8 5.2 2.1 1 4.4 0.5 3.1-1 3.4-1.8 2.3-1.6-0.8-1.5-3.1-2.7-1.5-1.8-1.1-0.8 0.8 1.5 2.7 0.2 3.7-1.1 0.5-1.9-1.9-2.1-1.3 0.5 1.6 1.3 1.8-0.8 0.8s-0.8-0.3-1.3-1c-0.5-0.6-2.1-3.4-2.1-3.4l-1-2.3s-0.3 1.3-1 1c-0.6-0.3-1.3-1.5-1.3-1.5l1.8-1.9-1.5-1.5v-5h-0.8l-0.8 3.4-1.1 0.5-1-3.7-0.6-3.7-0.8-0.5 0.3 5.7v1.1l-1.5-1.3-3.6-6-2.1-0.5-0.6-3.7-1.6-2.9-1.6-1.1v-2.3l2.1-1.3-0.5-0.3-2.6 0.6-3.4-2.4-2.6-2.9-4.8-2.6-4-2.6 1.3-3.2v-1.6l-1.8 1.6-2.9 1.1-3.7-1.1-5.7-2.4h-5.5l-0.6 0.5-6.5-3.9-2.1-0.3-2.7-5.8-3.6 0.3-3.6 1.5 0.5 4.5 1.1-2.9 1 0.3-1.5 4.4 3.2-2.7 0.6 1.6-3.9 4.4-1.3-0.3-0.5-1.9-1.3-0.8-1.3 1.1-2.7-1.8-3.1 2.1-1.8 2.1-3.4 2.1-4.7-0.2-0.5-2.1 3.7-0.6v-1.3l-2.3-0.6 1-2.4 2.3-3.9v-1.8l0.2-0.8 4.4-2.3 1 1.3h2.7l-1.3-2.6-3.7-0.3-5 2.7-2.4 3.4-1.8 2.6-1.1 2.3-4.2 1.5-3.1 2.6-0.3 1.6 2.3 1 0.8 2.1-2.7 3.2-6.5 4.2-7.8 4.2-2.1 1.1-5.3 1.1-5.3 2.3 1.8 1.3-1.5 1.5-0.5 1.1-2.7-1-3.2 0.2-0.8 2.3h-1l0.3-2.4-3.6 1.3-2.9 1-3.4-1.3-2.9 1.9h-3.2l-2.1 1.3-1.6 0.8-2.1-0.3-2.6-1.1-2.3 0.6-1 1-1.6-1.1v-1.9l3.1-1.3 6.3 0.6 4.4-1.6 2.1-2.1 2.9-0.6 1.8-0.8 2.7 0.2 1.6 1.3 1-0.3 2.3-2.7 3.1-1 3.4-0.6 1.3-0.3 0.6 0.5h0.8l1.3-3.7 4-1.5 1.9-3.7 2.3-4.5 1.6-1.5 0.3-2.6-1.6 1.3-3.4 0.6-0.6-2.4-1.3-0.3-1 1-0.2 2.9-1.5-0.2-1.5-5.8-1.3 1.3-1.1-0.5-0.3-1.9-4 0.2-2.1 1.1-2.6-0.3 1.5-1.5 0.5-2.6-0.6-1.9 1.5-1 1.3-0.2-0.6-1.8v-4.4l-1-1-0.8 1.5h-6.1l-1.5-1.3-0.6-3.9-2.1-3.6v-1l2.1-0.8 0.2-2.1 1.1-1.1-0.8-0.5-1.3 0.5-1.1-2.7 1-5 4.5-3.2 2.6-1.6 1.9-3.7 2.7-1.3 2.6 1.1 0.3 2.4 2.4-0.3 3.2-2.4 1.6 0.6 1 0.6h1.6l2.3-1.3 0.8-4.4s0.3-2.9 1-3.4c0.6-0.5 1-1 1-1l-1.1-1.9-2.6 0.8-3.2 0.8-1.9-0.5-3.6-1.8-5-0.2-3.6-3.7 0.5-3.9 0.6-2.4-2.1-1.8-1.9-3.7 0.5-0.8 6.8-0.5h2.1l1 1h0.6l-0.2-1.6 3.9-0.6 2.6 0.3 1.5 1.1-1.5 2.1-0.5 1.5 2.7 1.6 5 1.8 1.8-1-2.3-4.4-1-3.2 1-0.8-3.4-1.9-0.5-1.1 0.5-1.6-0.8-3.9-2.9-4.7-2.4-4.2 2.9-1.9h3.2l1.8 0.6 4.2-0.2 3.7-3.6 1.1-3.1 3.7-2.4 1.6 1 2.7-0.6 3.7-2.1 1.1-0.2 1 0.8 4.5-0.2 2.7-3.1h1.1l3.6 2.4 1.9 2.1-0.5 1.1 0.6 1.1 1.6-1.6 3.9 0.3 0.3 3.7 1.9 1.5 7.1 0.6 6.3 4.2 1.5-1 5.2 2.6 2.1-0.6 1.9-0.8 4.8 1.9zm-115.1 28.9 2.1 5.3-0.2 1-2.9-0.3-1.8-4-1.8-1.5h-2.4l-0.2-2.6 1.8-2.4 1.1 2.4 1.5 1.5zm-2.6 33.5 3.7 0.8 3.7 1 0.8 1-1.6 3.7-3.1-0.2-3.4-3.6zm-34.4 59 3.4-2.3 3.4-1 2.6 0.3 0.5 1.6 1.9 0.5 1.9-1.9-0.3-1.6 2.7-0.6 2.9 2.6-1.1 1.8-4.4 1.1-2.7-0.5-3.7-1.1-4.4 1.5-1.6 0.3zm48.9-4.5 1.6 1.9 2.1-1.6-1.5-1.3zm35.3-11.4 1.1 5.8 2.9 0.8 5-2.9 4.4-2.6-1.6-2.4 0.5-2.4-2.1 1.3-2.9-0.8 1.6-1.1 1.9 0.8 3.9-1.8 0.5-1.5-2.4-0.8 0.8-1.9-2.7 1.9-4.7 3.6-4.8 2.9zm42.3-19.8 2.4-1.5-1-1.8-1.8 1z"/>
   <path id="HI" d="m233.1 519.3 1.9-3.6 2.3-0.3 0.3 0.8-2.1 3.1zm10.2-3.7 6.1 2.6 2.1-0.3 1.6-3.9-0.6-3.4-4.2-0.5-4 1.8zm30.7 10 3.7 5.5 2.4-0.3 1.1-0.5 1.5 1.3 3.7-0.2 1-1.5-2.9-1.8-1.9-3.7-2.1-3.6-5.8 2.9zm20.2 8.9 1.3-1.9 4.7 1 0.6-0.5 6.1 0.6-0.3 1.3-2.6 1.5-4.4-0.3zm5.3 5.2 1.9 3.9 3.1-1.1 0.3-1.6-1.6-2.1-3.7-0.3zm7-1.2 2.3-2.9 4.7 2.4 4.4 1.1 4.4 2.7v1.9l-3.6 1.8-4.8 1-2.4-1.5zm16.6 15.6 1.6-1.3 3.4 1.6 7.6 3.6 3.4 2.1 1.6 2.4 1.9 4.4 4 2.6-0.3 1.3-3.9 3.2-4.2 1.5-1.5-0.6-3.1 1.8-2.4 3.2-2.3 2.9-1.8-0.2-3.6-2.6-0.3-4.5 0.6-2.4-1.6-5.7-2.1-1.8-0.2-2.6 2.3-1 2.1-3.1 0.5-1-1.6-1.8z"/>
   <path id="AL" d="m628.5 466.4 0.6 0.2 1.3-2.7 1.5-4.4 2.3 0.6 3.1 6v1l-2.7 1.9 2.7 0.3 5.2-2.5-0.3-7.6-2.5-1.8-2-2 0.4-4 10.5-1.5 25.7-2.9 6.7-0.6 5.6 0.1-0.5-2.2-1.5-0.8-0.9-1.1 1-2.6-0.4-5.2-1.6-4.5 0.8-5.1 1.7-4.8-0.2-1.7-1.8-0.7-0.5-3.6-2.7-3.4-2-6.5-1.4-6.7-1.8-5-3.8-16-3.5-7.9-0.8-5.6 0.1-2.2-9 0.8-23.4 2.2-12.2 0.8-0.2 6.4 0.2 16.7-0.7 31-0.3 14.1 2.8 18.8 1.6 14.7z"/>
   <path id="AR" d="m587.3 346.1-6.4-0.7 0.9-3.1 3.1-2.6 0.6-2.3-1.8-2.9-31.9 1.2-23.3 0.7-23.6 0.3 1.5 6.9 0.1 8.5 1.4 10.9 0.3 38.2 2.1 1.6 3-1.2 2.9 1.2 0.4 10.1 25.2-0.2 26.8-0.8 0.9-1.9-0.3-3.8-1.7-3.1 1.5-1.4-1.4-2.2 0.7-2.4 1.1-5.9 2.7-2.3-0.8-2.2 4-5.6 2.5-1.1-0.1-1.7-0.5-1.7 2.9-5.8 2.5-1.1 0.2-3.3 2.1-1.4 0.9-4.1-1.4-4 4.2-2.4 0.3-2.1 1.2-4.2 0.9-3.1z"/>
   <path id="AZ" d="m135.1 389.7-0.3 1.5 0.5 1 18.9 10.7 12.1 7.6 14.7 8.6 16.8 10 12.3 2.4 25.4 2.7 6-39.6 7-53.1 4.4-31-24.6-3.6-60.7-11-0.2 1.1-2.6 16.5-2.1 3.8-2.8-0.2-1.2-2.6-2.6-0.4-1.2-1.1-1.1 0.1-2.1 1.7-0.3 6.8-0.3 1.5-0.5 12.5-1.5 2.4-0.4 3.3 2.8 5 1.1 5.5 0.7 1.1 1.1 0.9-0.4 2.4-1.7 1.2-3.4 1.6-1.6 1.8-1.6 3.6-0.5 4.9-3 2.9-1.9 0.9-0.1 5.8-0.6 1.6 0.5 0.8 3.9 0.4-0.9 3-1.7 2.4-3.7 0.4z"/>
   <path id="CA" d="m122.7 385.9-19.7-2.7-10-1.5-0.5-1.8v-9.4l-0.3-3.2-2.6-4.2-0.8-2.3-3.9-4.2-2.9-4.7-2.7-0.2-3.2-0.8-0.3-1 1.5-0.6-0.6-3.2-1.5-2.1-4.8-0.8-3.9-2.1-1.1-2.3-2.6-4.8-2.9-3.1h-2.9l-3.9-2.1-4.5-1.8-4.2-0.5-2.4-2.7 0.5-1.9 1.8-7.1 0.8-1.9v-2.4l-1.6-1-0.5-2.9-1.5-2.6-3.4-5.8-1.3-3.1-1.5-4.7-1.6-5.3-3.2-4.4-0.5-2.9 0.8-3.9h1.1l2.1-1.6 1.1-3.6-1-2.7-2.7-0.5-1.9-2.6-2.1-3.7-0.2-8.2 0.6-1.9 0.6-2.3 0.5-2.4-5.7-6.3v-2.1l0.3-0.5 0.3-3.2-1.3-4-2.3-4.8-2.7-4.5-1.8-3.9 1-3.7 0.6-5.8 1.8-3.1 0.3-6.5-1.1-3.6-1.6-4.2-2.7-4.2 0.8-3.2 1.5-4.2 1.8-0.8 0.3-1.1 3.1-2.6 5.2-11.8 0.2-7.4 1.69-4.9 38.69 11.8 25.6 6.6-8 31.3-8.67 33.1 12.63 19.2 42.16 62.3 17.1 26.1-0.4 3.1 2.8 5.2 1.1 5.4 1 1.5 0.7 0.6-0.2 1.4-1.4 1-3.4 1.6-1.9 2.1-1.7 3.9-0.5 4.7-2.6 2.5-2.3 1.1-0.1 6.2-0.6 1.9 1 1.7 3 0.3-0.4 1.6-1.4 2-3.9 0.6zm-73.9-48.9 1.3 1.5-0.2 1.3-3.2-0.1-0.6-1.2-0.6-1.5zm1.9 0 1.2-0.6 3.6 2.1 3.1 1.2-0.9 0.6-4.5-0.2-1.6-1.6zm20.7 19.8 1.8 2.3 0.8 1 1.5 0.6 0.6-1.5-1-1.8-2.7-2-1.1 0.2v1.2zm-1.4 8.7 1.8 3.2 1.2 1.9-1.5 0.2-1.3-1.2s-0.7-1.5-0.7-1.9v-2.2z"/>
   <path id="CO" d="m380.2 235.5-36-3.5-79.1-8.6-2.2 22.1-7 50.4-1.9 13.7 34 3.9 37.5 4.4 34.7 3 14.3 0.6z"/>
   <path id="CT" d="m852 190.9 3.6-3.2 1.9-2.1 0.8 0.6 2.7-1.5 5.2-1.1 7-3.5-0.6-4.2-0.8-4.4-1.6-6-4.3 1.1-21.8 4.7 0.6 3.1 1.5 7.3v8.3l-0.9 2.1 1.7 2.2z"/>
   <path id="DE" d="m834.4 247.2-1 0.5-3.6-2.4-1.8-4.7-1.9-3.6-2.3-1-2.1-3.6 0.5-2 0.5-2.3 0.1-1.1-0.6 0.1-1.7 1-2 1.7-0.2 0.3 1.4 4.1 2.3 5.6 3.7 16.1 5-0.3 6-1.1z"/>
   <path id="FL" d="m750.2 445.2-5.2-0.7-0.7 0.8 1.5 4.4-0.4 5.2-4.1-1-0.2-2.8h-4.1l-5.3 0.7-32.4 1.9-8.2-0.3-1.7-1.7-2.5-4.2h-5.9l-6.6 0.5-35.4 4.2-0.3 2.8 1.6 1.6 2.9 2 0.3 8.4 3.3-0.6 6-2.1 6-0.5 4.4-0.6 7.6 1.8 8.1 3.9 1.6 1.5 2.9 1.1 1.6 1.9 0.3 2.7 3.2-1.3h3.9l3.6-1.9 3.7-3.6 3.1 0.2 0.5-1.1-0.8-1 0.2-1.9 4-0.8h2.6l2.9 1.5 4.2 1.5 2.4 3.7 2.7 1 1.1 3.4 3.4 1.6 1.6 2.6 1.9 0.6 5.2 1.3 1.3 3.1 3 3.7v9.5l-1.5 4.7 0.3 2.7 1.3 4.8 1.8 4 0.8-0.5 1.5-4.5-2.6-1-0.3-0.6 1.6-0.6 4.5 1 0.2 1.6-3.2 5.5-2.1 2.4 3.6 3.7 2.6 3.1 2.9 5.3 2.9 3.9 2.1 5 1.8 0.3 1.6-2.1 1.8 1.1 2.6 4 0.6 3.6 3.1 4.4 0.8-1.3 3.9 0.3 3.6 2.3 3.4 5.2 0.8 3.4 0.3 2.9 1.1 1 1.3 0.5 2.4-1 1.5-1.6 3.9-0.2 3.1-1.5 2.7-3.2-0.5-1.9-0.3-2.4 0.6-1.9-0.3-1.9 2.4-1.3 0.3-3.4-0.6-1.8-0.5-12-1.3-7.6-4.5-8.2-3.6-5.8-2.6-5.3-2.9-2.9-2.9-7.4 0.7-1.4 1.1-1.3-1.6-2.9-4-3.7-4.8-5.5-3.7-6.3-5.3-9.4-3.7-9.7-2.3-7.3zm17.7 132.7 2.4-0.6 1.3-0.2 1.5-2.3 2.3-1.6 1.3 0.5 1.7 0.3 0.4 1.1-3.5 1.2-4.2 1.5-2.3 1.2zm13.5-5 1.2 1.1 2.7-2.1 5.3-4.2 3.7-3.9 2.5-6.6 1-1.7 0.2-3.4-0.7 0.5-1 2.8-1.5 4.6-3.2 5.3-4.4 4.2-3.4 1.9z"/>
   <path id="GA" d="m750.2 444.2-5.6-0.7-1.4 1.6 1.6 4.7-0.3 3.9-2.2-0.6-0.2-3h-5.2l-5.3 0.7-32.3 1.9-7.7-0.3-1.4-1.2-2.5-4.3-0.8-3.3-1.6-0.9-0.5-0.5 0.9-2.2-0.4-5.5-1.6-4.5 0.8-4.9 1.7-4.8-0.2-2.5-1.9-0.7-0.4-3.2-2.8-3.5-1.9-6.2-1.5-7-1.7-4.8-3.8-16-3.5-8-0.8-5.3 0.1-2.3 3.3-0.3 13.6-1.6 18.6-2 6.3-1.1 0.5 1.4-2.2 0.9-0.9 2.2 0.4 2 1.4 1.6 4.3 2.7 3.2-0.1 3.2 4.7 0.6 1.6 2.3 2.8 0.5 1.7 4.7 1.8 3 2.2 2.3 3 2.3 1.3 2 1.8 1.4 2.7 2.1 1.9 4.1 1.8 2.7 6 1.7 5.1 2.8 0.7 2.1 1.9 2 5.7 2.9 1.6 1.7-0.8 0.4 1.2-3.3 6.2 0.5 2.6-1.5 4.2-2.3 10 0.8 6.3z"/>
   <path id="IA" d="m556.8 183.6 2.1 2.1 0.3 0.7-2 3 0.3 4 2.6 4.1 3.1 1.6 2.4 0.3 0.9 1.8 0.2 2.4 2.5 1 0.9 1.1 0.5 1.6 3.8 3.3 0.6 1.9-0.7 3-1.7 3.7-0.6 2.4-2.1 1.6-1.6 0.5-5.7 1.5-1.6 4.8 0.8 1.8 1.7 1.5-0.2 3.5-1.9 1.4-0.7 1.8v2.4l-1.4 0.4-1.7 1.4-0.5 1.7 0.4 1.7-1.3 1-2.3-2.7-1.4-2.8-8.3 0.8-10 0.6-49.2 1.2-1.6-4.3-0.4767-6.85339-1.43835-6.15578-0.585-3.091-2.2-3.7-1-4.6-2.7-7.8-0.86991-6.25192-2.93-4.148 1.7-3.8 1.2-6.1-2.7-2.2-0.3-2.4 0.7-2.4 1.8-0.3 61.1-0.6 21.2-0.7z"/>
   <path id="ID" d="m175.3 27.63-4.8 17.41-4.5 20.86-3.4 16.22-0.4 9.67 1.2 4.44 3.5 2.66-0.2 3.91-3.9 4.4-4.5 6.6-0.9 2.9-1.2 1.1-1.8 0.8-4.3 5.3-0.4 3.1-0.4 1.1 0.6 1 2.6-0.1 1.1 2.3-2.4 5.8-1.2 4.2-8.8 35.3 20.7 4.5 39.5 7.9 34.8 6.1 4.9-29.2 3.8-24.1-2.7-2.4-0.4-2.6-0.8-1.1-2.1 1-0.7 2.6-3.2 0.5-3.9-1.6-3.8 0.1-2.5 0.7-3.4-1.5-2.4 0.2-2.4 2-2-1.1-0.7-4 0.7-2.9-2.5-2.9-3.3-2.6-2.7-13.1-0.1-4.7-0.3-0.1-0.2 0.4-5.1 3.5-1.7-0.2-2.9-3.4-0.2-3.1 7-17.13-0.4-1.94-3.4-1.15-0.6-1.18-2.6-3.46-4.6-10.23-3.2-1.53-2-4.95 1.3-4.63-3.2-7.58 4.4-21.52z"/>
   <path id="IL" d="m618.7 214.3-0.8-2.6-1.3-3.7-1.6-1.8-1.5-2.6-0.4-5.5-15.9 1.8-17.4 1h-12.3l0.2 2.1 2.2 0.9 1.1 1.4 0.4 1.4 3.9 3.4 0.7 2.4-0.7 3.3-1.7 3.7-0.8 2.7-2.4 1.9-1.9 0.6-5.2 1.3-1.3 4.1 0.6 1.1 1.9 1.8-0.2 4.3-2.1 1.6-0.5 1.3v2.8l-1.8 0.6-1.4 1.2-0.4 1.2 0.4 2-1.6 1.3-0.9 2.8 0.3 3.9 2.3 7 7 7.6 5.7 3.7v4.4l0.7 1.2 6.6 0.6 2.7 1.4-0.7 3.5-2.2 6.2-0.8 3 2 3.7 6.4 5.3 4.8 0.8 2.2 5.1 2 3.4-0.9 2.8 1.5 3.8 1.7 2.1 1.6-0.3 1-2.2 2.4-1.7 2.8-1 6.1 2.5 0.5-0.2v-1.1l-1.2-2.7 0.4-2.8 2.4-1.6 3.4-1.2-0.5-1.3-0.8-2 1.2-1.3 1-2.7v-4l0.4-4.9 2.5-3 1.8-3.8 2.5-4-0.5-5.3-1.8-3.2-0.3-3.3 0.8-5.3-0.7-7.2-1.1-15.8-1.4-15.3-0.9-11.7z"/>
   <path id="IN" d="m622.9 216.1 1.5 1 1.1-0.3 2.1-1.9 2.5-1.8 14.3-1.1 18.4-1.8 1.6 15.5 4.9 42.6-0.6 2.9 1.3 1.6 0.2 1.3-2.3 1.6-3.6 1.7-3.2 0.4-0.5 4.8-4.7 3.6-2.9 4 0.2 2.4-0.5 1.4h-3.5l-1.4-1.7-5.2 3 0.2 3.1-0.9 0.2-0.5-0.9-2.4-1.7-3.6 1.5-1.4 2.9-1.2-0.6-1.6-1.8-4.4 0.5-5.7 1-2.5 1.3v-2.6l0.4-4.7 2.3-2.9 1.8-3.9 2.7-4.2-0.5-5.8-1.8-3.1-0.3-3.2 0.8-5.3-0.7-7.1-0.9-12.6-2.5-30.1z"/>
   <path id="KS" d="m485.9 259.5-43.8-0.6-40.6-1.2-21.7-0.9-4.3 64.8 24.3 1 44.7 2.1 46.3 0.6 12.6-0.3 0.7-35-1.2-11.1-2.5-2-2.4-3-2.3-3.6 0.6-3 1.7-1.4v-2.1l-0.8-0.7-2.6-0.2-3.5-3.4z"/>
   <path id="KY" d="m607.2 331.8 12.6-0.7 0.1-4.1h4.3l30.4-3.2 45.1-4.3 5.6-3.6 3.9-2.1 0.1-1.9 6-7.8 4.1-3.6 2.1-2.4-3.3-2-2.5-2.7-3-3.8-0.5-2.2-2.6-1.4-0.9-1.9-0.2-6.1-2.6-2-1.9-1.1-0.5-2.3-1.3 0.2-2 1.2-2.5 2.7-1.9-1.7-2.5-0.5-2.4 1.4h-2.3l-1.8-2-5.6-0.1-1.8-4.5-2.9-1.5-2.1 0.8-4.2 0.2-0.5 2.1 1.2 1.5 0.3 2.1-2.8 2-3.8 1.8-2.6 0.4-0.5 4.5-4.9 3.6-2.6 3.7 0.2 2.2-0.9 2.3-4.5-0.1-1.3-1.3-3.9 2.2 0.2 3.3-2.4 0.6-0.8-1.4-1.7-1.2-2.7 1.1-1.8 3.5-2.2-1-1.4-1.6-3.7 0.4-5.6 1-2.8 1.3-1.2 3.4-1 1 1.5 3.7-4.2 1.4-1.9 1.4-0.4 2.2 1.2 2.4v2.2l-1.6 0.4-6.1-2.5-2.3 0.9-2 1.4-0.8 1.8 1.7 2.4-0.9 1.8-0.1 3.3-2.4 1.3-2.1 1.7z"/>
   <path id="LA" d="m526.9 485.9 8.1-0.3 10.3 3.6 6.5 1.1 3.7-1.5 3.2 1.1 3.2 1 0.8-2.1-3.2-1.1-2.6 0.5-2.7-1.6 0.8-1.5 3.1-1 1.8 1.5 1.8-1 3.2 0.6 1.5 2.4 0.3 2.3 4.5 0.3 1.8 1.8-0.8 1.6-1.3 0.8 1.6 1.6 8.4 3.6 3.6-1.3 1-2.4 2.6-0.6 1.8-1.5 1.3 1 0.8 2.9-2.3 0.8 0.6 0.6 3.4-1.3 2.3-3.4 0.8-0.5-2.1-0.3 0.8-1.6-0.2-1.5 2.1-0.5 1.1-1.3 0.6 0.8 0.6 3.1 4.2 0.6 4 1.9 1 1.5h2.9l1.1 1 2.3-3.1v-1.5h-1.3l-3.4-2.7-5.8-0.8-3.2-2.3 1.1-2.7 2.3 0.3 0.2-0.6-1.8-1v-0.5h3.2l1.8-3.1-1.3-1.9-0.3-2.7-1.5 0.2-1.9 2.1-0.6 2.6-3.1-0.6-1-1.8 1.8-1.9 1.9-1.7-2.2-6.5-3.4-3.4 1-7.3-0.2-0.5-1.3 0.2-33.1 1.4-0.8-2.4 0.8-8.5 8.6-14.8-0.9-2.6 1.4-0.4 0.4-2-2.2-2 0.1-1.9-2-4.5-0.4-5.1 0.1-0.7-26.4 0.8-25.2 0.1 0.4 9.7 0.7 9.5 0.5 3.7 2.6 4.5 0.9 4.4 4.3 6 0.3 3.1 0.6 0.8-0.7 8.3-2.8 4.6 1.2 2.4-0.5 2.6-0.8 7.3-1.3 3 0.2 3.7z"/>
   <path id="MA" d="m887.5 172.5-0.5-2.3 0.8-1.5 2.9-1.5 0.8 3.1-0.5 1.8-2.4 1.5v1l1.9-1.5 3.9-4.5 3.9-1.9 4.2-1.5-0.3-2.4-1-2.9-1.9-2.4-1.8-0.8-2.1 0.2-0.5 0.5 1 1.3 1.5-0.8 2.1 1.6 0.8 2.7-1.8 1.8-2.3 1-3.6-0.5-3.9-6-2.3-2.6h-1.8l-1.1 0.8-1.9-2.6 0.3-1.5 2.4-5.2-2.9-4.4-3.7 1.8-1.8 2.9-18.3 4.7-13.8 2.5-0.6 10.6 0.7 4.9 22-4.8 11.2-2.8 2 1.6 3.4 4.3 2.9 4.7zm12.5 1.4 2.2-0.7 0.5-1.7 1 0.1 1 2.3-1.3 0.5-3.9 0.1zm-9.4 0.8 2.3-2.6h1.6l1.8 1.5-2.4 1-2.2 1z"/>
   <path id="MD" d="m834.8 264.1 1.7-3.8 0.5-4.8-6.3 1.1-5.8 0.3-3.8-16.8-2.3-5.5-1.5-4.6-22.2 4.3-37.6 7.6 2 10.4 4.8-4.9 2.5-0.7 1.4-1.5 1.8-2.7 1.6 0.7 2.6-0.2 2.6-2.1 2-1.5 2.1-0.6 1.5 1.1 2.7 1.4 1.9 1.8 1.3 1.4 4.8 1.6-0.6 2.9 5.8 2.1 2.34863 1.12715 1.50476 1.76606-0.854 3.607-1.8 2.6v2.1l0.3 0.8 2 1.3 3.4 1.1 4.3-0.1 3.1 1 2.1 0.3 1-2.1-1.5-2.1v-1.8l-2.4-2.1-2.1-5.5 1.3-5.3-0.2-2.1-1.3-1.3s1.5-1.6 1.5-2.3c0-0.6 0.5-2.1 0.5-2.1l1.9-1.3 1.9-1.6 0.5 1-1.5 1.6-1.3 3.7 0.3 1.1 1.8 0.3 0.5 5.5-2.1 1 0.3 3.6 0.5-0.2 1.1-1.9 1.6 1.8-1.6 1.3-0.3 3.4 2.6 3.4 3.9 0.5 1.6-0.8 3.2 4.2 1 0.4zm-14.5 0.2 1.1 2.5 0.2 1.8 1.1 1.9s0.9-0.9 0.9-1.2-0.7-3.1-0.7-3.1l-0.7-2.3z"/>
   <path id="MI" d="m644.5 211 19.1-1.9 0.2 1.1 9.9-1.5 12-1.7 0.1-0.6 0.2-1.5 2.1-3.7 2-1.7-0.2-5.1 1.6-1.6 1.1-0.3 0.2-3.6 1.5-3 1.1 0.6 0.2 0.6 0.8 0.2 1.9-1-0.4-9.1-3.2-8.2-2.3-9.1-2.4-3.2-2.6-1.8-1.6 1.1-3.9 1.8-1.9 5-2.7 3.7-1.1 0.6-1.5-0.6s-2.6-1.5-2.4-2.1 0.5-5 0.5-5l3.4-1.3 0.8-3.4 0.6-2.6 2.4-1.6-0.3-10-1.6-2.3-1.3-0.8-0.8-2.1 0.8-0.8 1.6 0.3 0.2-1.6-2.6-2.2-1.3-2.6h-2.6l-4.5-1.5-5.5-3.4h-2.7l-0.6 0.6-1-0.5-3.1-2.3-2.9 1.8-2.9 2.3 0.3 3.6 1 0.3 2.1 0.5 0.5 0.8-2.6 0.8-2.6 0.3-1.5 1.8-0.3 2.1 0.3 1.6 0.3 5.5-3.6 2.1-0.6-0.2v-4.2l1.3-2.4 0.6-2.4-0.8-0.8-1.9 0.8-1 4.2-2.7 1.1-1.8 1.9-0.2 1 0.6 0.8-0.6 2.6-2.3 0.5v1.1l0.8 2.4-1.1 6.1-1.6 4 0.6 4.7 0.5 1.1-0.8 2.4-0.3 0.8-0.3 2.7 3.6 6 2.9 6.5 1.5 4.8-0.8 4.7-1 6-2.4 5.2-0.3 2.7-3.2 3.1zm-33.3-72.4-1.3-1.1-1.8-10.4-3.7-1.3-1.7-2.3-12.6-2.8-2.8-1.1-8.1-2.2-7.8-1-3.9-5.3 0.7-0.5 2.7-0.8 3.6-2.3v-1l0.6-0.6 6-1 2.4-1.9 4.4-2.1 0.2-1.3 1.9-2.9 1.8-0.8 1.3-1.8 2.3-2.3 4.4-2.4 4.7-0.5 1.1 1.1-0.3 1-3.7 1-1.5 3.1-2.3 0.8-0.5 2.4-2.4 3.2-0.3 2.6 0.8 0.5 1-1.1 3.6-2.9 1.3 1.3h2.3l3.2 1 1.5 1.1 1.5 3.1 2.7 2.7 3.9-0.2 1.5-1 1.6 1.3 1.6 0.5 1.3-0.8h1.1l1.6-1 4-3.6 3.4-1.1 6.6-0.3 4.5-1.9 2.6-1.3 1.5 0.2v5.7l0.5 0.3 2.9 0.8 1.9-0.5 6.1-1.6 1.1-1.1 1.5 0.5v7l3.2 3.1 1.3 0.6 1.3 1-1.3 0.3-0.8-0.3-3.7-0.5-2.1 0.6-2.3-0.2-3.2 1.5h-1.8l-5.8-1.3-5.2 0.2-1.9 2.6-7 0.6-2.4 0.8-1.1 3.1-1.3 1.1-0.5-0.2-1.5-1.6-4.5 2.4h-0.6l-1.1-1.6-0.8 0.2-1.9 4.4-1 4-3.2 6.9zm-29.6-56.5 1.8-2.1 2.2-0.8 5.4-3.9 2.3-0.6 0.5 0.5-5.1 5.1-3.3 1.9-2.1 0.9zm86.2 32.1 0.6 2.5 3.2 0.2 1.3-1.2s-0.1-1.5-0.4-1.6c-0.3-0.2-1.6-1.9-1.6-1.9l-2.2 0.2-1.6 0.2-0.3 1.1z"/>
   <path id="MN" d="m464.6 66.79-0.6 3.91v10.27l1.6 5.03 1.9 3.32 0.5 9.93 1.8 13.45 1.8 7.3 0.4 6.4v5.3l-1.6 1.8-1.8 1.3v1.5l0.9 1.7 4.1 3.5 0.7 3.2v35.9l60.3-0.6 21.2-0.7-0.5-6-1.8-2.1-7.2-4.6-3.6-5.3-3.4-0.9-2-2.8h-3.2l-3.5-3.8-0.5-7 0.1-3.9 1.5-3-0.7-2.7-2.8-3.1 2.2-6.1 5.4-4 1.2-1.4-0.2-8 0.2-3 2.6-3 3.8-2.9 1.3-0.2 4.5-5 1.8-0.8 2.3-3.9 2.4-3.6 3.1-2.6 4.8-2 9.2-4.1 3.9-1.8 0.6-2.3-4.4 0.4-0.7 1.1h-0.6l-1.8-3.1-8.9 0.3-1 0.8h-1l-0.5-1.3-0.8-1.8-2.6 0.5-3.2 3.2-1.6 0.8h-3.1l-2.6-1v-2.1l-1.3-0.2-0.5 0.5-2.6-1.3-0.5-2.9-1.5 0.5-0.5 1-2.4-0.5-5.3-2.4-3.9-2.6h-2.9l-1.3-1-2.3 0.6-1.1 1.1-0.3 1.3h-4.8v-2.1l-6.3-0.3-0.3-1.5h-4.8l-1.6-1.6-1.5-6.1-0.8-5.5-1.9-0.8-2.3-0.5-0.6 0.2-0.3 8.2-30.1-0.03z"/>
   <path id="MO" d="m593.1 338.7 0.5-5.9 4.2-3.4 1.9-1v-2.9l0.7-1.6-1.1-1.6-2.4 0.3-2.1-2.5-1.7-4.5 0.9-2.6-2-3.2-1.8-4.6-4.6-0.7-6.8-5.6-2.2-4.2 0.8-3.3 2.2-6 0.6-3-1.9-1-6.9-0.6-1.1-1.9v-4.1l-5.3-3.5-7.2-7.8-2.3-7.3-0.5-4.2 0.7-2.4-2.6-3.1-1.2-2.4-7.7 0.8-10 0.6-48.8 1.2 1.3 2.6-0.1 2.2 2.3 3.6 3 3.9 3.1 3 2.6 0.2 1.4 1.1v2.9l-1.8 1.6-0.5 2.3 2.1 3.2 2.4 3 2.6 2.1 1.3 11.6-0.8 40 0.5 5.7 23.7-0.2 23.3-0.7 32.5-1.3 2.2 3.7-0.8 3.1-3.1 2.5-0.5 1.8 5.2 0.5 4.1-1.1z"/>
   <path id="MS" d="m604.3 472.5 2.6-4.2 1.8 0.8 6.8-1.9 2.1 0.3 1.5 0.8h5.2l0.4-1.6-1.7-14.8-2.8-19 1-45.1-0.2-16.7 0.2-6.3-4.8 0.3-19.6 1.6-13 0.4-0.2 3.2-2.8 1.3-2.6 5.1 0.5 1.6 0.1 2.4-2.9 1.1-3.5 5.1 0.8 2.3-3 2.5-1 5.7-0.6 1.9 1.6 2.5-1.5 1.4 1.5 2.8 0.3 4.2-1.2 2.5-0.2 0.9 0.4 5 2 4.5-0.1 1.7 2.3 2-0.7 3.1-0.9 0.3 0.6 1.9-8.6 15-0.8 8.2 0.5 1.5 24.2-0.7 8.2-0.7 1.9-0.3 0.6 1.4-1 7.1 3.3 3.3 2.2 6.4z"/>
   <path id="MT" d="m361.1 70.77-5.3 57.13-1.3 15.2-59.1-6.6-49-7.1-1.4 11.2-1.9-1.7-0.4-2.5-1.3-1.9-3.3 1.5-0.7 2.5-2.3 0.3-3.8-1.6-4.1 0.1-2.4 0.7-3.2-1.5-3 0.2-2.1 1.9-0.9-0.6-0.7-3.4 0.7-3.2-2.7-3.2-3.3-2.5-2.5-12.6-0.1-5.3-1.6-0.8-0.6 1-4.5 3.2-1.2-0.1-2.3-2.8-0.2-2.8 7-17.15-0.6-2.67-3.5-1.12-0.4-0.91-2.7-3.5-4.6-10.41-3.2-1.58-1.8-4.26 1.3-4.63-3.2-7.57 4.4-21.29 32.7 6.89 18.4 3.4 32.3 5.3 29.3 4 29.2 3.5 30.8 3.07z"/>
   <path id="NC" d="m786.7 357.7-12.7-7.7-3.1-0.8-16.6 2.1-1.6-3-2.8-2.2-16.7 0.5-7.4 0.9-9.2 4.5-6.8 2.7-6.5 1.2-13.4 1.4 0.1-4.1 1.7-1.3 2.7-0.7 0.7-3.8 3.9-2.5 3.9-1.5 4.5-3.7 4.4-2.3 0.7-3.2 4.1-3.8 0.7 1 2.5 0.2 2.4-3.6 1.7-0.4 2.6 0.3 1.8-4 2.5-2.4 0.5-1.8 0.1-3.5 4.4 0.1 38.5-5.6 57.5-12.3 2 4.8 3.6 6.5 2.4 2.4 0.6 2.3-2.4 0.2 0.8 0.6-0.3 4.2-2.6 1.3-0.6 2.1-1.3 2.9-3.7 1.6-2.4-0.3-1.5-0.2-1.6-1.3 0.3 1.3v1h1.9l0.8 1.3-1.9 6.3h4.2l0.6 1.6 2.3-2.3 1.3-0.5-1.9 3.6-3.1 4.8h-1.3l-1.1-0.5-2.7 0.6-5.2 2.4-6.5 5.3-3.4 4.7-1.9 6.5-0.5 2.4-4.7 0.5-5.1 1.5zm49.3-26.2 2.6-2.5 3.2-2.6 1.5-0.6 0.2-2-0.6-6.1-1.5-2.3-0.6-1.9 0.7-0.2 2.7 5.5 0.4 4.4-0.2 3.4-3.4 1.5-2.8 2.4-1.1 1.2z"/>
   <path id="ND" d="m471 126.4-0.4-6.2-1.8-7.3-1.8-13.61-0.5-9.7-1.9-3.18-1.6-5.32v-10.41l0.6-3.85-1.8-5.54-28.6-0.59-18.6-0.6-26.5-1.3-25.2-2.16-0.9 14.42-4.7 50.94 56.8 3.9 56.9 1.7z"/>
   <path id="NH" d="m881.7 141.3 1.1-3.2-2.7-1.2-0.5-3.1-4.1-1.1-0.3-3-11.7-37.48-0.7 0.08-0.6 1.6-0.6-0.5-1-1-1.5 1.9-0.2 2.29 0.5 8.41 1.9 2.8v4.3l-3.9 4.8-2.4 0.9v0.7l1.1 1.9v8.6l-0.8 9.2-0.2 4.7 1 1.4-0.2 4.7-0.5 1.5 1 1.1 5.1-1.2 13.8-3.5 1.7-2.9 4-1.9z"/>
   <path id="NJ" d="m823.7 228.3 0.1-1.5 2.7-1.3 1.7-2.8 1.7-2.4 3.3-3.2v-1.2l-6.1-4.1-1-2.7-2.7-0.3-0.1-0.9-0.7-2.2 2.2-1.1 0.2-2.9-1.3-1.3 0.2-1.2 1.9-3.1v-3.1l2.5-3.1 5.6 2.5 6.4 1.9 2.5 1.2 0.1 1.8-0.5 2.7 0.4 4.5-2.1 1.9-1.1 1 0.5 0.5 2.7-0.3 1.1-0.8 1.6 3.4 0.2 9.4 0.6 1.1-1.1 5.5-3.1 6.5-2.7 4-0.8 4.8-2.1 2.4h-0.8l-0.3-2.7 0.8-1-0.2-1.5-4-0.6-4.8-2.3-3.2-2.9-1-2z"/>
   <path id="NM" d="m270.2 429.4-16.7-2.6-1.2 9.6-15.8-2 6-39.7 7-53.2 4.4-30.9 34 3.9 37.4 4.4 32 2.8-0.3 10.8-1.4-0.1-7.4 97.7-28.4-1.8-38.1-3.7 0.7 6.3z"/>
   <path id="NV" d="m123.1 173.6 38.7 8.5 26 5.2-10.6 53.1-5.4 29.8-3.3 15.5-2.1 11.1-2.6 16.4-1.7 3.1-1.6-0.1-1.2-2.6-2.8-0.5-1.3-1.1-1.8 0.1-0.9 0.8-1.8 1.3-0.3 7.3-0.3 1.5-0.5 12.4-1.1 1.8-16.7-25.5-42.1-62.1-12.43-19 8.55-32.6 8.01-31.3z"/>
   <path id="NY" d="m843.4 200 0.5-2.7-0.2-2.4-3-1.5-6.5-2-6-2.6-0.6-0.4-2.7-0.3-2-1.5-2.1-5.9-3.3-0.5-2.4-2.4-38.4 8.1-31.6 6-0.5-6.5 1.6-1.2 1.3-1.1 1-1.6 1.8-1.1 1.9-1.8 0.5-1.6 2.1-2.7 1.1-1-0.2-1-1.3-3.1-1.8-0.2-1.9-6.1 2.9-1.8 4.4-1.5 4-1.3 3.2-0.5 6.3-0.2 1.9 1.3 1.6 0.2 2.1-1.3 2.6-1.1 5.2-0.5 2.1-1.8 1.8-3.2 1.6-1.9h2.1l1.9-1.1 0.2-2.3-1.5-2.1-0.3-1.5 1.1-2.1v-1.5h-1.8l-1.8-0.8-0.8-1.1-0.2-2.6 5.8-5.5 0.6-0.8 1.5-2.9 2.9-4.5 2.7-3.7 2.1-2.4 2.4-1.8 3.1-1.2 5.5-1.3 3.2 0.2 4.5-1.5 7.4-2.2 0.7 4.9 2.4 6.5 0.8 5-1 4.2 2.6 4.5 0.8 2-0.9 3.2 3.7 1.7 2.7 10.2v5.8l-0.6 10.9 0.8 5.4 0.7 3.6 1.5 7.3v8.1l-1.1 2.3 2.1 2.7 0.5 0.9-1.9 1.8 0.3 1.3 1.3-0.3 1.5-1.3 2.3-2.6 1.1-0.6 1.6 0.6 2.3 0.2 7.9-3.9 2.9-2.7 1.3-1.5 4.2 1.6-3.4 3.6-3.9 2.9-7.1 5.3-2.6 1-5.8 1.9-4 1.1-1-0.4z"/>
   <path id="OH" d="m663.8 211.2 1.7 15.5 4.8 41.1 3.9-0.2 2.3-0.8 3.6 1.8 1.7 4.2 5.4 0.1 1.8 2h1.7l2.4-1.4 3.1 0.5 1.5 1.3 1.8-2 2.3-1.4 2.4-0.4 0.6 2.7 1.6 1 2.6 2 0.8 0.2 2-0.1 1.2-0.6v-2.1l1.7-1.5 0.1-4.8 1.1-4.2 1.9-1.3 1 0.7 1 1.1 0.7 0.2 0.4-0.4-0.9-2.7v-2.2l1.1-1.4 2.5-3.6 1.3-1.5 2.2 0.5 2.1-1.5 3-3.3 2.2-3.7 0.2-5.4 0.5-5v-4.6l-1.2-3.2 1.2-1.8 1.3-1.2-0.6-2.8-4.3-25.6-6.2 3.7-3.9 2.3-3.4 3.7-4 3.9-3.2 0.8-2.9 0.5-5.5 2.6-2.1 0.2-3.4-3.1-5.2 0.6-2.6-1.5-2.2-1.3z"/>
   <path id="OK" d="m411.9 334.9-1.8 24.3-0.9 18 0.2 1.6 4 3.6 1.7 0.9h0.9l0.9-2.1 1.5 1.9 1.6 0.1 0.3-0.2 0.2-1.1 2.8 1.4-0.4 3.5 3.8 0.5 2.5 1 4.2 0.6 2.3 1.6 2.5-1.7 3.5 0.7 2.2 3.1 1.2 0.1v2.3l2.1 0.7 2.5-2.1 1.8 0.6 2.7 0.1 0.7 2.3 4.4 1.8 1.7-0.3 1.9-4.2h1.3l1.1 2.1 4.2 0.8 3.4 1.3 3 0.8 1.6-0.7 0.7-2.7h4.5l1.9 0.9 2.7-1.9h1.4l0.6 1.4h3.6l2-1.8 2.3 0.6 1.7 2.2 3 1.7 3.4 0.9 1.9 1.2-0.3-37.6-1.4-10.9-0.1-8.6-1.5-6.6-0.6-6.8 0.1-4.3-12.6 0.3-46.3-0.5-44.7-2.1-41.5-1.8-0.4 10.7z"/>
   <path id="OR" d="m67.44 158.9 28.24 7.2 27.52 6.5 17 3.7 8.8-35.1 1.2-4.4 2.4-5.5-0.7-1.3-2.5 0.1-1.3-1.8 0.6-1.5 0.4-3.3 4.7-5.7 1.9-0.9 0.9-0.8 0.7-2.7 0.8-1.1 3.9-5.7 3.7-4 0.2-3.26-3.4-2.49-1.2-4.55-13.1-3.83-15.3-3.47-14.8 0.37-1.1-1.31-5.1 1.84-4.5-0.48-2.4-1.58-1.3 0.54-4.68-0.29-1.96-1.43-4.84-1.77-1.1-0.07-4.45-1.27-1.76 1.52-6.26-0.24-5.31-3.85 0.21-9.28-2.05-3.5-4.1-0.6-0.7-2.5-2.4-0.5-5.8 2.1-2.3 6.5-3.2 10-3.2 6.5-5 14.1-6.5 13.6-8.1 12.6-1.9 2.9-0.8 8.6-1.3 6 2.71 3.5z"/>
   <path id="PA" d="m736.6 192.2 1.3-0.5 5.7-5.5 0.7 6.9 33.5-6.5 36.9-7.8 2.3 2.3 3.1 0.4 2 5.6 2.4 1.9 2.8 0.4 0.1 0.1-2.6 3.2v3.1l-1.9 3.1-0.2 1.9 1.3 1.3-0.2 1.9-2.4 1.1 1 3.4 0.2 1.1 2.8 0.3 0.9 2.5 5.9 3.9v0.4l-3.1 3-1.5 2.2-1.7 2.8-2.7 1.2-1.4 0.3-2.1 1.3-1.6 1.4-22.4 4.3-38.7 7.8-11.3 1.4-3.9 0.7-5.1-22.4-4.3-25.9z"/>
   <path id="RI" d="m873.6 175.7-0.8-4.4-1.6-6 5.7-1.5 1.5 1.3 3.4 4.3 2.8 4.4-2.8 1.4-1.3-0.2-1.1 1.8-2.4 1.9-2.8 1.1z"/>
   <path id="SC" d="m759 413.6-2.1-1-1.9-5.6-2.5-2.3-2.5-0.5-1.5-4.6-3-6.5-4.2-1.8-1.9-1.8-1.2-2.6-2.4-2-2.3-1.3-2.2-2.9-3.2-2.4-4.4-1.7-0.4-1.4-2.3-2.8-0.5-1.5-3.8-5.4-3.4 0.1-3.9-2.5-1.2-1.2-0.2-1.4 0.6-1.6 2.7-1.3-0.8-2 6.4-2.7 9.2-4.5 7.1-0.9 16.4-0.5 2.3 1.9 1.8 3.5 4.6-0.8 12.6-1.5 2.7 0.8 12.5 7.4 10.1 8.3-5.3 5.4-2.6 6.1-0.5 6.3-1.6 0.8-1.1 2.7-2.4 0.6-2.1 3.6-2.7 2.7-2.3 3.4-1.6 0.8-3.6 3.4-2.9 0.2 1 3.2-5 5.3-2.3 1.6z"/>
   <path id="SD" d="m471 181.1-0.9 3.2 0.4 3 2.6 2-1.2 5.4-1.76165 4.29174-1.35871 0.13303-2.379-1.225-4.8-1.5-2.5-1.3-2.9 0.1-3.9 0.4-3.8 1.2-5.3-3.8-2.7-2.4-10.9 0.8-41.5-2.4-35.6-2.2 1.5-24.8 2.8-34 0.4-5 56.9 3.9 56.9 1.7v2.7l-1.3 1.5-2 1.5-0.1 2.2 1.1 2.2 4.1 3.4 0.5 2.7v35.9z"/>
   <path id="TN" d="m670.8 359.6-13.1 1.2-23.3 2.2-37.6 2.7-11.8 0.4 0.9-0.6 0.9-4.5-1.2-3.6 3.9-2.3 0.4-2.5 1.2-4.3 3-9.5 0.5-5.6 0.3-0.2 12.3-0.2 13.6-0.8 0.1-3.9 3.5-0.1 30.4-3.3 54-5.2 10.3-1.5 7.6-0.2 2.4-1.9 1.3 0.3-0.1 3.3-0.4 1.6-2.4 2.2-1.6 3.6-2-0.4-2.4 0.9-2.2 3.3-1.4-0.2-0.8-1.2-1.1 0.4-4.3 4-0.8 3.1-4.2 2.2-4.3 3.6-3.8 1.5-4.4 2.8-0.6 3.6-2.5 0.5-2 1.7-0.2 4.8z"/>
   <path id="TX" d="m282.8 425.6 37 3.6 29.3 1.9 7.4-97.7 54.4 2.4-1.7 23.3-1 18 0.2 2 4.4 4.1 2 1.1h1.8l0.5-1.2 0.7 0.9 2.4 0.2 1.1-0.6v-0.2l1 0.5-0.4 3.7 4.5 0.7 2.4 0.9 4.2 0.7 2.6 1.8 2.8-1.9 2.7 0.6 2.2 3.1 0.8 0.1v2.1l3.3 1.1 2.5-2.1 1.5 0.5 2.1 0.1 0.6 2.1 5.2 2 2.3-0.5 1.9-4h0.1l1.1 1.9 4.6 0.9 3.4 1.3 3.2 1 2.4-1.2 0.7-2.3h3.6l2.1 1 3-2h0.4l0.5 1.4h4.7l1.9-1.8 1.3 0.4 1.7 2.1 3.3 1.9 3.4 1 2.5 1.4 2.7 2 3.1-1.2 2.1 0.8 0.7 20 0.7 9.5 0.6 4.1 2.6 4.4 0.9 4.5 4.2 5.9 0.3 3.1 0.6 0.8-0.7 7.7-2.9 4.8 1.3 2.6-0.5 2.4-0.8 7.2-1.3 3 0.3 4.2-5.6 1.6-9.9 4.5-1 1.9-2.6 1.9-2.1 1.5-1.3 0.8-5.7 5.3-2.7 2.1-5.3 3.2-5.7 2.4-6.3 3.4-1.8 1.5-5.8 3.6-3.4 0.6-3.9 5.5-4 0.3-1 1.9 2.3 1.9-1.5 5.5-1.3 4.5-1.1 3.9-0.8 4.5 0.8 2.4 1.8 7 1 6.1 1.8 2.7-1 1.5-3.1 1.9-5.7-3.9-5.5-1.1-1.3 0.5-3.2-0.6-4.2-3.1-5.2-1.1-7.6-3.4-2.1-3.9-1.3-6.5-3.2-1.9-0.6-2.3 0.6-0.6 0.3-3.4-1.3-0.6-0.6-1 1.3-4.4-1.6-2.3-3.2-1.3-3.4-4.4-3.6-6.6-4.2-2.6 0.2-1.9-5.3-12.3-0.8-4.2-1.8-1.9-0.2-1.5-6-5.3-2.6-3.1v-1.1l-2.6-2.1-6.8-1.1-7.4-0.6-3.1-2.3-4.5 1.8-3.6 1.5-2.3 3.2-1 3.7-4.4 6.1-2.4 2.4-2.6-1-1.8-1.1-1.9-0.6-3.9-2.3v-0.6l-1.8-1.9-5.2-2.1-7.4-7.8-2.3-4.7v-8.1l-3.2-6.5-0.5-2.7-1.6-1-1.1-2.1-5-2.1-1.3-1.6-7.1-7.9-1.3-3.2-4.7-2.3-1.5-4.4-2.6-2.9-1.7-0.5zm174.4 141.7-0.6-7.1-2.7-7.2-0.6-7 1.5-8.2 3.3-6.9 3.5-5.4 3.2-3.6 0.6 0.2-4.8 6.6-4.4 6.5-2 6.6-0.3 5.2 0.9 6.1 2.6 7.2 0.5 5.2 0.2 1.5z"/>
   <path id="UT" d="m228.4 305.9 24.6 3.6 1.9-13.7 7-50.5 2.3-22-32.2-3.5 2.2-13.1 1.8-10.6-34.7-6.1-12.5-2.5-10.6 52.9-5.4 30-3.3 15.4-1.7 9.2z"/>
   <path id="VA" d="m834.7 265.2-0.2 2.8-2.9 3.8-0.4 4.6 0.5 3.4-1.8 5-2.2 1.9-1.5-4.6 0.4-5.4 1.6-4.2 0.7-3.3-0.1-1.7zm-60.3 44.6-38.6 5.6-4.8-0.1-2.2-0.3-2.5 1.9-7.3 0.1-10.3 1.6-6.7 0.6 4.1-2.6 4.1-2.3v-2.1l5.7-7.3 4.1-3.7 2.2-2.5 3.6 4.3 3.8 0.9 2.7-1 2-1.5 2.4 1.2 4.6-1.3 1.7-4.4 2.4 0.7 3.2-2.3 1.6 0.4 2.8-3.2 0.2-2.7-0.8-1.2 4.8-10.5 1.8-5.2 0.5-4.7 0.7-0.2 1.1 1.7 1.5 1.2 3.9-0.2 1.7-8.1 3-0.6 0.8-2.6 2.8-2.2 1.1-2.1 1.8-4.3 0.1-4.6 3.6 1.4 6.6 3.1 0.3-5.2 3.4 1.2-0.6 2.9 8.6 3.1 1.4 1.8-0.8 3.3-1.3 1.3-0.5 1.7 0.5 2.4 2 1.3 3.9 1.4 2.9 1 4.9 0.9 2.2 2.1 3.2 0.4 0.9 1.2-0.4 4.7 1.4 1.1-0.5 1.9 1.2 0.8-0.2 1.4-2.7-0.1 0.1 1.6 2.3 1.5 0.1 1.4 1.8 1.8 0.5 2.5-2.6 1.4 1.6 1.5 5.8-1.7 3.7 6.2z"/>
   <path id="VT" d="m832.7 111.3 2.4 6.5 0.8 5.3-1 3.9 2.5 4.4 0.9 2.3-0.7 2.6 3.3 1.5 2.9 10.8v5.3l11.5-2.1-1-1.1 0.6-1.9 0.2-4.3-1-1.4 0.2-4.7 0.8-9.3v-8.5l-1.1-1.8v-1.6l2.8-1.1 3.5-4.4v-3.6l-1.9-2.7-0.3-5.79-26.1 6.79z"/>
   <path id="WA" d="m74.5 67.7-2.3-4.3-4.1-0.7-0.4-2.4-2.5-0.6-2.9-0.5-1.8 1-2.3-2.9 0.3-2.9 2.7-0.3 1.6-4-2.6-1.1 0.2-3.7 4.4-0.6-2.7-2.7-1.5-7.1 0.6-2.9v-7.9l-1.8-3.2 2.3-9.4 2.1 0.5 2.4 2.9 2.7 2.6 3.2 1.9 4.5 2.1 3.1 0.6 2.9 1.5 3.4 1 2.3-0.2v-2.4l1.3-1.1 2.1-1.3 0.3 1.1 0.3 1.8-2.3 0.5-0.3 2.1 1.8 1.5 1.1 2.4 0.6 1.9 1.5-0.2 0.2-1.3-1-1.3-0.5-3.2 0.8-1.8-0.6-1.5v-2.6l1.8-3.6-1.1-2.6-2.4-4.8 0.3-0.8 1.4-0.8 4.4 1.5 9.7 2.7 8.6 1.9 20 5.7 23 5.7 15 3.49-4.8 17.56-4.5 20.83-3.4 16.25-0.4 9.18-12.9-3.72-15.3-3.47-14.5 0.32-1.1-1.53-5.7 2.09-3.9-0.42-2.6-1.79-1.7 0.65-4.15-0.25-1.72-1.32-5.16-1.82-1.18-0.16-4.8-1.39-1.92 1.65-5.65-0.25-4.61-3.35zm9.6-55.4 2-0.2 0.5 1.4 1.5-1.6h2.3l0.8 1.5-1.5 1.7 0.6 0.8-0.7 2-1.4 0.4s-0.9 0.1-0.9-0.2 1.5-2.6 1.5-2.6l-1.7-0.6-0.3 1.5-0.7 0.6-1.5-2.3z"/>
   <path id="WI" d="m541.4 109.9 2.9 0.5 2.9-0.6 7.4-3.2 2.9-1.9 2.1-0.8 1.9 1.5-1.1 1.1-1.9 3.1-0.6 1.9 1 0.6 1.8-1 1.1-0.2 2.7 0.8 0.6 1.1 1.1 0.2 0.6-1.1 4 5.3 8.2 1.2 8.2 2.2 2.6 1.1 12.3 2.6 1.6 2.3 3.6 1.2 1.7 10.2 1.6 1.4 1.5 0.9-1.1 2.3-1.8 1.6-2.1 4.7-1.3 2.4 0.2 1.8 1.5 0.3 1.1-1.9 1.5-0.8 0.8-2.3 1.9-1.8 2.7-4 4.2-6.3 0.8-0.5 0.3 1-0.2 2.3-2.9 6.8-2.7 5.7-0.5 3.2-0.6 2.6 0.8 1.3-0.2 2.7-1.9 2.4-0.5 1.8 0.6 3.6 0.6 3.4-1.5 2.6-0.8 2.9-1 3.1 1.1 2.4 0.6 6.1 1.6 4.5-0.2 3-15.9 1.8-17.5 1h-12.7l-0.7-1.5-2.9-0.4-2.6-1.3-2.3-3.7-0.3-3.6 2-2.9-0.5-1.4-2.1-2.2-0.8-3.3-0.6-6.8-2.1-2.5-7-4.5-3.8-5.4-3.4-1-2.2-2.8h-3.2l-2.9-3.3-0.5-6.5 0.1-3.8 1.5-3.1-0.8-3.2-2.5-2.8 1.8-5.4 5.2-3.8 1.6-1.9-0.2-8.1 0.2-2.8 2.4-2.8z"/>
   <path id="WV" d="m758.9 254.3 5.8-6 2.6-0.8 1.6-1.5 1.5-2.2 1.1 0.3 3.1-0.2 4.6-3.6 1.5-0.5 1.3 1 2.6 1.2 3 3-0.4 4.3-5.4-2.6-4.8-1.8-0.1 5.9-2.6 5.7-2.9 2.4-0.8 2.3-3 0.5-1.7 8.1-2.8 0.2-1.1-1-1.2-2-2.2 0.5-0.5 5.1-1.8 5.1-5 11 0.9 1.4-0.1 2-2.2 2.5-1.6-0.4-3.1 2.3-2.8-0.8-1.8 4.9-3.8 1-2.5-1.3-2.5 1.9-2.3 0.7-3.2-0.8-3.8-4.5-3.5-2.2-2.5-2.5-2.9-3.7-0.5-2.3-2.8-1.7-0.6-1.3-0.2-5.6 0.3 0.1 2.4-0.2 1.8-1v-2.2l1.7-1.5 0.1-5.2 0.9-3.6 1.1-0.7 0.4 0.3 1 1.1 1.7 0.5 1.1-1.3-1-3.1v-1.6l3.1-4.6 1.2-1.3 2 0.5 2.6-1.8 3.1-3.4 2.4-4.1 0.2-5.6 0.5-4.8v-4.9l-1.1-3 0.9-1.3 0.8-0.7 4.3 19.3 4.3-0.8 11.2-1.3z"/>
   <path id="WY" d="m353 161.9-1.5 25.4-4.4 44-2.7-0.3-83.3-9.1-27.9-3 2-12 6.9-41 3.8-24.2 1.3-11.2 48.2 7 59.1 6.5z"/>
   <!-- <rect (.+?)/> -->
   <rect id="DC" x="869" y="424.4" width="53" height="20" rx="3" ry="3"/>
   <rect id="MD-button" x="869" y="399.4" width="53" height="20" rx="3" ry="3"/>
   <rect id="DE-button" x="869" y="374.4" width="53" height="20" rx="3" ry="3"/>
   <rect id="NJ-button" x="869" y="349.4" width="53" height="20" rx="3" ry="3"/>
   <rect id="CT-button" x="869" y="324.4" width="53" height="20" rx="3" ry="3"/>
   <rect id="RI-button" x="869" y="299.4" width="53" height="20" rx="3" ry="3"/>
   <rect id="MA-button" x="869" y="274.4" width="53" height="20" rx="3" ry="3"/>
   <rect id="VT-button" x="869" y="249.4" width="53" height="20" rx="3" ry="3"/>
   <rect id="NH-button" x="869" y="224.4" width="53" height="20" rx="3" ry="3"/>
   <rect id="HI-button" x="250" y="553" width="50" height="20" rx="3" ry="3"/>
   <path id="ME-AL" d="m891.5 36.9004-1.80078 1.79883-4 2.90039v1l-0.79883 0.800782-2.70117-0.59961-1.29883-2.30078v-1.09961l-1.30078-0.201172h-1.29883l-2.10156 4.20117-2.89844 8.90039-1.80078 4.79883 0.19922 4.80078 0.20117 1.5-0.80078 2.69922-0.79883 1v6l1.89844 2.40039-1.5 4-2.59961 4.69922-0.79883 5.5v2.60156l-1.5-0.40039-1.30078 0.169921 9.55078 30.5586-0.0117 0.0742 0.84766 2.34961 1.31055 4.45118 0.20117 2.5 4 1.09961 0.5 3.0996 2.19922 0.9004 1.09961-6.29883 0.20117-4.40039 1.5-1.30078-1-3.19922 3.09961-3.59961 1.59961 1.5 1.30078-0.5 5.29883-3.10157 0.30078-2.89843 2.90039-0.5 1.59961-2.60157-0.19922-1.5996-6e-3 -2e-3 -0.12109-1.06445 0.0156 4e-3 -0.18736-2.04106 0.80078-1.30078-0.30078-1.09961-1.30078-1.5 2.10156-1.29883 1.79883 3.19922 1.5-0.30078 0.30078 1.30078v1.59961l1.90039 0.20117 0.5-2.70117 0.5-0.59961-1.60156-1.5 1-1.5 2.40039-1.5 1-1.5 1.80078-0.199219s0.4 2.09961 1 2.09961h1.29883l4.80078-5.5 3.40039-3.09961 1.90039-0.601562 2.09961-4.69922v-1.90039l-2.30078-3.69922-1.90039-2.09961-2.79883 0.5 0.5 1.09961-0.20117 0.5h-0.79883l-2.90039-2.30078-0.19922-4.79883-0.80078-1.90039h-6l-9.09961-29.9004-1.90039-1-6-2.40039zm20.9004 61.7988-2 0.701172-1.40039 2.19922 1.80078 1.90039s1.29883 0.10078 1.29883-0.19922 0.20117-2 0.20117-2l0.89844-0.80078zm-8.59961 7.30078-1.5 1.5 1.79883 2.90039 1.70117-0.90039-0.60156-2.40039z"/>
   <path id="NE-AL" d="m352.4 187.699-4.30078 43.7012 33.0508 3.29883c0.0248-0.022 0.0664 0 0.0996 0l-1.44922 21.1016 21.6992 1 10.1504 0.29883 7.29883 0.25c0-6e-3 -1e-5 -0.0117 0-0.0176l0.10156 6e-3v0.0117l0.44727 0.0117 0.20703 0.0117 2e-3 -6e-3 12.2422 0.33203 10.1504 0.30078 5.47461 0.0742 0.77539 0.0137v-0.0508h0.0996v0.0508l10.0762 0.13672 5.47461 0.0762 10.9492 0.1484 5.47656 0.0762 5.47461 0.0742h4.5l-2.20117-3-2.59961-3.90039 0.0996-2.29883-0.13477-0.26172 4e-3 -2e-3 -0.19336-0.36328-0.11719-0.22461h-4e-3l-0.56641-1.06055-0.0273-0.0352 0.0293-4e-3 -0.38867-0.75-1.90039-5.19922-0.47656-5.62891 2e-3 -0.53906-0.0742-0.30859-6e-3 -0.0684-0.01 4e-3 -0.91602-3.80468-0.38867-1.87891-0.26758-1.66406 0.0274 2e-3 -0.19141-1.91601-2.29883-3.69922-1-4.69922-2.80078-7.90039-0.42773-2.27149-0.0469 8e-3 -0.19141-0.95508h0.0586l-0.35352-3-2.24023-2.94336-1.65235 0.0488-3.24609-1.48438-4.80078-1.5-2.19922-1.20117-2.59961 0.0996-3.70117 0.40039-4.10742 1.18945-0.19141-0.0215-5.90039-4.06836-2.20117-2-10.6992 0.60156-9.25977-0.5332-2e-3 -0.01-0.43359-0.0156-0.75391-0.043v0.0176l-0.10156-4e-3c-9e-5 -5e-3 9e-5 -9e-3 0-0.0137l-10.199-0.59924-10.375-0.59961-17.125-1.07812c-9.26045-0.23488-19.3016-1.11524-28.8496-1.72266z"/>
  </g>
  <g id="text" style="font-size: 16px; stroke-width: 0px; font-weight: bold; fill: white; text-align: center; cursor: pointer; pointer-events: none; user-select: none; -webkit-user-select: none;">
   <text id="NY-text" x="818.16394" y="153.05663" text-anchor="middle"><tspan id="tspan73" x="818.16394" y="153.05663">NY</tspan><tspan id="tspan75" x="818.16394" y="168.05663">29</tspan></text>
   <text id="PA-text" x="782.07806" y="209.66608" text-anchor="middle"><tspan id="tspan78" x="782.07806" y="209.66608">PA</tspan><tspan id="tspan80" x="782.07806" y="224.66608">20</tspan></text>
   <text id="OH-text" x="698.93951" y="240.423" text-anchor="middle"><tspan id="tspan83" x="698.93951" y="240.423">OH</tspan><tspan id="tspan85" x="698.93951" y="255.423">18</tspan></text>
   <text id="VA-text" x="787.45361" y="282.26245" text-anchor="middle"><tspan id="tspan88" x="787.45361" y="282.26245">VA</tspan><tspan id="tspan90" x="787.45361" y="297.26245">13</tspan></text>
   <text id="NC-text" x="788.30316" y="332.69342" xml:space="preserve" text-anchor="middle"><tspan id="tspan93" x="788.30316" y="332.69342">NC</tspan><tspan id="tspan95" x="788.30316" y="347.69342">15</tspan></text>
   <text id="SC-text" x="760.30951" y="377.11313" text-anchor="middle"><tspan id="tspan98" x="760.30951" y="377.11313">SC</tspan><tspan id="tspan100" x="760.30951" y="392.11313">9</tspan></text>
   <text id="GA-text" x="715.9754" y="409.59967" text-anchor="middle"><tspan id="tspan103" x="715.9754" y="409.59967">GA</tspan><tspan id="tspan105" x="715.9754" y="424.59967">16</tspan></text>
   <text id="FL-text" x="763.95477" y="501.80151" text-anchor="middle"><tspan id="tspan108" x="763.95477" y="501.80151">FL</tspan><tspan id="tspan110" x="763.95477" y="516.80151">29</tspan></text>
   <text id="AL-text" x="653.29108" y="413.86169" text-anchor="middle"><tspan id="tspan8988-2-7" x="653.29108" y="413.86169">AL</tspan><tspan id="tspan316" x="653.29108" y="428.86169">9</tspan></text>
   <text id="MS-text" x="599.49976" y="417.56348" xml:space="preserve" text-anchor="middle"><tspan id="tspan8988-2-9" x="599.49976" y="417.56348">MS</tspan><tspan id="tspan314" x="599.49976" y="432.56348">6</tspan></text>
   <text id="LA-text" x="543.47321" y="442.68225" xml:space="preserve" text-anchor="middle"><tspan id="tspan8988-2-2" x="543.47321" y="442.68225">LA</tspan><tspan id="tspan312" x="543.47321" y="457.68225">8</tspan></text>
   <text id="TX-text" x="425.24323" y="451.78485" xml:space="preserve" text-anchor="middle"><tspan id="tspan8988-2-97" x="425.24323" y="451.78485">TX</tspan><tspan id="tspan308" x="425.24323" y="466.78485">38</tspan></text>
   <text id="NM-text" x="300.51709" y="374.96732" xml:space="preserve" text-anchor="middle"><tspan id="tspan8988-2-6" x="300.51709" y="374.96732">NM</tspan><tspan id="tspan298" x="300.51709" y="389.96732">5</tspan></text>
   <text id="AZ-text" x="201.45459" y="359.95444" xml:space="preserve" text-anchor="middle"><tspan id="tspan8988-2-29" x="201.45459" y="359.95444">AZ</tspan><tspan id="tspan296" x="201.45459" y="374.95444">11</tspan></text>
   <text id="CA-text" x="71.765541" y="286.508" xml:space="preserve" text-anchor="middle"><tspan id="tspan8988-2-1" x="71.765541" y="286.508">CA</tspan><tspan id="tspan294" x="71.765541" y="301.508">55</tspan></text>
   <text id="NV-text" x="134.24072" y="236.30057" xml:space="preserve" text-anchor="middle"><tspan id="tspan8988-2-4" x="134.24072" y="236.30057">NV</tspan><tspan id="tspan292" x="134.24072" y="251.30057">6</tspan></text>
   <text id="UT-text" x="217.71013" y="260.61462" xml:space="preserve" text-anchor="middle"><tspan id="tspan8988-2-8" x="217.71013" y="260.61462">UT</tspan><tspan id="tspan358" x="217.71013" y="275.61462">6</tspan></text>
   <text id="AK-text" x="118.62477" y="498.93817" xml:space="preserve" text-anchor="middle"><tspan id="tspan8988-2-5" x="118.62477" y="498.93817">AK</tspan><tspan id="tspan310" x="118.62477" y="513.93817">3</tspan></text>
   <text id="OR-text" x="92.813881" y="128.97232" xml:space="preserve" text-anchor="middle"><tspan id="tspan8988-2-3" x="92.813881" y="128.97232">OR</tspan><tspan id="tspan286" x="92.813881" y="143.97232">7</tspan></text>
   <text id="WA-text" x="114.88856" y="50.403862" xml:space="preserve" text-anchor="middle"><tspan id="tspan8988-2-10" x="114.88856" y="50.403862">WA</tspan><tspan id="tspan284" x="114.88856" y="65.403862">12</tspan></text>
   <text id="ID-text" x="187.10637" y="151.13513" xml:space="preserve" text-anchor="middle"><tspan id="tspan8988-2-32" x="187.10637" y="151.13513">ID</tspan><tspan id="tspan288" x="187.10637" y="166.13513">4</tspan></text>
   <text id="MT-text" x="267.15582" y="88.959305" xml:space="preserve" text-anchor="middle"><tspan id="tspan8988-2-61" x="267.15582" y="88.959305">MT</tspan><tspan id="tspan282" x="267.15582" y="103.9593">3</tspan></text>
   <text id="WY-text" x="298.88071" y="184.20738" xml:space="preserve" text-anchor="middle"><tspan id="tspan4124" x="298.88071" y="184.20738">WY</tspan><tspan id="tspan290" x="298.88071" y="199.20738">3</tspan></text>
   <text id="CO-text" x="317.33667" y="277.56671" xml:space="preserve" text-anchor="middle"><tspan id="tspan8988-2-65" x="317.33667" y="277.56671">CO</tspan><tspan id="tspan300" x="317.33667" y="292.56671">9</tspan></text>
   <text id="ND-text" x="414.06073" y="96.523651" xml:space="preserve" text-anchor="middle"><tspan id="tspan8988-2-93" x="414.06073" y="96.523651">ND</tspan><tspan id="tspan280" x="414.06073" y="111.52365">3</tspan></text>
   <text id="SD-text" x="413.7551" y="160.07703" xml:space="preserve" text-anchor="middle"><tspan id="tspan8988-2-45" x="413.7551" y="160.07703">SD</tspan><tspan id="tspan354" x="413.7551" y="175.07703">3</tspan></text>
   <text id="NE-text" x="414.57352" y="228.39598" xml:space="preserve" text-anchor="middle"><tspan id="tspan8988-2-47" x="414.57352" y="228.39598">NE</tspan><tspan id="tspan304" x="414.57352" y="243.39598">5</tspan></text>
   <text id="KS-text" x="440.67682" y="292.60141" xml:space="preserve" text-anchor="middle"><tspan id="tspan8988-2-43" x="440.67682" y="292.60141">KS</tspan><tspan id="tspan302" x="440.67682" y="307.60141">6</tspan></text>
   <text id="OK-text" x="457.82797" y="358.8862" xml:space="preserve" text-anchor="middle"><tspan id="tspan8988-2-78" x="457.82797" y="358.8862">OK</tspan><tspan id="tspan306" x="457.82797" y="373.8862">7</tspan></text>
   <text id="AR-text" x="542.90167" y="374.47449" xml:space="preserve" text-anchor="middle"><tspan id="tspan8988-2-88" x="542.90167" y="374.47449">AR</tspan><tspan id="tspan344" x="542.90167" y="389.47449">6</tspan></text>
   <text id="MO-text" x="542.75464" y="296.88016" xml:space="preserve" text-anchor="middle"><tspan id="tspan8988-2-31" x="542.75464" y="296.88016">MO</tspan><tspan id="tspan342" x="542.75464" y="311.88016">10</tspan></text>
   <text id="IA-text" x="524.0625" y="215.34053" xml:space="preserve" text-anchor="middle"><tspan id="tspan8988-2-92" x="524.0625" y="215.34053">IA</tspan><tspan id="tspan340" x="524.0625" y="230.34053">6</tspan></text>
   <text id="MN-text" x="504.05328" y="126.9517" xml:space="preserve" text-anchor="middle"><tspan id="tspan8988-2-68" x="504.05328" y="126.9517">MN</tspan><tspan id="tspan278" x="504.05328" y="141.95169">10</tspan></text>
   <text id="WI-text" x="578.27698" y="161.49774" xml:space="preserve" text-anchor="middle"><tspan id="tspan8988-2-26" x="578.27698" y="161.49774">WI</tspan><tspan id="tspan276" x="578.27698" y="176.49774">10</tspan></text>
   <text id="IL-text" x="596.22632" y="256.01404" xml:space="preserve" text-anchor="middle"><tspan id="tspan8988-2-49" x="596.22632" y="256.01404">IL</tspan><tspan id="tspan338" x="596.22632" y="271.01401">20</tspan></text>
   <text id="IN-text" x="643.55707" y="250.16469" xml:space="preserve" text-anchor="middle"><tspan id="tspan8988-2-0" x="643.55707" y="250.16469">IN</tspan><tspan id="tspan332" x="643.55707" y="265.16467">11</tspan></text>
   <text id="KY-text" x="681.9621" y="298.74237" xml:space="preserve" text-anchor="middle"><tspan id="tspan8988-2-87" x="681.9621" y="298.74237">KY</tspan><tspan id="tspan334" x="681.9621" y="313.74237">8</tspan></text>
   <text id="TN-text" x="648.97949" y="342.21976" xml:space="preserve" text-anchor="middle"><tspan id="tspan8988-2-72" x="648.97949" y="342.21976">TN</tspan><tspan id="tspan336" x="648.97949" y="357.21976">11</tspan></text>
   <text id="MI-text" x="658.43652" y="182.30766" xml:space="preserve" text-anchor="middle"><tspan id="tspan8988-2-22" x="658.43652" y="182.30766">MI</tspan><tspan id="tspan346" x="658.43652" y="197.30766">16</tspan></text>
   <text id="WV-text" x="741.71716" y="273.22974" xml:space="preserve" text-anchor="middle"><tspan id="tspan8988-2-106" x="741.71716" y="273.22974">WV</tspan><tspan id="tspan328" x="741.71716" y="288.22974">5</tspan></text>
   <text id="ME-text" x="891.76605" y="77.755493" xml:space="preserve" text-anchor="middle"><tspan id="tspan8988-2-59-0-7-1-7-7-5-9-9" x="891.76605" y="77.755493">ME</tspan><tspan id="tspan352" x="891.76605" y="92.755493">4</tspan></text>
   <text id="DC-text" x="894.5271" y="440.31741" xml:space="preserve" text-anchor="middle"><tspan id="tspan8988-2-59" x="894.5271" y="440.31741">DC 3</tspan></text>
   <text id="MD-text" x="896.20734" y="415.54175" xml:space="preserve" text-anchor="middle"><tspan id="tspan8988-2-59-0" x="896.20734" y="415.54175">MD 10</tspan></text>
   <text id="DE-text" x="893.83398" y="391.00787" xml:space="preserve" text-anchor="middle"><tspan id="tspan8988-2-59-0-7" x="893.83398" y="391.00787">DE 3</tspan></text>
   <text id="NJ-text" x="894.80182" y="365.79587" xml:space="preserve" text-anchor="middle"><tspan id="tspan8988-2-59-0-7-1" x="894.80182" y="365.79587">NJ 14</tspan></text>
   <text id="CT-text" x="894.0694" y="341.00787" xml:space="preserve" text-anchor="middle"><tspan id="tspan8988-2-59-0-7-1-7" x="894.0694" y="341.00787">CT 7</tspan></text>
   <text id="RI-text" x="894.53833" y="316.62143" xml:space="preserve" text-anchor="middle"><tspan id="tspan8988-2-59-0-7-1-7-7" x="894.53833" y="316.62143">RI 4</tspan></text>
   <text id="MA-text" x="895.48035" y="290.87396" xml:space="preserve" text-anchor="middle"><tspan id="tspan8988-2-59-0-7-1-7-7-5" x="895.48035" y="290.87396">MA 11</tspan></text>
   <text id="VT-text" x="894.61737" y="266.16125" xml:space="preserve" text-anchor="middle"><tspan id="tspan8988-2-59-0-7-1-7-7-5-9" x="894.61737" y="266.16125">VT 3</tspan></text>
   <text id="NH-text" x="894.72394" y="241.00783" xml:space="preserve" text-anchor="middle"><tspan id="tspan8988-2-59-0-7-1-7-7-5-9-1" x="894.72394" y="241.00783">NH 4</tspan></text>
   <text id="HI-text" x="275.63611" y="569.52155" xml:space="preserve" text-anchor="middle"><tspan id="tspan8988-2-59-0-0" x="275.63611" y="569.52155">HI 4</tspan></text>
  </g>
</svg>
